G04 MADE WITH FRITZING*
G04 WWW.FRITZING.ORG*
G04 DOUBLE SIDED*
G04 HOLES PLATED*
G04 CONTOUR ON CENTER OF CONTOUR VECTOR*
%ASAXBY*%
%FSLAX23Y23*%
%MOIN*%
%OFA0B0*%
%SFA1.0B1.0*%
%ADD10C,0.074000*%
%ADD11C,0.078000*%
%ADD12C,0.075000*%
%ADD13C,0.099000*%
%ADD14C,0.062992*%
%ADD15C,0.067559*%
%ADD16C,0.079370*%
%ADD17R,0.075000X0.075000*%
%ADD18R,0.062992X0.062992*%
%ADD19C,0.008000*%
%ADD20C,0.029000*%
%LNCOPPER1*%
G90*
G70*
G54D10*
X670Y344D03*
X563Y344D03*
X456Y344D03*
X670Y344D03*
X563Y344D03*
X456Y344D03*
G54D11*
X740Y580D03*
X740Y781D03*
X740Y680D03*
G54D12*
X552Y860D03*
X252Y860D03*
X552Y760D03*
X252Y760D03*
X552Y660D03*
X252Y660D03*
X552Y560D03*
X252Y560D03*
X552Y860D03*
X252Y860D03*
X552Y760D03*
X252Y760D03*
X552Y660D03*
X252Y660D03*
X552Y560D03*
X252Y560D03*
G54D13*
X267Y250D03*
X67Y250D03*
X167Y450D03*
G54D12*
X118Y651D03*
X118Y751D03*
X118Y651D03*
X118Y751D03*
X496Y1026D03*
X396Y1026D03*
X496Y1026D03*
X396Y1026D03*
X158Y990D03*
X58Y990D03*
X158Y990D03*
X58Y990D03*
G54D14*
X642Y1013D03*
X740Y1013D03*
G54D15*
X500Y1218D03*
X400Y1218D03*
X300Y1218D03*
G54D16*
X500Y128D03*
X400Y128D03*
X300Y128D03*
G54D17*
X552Y860D03*
X552Y860D03*
X158Y990D03*
X158Y990D03*
G54D18*
X642Y1013D03*
G54D19*
X723Y663D02*
X661Y600D01*
D02*
X740Y806D02*
X740Y992D01*
D02*
X661Y600D02*
X669Y370D01*
D02*
X566Y577D02*
X725Y762D01*
D02*
X519Y1024D02*
X621Y1015D01*
D02*
X233Y673D02*
X137Y738D01*
D02*
X531Y649D02*
X190Y462D01*
D02*
X392Y1003D02*
X326Y624D01*
D02*
X516Y147D02*
X654Y324D01*
D02*
X326Y624D02*
X269Y575D01*
D02*
X485Y166D02*
X491Y151D01*
D02*
X293Y243D02*
X429Y210D01*
D02*
X429Y210D02*
X485Y166D01*
D02*
X466Y367D02*
X542Y539D01*
D02*
X728Y996D02*
X681Y935D01*
D02*
X497Y938D02*
X465Y846D01*
D02*
X681Y935D02*
X497Y938D01*
D02*
X331Y1128D02*
X678Y1084D01*
D02*
X307Y1200D02*
X331Y1128D01*
D02*
X678Y1084D02*
X726Y1029D01*
D02*
X170Y1009D02*
X290Y1202D01*
D02*
X169Y349D02*
X86Y268D01*
D02*
X430Y344D02*
X169Y349D01*
D02*
X165Y218D02*
X279Y142D01*
D02*
X92Y242D02*
X165Y218D01*
G54D20*
X32Y285D02*
X102Y285D01*
X102Y215D01*
X32Y215D01*
X32Y285D01*
D02*
G04 End of Copper1*
M02*