G04 MADE WITH FRITZING*
G04 WWW.FRITZING.ORG*
G04 DOUBLE SIDED*
G04 HOLES PLATED*
G04 CONTOUR ON CENTER OF CONTOUR VECTOR*
%ASAXBY*%
%FSLAX23Y23*%
%MOIN*%
%OFA0B0*%
%SFA1.0B1.0*%
%ADD10C,0.004504*%
%ADD11C,0.002706*%
%ADD12C,0.002447*%
%ADD13C,0.007259*%
%ADD14C,0.007131*%
%ADD15R,0.008480X0.094378*%
%ADD16C,0.010000*%
%ADD17R,0.001000X0.001000*%
%LNSILK0*%
G90*
G70*
G54D10*
X302Y385D03*
G54D11*
X301Y384D03*
G54D10*
X302Y405D03*
G54D12*
X301Y404D03*
G54D13*
X344Y421D03*
X324Y339D03*
X234Y377D03*
X278Y453D03*
G54D14*
X723Y453D03*
G54D15*
X750Y449D03*
G54D16*
X602Y910D02*
X602Y510D01*
D02*
X602Y510D02*
X202Y510D01*
D02*
X202Y510D02*
X202Y910D01*
D02*
X602Y910D02*
X452Y910D01*
D02*
X352Y910D02*
X202Y910D01*
G54D17*
X398Y1127D02*
X414Y1127D01*
X426Y1127D02*
X442Y1127D01*
X459Y1127D02*
X469Y1127D01*
X492Y1127D02*
X503Y1127D01*
X396Y1126D02*
X414Y1126D01*
X425Y1126D02*
X443Y1126D01*
X458Y1126D02*
X470Y1126D01*
X492Y1126D02*
X504Y1126D01*
X395Y1125D02*
X414Y1125D01*
X425Y1125D02*
X444Y1125D01*
X458Y1125D02*
X470Y1125D01*
X492Y1125D02*
X504Y1125D01*
X395Y1124D02*
X414Y1124D01*
X424Y1124D02*
X444Y1124D01*
X458Y1124D02*
X470Y1124D01*
X492Y1124D02*
X503Y1124D01*
X394Y1123D02*
X398Y1123D01*
X411Y1123D02*
X414Y1123D01*
X424Y1123D02*
X427Y1123D01*
X441Y1123D02*
X444Y1123D01*
X458Y1123D02*
X462Y1123D01*
X467Y1123D02*
X470Y1123D01*
X492Y1123D02*
X496Y1123D01*
X394Y1122D02*
X398Y1122D01*
X411Y1122D02*
X414Y1122D01*
X424Y1122D02*
X427Y1122D01*
X441Y1122D02*
X444Y1122D01*
X458Y1122D02*
X462Y1122D01*
X467Y1122D02*
X470Y1122D01*
X492Y1122D02*
X496Y1122D01*
X394Y1121D02*
X397Y1121D01*
X411Y1121D02*
X414Y1121D01*
X424Y1121D02*
X427Y1121D01*
X441Y1121D02*
X444Y1121D01*
X458Y1121D02*
X462Y1121D01*
X467Y1121D02*
X470Y1121D01*
X492Y1121D02*
X496Y1121D01*
X394Y1120D02*
X397Y1120D01*
X411Y1120D02*
X414Y1120D01*
X424Y1120D02*
X427Y1120D01*
X441Y1120D02*
X444Y1120D01*
X458Y1120D02*
X462Y1120D01*
X467Y1120D02*
X470Y1120D01*
X492Y1120D02*
X496Y1120D01*
X394Y1119D02*
X398Y1119D01*
X411Y1119D02*
X414Y1119D01*
X424Y1119D02*
X427Y1119D01*
X441Y1119D02*
X444Y1119D01*
X458Y1119D02*
X462Y1119D01*
X467Y1119D02*
X470Y1119D01*
X492Y1119D02*
X496Y1119D01*
X394Y1118D02*
X398Y1118D01*
X411Y1118D02*
X414Y1118D01*
X424Y1118D02*
X427Y1118D01*
X441Y1118D02*
X444Y1118D01*
X458Y1118D02*
X462Y1118D01*
X467Y1118D02*
X470Y1118D01*
X492Y1118D02*
X496Y1118D01*
X395Y1117D02*
X414Y1117D01*
X424Y1117D02*
X427Y1117D01*
X441Y1117D02*
X444Y1117D01*
X458Y1117D02*
X462Y1117D01*
X467Y1117D02*
X470Y1117D01*
X492Y1117D02*
X496Y1117D01*
X395Y1116D02*
X414Y1116D01*
X424Y1116D02*
X427Y1116D01*
X441Y1116D02*
X444Y1116D01*
X458Y1116D02*
X462Y1116D01*
X467Y1116D02*
X470Y1116D01*
X492Y1116D02*
X496Y1116D01*
X396Y1115D02*
X414Y1115D01*
X424Y1115D02*
X427Y1115D01*
X441Y1115D02*
X444Y1115D01*
X458Y1115D02*
X462Y1115D01*
X467Y1115D02*
X470Y1115D01*
X492Y1115D02*
X496Y1115D01*
X397Y1114D02*
X414Y1114D01*
X424Y1114D02*
X427Y1114D01*
X441Y1114D02*
X444Y1114D01*
X458Y1114D02*
X462Y1114D01*
X467Y1114D02*
X470Y1114D01*
X492Y1114D02*
X496Y1114D01*
X400Y1113D02*
X414Y1113D01*
X424Y1113D02*
X427Y1113D01*
X441Y1113D02*
X444Y1113D01*
X456Y1113D02*
X472Y1113D01*
X492Y1113D02*
X496Y1113D01*
X402Y1112D02*
X406Y1112D01*
X411Y1112D02*
X414Y1112D01*
X424Y1112D02*
X427Y1112D01*
X441Y1112D02*
X444Y1112D01*
X455Y1112D02*
X473Y1112D01*
X492Y1112D02*
X496Y1112D01*
X402Y1111D02*
X406Y1111D01*
X411Y1111D02*
X414Y1111D01*
X424Y1111D02*
X427Y1111D01*
X441Y1111D02*
X444Y1111D01*
X455Y1111D02*
X474Y1111D01*
X492Y1111D02*
X496Y1111D01*
X401Y1110D02*
X405Y1110D01*
X411Y1110D02*
X414Y1110D01*
X424Y1110D02*
X427Y1110D01*
X441Y1110D02*
X444Y1110D01*
X454Y1110D02*
X474Y1110D01*
X486Y1110D02*
X486Y1110D01*
X492Y1110D02*
X496Y1110D01*
X401Y1109D02*
X405Y1109D01*
X411Y1109D02*
X414Y1109D01*
X424Y1109D02*
X427Y1109D01*
X441Y1109D02*
X444Y1109D01*
X454Y1109D02*
X457Y1109D01*
X471Y1109D02*
X474Y1109D01*
X485Y1109D02*
X487Y1109D01*
X492Y1109D02*
X496Y1109D01*
X400Y1108D02*
X404Y1108D01*
X411Y1108D02*
X414Y1108D01*
X424Y1108D02*
X427Y1108D01*
X441Y1108D02*
X444Y1108D01*
X454Y1108D02*
X457Y1108D01*
X471Y1108D02*
X474Y1108D01*
X484Y1108D02*
X487Y1108D01*
X492Y1108D02*
X496Y1108D01*
X400Y1107D02*
X403Y1107D01*
X411Y1107D02*
X414Y1107D01*
X424Y1107D02*
X427Y1107D01*
X441Y1107D02*
X444Y1107D01*
X454Y1107D02*
X457Y1107D01*
X471Y1107D02*
X474Y1107D01*
X484Y1107D02*
X487Y1107D01*
X492Y1107D02*
X496Y1107D01*
X399Y1106D02*
X403Y1106D01*
X411Y1106D02*
X414Y1106D01*
X424Y1106D02*
X427Y1106D01*
X441Y1106D02*
X444Y1106D01*
X454Y1106D02*
X457Y1106D01*
X471Y1106D02*
X474Y1106D01*
X484Y1106D02*
X487Y1106D01*
X492Y1106D02*
X496Y1106D01*
X398Y1105D02*
X402Y1105D01*
X411Y1105D02*
X414Y1105D01*
X424Y1105D02*
X427Y1105D01*
X441Y1105D02*
X444Y1105D01*
X454Y1105D02*
X457Y1105D01*
X471Y1105D02*
X474Y1105D01*
X484Y1105D02*
X487Y1105D01*
X492Y1105D02*
X496Y1105D01*
X398Y1104D02*
X402Y1104D01*
X411Y1104D02*
X414Y1104D01*
X424Y1104D02*
X427Y1104D01*
X441Y1104D02*
X444Y1104D01*
X454Y1104D02*
X457Y1104D01*
X471Y1104D02*
X474Y1104D01*
X484Y1104D02*
X487Y1104D01*
X492Y1104D02*
X496Y1104D01*
X397Y1103D02*
X401Y1103D01*
X411Y1103D02*
X414Y1103D01*
X424Y1103D02*
X427Y1103D01*
X441Y1103D02*
X444Y1103D01*
X454Y1103D02*
X457Y1103D01*
X471Y1103D02*
X474Y1103D01*
X484Y1103D02*
X487Y1103D01*
X492Y1103D02*
X496Y1103D01*
X397Y1102D02*
X401Y1102D01*
X411Y1102D02*
X414Y1102D01*
X424Y1102D02*
X427Y1102D01*
X441Y1102D02*
X444Y1102D01*
X454Y1102D02*
X457Y1102D01*
X471Y1102D02*
X474Y1102D01*
X484Y1102D02*
X487Y1102D01*
X492Y1102D02*
X496Y1102D01*
X396Y1101D02*
X400Y1101D01*
X411Y1101D02*
X414Y1101D01*
X424Y1101D02*
X427Y1101D01*
X441Y1101D02*
X444Y1101D01*
X454Y1101D02*
X457Y1101D01*
X471Y1101D02*
X474Y1101D01*
X484Y1101D02*
X487Y1101D01*
X492Y1101D02*
X496Y1101D01*
X395Y1100D02*
X399Y1100D01*
X411Y1100D02*
X414Y1100D01*
X424Y1100D02*
X427Y1100D01*
X441Y1100D02*
X444Y1100D01*
X454Y1100D02*
X457Y1100D01*
X471Y1100D02*
X474Y1100D01*
X484Y1100D02*
X487Y1100D01*
X492Y1100D02*
X496Y1100D01*
X395Y1099D02*
X399Y1099D01*
X411Y1099D02*
X414Y1099D01*
X424Y1099D02*
X444Y1099D01*
X454Y1099D02*
X474Y1099D01*
X484Y1099D02*
X503Y1099D01*
X394Y1098D02*
X398Y1098D01*
X411Y1098D02*
X414Y1098D01*
X425Y1098D02*
X444Y1098D01*
X455Y1098D02*
X474Y1098D01*
X484Y1098D02*
X504Y1098D01*
X394Y1097D02*
X398Y1097D01*
X411Y1097D02*
X414Y1097D01*
X425Y1097D02*
X443Y1097D01*
X455Y1097D02*
X473Y1097D01*
X484Y1097D02*
X504Y1097D01*
X395Y1096D02*
X397Y1096D01*
X411Y1096D02*
X413Y1096D01*
X426Y1096D02*
X442Y1096D01*
X456Y1096D02*
X472Y1096D01*
X485Y1096D02*
X503Y1096D01*
X101Y1095D02*
X114Y1095D01*
X92Y1094D02*
X123Y1094D01*
X86Y1093D02*
X128Y1093D01*
X82Y1092D02*
X132Y1092D01*
X79Y1091D02*
X136Y1091D01*
X75Y1090D02*
X139Y1090D01*
X73Y1089D02*
X142Y1089D01*
X70Y1088D02*
X145Y1088D01*
X392Y1088D02*
X398Y1088D01*
X67Y1087D02*
X147Y1087D01*
X384Y1087D02*
X406Y1087D01*
X65Y1086D02*
X149Y1086D01*
X380Y1086D02*
X410Y1086D01*
X63Y1085D02*
X100Y1085D01*
X114Y1085D02*
X151Y1085D01*
X377Y1085D02*
X414Y1085D01*
X61Y1084D02*
X91Y1084D01*
X123Y1084D02*
X153Y1084D01*
X374Y1084D02*
X416Y1084D01*
X59Y1083D02*
X86Y1083D01*
X129Y1083D02*
X155Y1083D01*
X372Y1083D02*
X419Y1083D01*
X57Y1082D02*
X82Y1082D01*
X133Y1082D02*
X157Y1082D01*
X369Y1082D02*
X421Y1082D01*
X56Y1081D02*
X78Y1081D01*
X136Y1081D02*
X159Y1081D01*
X367Y1081D02*
X423Y1081D01*
X54Y1080D02*
X75Y1080D01*
X139Y1080D02*
X160Y1080D01*
X366Y1080D02*
X425Y1080D01*
X52Y1079D02*
X73Y1079D01*
X142Y1079D02*
X162Y1079D01*
X364Y1079D02*
X427Y1079D01*
X51Y1078D02*
X70Y1078D01*
X145Y1078D02*
X164Y1078D01*
X362Y1078D02*
X391Y1078D01*
X399Y1078D02*
X428Y1078D01*
X49Y1077D02*
X68Y1077D01*
X147Y1077D02*
X165Y1077D01*
X361Y1077D02*
X384Y1077D01*
X407Y1077D02*
X430Y1077D01*
X48Y1076D02*
X66Y1076D01*
X149Y1076D02*
X167Y1076D01*
X360Y1076D02*
X379Y1076D01*
X411Y1076D02*
X431Y1076D01*
X47Y1075D02*
X63Y1075D01*
X151Y1075D02*
X168Y1075D01*
X358Y1075D02*
X377Y1075D01*
X414Y1075D02*
X432Y1075D01*
X45Y1074D02*
X61Y1074D01*
X153Y1074D02*
X169Y1074D01*
X357Y1074D02*
X374Y1074D01*
X417Y1074D02*
X434Y1074D01*
X44Y1073D02*
X60Y1073D01*
X155Y1073D02*
X171Y1073D01*
X356Y1073D02*
X372Y1073D01*
X419Y1073D02*
X435Y1073D01*
X43Y1072D02*
X58Y1072D01*
X157Y1072D02*
X172Y1072D01*
X355Y1072D02*
X370Y1072D01*
X421Y1072D02*
X436Y1072D01*
X41Y1071D02*
X56Y1071D01*
X158Y1071D02*
X173Y1071D01*
X354Y1071D02*
X368Y1071D01*
X423Y1071D02*
X437Y1071D01*
X40Y1070D02*
X55Y1070D01*
X160Y1070D02*
X174Y1070D01*
X352Y1070D02*
X366Y1070D01*
X424Y1070D02*
X438Y1070D01*
X39Y1069D02*
X53Y1069D01*
X161Y1069D02*
X176Y1069D01*
X352Y1069D02*
X365Y1069D01*
X426Y1069D02*
X439Y1069D01*
X38Y1068D02*
X52Y1068D01*
X163Y1068D02*
X177Y1068D01*
X351Y1068D02*
X363Y1068D01*
X427Y1068D02*
X440Y1068D01*
X37Y1067D02*
X50Y1067D01*
X164Y1067D02*
X178Y1067D01*
X218Y1067D02*
X220Y1067D01*
X246Y1067D02*
X249Y1067D01*
X350Y1067D02*
X362Y1067D01*
X428Y1067D02*
X441Y1067D01*
X36Y1066D02*
X49Y1066D01*
X165Y1066D02*
X179Y1066D01*
X218Y1066D02*
X221Y1066D01*
X246Y1066D02*
X249Y1066D01*
X349Y1066D02*
X361Y1066D01*
X430Y1066D02*
X442Y1066D01*
X35Y1065D02*
X48Y1065D01*
X167Y1065D02*
X180Y1065D01*
X218Y1065D02*
X221Y1065D01*
X246Y1065D02*
X249Y1065D01*
X348Y1065D02*
X360Y1065D01*
X431Y1065D02*
X443Y1065D01*
X34Y1064D02*
X46Y1064D01*
X168Y1064D02*
X181Y1064D01*
X218Y1064D02*
X221Y1064D01*
X246Y1064D02*
X249Y1064D01*
X347Y1064D02*
X359Y1064D01*
X432Y1064D02*
X443Y1064D01*
X33Y1063D02*
X45Y1063D01*
X169Y1063D02*
X182Y1063D01*
X218Y1063D02*
X221Y1063D01*
X246Y1063D02*
X249Y1063D01*
X346Y1063D02*
X358Y1063D01*
X433Y1063D02*
X444Y1063D01*
X32Y1062D02*
X44Y1062D01*
X170Y1062D02*
X183Y1062D01*
X218Y1062D02*
X221Y1062D01*
X246Y1062D02*
X249Y1062D01*
X346Y1062D02*
X357Y1062D01*
X434Y1062D02*
X445Y1062D01*
X31Y1061D02*
X43Y1061D01*
X172Y1061D02*
X184Y1061D01*
X218Y1061D02*
X221Y1061D01*
X246Y1061D02*
X249Y1061D01*
X345Y1061D02*
X356Y1061D01*
X435Y1061D02*
X446Y1061D01*
X30Y1060D02*
X42Y1060D01*
X173Y1060D02*
X185Y1060D01*
X218Y1060D02*
X221Y1060D01*
X246Y1060D02*
X249Y1060D01*
X344Y1060D02*
X355Y1060D01*
X436Y1060D02*
X446Y1060D01*
X29Y1059D02*
X41Y1059D01*
X174Y1059D02*
X185Y1059D01*
X218Y1059D02*
X249Y1059D01*
X344Y1059D02*
X354Y1059D01*
X436Y1059D02*
X447Y1059D01*
X28Y1058D02*
X40Y1058D01*
X175Y1058D02*
X186Y1058D01*
X218Y1058D02*
X249Y1058D01*
X343Y1058D02*
X353Y1058D01*
X437Y1058D02*
X448Y1058D01*
X27Y1057D02*
X39Y1057D01*
X176Y1057D02*
X187Y1057D01*
X218Y1057D02*
X249Y1057D01*
X342Y1057D02*
X353Y1057D01*
X438Y1057D02*
X448Y1057D01*
X26Y1056D02*
X38Y1056D01*
X177Y1056D02*
X188Y1056D01*
X218Y1056D02*
X249Y1056D01*
X342Y1056D02*
X352Y1056D01*
X439Y1056D02*
X449Y1056D01*
X26Y1055D02*
X37Y1055D01*
X178Y1055D02*
X189Y1055D01*
X246Y1055D02*
X249Y1055D01*
X341Y1055D02*
X351Y1055D01*
X439Y1055D02*
X449Y1055D01*
X25Y1054D02*
X36Y1054D01*
X178Y1054D02*
X190Y1054D01*
X246Y1054D02*
X249Y1054D01*
X341Y1054D02*
X351Y1054D01*
X440Y1054D02*
X450Y1054D01*
X24Y1053D02*
X35Y1053D01*
X179Y1053D02*
X190Y1053D01*
X246Y1053D02*
X249Y1053D01*
X340Y1053D02*
X350Y1053D01*
X441Y1053D02*
X450Y1053D01*
X23Y1052D02*
X34Y1052D01*
X180Y1052D02*
X191Y1052D01*
X246Y1052D02*
X249Y1052D01*
X340Y1052D02*
X349Y1052D01*
X441Y1052D02*
X451Y1052D01*
X23Y1051D02*
X33Y1051D01*
X181Y1051D02*
X192Y1051D01*
X236Y1051D02*
X249Y1051D01*
X339Y1051D02*
X349Y1051D01*
X442Y1051D02*
X451Y1051D01*
X22Y1050D02*
X33Y1050D01*
X140Y1050D02*
X174Y1050D01*
X182Y1050D02*
X193Y1050D01*
X235Y1050D02*
X249Y1050D01*
X339Y1050D02*
X348Y1050D01*
X442Y1050D02*
X452Y1050D01*
X21Y1049D02*
X32Y1049D01*
X139Y1049D02*
X176Y1049D01*
X183Y1049D02*
X193Y1049D01*
X235Y1049D02*
X249Y1049D01*
X338Y1049D02*
X348Y1049D01*
X443Y1049D02*
X452Y1049D01*
X21Y1048D02*
X31Y1048D01*
X138Y1048D02*
X176Y1048D01*
X183Y1048D02*
X194Y1048D01*
X236Y1048D02*
X249Y1048D01*
X338Y1048D02*
X347Y1048D01*
X443Y1048D02*
X453Y1048D01*
X20Y1047D02*
X30Y1047D01*
X138Y1047D02*
X177Y1047D01*
X184Y1047D02*
X195Y1047D01*
X338Y1047D02*
X347Y1047D01*
X444Y1047D02*
X453Y1047D01*
X19Y1046D02*
X30Y1046D01*
X137Y1046D02*
X177Y1046D01*
X185Y1046D02*
X195Y1046D01*
X337Y1046D02*
X347Y1046D01*
X444Y1046D02*
X453Y1046D01*
X19Y1045D02*
X29Y1045D01*
X137Y1045D02*
X177Y1045D01*
X186Y1045D02*
X196Y1045D01*
X337Y1045D02*
X346Y1045D01*
X444Y1045D02*
X454Y1045D01*
X18Y1044D02*
X28Y1044D01*
X137Y1044D02*
X177Y1044D01*
X186Y1044D02*
X196Y1044D01*
X337Y1044D02*
X346Y1044D01*
X445Y1044D02*
X454Y1044D01*
X17Y1043D02*
X27Y1043D01*
X138Y1043D02*
X177Y1043D01*
X187Y1043D02*
X197Y1043D01*
X336Y1043D02*
X345Y1043D01*
X445Y1043D02*
X454Y1043D01*
X17Y1042D02*
X27Y1042D01*
X138Y1042D02*
X176Y1042D01*
X188Y1042D02*
X198Y1042D01*
X336Y1042D02*
X345Y1042D01*
X445Y1042D02*
X455Y1042D01*
X16Y1041D02*
X26Y1041D01*
X139Y1041D02*
X175Y1041D01*
X188Y1041D02*
X198Y1041D01*
X336Y1041D02*
X345Y1041D01*
X435Y1041D02*
X456Y1041D01*
X16Y1040D02*
X26Y1040D01*
X141Y1040D02*
X173Y1040D01*
X189Y1040D02*
X199Y1040D01*
X335Y1040D02*
X345Y1040D01*
X435Y1040D02*
X455Y1040D01*
X15Y1039D02*
X25Y1039D01*
X189Y1039D02*
X199Y1039D01*
X335Y1039D02*
X344Y1039D01*
X436Y1039D02*
X455Y1039D01*
X15Y1038D02*
X24Y1038D01*
X190Y1038D02*
X200Y1038D01*
X335Y1038D02*
X344Y1038D01*
X436Y1038D02*
X454Y1038D01*
X14Y1037D02*
X24Y1037D01*
X191Y1037D02*
X200Y1037D01*
X219Y1037D02*
X247Y1037D01*
X335Y1037D02*
X344Y1037D01*
X436Y1037D02*
X454Y1037D01*
X14Y1036D02*
X23Y1036D01*
X191Y1036D02*
X201Y1036D01*
X218Y1036D02*
X248Y1036D01*
X335Y1036D02*
X344Y1036D01*
X437Y1036D02*
X454Y1036D01*
X13Y1035D02*
X23Y1035D01*
X192Y1035D02*
X201Y1035D01*
X218Y1035D02*
X249Y1035D01*
X335Y1035D02*
X344Y1035D01*
X437Y1035D02*
X453Y1035D01*
X13Y1034D02*
X22Y1034D01*
X192Y1034D02*
X202Y1034D01*
X218Y1034D02*
X249Y1034D01*
X334Y1034D02*
X343Y1034D01*
X437Y1034D02*
X453Y1034D01*
X12Y1033D02*
X22Y1033D01*
X193Y1033D02*
X202Y1033D01*
X218Y1033D02*
X221Y1033D01*
X246Y1033D02*
X249Y1033D01*
X334Y1033D02*
X343Y1033D01*
X437Y1033D02*
X453Y1033D01*
X12Y1032D02*
X21Y1032D01*
X200Y1032D02*
X203Y1032D01*
X218Y1032D02*
X221Y1032D01*
X246Y1032D02*
X249Y1032D01*
X334Y1032D02*
X343Y1032D01*
X438Y1032D02*
X453Y1032D01*
X11Y1031D02*
X21Y1031D01*
X200Y1031D02*
X203Y1031D01*
X218Y1031D02*
X221Y1031D01*
X246Y1031D02*
X249Y1031D01*
X334Y1031D02*
X343Y1031D01*
X438Y1031D02*
X453Y1031D01*
X11Y1030D02*
X20Y1030D01*
X200Y1030D02*
X204Y1030D01*
X218Y1030D02*
X221Y1030D01*
X246Y1030D02*
X249Y1030D01*
X334Y1030D02*
X343Y1030D01*
X438Y1030D02*
X452Y1030D01*
X10Y1029D02*
X20Y1029D01*
X200Y1029D02*
X204Y1029D01*
X218Y1029D02*
X221Y1029D01*
X246Y1029D02*
X249Y1029D01*
X334Y1029D02*
X343Y1029D01*
X438Y1029D02*
X452Y1029D01*
X10Y1028D02*
X19Y1028D01*
X200Y1028D02*
X205Y1028D01*
X218Y1028D02*
X221Y1028D01*
X246Y1028D02*
X249Y1028D01*
X334Y1028D02*
X343Y1028D01*
X438Y1028D02*
X452Y1028D01*
X10Y1027D02*
X19Y1027D01*
X200Y1027D02*
X205Y1027D01*
X218Y1027D02*
X221Y1027D01*
X246Y1027D02*
X249Y1027D01*
X334Y1027D02*
X343Y1027D01*
X438Y1027D02*
X452Y1027D01*
X9Y1026D02*
X19Y1026D01*
X200Y1026D02*
X205Y1026D01*
X218Y1026D02*
X221Y1026D01*
X246Y1026D02*
X249Y1026D01*
X334Y1026D02*
X343Y1026D01*
X438Y1026D02*
X452Y1026D01*
X9Y1025D02*
X18Y1025D01*
X200Y1025D02*
X206Y1025D01*
X218Y1025D02*
X221Y1025D01*
X246Y1025D02*
X249Y1025D01*
X334Y1025D02*
X343Y1025D01*
X438Y1025D02*
X452Y1025D01*
X9Y1024D02*
X18Y1024D01*
X200Y1024D02*
X206Y1024D01*
X218Y1024D02*
X221Y1024D01*
X246Y1024D02*
X249Y1024D01*
X334Y1024D02*
X343Y1024D01*
X438Y1024D02*
X452Y1024D01*
X8Y1023D02*
X18Y1023D01*
X200Y1023D02*
X206Y1023D01*
X218Y1023D02*
X221Y1023D01*
X246Y1023D02*
X249Y1023D01*
X334Y1023D02*
X343Y1023D01*
X438Y1023D02*
X452Y1023D01*
X8Y1022D02*
X17Y1022D01*
X200Y1022D02*
X207Y1022D01*
X218Y1022D02*
X221Y1022D01*
X246Y1022D02*
X249Y1022D01*
X334Y1022D02*
X343Y1022D01*
X438Y1022D02*
X453Y1022D01*
X8Y1021D02*
X17Y1021D01*
X200Y1021D02*
X207Y1021D01*
X218Y1021D02*
X249Y1021D01*
X334Y1021D02*
X343Y1021D01*
X438Y1021D02*
X453Y1021D01*
X7Y1020D02*
X16Y1020D01*
X200Y1020D02*
X207Y1020D01*
X218Y1020D02*
X249Y1020D01*
X334Y1020D02*
X343Y1020D01*
X438Y1020D02*
X453Y1020D01*
X7Y1019D02*
X16Y1019D01*
X200Y1019D02*
X208Y1019D01*
X218Y1019D02*
X248Y1019D01*
X334Y1019D02*
X343Y1019D01*
X437Y1019D02*
X453Y1019D01*
X7Y1018D02*
X16Y1018D01*
X200Y1018D02*
X208Y1018D01*
X219Y1018D02*
X247Y1018D01*
X334Y1018D02*
X343Y1018D01*
X437Y1018D02*
X453Y1018D01*
X6Y1017D02*
X16Y1017D01*
X200Y1017D02*
X208Y1017D01*
X335Y1017D02*
X344Y1017D01*
X437Y1017D02*
X454Y1017D01*
X6Y1016D02*
X15Y1016D01*
X200Y1016D02*
X208Y1016D01*
X335Y1016D02*
X344Y1016D01*
X437Y1016D02*
X454Y1016D01*
X6Y1015D02*
X15Y1015D01*
X200Y1015D02*
X209Y1015D01*
X335Y1015D02*
X344Y1015D01*
X436Y1015D02*
X454Y1015D01*
X6Y1014D02*
X15Y1014D01*
X200Y1014D02*
X209Y1014D01*
X335Y1014D02*
X344Y1014D01*
X436Y1014D02*
X454Y1014D01*
X5Y1013D02*
X14Y1013D01*
X200Y1013D02*
X209Y1013D01*
X335Y1013D02*
X344Y1013D01*
X436Y1013D02*
X455Y1013D01*
X5Y1012D02*
X14Y1012D01*
X200Y1012D02*
X209Y1012D01*
X336Y1012D02*
X345Y1012D01*
X435Y1012D02*
X455Y1012D01*
X5Y1011D02*
X14Y1011D01*
X201Y1011D02*
X210Y1011D01*
X336Y1011D02*
X345Y1011D01*
X446Y1011D02*
X455Y1011D01*
X5Y1010D02*
X14Y1010D01*
X201Y1010D02*
X210Y1010D01*
X336Y1010D02*
X345Y1010D01*
X445Y1010D02*
X454Y1010D01*
X5Y1009D02*
X14Y1009D01*
X201Y1009D02*
X210Y1009D01*
X336Y1009D02*
X346Y1009D01*
X445Y1009D02*
X454Y1009D01*
X4Y1008D02*
X13Y1008D01*
X201Y1008D02*
X210Y1008D01*
X337Y1008D02*
X346Y1008D01*
X445Y1008D02*
X454Y1008D01*
X4Y1007D02*
X13Y1007D01*
X201Y1007D02*
X210Y1007D01*
X227Y1007D02*
X245Y1007D01*
X337Y1007D02*
X346Y1007D01*
X444Y1007D02*
X454Y1007D01*
X4Y1006D02*
X13Y1006D01*
X201Y1006D02*
X211Y1006D01*
X226Y1006D02*
X247Y1006D01*
X337Y1006D02*
X347Y1006D01*
X444Y1006D02*
X453Y1006D01*
X4Y1005D02*
X13Y1005D01*
X202Y1005D02*
X211Y1005D01*
X227Y1005D02*
X248Y1005D01*
X338Y1005D02*
X347Y1005D01*
X443Y1005D02*
X453Y1005D01*
X4Y1004D02*
X13Y1004D01*
X202Y1004D02*
X211Y1004D01*
X228Y1004D02*
X248Y1004D01*
X338Y1004D02*
X348Y1004D01*
X443Y1004D02*
X452Y1004D01*
X4Y1003D02*
X13Y1003D01*
X202Y1003D02*
X211Y1003D01*
X244Y1003D02*
X249Y1003D01*
X338Y1003D02*
X348Y1003D01*
X443Y1003D02*
X452Y1003D01*
X4Y1002D02*
X13Y1002D01*
X202Y1002D02*
X211Y1002D01*
X246Y1002D02*
X249Y1002D01*
X339Y1002D02*
X348Y1002D01*
X442Y1002D02*
X452Y1002D01*
X3Y1001D02*
X12Y1001D01*
X202Y1001D02*
X211Y1001D01*
X246Y1001D02*
X249Y1001D01*
X339Y1001D02*
X349Y1001D01*
X442Y1001D02*
X451Y1001D01*
X3Y1000D02*
X12Y1000D01*
X202Y1000D02*
X211Y1000D01*
X246Y1000D02*
X249Y1000D01*
X340Y1000D02*
X350Y1000D01*
X441Y1000D02*
X451Y1000D01*
X3Y999D02*
X12Y999D01*
X202Y999D02*
X211Y999D01*
X246Y999D02*
X249Y999D01*
X340Y999D02*
X350Y999D01*
X440Y999D02*
X450Y999D01*
X3Y998D02*
X12Y998D01*
X202Y998D02*
X211Y998D01*
X246Y998D02*
X249Y998D01*
X341Y998D02*
X351Y998D01*
X440Y998D02*
X450Y998D01*
X3Y997D02*
X12Y997D01*
X202Y997D02*
X211Y997D01*
X245Y997D02*
X249Y997D01*
X341Y997D02*
X351Y997D01*
X439Y997D02*
X449Y997D01*
X3Y996D02*
X12Y996D01*
X203Y996D02*
X212Y996D01*
X245Y996D02*
X248Y996D01*
X342Y996D02*
X352Y996D01*
X438Y996D02*
X449Y996D01*
X3Y995D02*
X12Y995D01*
X203Y995D02*
X212Y995D01*
X244Y995D02*
X248Y995D01*
X343Y995D02*
X353Y995D01*
X438Y995D02*
X448Y995D01*
X3Y994D02*
X12Y994D01*
X203Y994D02*
X212Y994D01*
X243Y994D02*
X247Y994D01*
X343Y994D02*
X354Y994D01*
X437Y994D02*
X447Y994D01*
X3Y993D02*
X12Y993D01*
X203Y993D02*
X212Y993D01*
X243Y993D02*
X247Y993D01*
X344Y993D02*
X354Y993D01*
X436Y993D02*
X447Y993D01*
X3Y992D02*
X12Y992D01*
X203Y992D02*
X212Y992D01*
X242Y992D02*
X246Y992D01*
X344Y992D02*
X355Y992D01*
X435Y992D02*
X446Y992D01*
X3Y991D02*
X12Y991D01*
X203Y991D02*
X212Y991D01*
X228Y991D02*
X248Y991D01*
X345Y991D02*
X356Y991D01*
X434Y991D02*
X445Y991D01*
X3Y990D02*
X12Y990D01*
X203Y990D02*
X212Y990D01*
X227Y990D02*
X249Y990D01*
X346Y990D02*
X357Y990D01*
X434Y990D02*
X445Y990D01*
X3Y989D02*
X12Y989D01*
X203Y989D02*
X212Y989D01*
X226Y989D02*
X249Y989D01*
X347Y989D02*
X358Y989D01*
X433Y989D02*
X444Y989D01*
X3Y988D02*
X12Y988D01*
X203Y988D02*
X212Y988D01*
X227Y988D02*
X249Y988D01*
X347Y988D02*
X359Y988D01*
X432Y988D02*
X443Y988D01*
X3Y987D02*
X12Y987D01*
X203Y987D02*
X212Y987D01*
X348Y987D02*
X360Y987D01*
X430Y987D02*
X442Y987D01*
X3Y986D02*
X12Y986D01*
X203Y986D02*
X212Y986D01*
X349Y986D02*
X361Y986D01*
X429Y986D02*
X441Y986D01*
X3Y985D02*
X12Y985D01*
X203Y985D02*
X212Y985D01*
X350Y985D02*
X363Y985D01*
X428Y985D02*
X441Y985D01*
X3Y984D02*
X12Y984D01*
X203Y984D02*
X212Y984D01*
X351Y984D02*
X364Y984D01*
X427Y984D02*
X440Y984D01*
X3Y983D02*
X12Y983D01*
X202Y983D02*
X211Y983D01*
X352Y983D02*
X365Y983D01*
X425Y983D02*
X439Y983D01*
X3Y982D02*
X12Y982D01*
X202Y982D02*
X211Y982D01*
X353Y982D02*
X367Y982D01*
X424Y982D02*
X438Y982D01*
X3Y981D02*
X12Y981D01*
X202Y981D02*
X211Y981D01*
X354Y981D02*
X369Y981D01*
X422Y981D02*
X437Y981D01*
X3Y980D02*
X12Y980D01*
X202Y980D02*
X211Y980D01*
X355Y980D02*
X370Y980D01*
X420Y980D02*
X435Y980D01*
X3Y979D02*
X12Y979D01*
X202Y979D02*
X211Y979D01*
X356Y979D02*
X372Y979D01*
X418Y979D02*
X434Y979D01*
X4Y978D02*
X13Y978D01*
X202Y978D02*
X211Y978D01*
X357Y978D02*
X375Y978D01*
X416Y978D02*
X433Y978D01*
X4Y977D02*
X13Y977D01*
X202Y977D02*
X211Y977D01*
X218Y977D02*
X249Y977D01*
X359Y977D02*
X377Y977D01*
X413Y977D02*
X432Y977D01*
X4Y976D02*
X13Y976D01*
X202Y976D02*
X211Y976D01*
X218Y976D02*
X249Y976D01*
X360Y976D02*
X381Y976D01*
X410Y976D02*
X431Y976D01*
X4Y975D02*
X13Y975D01*
X202Y975D02*
X211Y975D01*
X218Y975D02*
X249Y975D01*
X361Y975D02*
X385Y975D01*
X405Y975D02*
X429Y975D01*
X4Y974D02*
X13Y974D01*
X201Y974D02*
X210Y974D01*
X218Y974D02*
X248Y974D01*
X363Y974D02*
X428Y974D01*
X4Y973D02*
X13Y973D01*
X201Y973D02*
X210Y973D01*
X218Y973D02*
X221Y973D01*
X228Y973D02*
X231Y973D01*
X365Y973D02*
X426Y973D01*
X4Y972D02*
X14Y972D01*
X201Y972D02*
X210Y972D01*
X218Y972D02*
X221Y972D01*
X228Y972D02*
X231Y972D01*
X366Y972D02*
X424Y972D01*
X5Y971D02*
X14Y971D01*
X201Y971D02*
X210Y971D01*
X218Y971D02*
X221Y971D01*
X228Y971D02*
X231Y971D01*
X368Y971D02*
X422Y971D01*
X5Y970D02*
X14Y970D01*
X201Y970D02*
X210Y970D01*
X218Y970D02*
X221Y970D01*
X228Y970D02*
X231Y970D01*
X370Y970D02*
X420Y970D01*
X5Y969D02*
X14Y969D01*
X200Y969D02*
X209Y969D01*
X218Y969D02*
X221Y969D01*
X228Y969D02*
X231Y969D01*
X372Y969D02*
X418Y969D01*
X5Y968D02*
X14Y968D01*
X200Y968D02*
X209Y968D01*
X218Y968D02*
X221Y968D01*
X228Y968D02*
X231Y968D01*
X375Y968D02*
X416Y968D01*
X6Y967D02*
X15Y967D01*
X200Y967D02*
X209Y967D01*
X218Y967D02*
X221Y967D01*
X228Y967D02*
X231Y967D01*
X378Y967D02*
X413Y967D01*
X6Y966D02*
X15Y966D01*
X200Y966D02*
X209Y966D01*
X218Y966D02*
X221Y966D01*
X228Y966D02*
X231Y966D01*
X381Y966D02*
X409Y966D01*
X6Y965D02*
X15Y965D01*
X200Y965D02*
X209Y965D01*
X218Y965D02*
X221Y965D01*
X228Y965D02*
X231Y965D01*
X386Y965D02*
X404Y965D01*
X6Y964D02*
X15Y964D01*
X200Y964D02*
X208Y964D01*
X218Y964D02*
X221Y964D01*
X228Y964D02*
X231Y964D01*
X7Y963D02*
X16Y963D01*
X200Y963D02*
X208Y963D01*
X218Y963D02*
X221Y963D01*
X228Y963D02*
X231Y963D01*
X7Y962D02*
X16Y962D01*
X200Y962D02*
X208Y962D01*
X218Y962D02*
X221Y962D01*
X229Y962D02*
X231Y962D01*
X760Y962D02*
X766Y962D01*
X7Y961D02*
X16Y961D01*
X200Y961D02*
X207Y961D01*
X218Y961D02*
X221Y961D01*
X759Y961D02*
X768Y961D01*
X7Y960D02*
X17Y960D01*
X200Y960D02*
X207Y960D01*
X218Y960D02*
X221Y960D01*
X758Y960D02*
X769Y960D01*
X8Y959D02*
X17Y959D01*
X200Y959D02*
X207Y959D01*
X218Y959D02*
X221Y959D01*
X758Y959D02*
X759Y959D01*
X767Y959D02*
X769Y959D01*
X8Y958D02*
X17Y958D01*
X200Y958D02*
X207Y958D01*
X218Y958D02*
X220Y958D01*
X757Y958D02*
X759Y958D01*
X768Y958D02*
X769Y958D01*
X8Y957D02*
X18Y957D01*
X200Y957D02*
X206Y957D01*
X758Y957D02*
X759Y957D01*
X768Y957D02*
X769Y957D01*
X9Y956D02*
X18Y956D01*
X200Y956D02*
X206Y956D01*
X758Y956D02*
X760Y956D01*
X767Y956D02*
X769Y956D01*
X9Y955D02*
X18Y955D01*
X200Y955D02*
X205Y955D01*
X758Y955D02*
X768Y955D01*
X9Y954D02*
X19Y954D01*
X200Y954D02*
X205Y954D01*
X760Y954D02*
X767Y954D01*
X10Y953D02*
X19Y953D01*
X200Y953D02*
X205Y953D01*
X10Y952D02*
X20Y952D01*
X200Y952D02*
X204Y952D01*
X11Y951D02*
X20Y951D01*
X200Y951D02*
X204Y951D01*
X11Y950D02*
X21Y950D01*
X200Y950D02*
X204Y950D01*
X759Y950D02*
X774Y950D01*
X11Y949D02*
X21Y949D01*
X200Y949D02*
X203Y949D01*
X758Y949D02*
X773Y949D01*
X12Y948D02*
X22Y948D01*
X200Y948D02*
X203Y948D01*
X758Y948D02*
X760Y948D01*
X767Y948D02*
X769Y948D01*
X12Y947D02*
X22Y947D01*
X193Y947D02*
X202Y947D01*
X698Y947D02*
X708Y947D01*
X757Y947D02*
X759Y947D01*
X768Y947D02*
X769Y947D01*
X13Y946D02*
X22Y946D01*
X192Y946D02*
X202Y946D01*
X698Y946D02*
X708Y946D01*
X757Y946D02*
X759Y946D01*
X768Y946D02*
X769Y946D01*
X13Y945D02*
X23Y945D01*
X192Y945D02*
X201Y945D01*
X698Y945D02*
X708Y945D01*
X758Y945D02*
X759Y945D01*
X767Y945D02*
X769Y945D01*
X14Y944D02*
X24Y944D01*
X191Y944D02*
X201Y944D01*
X697Y944D02*
X708Y944D01*
X758Y944D02*
X769Y944D01*
X14Y943D02*
X24Y943D01*
X190Y943D02*
X200Y943D01*
X697Y943D02*
X708Y943D01*
X759Y943D02*
X768Y943D01*
X15Y942D02*
X25Y942D01*
X190Y942D02*
X200Y942D01*
X697Y942D02*
X709Y942D01*
X761Y942D02*
X766Y942D01*
X15Y941D02*
X25Y941D01*
X189Y941D02*
X199Y941D01*
X697Y941D02*
X709Y941D01*
X16Y940D02*
X26Y940D01*
X140Y940D02*
X174Y940D01*
X189Y940D02*
X199Y940D01*
X697Y940D02*
X709Y940D01*
X17Y939D02*
X27Y939D01*
X139Y939D02*
X176Y939D01*
X188Y939D02*
X198Y939D01*
X697Y939D02*
X709Y939D01*
X760Y939D02*
X767Y939D01*
X17Y938D02*
X27Y938D01*
X138Y938D02*
X176Y938D01*
X187Y938D02*
X197Y938D01*
X696Y938D02*
X709Y938D01*
X759Y938D02*
X768Y938D01*
X18Y937D02*
X28Y937D01*
X138Y937D02*
X177Y937D01*
X187Y937D02*
X197Y937D01*
X696Y937D02*
X710Y937D01*
X758Y937D02*
X769Y937D01*
X18Y936D02*
X28Y936D01*
X137Y936D02*
X177Y936D01*
X186Y936D02*
X196Y936D01*
X696Y936D02*
X710Y936D01*
X758Y936D02*
X759Y936D01*
X763Y936D02*
X765Y936D01*
X767Y936D02*
X769Y936D01*
X19Y935D02*
X29Y935D01*
X137Y935D02*
X177Y935D01*
X185Y935D02*
X196Y935D01*
X696Y935D02*
X710Y935D01*
X757Y935D02*
X759Y935D01*
X762Y935D02*
X764Y935D01*
X768Y935D02*
X769Y935D01*
X20Y934D02*
X30Y934D01*
X137Y934D02*
X177Y934D01*
X185Y934D02*
X195Y934D01*
X667Y934D02*
X669Y934D01*
X696Y934D02*
X710Y934D01*
X737Y934D02*
X738Y934D01*
X758Y934D02*
X759Y934D01*
X762Y934D02*
X764Y934D01*
X768Y934D02*
X769Y934D01*
X20Y933D02*
X31Y933D01*
X138Y933D02*
X177Y933D01*
X184Y933D02*
X194Y933D01*
X666Y933D02*
X670Y933D01*
X695Y933D02*
X710Y933D01*
X735Y933D02*
X739Y933D01*
X758Y933D02*
X763Y933D01*
X766Y933D02*
X769Y933D01*
X21Y932D02*
X31Y932D01*
X138Y932D02*
X176Y932D01*
X183Y932D02*
X194Y932D01*
X665Y932D02*
X672Y932D01*
X694Y932D02*
X713Y932D01*
X734Y932D02*
X740Y932D01*
X758Y932D02*
X763Y932D01*
X765Y932D02*
X768Y932D01*
X22Y931D02*
X32Y931D01*
X139Y931D02*
X175Y931D01*
X182Y931D02*
X193Y931D01*
X664Y931D02*
X673Y931D01*
X691Y931D02*
X717Y931D01*
X733Y931D02*
X741Y931D01*
X760Y931D02*
X762Y931D01*
X765Y931D02*
X767Y931D01*
X22Y930D02*
X33Y930D01*
X141Y930D02*
X173Y930D01*
X182Y930D02*
X192Y930D01*
X663Y930D02*
X675Y930D01*
X688Y930D02*
X719Y930D01*
X731Y930D02*
X742Y930D01*
X23Y929D02*
X34Y929D01*
X181Y929D02*
X191Y929D01*
X662Y929D02*
X676Y929D01*
X686Y929D02*
X721Y929D01*
X730Y929D02*
X743Y929D01*
X24Y928D02*
X35Y928D01*
X180Y928D02*
X191Y928D01*
X661Y928D02*
X678Y928D01*
X684Y928D02*
X723Y928D01*
X728Y928D02*
X744Y928D01*
X25Y927D02*
X36Y927D01*
X179Y927D02*
X190Y927D01*
X661Y927D02*
X679Y927D01*
X682Y927D02*
X725Y927D01*
X727Y927D02*
X745Y927D01*
X759Y927D02*
X769Y927D01*
X25Y926D02*
X36Y926D01*
X178Y926D02*
X189Y926D01*
X662Y926D02*
X744Y926D01*
X758Y926D02*
X769Y926D01*
X26Y925D02*
X37Y925D01*
X177Y925D02*
X188Y925D01*
X663Y925D02*
X743Y925D01*
X758Y925D02*
X760Y925D01*
X27Y924D02*
X38Y924D01*
X176Y924D02*
X188Y924D01*
X663Y924D02*
X742Y924D01*
X757Y924D02*
X759Y924D01*
X28Y923D02*
X39Y923D01*
X175Y923D02*
X187Y923D01*
X664Y923D02*
X742Y923D01*
X757Y923D02*
X759Y923D01*
X29Y922D02*
X40Y922D01*
X174Y922D02*
X186Y922D01*
X665Y922D02*
X741Y922D01*
X758Y922D02*
X759Y922D01*
X29Y921D02*
X41Y921D01*
X173Y921D02*
X185Y921D01*
X665Y921D02*
X740Y921D01*
X758Y921D02*
X769Y921D01*
X30Y920D02*
X42Y920D01*
X172Y920D02*
X184Y920D01*
X666Y920D02*
X740Y920D01*
X759Y920D02*
X769Y920D01*
X31Y919D02*
X44Y919D01*
X171Y919D02*
X183Y919D01*
X667Y919D02*
X739Y919D01*
X761Y919D02*
X768Y919D01*
X32Y918D02*
X45Y918D01*
X170Y918D02*
X182Y918D01*
X667Y918D02*
X738Y918D01*
X33Y917D02*
X46Y917D01*
X169Y917D02*
X181Y917D01*
X668Y917D02*
X738Y917D01*
X34Y916D02*
X47Y916D01*
X167Y916D02*
X180Y916D01*
X669Y916D02*
X737Y916D01*
X35Y915D02*
X48Y915D01*
X166Y915D02*
X179Y915D01*
X669Y915D02*
X737Y915D01*
X36Y914D02*
X50Y914D01*
X165Y914D02*
X178Y914D01*
X669Y914D02*
X738Y914D01*
X37Y913D02*
X51Y913D01*
X163Y913D02*
X177Y913D01*
X669Y913D02*
X738Y913D01*
X38Y912D02*
X52Y912D01*
X162Y912D02*
X176Y912D01*
X668Y912D02*
X702Y912D01*
X704Y912D02*
X739Y912D01*
X40Y911D02*
X54Y911D01*
X161Y911D02*
X175Y911D01*
X668Y911D02*
X697Y911D01*
X710Y911D02*
X739Y911D01*
X41Y910D02*
X55Y910D01*
X159Y910D02*
X174Y910D01*
X667Y910D02*
X694Y910D01*
X712Y910D02*
X737Y910D01*
X42Y909D02*
X57Y909D01*
X157Y909D02*
X173Y909D01*
X667Y909D02*
X692Y909D01*
X714Y909D02*
X734Y909D01*
X43Y908D02*
X59Y908D01*
X156Y908D02*
X171Y908D01*
X666Y908D02*
X691Y908D01*
X715Y908D02*
X732Y908D01*
X754Y908D02*
X769Y908D01*
X45Y907D02*
X60Y907D01*
X154Y907D02*
X170Y907D01*
X666Y907D02*
X690Y907D01*
X717Y907D02*
X730Y907D01*
X758Y907D02*
X761Y907D01*
X46Y906D02*
X62Y906D01*
X152Y906D02*
X169Y906D01*
X666Y906D02*
X688Y906D01*
X718Y906D02*
X727Y906D01*
X758Y906D02*
X759Y906D01*
X47Y905D02*
X64Y905D01*
X150Y905D02*
X167Y905D01*
X665Y905D02*
X688Y905D01*
X718Y905D02*
X725Y905D01*
X758Y905D02*
X759Y905D01*
X49Y904D02*
X67Y904D01*
X148Y904D02*
X166Y904D01*
X665Y904D02*
X687Y904D01*
X719Y904D02*
X722Y904D01*
X758Y904D02*
X759Y904D01*
X50Y903D02*
X69Y903D01*
X146Y903D02*
X165Y903D01*
X665Y903D02*
X686Y903D01*
X720Y903D02*
X720Y903D01*
X758Y903D02*
X760Y903D01*
X52Y902D02*
X71Y902D01*
X143Y902D02*
X163Y902D01*
X664Y902D02*
X686Y902D01*
X759Y902D02*
X769Y902D01*
X53Y901D02*
X74Y901D01*
X141Y901D02*
X161Y901D01*
X664Y901D02*
X685Y901D01*
X760Y901D02*
X769Y901D01*
X55Y900D02*
X77Y900D01*
X138Y900D02*
X160Y900D01*
X660Y900D02*
X684Y900D01*
X56Y899D02*
X80Y899D01*
X135Y899D02*
X158Y899D01*
X655Y899D02*
X684Y899D01*
X58Y898D02*
X84Y898D01*
X131Y898D02*
X156Y898D01*
X650Y898D02*
X684Y898D01*
X60Y897D02*
X88Y897D01*
X126Y897D02*
X154Y897D01*
X649Y897D02*
X684Y897D01*
X760Y897D02*
X762Y897D01*
X765Y897D02*
X768Y897D01*
X62Y896D02*
X95Y896D01*
X120Y896D02*
X152Y896D01*
X649Y896D02*
X683Y896D01*
X759Y896D02*
X761Y896D01*
X764Y896D02*
X769Y896D01*
X64Y895D02*
X150Y895D01*
X649Y895D02*
X683Y895D01*
X758Y895D02*
X759Y895D01*
X764Y895D02*
X765Y895D01*
X768Y895D02*
X769Y895D01*
X66Y894D02*
X148Y894D01*
X649Y894D02*
X683Y894D01*
X758Y894D02*
X759Y894D01*
X763Y894D02*
X764Y894D01*
X768Y894D02*
X769Y894D01*
X69Y893D02*
X146Y893D01*
X649Y893D02*
X683Y893D01*
X758Y893D02*
X759Y893D01*
X763Y893D02*
X764Y893D01*
X768Y893D02*
X769Y893D01*
X71Y892D02*
X143Y892D01*
X649Y892D02*
X683Y892D01*
X759Y892D02*
X760Y892D01*
X763Y892D02*
X763Y892D01*
X74Y891D02*
X141Y891D01*
X649Y891D02*
X683Y891D01*
X759Y891D02*
X769Y891D01*
X77Y890D02*
X138Y890D01*
X649Y890D02*
X683Y890D01*
X761Y890D02*
X769Y890D01*
X80Y889D02*
X134Y889D01*
X649Y889D02*
X683Y889D01*
X84Y888D02*
X130Y888D01*
X649Y888D02*
X684Y888D01*
X89Y887D02*
X125Y887D01*
X650Y887D02*
X684Y887D01*
X96Y886D02*
X119Y886D01*
X655Y886D02*
X684Y886D01*
X760Y886D02*
X769Y886D01*
X660Y885D02*
X684Y885D01*
X759Y885D02*
X760Y885D01*
X664Y884D02*
X685Y884D01*
X758Y884D02*
X759Y884D01*
X664Y883D02*
X685Y883D01*
X758Y883D02*
X759Y883D01*
X665Y882D02*
X686Y882D01*
X720Y882D02*
X720Y882D01*
X758Y882D02*
X759Y882D01*
X665Y881D02*
X687Y881D01*
X719Y881D02*
X722Y881D01*
X759Y881D02*
X760Y881D01*
X665Y880D02*
X688Y880D01*
X718Y880D02*
X725Y880D01*
X759Y880D02*
X762Y880D01*
X666Y879D02*
X688Y879D01*
X718Y879D02*
X727Y879D01*
X761Y879D02*
X761Y879D01*
X666Y878D02*
X689Y878D01*
X717Y878D02*
X730Y878D01*
X666Y877D02*
X691Y877D01*
X715Y877D02*
X732Y877D01*
X667Y876D02*
X692Y876D01*
X714Y876D02*
X734Y876D01*
X762Y876D02*
X766Y876D01*
X667Y875D02*
X694Y875D01*
X712Y875D02*
X737Y875D01*
X759Y875D02*
X768Y875D01*
X668Y874D02*
X696Y874D01*
X710Y874D02*
X739Y874D01*
X759Y874D02*
X760Y874D01*
X767Y874D02*
X769Y874D01*
X668Y873D02*
X702Y873D01*
X704Y873D02*
X739Y873D01*
X758Y873D02*
X759Y873D01*
X768Y873D02*
X769Y873D01*
X669Y872D02*
X738Y872D01*
X758Y872D02*
X759Y872D01*
X768Y872D02*
X769Y872D01*
X669Y871D02*
X738Y871D01*
X758Y871D02*
X759Y871D01*
X768Y871D02*
X769Y871D01*
X669Y870D02*
X737Y870D01*
X759Y870D02*
X760Y870D01*
X767Y870D02*
X769Y870D01*
X669Y869D02*
X737Y869D01*
X754Y869D02*
X768Y869D01*
X668Y868D02*
X738Y868D01*
X754Y868D02*
X766Y868D01*
X667Y867D02*
X738Y867D01*
X667Y866D02*
X739Y866D01*
X759Y866D02*
X767Y866D01*
X666Y865D02*
X740Y865D01*
X758Y865D02*
X769Y865D01*
X665Y864D02*
X740Y864D01*
X768Y864D02*
X769Y864D01*
X665Y863D02*
X741Y863D01*
X768Y863D02*
X769Y863D01*
X664Y862D02*
X742Y862D01*
X767Y862D02*
X769Y862D01*
X663Y861D02*
X742Y861D01*
X758Y861D02*
X769Y861D01*
X663Y860D02*
X743Y860D01*
X768Y860D02*
X769Y860D01*
X662Y859D02*
X744Y859D01*
X768Y859D02*
X769Y859D01*
X661Y858D02*
X679Y858D01*
X682Y858D02*
X725Y858D01*
X727Y858D02*
X745Y858D01*
X768Y858D02*
X769Y858D01*
X78Y857D02*
X96Y857D01*
X108Y857D02*
X109Y857D01*
X125Y857D02*
X126Y857D01*
X140Y857D02*
X156Y857D01*
X661Y857D02*
X678Y857D01*
X684Y857D02*
X723Y857D01*
X728Y857D02*
X744Y857D01*
X759Y857D02*
X769Y857D01*
X77Y856D02*
X96Y856D01*
X107Y856D02*
X110Y856D01*
X124Y856D02*
X126Y856D01*
X138Y856D02*
X156Y856D01*
X662Y856D02*
X676Y856D01*
X686Y856D02*
X721Y856D01*
X730Y856D02*
X743Y856D01*
X759Y856D02*
X767Y856D01*
X77Y855D02*
X97Y855D01*
X107Y855D02*
X112Y855D01*
X123Y855D02*
X127Y855D01*
X137Y855D02*
X157Y855D01*
X663Y855D02*
X675Y855D01*
X688Y855D02*
X719Y855D01*
X731Y855D02*
X742Y855D01*
X77Y854D02*
X97Y854D01*
X107Y854D02*
X113Y854D01*
X123Y854D02*
X127Y854D01*
X137Y854D02*
X156Y854D01*
X664Y854D02*
X673Y854D01*
X690Y854D02*
X717Y854D01*
X732Y854D02*
X741Y854D01*
X761Y854D02*
X762Y854D01*
X766Y854D02*
X767Y854D01*
X77Y853D02*
X80Y853D01*
X93Y853D02*
X97Y853D01*
X108Y853D02*
X114Y853D01*
X123Y853D02*
X127Y853D01*
X137Y853D02*
X140Y853D01*
X665Y853D02*
X672Y853D01*
X694Y853D02*
X713Y853D01*
X734Y853D02*
X740Y853D01*
X759Y853D02*
X762Y853D01*
X765Y853D02*
X768Y853D01*
X77Y852D02*
X80Y852D01*
X93Y852D02*
X97Y852D01*
X110Y852D02*
X115Y852D01*
X123Y852D02*
X127Y852D01*
X137Y852D02*
X140Y852D01*
X666Y852D02*
X670Y852D01*
X695Y852D02*
X710Y852D01*
X735Y852D02*
X739Y852D01*
X759Y852D02*
X760Y852D01*
X764Y852D02*
X765Y852D01*
X768Y852D02*
X769Y852D01*
X77Y851D02*
X80Y851D01*
X93Y851D02*
X97Y851D01*
X111Y851D02*
X116Y851D01*
X123Y851D02*
X127Y851D01*
X137Y851D02*
X140Y851D01*
X667Y851D02*
X669Y851D01*
X696Y851D02*
X710Y851D01*
X737Y851D02*
X738Y851D01*
X758Y851D02*
X759Y851D01*
X764Y851D02*
X765Y851D01*
X768Y851D02*
X769Y851D01*
X77Y850D02*
X80Y850D01*
X93Y850D02*
X97Y850D01*
X112Y850D02*
X117Y850D01*
X123Y850D02*
X127Y850D01*
X137Y850D02*
X140Y850D01*
X696Y850D02*
X710Y850D01*
X758Y850D02*
X759Y850D01*
X763Y850D02*
X764Y850D01*
X768Y850D02*
X769Y850D01*
X77Y849D02*
X80Y849D01*
X93Y849D02*
X97Y849D01*
X113Y849D02*
X119Y849D01*
X123Y849D02*
X127Y849D01*
X137Y849D02*
X140Y849D01*
X696Y849D02*
X710Y849D01*
X758Y849D02*
X759Y849D01*
X763Y849D02*
X764Y849D01*
X769Y849D02*
X769Y849D01*
X77Y848D02*
X80Y848D01*
X93Y848D02*
X97Y848D01*
X114Y848D02*
X120Y848D01*
X123Y848D02*
X127Y848D01*
X137Y848D02*
X140Y848D01*
X696Y848D02*
X710Y848D01*
X759Y848D02*
X760Y848D01*
X762Y848D02*
X763Y848D01*
X77Y847D02*
X80Y847D01*
X93Y847D02*
X97Y847D01*
X115Y847D02*
X121Y847D01*
X123Y847D02*
X127Y847D01*
X137Y847D02*
X140Y847D01*
X696Y847D02*
X709Y847D01*
X760Y847D02*
X769Y847D01*
X77Y846D02*
X97Y846D01*
X117Y846D02*
X127Y846D01*
X137Y846D02*
X140Y846D01*
X697Y846D02*
X709Y846D01*
X762Y846D02*
X768Y846D01*
X77Y845D02*
X97Y845D01*
X118Y845D02*
X127Y845D01*
X137Y845D02*
X140Y845D01*
X697Y845D02*
X709Y845D01*
X77Y844D02*
X97Y844D01*
X119Y844D02*
X127Y844D01*
X137Y844D02*
X141Y844D01*
X697Y844D02*
X709Y844D01*
X77Y843D02*
X96Y843D01*
X120Y843D02*
X127Y843D01*
X137Y843D02*
X151Y843D01*
X697Y843D02*
X709Y843D01*
X761Y843D02*
X769Y843D01*
X77Y842D02*
X80Y842D01*
X121Y842D02*
X127Y842D01*
X138Y842D02*
X152Y842D01*
X697Y842D02*
X709Y842D01*
X759Y842D02*
X769Y842D01*
X77Y841D02*
X80Y841D01*
X122Y841D02*
X127Y841D01*
X138Y841D02*
X152Y841D01*
X697Y841D02*
X708Y841D01*
X759Y841D02*
X760Y841D01*
X77Y840D02*
X80Y840D01*
X121Y840D02*
X127Y840D01*
X138Y840D02*
X152Y840D01*
X698Y840D02*
X708Y840D01*
X758Y840D02*
X759Y840D01*
X77Y839D02*
X80Y839D01*
X120Y839D02*
X127Y839D01*
X137Y839D02*
X151Y839D01*
X698Y839D02*
X708Y839D01*
X758Y839D02*
X759Y839D01*
X77Y838D02*
X80Y838D01*
X119Y838D02*
X127Y838D01*
X137Y838D02*
X141Y838D01*
X698Y838D02*
X708Y838D01*
X758Y838D02*
X759Y838D01*
X77Y837D02*
X80Y837D01*
X118Y837D02*
X127Y837D01*
X137Y837D02*
X140Y837D01*
X759Y837D02*
X760Y837D01*
X77Y836D02*
X80Y836D01*
X116Y836D02*
X127Y836D01*
X137Y836D02*
X140Y836D01*
X760Y836D02*
X762Y836D01*
X77Y835D02*
X80Y835D01*
X115Y835D02*
X121Y835D01*
X123Y835D02*
X127Y835D01*
X137Y835D02*
X140Y835D01*
X77Y834D02*
X80Y834D01*
X114Y834D02*
X120Y834D01*
X123Y834D02*
X127Y834D01*
X137Y834D02*
X140Y834D01*
X77Y833D02*
X80Y833D01*
X113Y833D02*
X118Y833D01*
X123Y833D02*
X127Y833D01*
X137Y833D02*
X140Y833D01*
X77Y832D02*
X80Y832D01*
X112Y832D02*
X117Y832D01*
X123Y832D02*
X127Y832D01*
X137Y832D02*
X140Y832D01*
X760Y832D02*
X767Y832D01*
X77Y831D02*
X80Y831D01*
X111Y831D02*
X116Y831D01*
X123Y831D02*
X127Y831D01*
X137Y831D02*
X140Y831D01*
X759Y831D02*
X768Y831D01*
X77Y830D02*
X80Y830D01*
X109Y830D02*
X115Y830D01*
X123Y830D02*
X127Y830D01*
X137Y830D02*
X140Y830D01*
X758Y830D02*
X760Y830D01*
X764Y830D02*
X765Y830D01*
X768Y830D02*
X769Y830D01*
X77Y829D02*
X80Y829D01*
X108Y829D02*
X114Y829D01*
X123Y829D02*
X127Y829D01*
X137Y829D02*
X154Y829D01*
X758Y829D02*
X759Y829D01*
X763Y829D02*
X764Y829D01*
X768Y829D02*
X769Y829D01*
X77Y828D02*
X82Y828D01*
X107Y828D02*
X113Y828D01*
X123Y828D02*
X127Y828D01*
X137Y828D02*
X156Y828D01*
X758Y828D02*
X759Y828D01*
X763Y828D02*
X764Y828D01*
X768Y828D02*
X769Y828D01*
X77Y827D02*
X82Y827D01*
X107Y827D02*
X111Y827D01*
X123Y827D02*
X127Y827D01*
X138Y827D02*
X157Y827D01*
X758Y827D02*
X759Y827D01*
X763Y827D02*
X763Y827D01*
X768Y827D02*
X769Y827D01*
X77Y826D02*
X82Y826D01*
X107Y826D02*
X110Y826D01*
X124Y826D02*
X126Y826D01*
X138Y826D02*
X156Y826D01*
X759Y826D02*
X763Y826D01*
X766Y826D02*
X768Y826D01*
X78Y825D02*
X81Y825D01*
X108Y825D02*
X109Y825D01*
X125Y825D02*
X125Y825D01*
X140Y825D02*
X155Y825D01*
X760Y825D02*
X763Y825D01*
X766Y825D02*
X767Y825D01*
X110Y813D02*
X126Y813D01*
X105Y812D02*
X131Y812D01*
X101Y811D02*
X135Y811D01*
X98Y810D02*
X138Y810D01*
X95Y809D02*
X140Y809D01*
X93Y808D02*
X143Y808D01*
X91Y807D02*
X145Y807D01*
X89Y806D02*
X147Y806D01*
X87Y805D02*
X148Y805D01*
X86Y804D02*
X150Y804D01*
X84Y803D02*
X109Y803D01*
X127Y803D02*
X152Y803D01*
X83Y802D02*
X104Y802D01*
X132Y802D02*
X153Y802D01*
X82Y801D02*
X101Y801D01*
X135Y801D02*
X154Y801D01*
X80Y800D02*
X98Y800D01*
X138Y800D02*
X156Y800D01*
X457Y800D02*
X458Y800D01*
X79Y799D02*
X95Y799D01*
X140Y799D02*
X157Y799D01*
X456Y799D02*
X460Y799D01*
X78Y798D02*
X93Y798D01*
X142Y798D02*
X158Y798D01*
X456Y798D02*
X462Y798D01*
X77Y797D02*
X91Y797D01*
X144Y797D02*
X159Y797D01*
X456Y797D02*
X464Y797D01*
X76Y796D02*
X90Y796D01*
X146Y796D02*
X160Y796D01*
X457Y796D02*
X465Y796D01*
X75Y795D02*
X88Y795D01*
X148Y795D02*
X161Y795D01*
X457Y795D02*
X467Y795D01*
X74Y794D02*
X87Y794D01*
X149Y794D02*
X162Y794D01*
X458Y794D02*
X469Y794D01*
X73Y793D02*
X85Y793D01*
X150Y793D02*
X163Y793D01*
X458Y793D02*
X471Y793D01*
X72Y792D02*
X84Y792D01*
X152Y792D02*
X164Y792D01*
X459Y792D02*
X463Y792D01*
X465Y792D02*
X473Y792D01*
X71Y791D02*
X83Y791D01*
X153Y791D02*
X165Y791D01*
X460Y791D02*
X463Y791D01*
X467Y791D02*
X475Y791D01*
X70Y790D02*
X82Y790D01*
X154Y790D02*
X166Y790D01*
X460Y790D02*
X464Y790D01*
X469Y790D02*
X476Y790D01*
X69Y789D02*
X81Y789D01*
X155Y789D02*
X166Y789D01*
X461Y789D02*
X464Y789D01*
X470Y789D02*
X478Y789D01*
X69Y788D02*
X80Y788D01*
X156Y788D02*
X167Y788D01*
X461Y788D02*
X465Y788D01*
X472Y788D02*
X480Y788D01*
X68Y787D02*
X79Y787D01*
X157Y787D02*
X168Y787D01*
X462Y787D02*
X466Y787D01*
X474Y787D02*
X482Y787D01*
X67Y786D02*
X78Y786D01*
X158Y786D02*
X169Y786D01*
X462Y786D02*
X466Y786D01*
X473Y786D02*
X484Y786D01*
X67Y785D02*
X77Y785D01*
X159Y785D02*
X169Y785D01*
X463Y785D02*
X467Y785D01*
X472Y785D02*
X485Y785D01*
X66Y784D02*
X76Y784D01*
X159Y784D02*
X170Y784D01*
X463Y784D02*
X467Y784D01*
X471Y784D02*
X476Y784D01*
X480Y784D02*
X485Y784D01*
X65Y783D02*
X76Y783D01*
X160Y783D02*
X170Y783D01*
X464Y783D02*
X468Y783D01*
X470Y783D02*
X475Y783D01*
X481Y783D02*
X485Y783D01*
X65Y782D02*
X75Y782D01*
X161Y782D02*
X171Y782D01*
X464Y782D02*
X474Y782D01*
X64Y781D02*
X74Y781D01*
X162Y781D02*
X172Y781D01*
X465Y781D02*
X473Y781D01*
X64Y780D02*
X73Y780D01*
X162Y780D02*
X172Y780D01*
X439Y780D02*
X442Y780D01*
X466Y780D02*
X472Y780D01*
X63Y779D02*
X73Y779D01*
X163Y779D02*
X173Y779D01*
X439Y779D02*
X443Y779D01*
X466Y779D02*
X471Y779D01*
X63Y778D02*
X72Y778D01*
X163Y778D02*
X173Y778D01*
X439Y778D02*
X444Y778D01*
X447Y778D02*
X449Y778D01*
X467Y778D02*
X470Y778D01*
X62Y777D02*
X72Y777D01*
X164Y777D02*
X174Y777D01*
X440Y777D02*
X450Y777D01*
X467Y777D02*
X471Y777D01*
X62Y776D02*
X71Y776D01*
X165Y776D02*
X174Y776D01*
X441Y776D02*
X450Y776D01*
X468Y776D02*
X472Y776D01*
X61Y775D02*
X71Y775D01*
X165Y775D02*
X175Y775D01*
X442Y775D02*
X449Y775D01*
X468Y775D02*
X472Y775D01*
X61Y774D02*
X70Y774D01*
X166Y774D02*
X175Y774D01*
X443Y774D02*
X448Y774D01*
X469Y774D02*
X473Y774D01*
X60Y773D02*
X70Y773D01*
X166Y773D02*
X175Y773D01*
X442Y773D02*
X449Y773D01*
X469Y773D02*
X473Y773D01*
X60Y772D02*
X69Y772D01*
X166Y772D02*
X176Y772D01*
X441Y772D02*
X450Y772D01*
X470Y772D02*
X473Y772D01*
X60Y771D02*
X69Y771D01*
X167Y771D02*
X176Y771D01*
X440Y771D02*
X451Y771D01*
X471Y771D02*
X473Y771D01*
X59Y770D02*
X69Y770D01*
X167Y770D02*
X176Y770D01*
X439Y770D02*
X444Y770D01*
X447Y770D02*
X452Y770D01*
X59Y769D02*
X68Y769D01*
X168Y769D02*
X177Y769D01*
X438Y769D02*
X443Y769D01*
X448Y769D02*
X453Y769D01*
X59Y768D02*
X68Y768D01*
X168Y768D02*
X177Y768D01*
X437Y768D02*
X442Y768D01*
X449Y768D02*
X454Y768D01*
X58Y767D02*
X68Y767D01*
X168Y767D02*
X177Y767D01*
X437Y767D02*
X441Y767D01*
X450Y767D02*
X455Y767D01*
X58Y766D02*
X67Y766D01*
X168Y766D02*
X178Y766D01*
X437Y766D02*
X440Y766D01*
X451Y766D02*
X456Y766D01*
X58Y765D02*
X67Y765D01*
X169Y765D02*
X178Y765D01*
X437Y765D02*
X439Y765D01*
X452Y765D02*
X457Y765D01*
X58Y764D02*
X67Y764D01*
X169Y764D02*
X178Y764D01*
X453Y764D02*
X458Y764D01*
X58Y763D02*
X67Y763D01*
X169Y763D02*
X178Y763D01*
X454Y763D02*
X458Y763D01*
X57Y762D02*
X66Y762D01*
X169Y762D02*
X178Y762D01*
X455Y762D02*
X459Y762D01*
X57Y761D02*
X66Y761D01*
X170Y761D02*
X179Y761D01*
X455Y761D02*
X459Y761D01*
X57Y760D02*
X66Y760D01*
X170Y760D02*
X179Y760D01*
X456Y760D02*
X459Y760D01*
X57Y759D02*
X66Y759D01*
X170Y759D02*
X179Y759D01*
X418Y759D02*
X420Y759D01*
X456Y759D02*
X459Y759D01*
X57Y758D02*
X66Y758D01*
X170Y758D02*
X179Y758D01*
X418Y758D02*
X421Y758D01*
X455Y758D02*
X459Y758D01*
X57Y757D02*
X66Y757D01*
X170Y757D02*
X179Y757D01*
X418Y757D02*
X422Y757D01*
X426Y757D02*
X428Y757D01*
X454Y757D02*
X458Y757D01*
X57Y756D02*
X66Y756D01*
X170Y756D02*
X179Y756D01*
X418Y756D02*
X423Y756D01*
X425Y756D02*
X429Y756D01*
X453Y756D02*
X458Y756D01*
X57Y755D02*
X66Y755D01*
X170Y755D02*
X179Y755D01*
X419Y755D02*
X429Y755D01*
X447Y755D02*
X457Y755D01*
X57Y754D02*
X66Y754D01*
X170Y754D02*
X179Y754D01*
X420Y754D02*
X428Y754D01*
X446Y754D02*
X456Y754D01*
X56Y753D02*
X65Y753D01*
X170Y753D02*
X179Y753D01*
X421Y753D02*
X427Y753D01*
X446Y753D02*
X455Y753D01*
X56Y752D02*
X65Y752D01*
X170Y752D02*
X179Y752D01*
X421Y752D02*
X427Y752D01*
X447Y752D02*
X453Y752D01*
X56Y751D02*
X65Y751D01*
X170Y751D02*
X179Y751D01*
X420Y751D02*
X428Y751D01*
X449Y751D02*
X451Y751D01*
X56Y750D02*
X65Y750D01*
X170Y750D02*
X179Y750D01*
X419Y750D02*
X429Y750D01*
X57Y749D02*
X66Y749D01*
X170Y749D02*
X179Y749D01*
X418Y749D02*
X423Y749D01*
X425Y749D02*
X430Y749D01*
X57Y748D02*
X66Y748D01*
X170Y748D02*
X179Y748D01*
X417Y748D02*
X422Y748D01*
X426Y748D02*
X431Y748D01*
X57Y747D02*
X66Y747D01*
X170Y747D02*
X179Y747D01*
X416Y747D02*
X421Y747D01*
X427Y747D02*
X432Y747D01*
X57Y746D02*
X66Y746D01*
X170Y746D02*
X179Y746D01*
X416Y746D02*
X420Y746D01*
X428Y746D02*
X433Y746D01*
X57Y745D02*
X66Y745D01*
X170Y745D02*
X179Y745D01*
X415Y745D02*
X419Y745D01*
X429Y745D02*
X434Y745D01*
X57Y744D02*
X66Y744D01*
X170Y744D02*
X179Y744D01*
X416Y744D02*
X418Y744D01*
X430Y744D02*
X435Y744D01*
X57Y743D02*
X66Y743D01*
X170Y743D02*
X179Y743D01*
X431Y743D02*
X436Y743D01*
X57Y742D02*
X66Y742D01*
X169Y742D02*
X178Y742D01*
X432Y742D02*
X437Y742D01*
X57Y741D02*
X66Y741D01*
X169Y741D02*
X178Y741D01*
X433Y741D02*
X437Y741D01*
X58Y740D02*
X67Y740D01*
X169Y740D02*
X178Y740D01*
X434Y740D02*
X438Y740D01*
X58Y739D02*
X67Y739D01*
X169Y739D02*
X178Y739D01*
X393Y739D02*
X395Y739D01*
X435Y739D02*
X438Y739D01*
X58Y738D02*
X67Y738D01*
X169Y738D02*
X178Y738D01*
X392Y738D02*
X396Y738D01*
X434Y738D02*
X438Y738D01*
X58Y737D02*
X67Y737D01*
X168Y737D02*
X177Y737D01*
X391Y737D02*
X397Y737D01*
X434Y737D02*
X438Y737D01*
X59Y736D02*
X68Y736D01*
X168Y736D02*
X177Y736D01*
X391Y736D02*
X397Y736D01*
X433Y736D02*
X437Y736D01*
X59Y735D02*
X68Y735D01*
X168Y735D02*
X177Y735D01*
X391Y735D02*
X397Y735D01*
X432Y735D02*
X437Y735D01*
X59Y734D02*
X68Y734D01*
X167Y734D02*
X177Y734D01*
X392Y734D02*
X396Y734D01*
X403Y734D02*
X406Y734D01*
X426Y734D02*
X428Y734D01*
X431Y734D02*
X436Y734D01*
X59Y733D02*
X69Y733D01*
X167Y733D02*
X176Y733D01*
X393Y733D02*
X395Y733D01*
X402Y733D02*
X406Y733D01*
X425Y733D02*
X435Y733D01*
X60Y732D02*
X69Y732D01*
X167Y732D02*
X176Y732D01*
X401Y732D02*
X406Y732D01*
X425Y732D02*
X434Y732D01*
X60Y731D02*
X69Y731D01*
X166Y731D02*
X176Y731D01*
X400Y731D02*
X405Y731D01*
X426Y731D02*
X433Y731D01*
X61Y730D02*
X70Y730D01*
X166Y730D02*
X175Y730D01*
X399Y730D02*
X404Y730D01*
X427Y730D02*
X431Y730D01*
X61Y729D02*
X70Y729D01*
X165Y729D02*
X175Y729D01*
X399Y729D02*
X403Y729D01*
X61Y728D02*
X71Y728D01*
X165Y728D02*
X174Y728D01*
X399Y728D02*
X403Y728D01*
X62Y727D02*
X71Y727D01*
X164Y727D02*
X174Y727D01*
X399Y727D02*
X404Y727D01*
X62Y726D02*
X72Y726D01*
X164Y726D02*
X174Y726D01*
X400Y726D02*
X405Y726D01*
X63Y725D02*
X72Y725D01*
X163Y725D02*
X173Y725D01*
X401Y725D02*
X406Y725D01*
X63Y724D02*
X73Y724D01*
X163Y724D02*
X173Y724D01*
X402Y724D02*
X407Y724D01*
X64Y723D02*
X74Y723D01*
X162Y723D02*
X172Y723D01*
X403Y723D02*
X408Y723D01*
X64Y722D02*
X74Y722D01*
X161Y722D02*
X171Y722D01*
X404Y722D02*
X409Y722D01*
X65Y721D02*
X75Y721D01*
X161Y721D02*
X171Y721D01*
X405Y721D02*
X410Y721D01*
X418Y721D02*
X418Y721D01*
X66Y720D02*
X76Y720D01*
X160Y720D02*
X170Y720D01*
X406Y720D02*
X411Y720D01*
X417Y720D02*
X420Y720D01*
X66Y719D02*
X77Y719D01*
X159Y719D02*
X170Y719D01*
X407Y719D02*
X412Y719D01*
X416Y719D02*
X420Y719D01*
X67Y718D02*
X77Y718D01*
X158Y718D02*
X169Y718D01*
X408Y718D02*
X413Y718D01*
X415Y718D02*
X420Y718D01*
X67Y717D02*
X78Y717D01*
X158Y717D02*
X168Y717D01*
X409Y717D02*
X419Y717D01*
X68Y716D02*
X79Y716D01*
X157Y716D02*
X168Y716D01*
X410Y716D02*
X418Y716D01*
X69Y715D02*
X80Y715D01*
X156Y715D02*
X167Y715D01*
X385Y715D02*
X385Y715D01*
X411Y715D02*
X417Y715D01*
X70Y714D02*
X81Y714D01*
X155Y714D02*
X166Y714D01*
X383Y714D02*
X386Y714D01*
X411Y714D02*
X416Y714D01*
X70Y713D02*
X82Y713D01*
X154Y713D02*
X165Y713D01*
X383Y713D02*
X387Y713D01*
X410Y713D02*
X415Y713D01*
X71Y712D02*
X83Y712D01*
X103Y712D02*
X104Y712D01*
X132Y712D02*
X132Y712D01*
X152Y712D02*
X165Y712D01*
X383Y712D02*
X388Y712D01*
X409Y712D02*
X414Y712D01*
X72Y711D02*
X84Y711D01*
X103Y711D02*
X106Y711D01*
X129Y711D02*
X132Y711D01*
X151Y711D02*
X164Y711D01*
X384Y711D02*
X389Y711D01*
X408Y711D02*
X413Y711D01*
X73Y710D02*
X86Y710D01*
X103Y710D02*
X110Y710D01*
X126Y710D02*
X132Y710D01*
X150Y710D02*
X163Y710D01*
X383Y710D02*
X390Y710D01*
X408Y710D02*
X412Y710D01*
X74Y709D02*
X87Y709D01*
X103Y709D02*
X132Y709D01*
X149Y709D02*
X162Y709D01*
X379Y709D02*
X391Y709D01*
X408Y709D02*
X411Y709D01*
X75Y708D02*
X89Y708D01*
X103Y708D02*
X132Y708D01*
X147Y708D02*
X161Y708D01*
X377Y708D02*
X392Y708D01*
X76Y707D02*
X90Y707D01*
X103Y707D02*
X132Y707D01*
X145Y707D02*
X160Y707D01*
X376Y707D02*
X393Y707D01*
X77Y706D02*
X92Y706D01*
X103Y706D02*
X132Y706D01*
X144Y706D02*
X159Y706D01*
X375Y706D02*
X383Y706D01*
X389Y706D02*
X394Y706D01*
X78Y705D02*
X94Y705D01*
X103Y705D02*
X132Y705D01*
X142Y705D02*
X158Y705D01*
X375Y705D02*
X379Y705D01*
X390Y705D02*
X395Y705D01*
X79Y704D02*
X96Y704D01*
X103Y704D02*
X132Y704D01*
X140Y704D02*
X156Y704D01*
X374Y704D02*
X378Y704D01*
X391Y704D02*
X396Y704D01*
X81Y703D02*
X99Y703D01*
X103Y703D02*
X132Y703D01*
X137Y703D02*
X155Y703D01*
X374Y703D02*
X377Y703D01*
X392Y703D02*
X397Y703D01*
X82Y702D02*
X132Y702D01*
X134Y702D02*
X154Y702D01*
X374Y702D02*
X377Y702D01*
X393Y702D02*
X398Y702D01*
X83Y701D02*
X152Y701D01*
X374Y701D02*
X377Y701D01*
X394Y701D02*
X399Y701D01*
X85Y700D02*
X151Y700D01*
X374Y700D02*
X378Y700D01*
X395Y700D02*
X400Y700D01*
X86Y699D02*
X149Y699D01*
X374Y699D02*
X378Y699D01*
X396Y699D02*
X400Y699D01*
X88Y698D02*
X148Y698D01*
X375Y698D02*
X379Y698D01*
X397Y698D02*
X400Y698D01*
X90Y697D02*
X146Y697D01*
X376Y697D02*
X380Y697D01*
X92Y696D02*
X144Y696D01*
X376Y696D02*
X381Y696D01*
X94Y695D02*
X142Y695D01*
X377Y695D02*
X382Y695D01*
X96Y694D02*
X115Y694D01*
X121Y694D02*
X140Y694D01*
X378Y694D02*
X383Y694D01*
X99Y693D02*
X109Y693D01*
X127Y693D02*
X137Y693D01*
X362Y693D02*
X365Y693D01*
X379Y693D02*
X384Y693D01*
X102Y692D02*
X105Y692D01*
X130Y692D02*
X134Y692D01*
X362Y692D02*
X366Y692D01*
X380Y692D02*
X385Y692D01*
X103Y691D02*
X103Y691D01*
X362Y691D02*
X367Y691D01*
X381Y691D02*
X386Y691D01*
X363Y690D02*
X367Y690D01*
X382Y690D02*
X387Y690D01*
X364Y689D02*
X368Y689D01*
X383Y689D02*
X388Y689D01*
X365Y688D02*
X368Y688D01*
X384Y688D02*
X388Y688D01*
X365Y687D02*
X369Y687D01*
X385Y687D02*
X388Y687D01*
X366Y686D02*
X369Y686D01*
X386Y686D02*
X388Y686D01*
X366Y685D02*
X369Y685D01*
X366Y684D02*
X370Y684D01*
X367Y683D02*
X370Y683D01*
X352Y682D02*
X352Y682D01*
X367Y682D02*
X371Y682D01*
X350Y681D02*
X353Y681D01*
X367Y681D02*
X371Y681D01*
X350Y680D02*
X354Y680D01*
X368Y680D02*
X371Y680D01*
X351Y679D02*
X356Y679D01*
X368Y679D02*
X372Y679D01*
X351Y678D02*
X359Y678D01*
X369Y678D02*
X372Y678D01*
X352Y677D02*
X361Y677D01*
X369Y677D02*
X373Y677D01*
X353Y676D02*
X364Y676D01*
X369Y676D02*
X373Y676D01*
X332Y675D02*
X334Y675D01*
X356Y675D02*
X366Y675D01*
X369Y675D02*
X373Y675D01*
X331Y674D02*
X335Y674D01*
X358Y674D02*
X373Y674D01*
X330Y673D02*
X336Y673D01*
X361Y673D02*
X372Y673D01*
X382Y673D02*
X385Y673D01*
X329Y672D02*
X337Y672D01*
X363Y672D02*
X374Y672D01*
X381Y672D02*
X385Y672D01*
X328Y671D02*
X338Y671D01*
X366Y671D02*
X377Y671D01*
X380Y671D02*
X385Y671D01*
X327Y670D02*
X332Y670D01*
X335Y670D02*
X339Y670D01*
X368Y670D02*
X384Y670D01*
X326Y669D02*
X331Y669D01*
X336Y669D02*
X340Y669D01*
X371Y669D02*
X383Y669D01*
X326Y668D02*
X330Y668D01*
X337Y668D02*
X341Y668D01*
X374Y668D02*
X382Y668D01*
X326Y667D02*
X331Y667D01*
X338Y667D02*
X348Y667D01*
X376Y667D02*
X381Y667D01*
X327Y666D02*
X332Y666D01*
X339Y666D02*
X349Y666D01*
X379Y666D02*
X380Y666D01*
X328Y665D02*
X333Y665D01*
X340Y665D02*
X350Y665D01*
X329Y664D02*
X334Y664D01*
X340Y664D02*
X351Y664D01*
X330Y663D02*
X335Y663D01*
X340Y663D02*
X345Y663D01*
X347Y663D02*
X352Y663D01*
X331Y662D02*
X336Y662D01*
X339Y662D02*
X344Y662D01*
X348Y662D02*
X353Y662D01*
X332Y661D02*
X343Y661D01*
X349Y661D02*
X354Y661D01*
X333Y660D02*
X342Y660D01*
X350Y660D02*
X355Y660D01*
X334Y659D02*
X341Y659D01*
X351Y659D02*
X356Y659D01*
X335Y658D02*
X340Y658D01*
X352Y658D02*
X357Y658D01*
X334Y657D02*
X339Y657D01*
X353Y657D02*
X357Y657D01*
X334Y656D02*
X338Y656D01*
X353Y656D02*
X357Y656D01*
X312Y655D02*
X312Y655D01*
X334Y655D02*
X337Y655D01*
X352Y655D02*
X356Y655D01*
X311Y654D02*
X313Y654D01*
X334Y654D02*
X338Y654D01*
X351Y654D02*
X356Y654D01*
X310Y653D02*
X314Y653D01*
X334Y653D02*
X339Y653D01*
X350Y653D02*
X355Y653D01*
X309Y652D02*
X315Y652D01*
X335Y652D02*
X340Y652D01*
X349Y652D02*
X354Y652D01*
X308Y651D02*
X316Y651D01*
X336Y651D02*
X341Y651D01*
X348Y651D02*
X353Y651D01*
X307Y650D02*
X317Y650D01*
X337Y650D02*
X342Y650D01*
X347Y650D02*
X352Y650D01*
X306Y649D02*
X311Y649D01*
X313Y649D02*
X318Y649D01*
X338Y649D02*
X343Y649D01*
X346Y649D02*
X351Y649D01*
X305Y648D02*
X310Y648D01*
X314Y648D02*
X319Y648D01*
X339Y648D02*
X350Y648D01*
X304Y647D02*
X309Y647D01*
X315Y647D02*
X320Y647D01*
X340Y647D02*
X349Y647D01*
X303Y646D02*
X308Y646D01*
X316Y646D02*
X321Y646D01*
X341Y646D02*
X348Y646D01*
X302Y645D02*
X307Y645D01*
X317Y645D02*
X322Y645D01*
X342Y645D02*
X347Y645D01*
X302Y644D02*
X306Y644D01*
X318Y644D02*
X323Y644D01*
X344Y644D02*
X344Y644D01*
X302Y643D02*
X305Y643D01*
X319Y643D02*
X324Y643D01*
X303Y642D02*
X303Y642D01*
X319Y642D02*
X324Y642D01*
X318Y641D02*
X323Y641D01*
X317Y640D02*
X322Y640D01*
X316Y639D02*
X321Y639D01*
X315Y638D02*
X320Y638D01*
X332Y638D02*
X335Y638D01*
X314Y637D02*
X319Y637D01*
X332Y637D02*
X335Y637D01*
X313Y636D02*
X318Y636D01*
X332Y636D02*
X335Y636D01*
X313Y635D02*
X317Y635D01*
X331Y635D02*
X335Y635D01*
X313Y634D02*
X316Y634D01*
X331Y634D02*
X334Y634D01*
X313Y633D02*
X317Y633D01*
X330Y633D02*
X334Y633D01*
X313Y632D02*
X318Y632D01*
X329Y632D02*
X333Y632D01*
X314Y631D02*
X319Y631D01*
X328Y631D02*
X333Y631D01*
X315Y630D02*
X320Y630D01*
X327Y630D02*
X332Y630D01*
X316Y629D02*
X321Y629D01*
X326Y629D02*
X331Y629D01*
X317Y628D02*
X322Y628D01*
X325Y628D02*
X330Y628D01*
X318Y627D02*
X329Y627D01*
X319Y626D02*
X328Y626D01*
X320Y625D02*
X327Y625D01*
X321Y624D02*
X326Y624D01*
X322Y623D02*
X324Y623D01*
X660Y496D02*
X740Y496D01*
X660Y495D02*
X740Y495D01*
X660Y494D02*
X740Y494D01*
X660Y493D02*
X740Y493D01*
X660Y492D02*
X740Y492D01*
X660Y491D02*
X740Y491D01*
X660Y490D02*
X740Y490D01*
X660Y489D02*
X740Y489D01*
X660Y488D02*
X740Y488D01*
X660Y487D02*
X740Y487D01*
X660Y486D02*
X740Y486D01*
X660Y485D02*
X740Y485D01*
X660Y484D02*
X740Y484D01*
X660Y483D02*
X740Y483D01*
X660Y482D02*
X740Y482D01*
X660Y481D02*
X740Y481D01*
X289Y480D02*
X297Y480D01*
X660Y480D02*
X740Y480D01*
X285Y479D02*
X300Y479D01*
X660Y479D02*
X740Y479D01*
X283Y478D02*
X303Y478D01*
X660Y478D02*
X740Y478D01*
X281Y477D02*
X305Y477D01*
X660Y477D02*
X740Y477D01*
X279Y476D02*
X306Y476D01*
X660Y476D02*
X740Y476D01*
X278Y475D02*
X308Y475D01*
X660Y475D02*
X740Y475D01*
X276Y474D02*
X309Y474D01*
X660Y474D02*
X740Y474D01*
X275Y473D02*
X310Y473D01*
X660Y473D02*
X740Y473D01*
X274Y472D02*
X288Y472D01*
X299Y472D02*
X311Y472D01*
X380Y472D02*
X401Y472D01*
X660Y472D02*
X740Y472D01*
X273Y471D02*
X285Y471D01*
X301Y471D02*
X312Y471D01*
X379Y471D02*
X401Y471D01*
X660Y471D02*
X740Y471D01*
X272Y470D02*
X283Y470D01*
X303Y470D02*
X313Y470D01*
X394Y470D02*
X397Y470D01*
X660Y470D02*
X740Y470D01*
X271Y469D02*
X282Y469D01*
X305Y469D02*
X314Y469D01*
X394Y469D02*
X395Y469D01*
X660Y469D02*
X740Y469D01*
X270Y468D02*
X280Y468D01*
X306Y468D02*
X315Y468D01*
X393Y468D02*
X394Y468D01*
X660Y468D02*
X740Y468D01*
X269Y467D02*
X279Y467D01*
X307Y467D02*
X316Y467D01*
X392Y467D02*
X393Y467D01*
X660Y467D02*
X740Y467D01*
X269Y466D02*
X278Y466D01*
X308Y466D02*
X317Y466D01*
X391Y466D02*
X394Y466D01*
X660Y466D02*
X740Y466D01*
X268Y465D02*
X277Y465D01*
X309Y465D02*
X317Y465D01*
X390Y465D02*
X395Y465D01*
X660Y465D02*
X690Y465D01*
X697Y465D02*
X740Y465D01*
X267Y464D02*
X276Y464D01*
X310Y464D02*
X318Y464D01*
X389Y464D02*
X391Y464D01*
X394Y464D02*
X396Y464D01*
X660Y464D02*
X690Y464D01*
X698Y464D02*
X740Y464D01*
X266Y463D02*
X275Y463D01*
X311Y463D02*
X319Y463D01*
X388Y463D02*
X390Y463D01*
X396Y463D02*
X398Y463D01*
X660Y463D02*
X689Y463D01*
X698Y463D02*
X740Y463D01*
X266Y462D02*
X274Y462D01*
X312Y462D02*
X320Y462D01*
X327Y462D02*
X339Y462D01*
X387Y462D02*
X389Y462D01*
X397Y462D02*
X399Y462D01*
X660Y462D02*
X689Y462D01*
X698Y462D02*
X718Y462D01*
X727Y462D02*
X740Y462D01*
X265Y461D02*
X274Y461D01*
X313Y461D02*
X320Y461D01*
X322Y461D02*
X344Y461D01*
X386Y461D02*
X388Y461D01*
X398Y461D02*
X401Y461D01*
X660Y461D02*
X689Y461D01*
X698Y461D02*
X717Y461D01*
X729Y461D02*
X740Y461D01*
X264Y460D02*
X273Y460D01*
X313Y460D02*
X346Y460D01*
X386Y460D02*
X387Y460D01*
X400Y460D02*
X401Y460D01*
X660Y460D02*
X689Y460D01*
X698Y460D02*
X715Y460D01*
X730Y460D02*
X740Y460D01*
X246Y459D02*
X257Y459D01*
X264Y459D02*
X272Y459D01*
X314Y459D02*
X348Y459D01*
X386Y459D02*
X386Y459D01*
X401Y459D02*
X401Y459D01*
X660Y459D02*
X689Y459D01*
X698Y459D02*
X714Y459D01*
X731Y459D02*
X740Y459D01*
X242Y458D02*
X248Y458D01*
X263Y458D02*
X272Y458D01*
X312Y458D02*
X350Y458D01*
X660Y458D02*
X689Y458D01*
X698Y458D02*
X714Y458D01*
X732Y458D02*
X740Y458D01*
X240Y457D02*
X244Y457D01*
X263Y457D02*
X271Y457D01*
X310Y457D02*
X351Y457D01*
X660Y457D02*
X681Y457D01*
X732Y457D02*
X740Y457D01*
X238Y456D02*
X241Y456D01*
X262Y456D02*
X270Y456D01*
X307Y456D02*
X353Y456D01*
X660Y456D02*
X678Y456D01*
X732Y456D02*
X740Y456D01*
X236Y455D02*
X239Y455D01*
X262Y455D02*
X270Y455D01*
X305Y455D02*
X326Y455D01*
X338Y455D02*
X354Y455D01*
X379Y455D02*
X382Y455D01*
X386Y455D02*
X401Y455D01*
X660Y455D02*
X676Y455D01*
X733Y455D02*
X740Y455D01*
X235Y454D02*
X238Y454D01*
X261Y454D02*
X269Y454D01*
X303Y454D02*
X324Y454D01*
X342Y454D02*
X355Y454D01*
X379Y454D02*
X382Y454D01*
X386Y454D02*
X401Y454D01*
X660Y454D02*
X675Y454D01*
X733Y454D02*
X740Y454D01*
X234Y453D02*
X236Y453D01*
X261Y453D02*
X269Y453D01*
X301Y453D02*
X324Y453D01*
X345Y453D02*
X356Y453D01*
X660Y453D02*
X674Y453D01*
X733Y453D02*
X740Y453D01*
X233Y452D02*
X235Y452D01*
X260Y452D02*
X268Y452D01*
X299Y452D02*
X314Y452D01*
X318Y452D02*
X325Y452D01*
X346Y452D02*
X356Y452D01*
X660Y452D02*
X673Y452D01*
X733Y452D02*
X740Y452D01*
X232Y451D02*
X234Y451D01*
X260Y451D02*
X268Y451D01*
X282Y451D02*
X283Y451D01*
X297Y451D02*
X311Y451D01*
X319Y451D02*
X325Y451D01*
X348Y451D02*
X357Y451D01*
X660Y451D02*
X673Y451D01*
X733Y451D02*
X740Y451D01*
X231Y450D02*
X233Y450D01*
X259Y450D02*
X267Y450D01*
X284Y450D02*
X285Y450D01*
X296Y450D02*
X308Y450D01*
X319Y450D02*
X326Y450D01*
X349Y450D02*
X358Y450D01*
X660Y450D02*
X672Y450D01*
X732Y450D02*
X740Y450D01*
X231Y449D02*
X233Y449D01*
X259Y449D02*
X267Y449D01*
X286Y449D02*
X287Y449D01*
X294Y449D02*
X306Y449D01*
X320Y449D02*
X326Y449D01*
X350Y449D02*
X358Y449D01*
X391Y449D02*
X397Y449D01*
X660Y449D02*
X672Y449D01*
X732Y449D02*
X740Y449D01*
X230Y448D02*
X232Y448D01*
X259Y448D02*
X266Y448D01*
X287Y448D02*
X289Y448D01*
X292Y448D02*
X304Y448D01*
X320Y448D02*
X326Y448D01*
X351Y448D02*
X359Y448D01*
X389Y448D02*
X399Y448D01*
X660Y448D02*
X671Y448D01*
X682Y448D02*
X689Y448D01*
X698Y448D02*
X714Y448D01*
X731Y448D02*
X740Y448D01*
X229Y447D02*
X232Y447D01*
X258Y447D02*
X266Y447D01*
X289Y447D02*
X302Y447D01*
X321Y447D02*
X327Y447D01*
X351Y447D02*
X359Y447D01*
X388Y447D02*
X391Y447D01*
X397Y447D02*
X400Y447D01*
X660Y447D02*
X671Y447D01*
X681Y447D02*
X689Y447D01*
X698Y447D02*
X715Y447D01*
X731Y447D02*
X740Y447D01*
X229Y446D02*
X231Y446D01*
X258Y446D02*
X265Y446D01*
X289Y446D02*
X300Y446D01*
X321Y446D02*
X327Y446D01*
X352Y446D02*
X359Y446D01*
X387Y446D02*
X389Y446D01*
X398Y446D02*
X400Y446D01*
X660Y446D02*
X671Y446D01*
X681Y446D02*
X689Y446D01*
X698Y446D02*
X715Y446D01*
X730Y446D02*
X740Y446D01*
X229Y445D02*
X231Y445D01*
X257Y445D02*
X265Y445D01*
X288Y445D02*
X298Y445D01*
X322Y445D02*
X328Y445D01*
X352Y445D02*
X360Y445D01*
X386Y445D02*
X388Y445D01*
X399Y445D02*
X401Y445D01*
X660Y445D02*
X671Y445D01*
X681Y445D02*
X689Y445D01*
X698Y445D02*
X717Y445D01*
X729Y445D02*
X740Y445D01*
X228Y444D02*
X230Y444D01*
X257Y444D02*
X265Y444D01*
X287Y444D02*
X296Y444D01*
X322Y444D02*
X328Y444D01*
X353Y444D02*
X360Y444D01*
X386Y444D02*
X387Y444D01*
X400Y444D02*
X401Y444D01*
X660Y444D02*
X671Y444D01*
X681Y444D02*
X689Y444D01*
X698Y444D02*
X719Y444D01*
X727Y444D02*
X740Y444D01*
X228Y443D02*
X230Y443D01*
X257Y443D02*
X264Y443D01*
X285Y443D02*
X298Y443D01*
X323Y443D02*
X328Y443D01*
X353Y443D02*
X360Y443D01*
X386Y443D02*
X387Y443D01*
X401Y443D02*
X402Y443D01*
X660Y443D02*
X671Y443D01*
X681Y443D02*
X689Y443D01*
X698Y443D02*
X740Y443D01*
X228Y442D02*
X230Y442D01*
X256Y442D02*
X264Y442D01*
X284Y442D02*
X293Y442D01*
X297Y442D02*
X299Y442D01*
X323Y442D02*
X329Y442D01*
X354Y442D02*
X361Y442D01*
X386Y442D02*
X387Y442D01*
X401Y442D02*
X402Y442D01*
X660Y442D02*
X671Y442D01*
X681Y442D02*
X689Y442D01*
X698Y442D02*
X740Y442D01*
X227Y441D02*
X230Y441D01*
X256Y441D02*
X263Y441D01*
X283Y441D02*
X291Y441D01*
X298Y441D02*
X301Y441D01*
X323Y441D02*
X329Y441D01*
X354Y441D02*
X361Y441D01*
X386Y441D02*
X387Y441D01*
X401Y441D02*
X402Y441D01*
X660Y441D02*
X671Y441D01*
X681Y441D02*
X689Y441D01*
X698Y441D02*
X740Y441D01*
X227Y440D02*
X229Y440D01*
X256Y440D02*
X263Y440D01*
X281Y440D02*
X289Y440D01*
X299Y440D02*
X302Y440D01*
X324Y440D02*
X329Y440D01*
X354Y440D02*
X361Y440D01*
X386Y440D02*
X387Y440D01*
X401Y440D02*
X401Y440D01*
X660Y440D02*
X671Y440D01*
X681Y440D02*
X690Y440D01*
X698Y440D02*
X740Y440D01*
X227Y439D02*
X229Y439D01*
X255Y439D02*
X263Y439D01*
X280Y439D02*
X288Y439D01*
X301Y439D02*
X304Y439D01*
X324Y439D02*
X329Y439D01*
X354Y439D02*
X361Y439D01*
X387Y439D02*
X387Y439D01*
X400Y439D02*
X401Y439D01*
X660Y439D02*
X671Y439D01*
X681Y439D02*
X690Y439D01*
X697Y439D02*
X740Y439D01*
X227Y438D02*
X229Y438D01*
X255Y438D02*
X262Y438D01*
X279Y438D02*
X286Y438D01*
X302Y438D02*
X305Y438D01*
X324Y438D02*
X330Y438D01*
X354Y438D02*
X361Y438D01*
X387Y438D02*
X388Y438D01*
X400Y438D02*
X400Y438D01*
X660Y438D02*
X671Y438D01*
X681Y438D02*
X740Y438D01*
X227Y437D02*
X229Y437D01*
X255Y437D02*
X262Y437D01*
X278Y437D02*
X285Y437D01*
X303Y437D02*
X306Y437D01*
X325Y437D02*
X330Y437D01*
X354Y437D02*
X361Y437D01*
X388Y437D02*
X389Y437D01*
X399Y437D02*
X400Y437D01*
X660Y437D02*
X671Y437D01*
X681Y437D02*
X740Y437D01*
X227Y436D02*
X229Y436D01*
X255Y436D02*
X262Y436D01*
X276Y436D02*
X284Y436D01*
X304Y436D02*
X308Y436D01*
X325Y436D02*
X330Y436D01*
X355Y436D02*
X361Y436D01*
X380Y436D02*
X399Y436D01*
X660Y436D02*
X671Y436D01*
X681Y436D02*
X740Y436D01*
X226Y435D02*
X229Y435D01*
X254Y435D02*
X261Y435D01*
X275Y435D02*
X282Y435D01*
X306Y435D02*
X309Y435D01*
X325Y435D02*
X331Y435D01*
X355Y435D02*
X361Y435D01*
X379Y435D02*
X401Y435D01*
X660Y435D02*
X671Y435D01*
X681Y435D02*
X740Y435D01*
X226Y434D02*
X229Y434D01*
X254Y434D02*
X261Y434D01*
X274Y434D02*
X281Y434D01*
X307Y434D02*
X310Y434D01*
X326Y434D02*
X331Y434D01*
X355Y434D02*
X361Y434D01*
X380Y434D02*
X401Y434D01*
X660Y434D02*
X672Y434D01*
X680Y434D02*
X740Y434D01*
X226Y433D02*
X229Y433D01*
X254Y433D02*
X261Y433D01*
X273Y433D02*
X279Y433D01*
X308Y433D02*
X312Y433D01*
X326Y433D02*
X331Y433D01*
X355Y433D02*
X361Y433D01*
X660Y433D02*
X672Y433D01*
X680Y433D02*
X740Y433D01*
X226Y432D02*
X229Y432D01*
X254Y432D02*
X261Y432D01*
X272Y432D02*
X278Y432D01*
X309Y432D02*
X313Y432D01*
X326Y432D02*
X331Y432D01*
X355Y432D02*
X361Y432D01*
X660Y432D02*
X674Y432D01*
X678Y432D02*
X740Y432D01*
X226Y431D02*
X229Y431D01*
X253Y431D02*
X260Y431D01*
X271Y431D02*
X297Y431D01*
X310Y431D02*
X314Y431D01*
X327Y431D02*
X331Y431D01*
X355Y431D02*
X361Y431D01*
X660Y431D02*
X740Y431D01*
X226Y430D02*
X229Y430D01*
X253Y430D02*
X260Y430D01*
X262Y430D02*
X307Y430D01*
X311Y430D02*
X315Y430D01*
X327Y430D02*
X332Y430D01*
X354Y430D02*
X361Y430D01*
X391Y430D02*
X397Y430D01*
X660Y430D02*
X740Y430D01*
X227Y429D02*
X230Y429D01*
X253Y429D02*
X316Y429D01*
X327Y429D02*
X332Y429D01*
X354Y429D02*
X361Y429D01*
X389Y429D02*
X398Y429D01*
X660Y429D02*
X740Y429D01*
X227Y428D02*
X230Y428D01*
X250Y428D02*
X319Y428D01*
X327Y428D02*
X332Y428D01*
X354Y428D02*
X361Y428D01*
X388Y428D02*
X399Y428D01*
X660Y428D02*
X740Y428D01*
X227Y427D02*
X230Y427D01*
X246Y427D02*
X276Y427D01*
X312Y427D02*
X324Y427D01*
X328Y427D02*
X332Y427D01*
X354Y427D02*
X361Y427D01*
X387Y427D02*
X400Y427D01*
X660Y427D02*
X740Y427D01*
X227Y426D02*
X230Y426D01*
X242Y426D02*
X271Y426D01*
X316Y426D02*
X332Y426D01*
X354Y426D02*
X361Y426D01*
X386Y426D02*
X401Y426D01*
X660Y426D02*
X740Y426D01*
X227Y425D02*
X230Y425D01*
X238Y425D02*
X261Y425D01*
X265Y425D02*
X270Y425D01*
X317Y425D02*
X321Y425D01*
X327Y425D02*
X333Y425D01*
X354Y425D02*
X361Y425D01*
X386Y425D02*
X390Y425D01*
X393Y425D02*
X395Y425D01*
X397Y425D02*
X401Y425D01*
X660Y425D02*
X740Y425D01*
X227Y424D02*
X231Y424D01*
X236Y424D02*
X259Y424D01*
X264Y424D02*
X269Y424D01*
X318Y424D02*
X322Y424D01*
X328Y424D02*
X334Y424D01*
X353Y424D02*
X361Y424D01*
X386Y424D02*
X389Y424D01*
X393Y424D02*
X395Y424D01*
X398Y424D02*
X401Y424D01*
X660Y424D02*
X740Y424D01*
X227Y423D02*
X231Y423D01*
X233Y423D02*
X259Y423D01*
X263Y423D02*
X267Y423D01*
X319Y423D02*
X323Y423D01*
X328Y423D02*
X333Y423D01*
X336Y423D02*
X337Y423D01*
X353Y423D02*
X360Y423D01*
X386Y423D02*
X388Y423D01*
X393Y423D02*
X395Y423D01*
X399Y423D02*
X402Y423D01*
X660Y423D02*
X740Y423D01*
X228Y422D02*
X247Y422D01*
X252Y422D02*
X258Y422D01*
X262Y422D02*
X266Y422D01*
X320Y422D02*
X324Y422D01*
X329Y422D02*
X333Y422D01*
X353Y422D02*
X360Y422D01*
X386Y422D02*
X388Y422D01*
X393Y422D02*
X395Y422D01*
X399Y422D02*
X402Y422D01*
X660Y422D02*
X740Y422D01*
X228Y421D02*
X244Y421D01*
X251Y421D02*
X258Y421D01*
X261Y421D02*
X265Y421D01*
X321Y421D02*
X325Y421D01*
X329Y421D02*
X333Y421D01*
X353Y421D02*
X360Y421D01*
X386Y421D02*
X388Y421D01*
X393Y421D02*
X395Y421D01*
X399Y421D02*
X402Y421D01*
X660Y421D02*
X740Y421D01*
X226Y420D02*
X241Y420D01*
X251Y420D02*
X258Y420D01*
X260Y420D02*
X264Y420D01*
X288Y420D02*
X292Y420D01*
X321Y420D02*
X326Y420D01*
X329Y420D02*
X333Y420D01*
X352Y420D02*
X360Y420D01*
X386Y420D02*
X389Y420D01*
X393Y420D02*
X395Y420D01*
X399Y420D02*
X401Y420D01*
X660Y420D02*
X740Y420D01*
X224Y419D02*
X238Y419D01*
X251Y419D02*
X263Y419D01*
X283Y419D02*
X297Y419D01*
X322Y419D02*
X327Y419D01*
X329Y419D02*
X334Y419D01*
X352Y419D02*
X359Y419D01*
X386Y419D02*
X390Y419D01*
X393Y419D02*
X395Y419D01*
X398Y419D02*
X401Y419D01*
X660Y419D02*
X740Y419D01*
X222Y418D02*
X236Y418D01*
X251Y418D02*
X262Y418D01*
X279Y418D02*
X303Y418D01*
X323Y418D02*
X334Y418D01*
X352Y418D02*
X359Y418D01*
X386Y418D02*
X395Y418D01*
X397Y418D02*
X401Y418D01*
X660Y418D02*
X740Y418D01*
X220Y417D02*
X233Y417D01*
X251Y417D02*
X261Y417D01*
X276Y417D02*
X303Y417D01*
X324Y417D02*
X334Y417D01*
X352Y417D02*
X359Y417D01*
X387Y417D02*
X395Y417D01*
X397Y417D02*
X400Y417D01*
X660Y417D02*
X740Y417D01*
X218Y416D02*
X233Y416D01*
X251Y416D02*
X260Y416D01*
X273Y416D02*
X308Y416D01*
X325Y416D02*
X334Y416D01*
X351Y416D02*
X359Y416D01*
X388Y416D02*
X395Y416D01*
X398Y416D02*
X400Y416D01*
X660Y416D02*
X740Y416D01*
X217Y415D02*
X233Y415D01*
X251Y415D02*
X259Y415D01*
X271Y415D02*
X310Y415D01*
X326Y415D02*
X334Y415D01*
X351Y415D02*
X358Y415D01*
X389Y415D02*
X395Y415D01*
X398Y415D02*
X399Y415D01*
X660Y415D02*
X740Y415D01*
X215Y414D02*
X227Y414D01*
X230Y414D02*
X234Y414D01*
X250Y414D02*
X258Y414D01*
X270Y414D02*
X311Y414D01*
X327Y414D02*
X334Y414D01*
X350Y414D02*
X358Y414D01*
X390Y414D02*
X395Y414D01*
X660Y414D02*
X740Y414D01*
X214Y413D02*
X225Y413D01*
X230Y413D02*
X234Y413D01*
X250Y413D02*
X257Y413D01*
X269Y413D02*
X314Y413D01*
X328Y413D02*
X334Y413D01*
X350Y413D02*
X357Y413D01*
X660Y413D02*
X740Y413D01*
X213Y412D02*
X223Y412D01*
X230Y412D02*
X235Y412D01*
X250Y412D02*
X257Y412D01*
X268Y412D02*
X317Y412D01*
X328Y412D02*
X334Y412D01*
X350Y412D02*
X357Y412D01*
X360Y412D02*
X360Y412D01*
X660Y412D02*
X740Y412D01*
X212Y411D02*
X222Y411D01*
X231Y411D02*
X235Y411D01*
X250Y411D02*
X257Y411D01*
X267Y411D02*
X319Y411D01*
X329Y411D02*
X335Y411D01*
X349Y411D02*
X357Y411D01*
X362Y411D02*
X362Y411D01*
X660Y411D02*
X740Y411D01*
X211Y410D02*
X220Y410D01*
X231Y410D02*
X235Y410D01*
X250Y410D02*
X257Y410D01*
X267Y410D02*
X320Y410D01*
X330Y410D02*
X335Y410D01*
X349Y410D02*
X356Y410D01*
X363Y410D02*
X363Y410D01*
X379Y410D02*
X400Y410D01*
X660Y410D02*
X740Y410D01*
X210Y409D02*
X219Y409D01*
X231Y409D02*
X236Y409D01*
X250Y409D02*
X256Y409D01*
X266Y409D02*
X321Y409D01*
X331Y409D02*
X336Y409D01*
X348Y409D02*
X356Y409D01*
X364Y409D02*
X364Y409D01*
X379Y409D02*
X401Y409D01*
X660Y409D02*
X740Y409D01*
X209Y408D02*
X218Y408D01*
X232Y408D02*
X236Y408D01*
X250Y408D02*
X256Y408D01*
X266Y408D02*
X322Y408D01*
X331Y408D02*
X337Y408D01*
X348Y408D02*
X356Y408D01*
X365Y408D02*
X365Y408D01*
X379Y408D02*
X401Y408D01*
X660Y408D02*
X740Y408D01*
X208Y407D02*
X216Y407D01*
X232Y407D02*
X237Y407D01*
X250Y407D02*
X256Y407D01*
X265Y407D02*
X323Y407D01*
X331Y407D02*
X338Y407D01*
X347Y407D02*
X355Y407D01*
X366Y407D02*
X366Y407D01*
X379Y407D02*
X402Y407D01*
X660Y407D02*
X740Y407D01*
X207Y406D02*
X215Y406D01*
X233Y406D02*
X237Y406D01*
X249Y406D02*
X256Y406D01*
X265Y406D02*
X324Y406D01*
X331Y406D02*
X339Y406D01*
X347Y406D02*
X355Y406D01*
X367Y406D02*
X367Y406D01*
X380Y406D02*
X402Y406D01*
X660Y406D02*
X740Y406D01*
X207Y405D02*
X214Y405D01*
X233Y405D02*
X238Y405D01*
X248Y405D02*
X256Y405D01*
X264Y405D02*
X325Y405D01*
X331Y405D02*
X339Y405D01*
X346Y405D02*
X354Y405D01*
X367Y405D02*
X368Y405D01*
X398Y405D02*
X402Y405D01*
X660Y405D02*
X740Y405D01*
X206Y404D02*
X214Y404D01*
X234Y404D02*
X238Y404D01*
X248Y404D02*
X256Y404D01*
X264Y404D02*
X325Y404D01*
X331Y404D02*
X340Y404D01*
X346Y404D02*
X354Y404D01*
X368Y404D02*
X369Y404D01*
X398Y404D02*
X401Y404D01*
X660Y404D02*
X740Y404D01*
X206Y403D02*
X213Y403D01*
X234Y403D02*
X239Y403D01*
X247Y403D02*
X256Y403D01*
X263Y403D02*
X326Y403D01*
X331Y403D02*
X341Y403D01*
X345Y403D02*
X353Y403D01*
X369Y403D02*
X369Y403D01*
X398Y403D02*
X401Y403D01*
X660Y403D02*
X740Y403D01*
X205Y402D02*
X212Y402D01*
X234Y402D02*
X240Y402D01*
X246Y402D02*
X248Y402D01*
X250Y402D02*
X256Y402D01*
X263Y402D02*
X326Y402D01*
X331Y402D02*
X342Y402D01*
X345Y402D02*
X353Y402D01*
X369Y402D02*
X370Y402D01*
X205Y401D02*
X211Y401D01*
X235Y401D02*
X240Y401D01*
X246Y401D02*
X247Y401D01*
X250Y401D02*
X256Y401D01*
X261Y401D02*
X327Y401D01*
X332Y401D02*
X335Y401D01*
X337Y401D02*
X342Y401D01*
X344Y401D02*
X352Y401D01*
X370Y401D02*
X371Y401D01*
X392Y401D02*
X395Y401D01*
X204Y400D02*
X211Y400D01*
X235Y400D02*
X241Y400D01*
X245Y400D02*
X246Y400D01*
X250Y400D02*
X256Y400D01*
X261Y400D02*
X327Y400D01*
X332Y400D02*
X335Y400D01*
X337Y400D02*
X352Y400D01*
X370Y400D02*
X371Y400D01*
X390Y400D02*
X398Y400D01*
X204Y399D02*
X210Y399D01*
X236Y399D02*
X241Y399D01*
X244Y399D02*
X246Y399D01*
X249Y399D02*
X256Y399D01*
X260Y399D02*
X328Y399D01*
X332Y399D02*
X335Y399D01*
X338Y399D02*
X351Y399D01*
X371Y399D02*
X371Y399D01*
X388Y399D02*
X399Y399D01*
X204Y398D02*
X210Y398D01*
X236Y398D02*
X242Y398D01*
X244Y398D02*
X245Y398D01*
X249Y398D02*
X256Y398D01*
X259Y398D02*
X328Y398D01*
X332Y398D02*
X335Y398D01*
X339Y398D02*
X351Y398D01*
X371Y398D02*
X372Y398D01*
X387Y398D02*
X400Y398D01*
X204Y397D02*
X210Y397D01*
X237Y397D02*
X244Y397D01*
X249Y397D02*
X256Y397D01*
X258Y397D02*
X329Y397D01*
X332Y397D02*
X335Y397D01*
X339Y397D02*
X350Y397D01*
X371Y397D02*
X372Y397D01*
X387Y397D02*
X401Y397D01*
X203Y396D02*
X209Y396D01*
X238Y396D02*
X243Y396D01*
X249Y396D02*
X256Y396D01*
X258Y396D02*
X329Y396D01*
X332Y396D02*
X335Y396D01*
X340Y396D02*
X350Y396D01*
X371Y396D02*
X372Y396D01*
X386Y396D02*
X401Y396D01*
X203Y395D02*
X209Y395D01*
X238Y395D02*
X244Y395D01*
X250Y395D02*
X256Y395D01*
X258Y395D02*
X329Y395D01*
X332Y395D02*
X335Y395D01*
X341Y395D02*
X349Y395D01*
X371Y395D02*
X372Y395D01*
X386Y395D02*
X389Y395D01*
X393Y395D02*
X395Y395D01*
X398Y395D02*
X401Y395D01*
X203Y394D02*
X209Y394D01*
X239Y394D02*
X244Y394D01*
X250Y394D02*
X256Y394D01*
X258Y394D02*
X329Y394D01*
X332Y394D02*
X335Y394D01*
X340Y394D02*
X348Y394D01*
X371Y394D02*
X372Y394D01*
X386Y394D02*
X389Y394D01*
X393Y394D02*
X395Y394D01*
X399Y394D02*
X402Y394D01*
X203Y393D02*
X209Y393D01*
X239Y393D02*
X245Y393D01*
X250Y393D02*
X256Y393D01*
X259Y393D02*
X329Y393D01*
X332Y393D02*
X335Y393D01*
X340Y393D02*
X348Y393D01*
X371Y393D02*
X372Y393D01*
X386Y393D02*
X388Y393D01*
X393Y393D02*
X395Y393D01*
X399Y393D02*
X402Y393D01*
X203Y392D02*
X209Y392D01*
X240Y392D02*
X246Y392D01*
X250Y392D02*
X256Y392D01*
X260Y392D02*
X329Y392D01*
X332Y392D02*
X335Y392D01*
X339Y392D02*
X348Y392D01*
X371Y392D02*
X372Y392D01*
X386Y392D02*
X388Y392D01*
X393Y392D02*
X395Y392D01*
X399Y392D02*
X402Y392D01*
X203Y391D02*
X210Y391D01*
X240Y391D02*
X246Y391D01*
X250Y391D02*
X256Y391D01*
X261Y391D02*
X329Y391D01*
X332Y391D02*
X335Y391D01*
X338Y391D02*
X349Y391D01*
X371Y391D02*
X372Y391D01*
X386Y391D02*
X389Y391D01*
X393Y391D02*
X395Y391D01*
X399Y391D02*
X402Y391D01*
X204Y390D02*
X210Y390D01*
X239Y390D02*
X247Y390D01*
X250Y390D02*
X256Y390D01*
X261Y390D02*
X328Y390D01*
X332Y390D02*
X335Y390D01*
X338Y390D02*
X349Y390D01*
X371Y390D02*
X372Y390D01*
X386Y390D02*
X389Y390D01*
X393Y390D02*
X395Y390D01*
X398Y390D02*
X401Y390D01*
X204Y389D02*
X210Y389D01*
X239Y389D02*
X239Y389D01*
X242Y389D02*
X248Y389D01*
X250Y389D02*
X256Y389D01*
X261Y389D02*
X328Y389D01*
X332Y389D02*
X335Y389D01*
X337Y389D02*
X350Y389D01*
X370Y389D02*
X372Y389D01*
X386Y389D02*
X395Y389D01*
X398Y389D02*
X401Y389D01*
X204Y388D02*
X211Y388D01*
X238Y388D02*
X238Y388D01*
X242Y388D02*
X256Y388D01*
X261Y388D02*
X328Y388D01*
X332Y388D02*
X351Y388D01*
X370Y388D02*
X372Y388D01*
X387Y388D02*
X395Y388D01*
X397Y388D02*
X401Y388D01*
X204Y387D02*
X211Y387D01*
X238Y387D02*
X238Y387D01*
X243Y387D02*
X256Y387D01*
X262Y387D02*
X327Y387D01*
X332Y387D02*
X334Y387D01*
X336Y387D02*
X351Y387D01*
X369Y387D02*
X371Y387D01*
X387Y387D02*
X395Y387D01*
X398Y387D02*
X400Y387D01*
X205Y386D02*
X212Y386D01*
X237Y386D02*
X237Y386D01*
X243Y386D02*
X256Y386D01*
X263Y386D02*
X327Y386D01*
X332Y386D02*
X343Y386D01*
X346Y386D02*
X352Y386D01*
X369Y386D02*
X371Y386D01*
X388Y386D02*
X395Y386D01*
X398Y386D02*
X399Y386D01*
X205Y385D02*
X213Y385D01*
X237Y385D02*
X237Y385D01*
X244Y385D02*
X256Y385D01*
X263Y385D02*
X326Y385D01*
X332Y385D02*
X343Y385D01*
X346Y385D02*
X352Y385D01*
X368Y385D02*
X370Y385D01*
X389Y385D02*
X395Y385D01*
X398Y385D02*
X398Y385D01*
X206Y384D02*
X213Y384D01*
X236Y384D02*
X236Y384D01*
X245Y384D02*
X256Y384D01*
X263Y384D02*
X325Y384D01*
X332Y384D02*
X342Y384D01*
X347Y384D02*
X353Y384D01*
X368Y384D02*
X370Y384D01*
X391Y384D02*
X395Y384D01*
X206Y383D02*
X214Y383D01*
X246Y383D02*
X256Y383D01*
X264Y383D02*
X325Y383D01*
X332Y383D02*
X341Y383D01*
X347Y383D02*
X353Y383D01*
X367Y383D02*
X369Y383D01*
X207Y382D02*
X215Y382D01*
X235Y382D02*
X235Y382D01*
X246Y382D02*
X256Y382D01*
X264Y382D02*
X324Y382D01*
X332Y382D02*
X340Y382D01*
X348Y382D02*
X354Y382D01*
X366Y382D02*
X369Y382D01*
X392Y382D02*
X395Y382D01*
X208Y381D02*
X216Y381D01*
X247Y381D02*
X256Y381D01*
X264Y381D02*
X324Y381D01*
X331Y381D02*
X340Y381D01*
X348Y381D02*
X354Y381D01*
X365Y381D02*
X368Y381D01*
X390Y381D02*
X398Y381D01*
X209Y380D02*
X218Y380D01*
X248Y380D02*
X256Y380D01*
X265Y380D02*
X323Y380D01*
X330Y380D02*
X339Y380D01*
X349Y380D02*
X355Y380D01*
X364Y380D02*
X367Y380D01*
X388Y380D02*
X399Y380D01*
X209Y379D02*
X219Y379D01*
X248Y379D02*
X256Y379D01*
X265Y379D02*
X322Y379D01*
X330Y379D02*
X338Y379D01*
X349Y379D02*
X355Y379D01*
X363Y379D02*
X366Y379D01*
X387Y379D02*
X400Y379D01*
X210Y378D02*
X220Y378D01*
X249Y378D02*
X257Y378D01*
X265Y378D02*
X321Y378D01*
X329Y378D02*
X337Y378D01*
X349Y378D02*
X355Y378D01*
X361Y378D02*
X365Y378D01*
X387Y378D02*
X400Y378D01*
X211Y377D02*
X222Y377D01*
X250Y377D02*
X257Y377D01*
X265Y377D02*
X320Y377D01*
X328Y377D02*
X336Y377D01*
X350Y377D02*
X356Y377D01*
X360Y377D02*
X364Y377D01*
X386Y377D02*
X393Y377D01*
X395Y377D02*
X401Y377D01*
X212Y376D02*
X223Y376D01*
X251Y376D02*
X258Y376D01*
X266Y376D02*
X319Y376D01*
X327Y376D02*
X336Y376D01*
X350Y376D02*
X356Y376D01*
X358Y376D02*
X363Y376D01*
X386Y376D02*
X390Y376D01*
X397Y376D02*
X401Y376D01*
X213Y375D02*
X225Y375D01*
X251Y375D02*
X259Y375D01*
X266Y375D02*
X318Y375D01*
X326Y375D02*
X335Y375D01*
X351Y375D02*
X362Y375D01*
X386Y375D02*
X389Y375D01*
X398Y375D02*
X402Y375D01*
X214Y374D02*
X227Y374D01*
X251Y374D02*
X260Y374D01*
X267Y374D02*
X316Y374D01*
X325Y374D02*
X334Y374D01*
X351Y374D02*
X360Y374D01*
X386Y374D02*
X389Y374D01*
X398Y374D02*
X402Y374D01*
X216Y373D02*
X229Y373D01*
X251Y373D02*
X261Y373D01*
X268Y373D02*
X314Y373D01*
X324Y373D02*
X333Y373D01*
X351Y373D02*
X359Y373D01*
X386Y373D02*
X389Y373D01*
X398Y373D02*
X402Y373D01*
X217Y372D02*
X231Y372D01*
X251Y372D02*
X262Y372D01*
X269Y372D02*
X313Y372D01*
X323Y372D02*
X333Y372D01*
X351Y372D02*
X358Y372D01*
X386Y372D02*
X389Y372D01*
X398Y372D02*
X402Y372D01*
X219Y371D02*
X234Y371D01*
X251Y371D02*
X263Y371D01*
X270Y371D02*
X313Y371D01*
X323Y371D02*
X333Y371D01*
X349Y371D02*
X358Y371D01*
X386Y371D02*
X390Y371D01*
X397Y371D02*
X401Y371D01*
X220Y370D02*
X236Y370D01*
X252Y370D02*
X264Y370D01*
X271Y370D02*
X312Y370D01*
X322Y370D02*
X332Y370D01*
X346Y370D02*
X358Y370D01*
X386Y370D02*
X390Y370D01*
X397Y370D02*
X401Y370D01*
X222Y369D02*
X239Y369D01*
X252Y369D02*
X265Y369D01*
X273Y369D02*
X311Y369D01*
X321Y369D02*
X332Y369D01*
X343Y369D02*
X359Y369D01*
X387Y369D02*
X390Y369D01*
X397Y369D02*
X401Y369D01*
X224Y368D02*
X242Y368D01*
X252Y368D02*
X266Y368D01*
X276Y368D02*
X309Y368D01*
X320Y368D02*
X329Y368D01*
X331Y368D02*
X332Y368D01*
X340Y368D02*
X351Y368D01*
X353Y368D02*
X359Y368D01*
X387Y368D02*
X390Y368D01*
X398Y368D02*
X400Y368D01*
X226Y367D02*
X246Y367D01*
X252Y367D02*
X267Y367D01*
X280Y367D02*
X300Y367D01*
X303Y367D02*
X307Y367D01*
X319Y367D02*
X328Y367D01*
X330Y367D02*
X332Y367D01*
X337Y367D02*
X349Y367D01*
X353Y367D02*
X359Y367D01*
X388Y367D02*
X389Y367D01*
X398Y367D02*
X399Y367D01*
X228Y366D02*
X249Y366D01*
X252Y366D02*
X257Y366D01*
X259Y366D02*
X268Y366D01*
X283Y366D02*
X296Y366D01*
X318Y366D02*
X327Y366D01*
X330Y366D02*
X347Y366D01*
X353Y366D02*
X359Y366D01*
X389Y366D02*
X389Y366D01*
X398Y366D02*
X398Y366D01*
X230Y365D02*
X258Y365D01*
X260Y365D02*
X269Y365D01*
X317Y365D02*
X326Y365D01*
X329Y365D02*
X344Y365D01*
X354Y365D02*
X360Y365D01*
X232Y364D02*
X259Y364D01*
X261Y364D02*
X270Y364D01*
X316Y364D02*
X342Y364D01*
X354Y364D02*
X360Y364D01*
X386Y364D02*
X389Y364D01*
X235Y363D02*
X271Y363D01*
X315Y363D02*
X339Y363D01*
X354Y363D02*
X360Y363D01*
X386Y363D02*
X389Y363D01*
X238Y362D02*
X274Y362D01*
X309Y362D02*
X336Y362D01*
X354Y362D02*
X360Y362D01*
X381Y362D02*
X399Y362D01*
X242Y361D02*
X333Y361D01*
X354Y361D02*
X361Y361D01*
X381Y361D02*
X401Y361D01*
X245Y360D02*
X330Y360D01*
X355Y360D02*
X361Y360D01*
X381Y360D02*
X401Y360D01*
X228Y359D02*
X228Y359D01*
X249Y359D02*
X325Y359D01*
X329Y359D02*
X330Y359D01*
X355Y359D02*
X361Y359D01*
X381Y359D02*
X402Y359D01*
X228Y358D02*
X228Y358D01*
X254Y358D02*
X320Y358D01*
X329Y358D02*
X330Y358D01*
X355Y358D02*
X361Y358D01*
X381Y358D02*
X402Y358D01*
X228Y357D02*
X228Y357D01*
X254Y357D02*
X317Y357D01*
X329Y357D02*
X329Y357D01*
X355Y357D02*
X361Y357D01*
X386Y357D02*
X389Y357D01*
X397Y357D02*
X402Y357D01*
X228Y356D02*
X228Y356D01*
X254Y356D02*
X259Y356D01*
X266Y356D02*
X316Y356D01*
X329Y356D02*
X329Y356D01*
X355Y356D02*
X361Y356D01*
X386Y356D02*
X389Y356D01*
X398Y356D02*
X401Y356D01*
X228Y355D02*
X228Y355D01*
X255Y355D02*
X260Y355D01*
X270Y355D02*
X294Y355D01*
X306Y355D02*
X315Y355D01*
X328Y355D02*
X329Y355D01*
X355Y355D02*
X361Y355D01*
X386Y355D02*
X389Y355D01*
X398Y355D02*
X401Y355D01*
X228Y354D02*
X228Y354D01*
X255Y354D02*
X260Y354D01*
X272Y354D02*
X282Y354D01*
X304Y354D02*
X314Y354D01*
X328Y354D02*
X329Y354D01*
X355Y354D02*
X361Y354D01*
X386Y354D02*
X388Y354D01*
X398Y354D02*
X401Y354D01*
X228Y353D02*
X228Y353D01*
X255Y353D02*
X260Y353D01*
X273Y353D02*
X284Y353D01*
X303Y353D02*
X313Y353D01*
X328Y353D02*
X328Y353D01*
X355Y353D02*
X361Y353D01*
X400Y353D02*
X401Y353D01*
X228Y352D02*
X228Y352D01*
X256Y352D02*
X260Y352D01*
X274Y352D02*
X285Y352D01*
X302Y352D02*
X311Y352D01*
X328Y352D02*
X328Y352D01*
X355Y352D02*
X361Y352D01*
X228Y351D02*
X228Y351D01*
X256Y351D02*
X261Y351D01*
X275Y351D02*
X286Y351D01*
X301Y351D02*
X310Y351D01*
X327Y351D02*
X328Y351D01*
X355Y351D02*
X361Y351D01*
X228Y350D02*
X228Y350D01*
X256Y350D02*
X261Y350D01*
X276Y350D02*
X288Y350D01*
X299Y350D02*
X309Y350D01*
X327Y350D02*
X327Y350D01*
X355Y350D02*
X361Y350D01*
X386Y350D02*
X401Y350D01*
X228Y349D02*
X228Y349D01*
X257Y349D02*
X261Y349D01*
X278Y349D02*
X289Y349D01*
X298Y349D02*
X307Y349D01*
X327Y349D02*
X327Y349D01*
X355Y349D02*
X361Y349D01*
X386Y349D02*
X401Y349D01*
X228Y348D02*
X228Y348D01*
X257Y348D02*
X262Y348D01*
X279Y348D02*
X291Y348D01*
X296Y348D02*
X306Y348D01*
X327Y348D02*
X327Y348D01*
X354Y348D02*
X361Y348D01*
X386Y348D02*
X401Y348D01*
X228Y347D02*
X229Y347D01*
X257Y347D02*
X262Y347D01*
X280Y347D02*
X292Y347D01*
X295Y347D02*
X305Y347D01*
X326Y347D02*
X326Y347D01*
X354Y347D02*
X361Y347D01*
X386Y347D02*
X401Y347D01*
X228Y346D02*
X229Y346D01*
X258Y346D02*
X262Y346D01*
X281Y346D02*
X303Y346D01*
X326Y346D02*
X326Y346D01*
X354Y346D02*
X360Y346D01*
X388Y346D02*
X401Y346D01*
X229Y345D02*
X229Y345D01*
X258Y345D02*
X263Y345D01*
X283Y345D02*
X302Y345D01*
X354Y345D02*
X360Y345D01*
X388Y345D02*
X391Y345D01*
X229Y344D02*
X230Y344D01*
X258Y344D02*
X263Y344D01*
X284Y344D02*
X300Y344D01*
X353Y344D02*
X360Y344D01*
X387Y344D02*
X390Y344D01*
X229Y343D02*
X230Y343D01*
X259Y343D02*
X263Y343D01*
X286Y343D02*
X299Y343D01*
X353Y343D02*
X360Y343D01*
X386Y343D02*
X390Y343D01*
X229Y342D02*
X230Y342D01*
X259Y342D02*
X264Y342D01*
X287Y342D02*
X301Y342D01*
X352Y342D02*
X359Y342D01*
X386Y342D02*
X389Y342D01*
X230Y341D02*
X231Y341D01*
X260Y341D02*
X264Y341D01*
X285Y341D02*
X303Y341D01*
X352Y341D02*
X359Y341D01*
X386Y341D02*
X389Y341D01*
X230Y340D02*
X232Y340D01*
X260Y340D02*
X264Y340D01*
X284Y340D02*
X305Y340D01*
X351Y340D02*
X359Y340D01*
X231Y339D02*
X232Y339D01*
X260Y339D02*
X265Y339D01*
X282Y339D02*
X307Y339D01*
X350Y339D02*
X358Y339D01*
X390Y339D02*
X397Y339D01*
X231Y338D02*
X233Y338D01*
X261Y338D02*
X265Y338D01*
X280Y338D02*
X290Y338D01*
X293Y338D02*
X310Y338D01*
X349Y338D02*
X358Y338D01*
X389Y338D02*
X399Y338D01*
X232Y337D02*
X234Y337D01*
X261Y337D02*
X266Y337D01*
X278Y337D02*
X289Y337D01*
X295Y337D02*
X312Y337D01*
X348Y337D02*
X357Y337D01*
X388Y337D02*
X400Y337D01*
X233Y336D02*
X235Y336D01*
X262Y336D02*
X266Y336D01*
X275Y336D02*
X287Y336D01*
X297Y336D02*
X315Y336D01*
X347Y336D02*
X357Y336D01*
X387Y336D02*
X400Y336D01*
X233Y335D02*
X236Y335D01*
X262Y335D02*
X267Y335D01*
X273Y335D02*
X285Y335D01*
X299Y335D02*
X318Y335D01*
X345Y335D02*
X356Y335D01*
X386Y335D02*
X401Y335D01*
X234Y334D02*
X237Y334D01*
X263Y334D02*
X267Y334D01*
X270Y334D02*
X282Y334D01*
X301Y334D02*
X321Y334D01*
X343Y334D02*
X355Y334D01*
X386Y334D02*
X391Y334D01*
X397Y334D02*
X401Y334D01*
X235Y333D02*
X239Y333D01*
X263Y333D02*
X280Y333D01*
X303Y333D02*
X327Y333D01*
X339Y333D02*
X354Y333D01*
X386Y333D02*
X390Y333D01*
X398Y333D02*
X402Y333D01*
X237Y332D02*
X241Y332D01*
X264Y332D02*
X278Y332D01*
X305Y332D02*
X353Y332D01*
X386Y332D02*
X389Y332D01*
X398Y332D02*
X402Y332D01*
X238Y331D02*
X245Y331D01*
X259Y331D02*
X275Y331D01*
X307Y331D02*
X352Y331D01*
X386Y331D02*
X389Y331D01*
X398Y331D02*
X402Y331D01*
X240Y330D02*
X272Y330D01*
X309Y330D02*
X351Y330D01*
X386Y330D02*
X389Y330D01*
X398Y330D02*
X402Y330D01*
X242Y329D02*
X270Y329D01*
X312Y329D02*
X349Y329D01*
X386Y329D02*
X390Y329D01*
X398Y329D02*
X401Y329D01*
X245Y328D02*
X270Y328D01*
X315Y328D02*
X347Y328D01*
X386Y328D02*
X391Y328D01*
X396Y328D02*
X401Y328D01*
X250Y327D02*
X258Y327D01*
X267Y327D02*
X271Y327D01*
X318Y327D02*
X345Y327D01*
X386Y327D02*
X401Y327D01*
X268Y326D02*
X272Y326D01*
X322Y326D02*
X342Y326D01*
X387Y326D02*
X400Y326D01*
X268Y325D02*
X272Y325D01*
X328Y325D02*
X337Y325D01*
X388Y325D02*
X400Y325D01*
X269Y324D02*
X273Y324D01*
X389Y324D02*
X398Y324D01*
X270Y323D02*
X274Y323D01*
X314Y323D02*
X314Y323D01*
X391Y323D02*
X397Y323D01*
X271Y322D02*
X275Y322D01*
X313Y322D02*
X313Y322D01*
X272Y321D02*
X276Y321D01*
X312Y321D02*
X312Y321D01*
X273Y320D02*
X277Y320D01*
X311Y320D02*
X311Y320D01*
X274Y319D02*
X278Y319D01*
X310Y319D02*
X310Y319D01*
X386Y319D02*
X401Y319D01*
X275Y318D02*
X279Y318D01*
X309Y318D02*
X309Y318D01*
X386Y318D02*
X401Y318D01*
X276Y317D02*
X280Y317D01*
X308Y317D02*
X308Y317D01*
X386Y317D02*
X401Y317D01*
X277Y316D02*
X281Y316D01*
X306Y316D02*
X307Y316D01*
X386Y316D02*
X401Y316D01*
X278Y315D02*
X283Y315D01*
X304Y315D02*
X306Y315D01*
X388Y315D02*
X401Y315D01*
X279Y314D02*
X285Y314D01*
X302Y314D02*
X305Y314D01*
X387Y314D02*
X391Y314D01*
X281Y313D02*
X288Y313D01*
X300Y313D02*
X303Y313D01*
X387Y313D02*
X390Y313D01*
X283Y312D02*
X301Y312D01*
X386Y312D02*
X389Y312D01*
X286Y311D02*
X299Y311D01*
X386Y311D02*
X389Y311D01*
X290Y310D02*
X295Y310D01*
X386Y310D02*
X389Y310D01*
X386Y309D02*
X391Y309D01*
X386Y308D02*
X401Y308D01*
X386Y307D02*
X401Y307D01*
X386Y306D02*
X401Y306D01*
X387Y305D02*
X401Y305D01*
X390Y304D02*
X401Y304D01*
D02*
G04 End of Silk0*
M02*