G04 MADE WITH FRITZING*
G04 WWW.FRITZING.ORG*
G04 DOUBLE SIDED*
G04 HOLES PLATED*
G04 CONTOUR ON CENTER OF CONTOUR VECTOR*
%ASAXBY*%
%FSLAX23Y23*%
%MOIN*%
%OFA0B0*%
%SFA1.0B1.0*%
%ADD10C,0.084000*%
%ADD11C,0.088000*%
%ADD12C,0.085000*%
%ADD13C,0.109000*%
%ADD14C,0.072992*%
%ADD15C,0.077559*%
%ADD16C,0.089370*%
%ADD17C,0.069055*%
%ADD18R,0.085000X0.085000*%
%ADD19R,0.072992X0.072992*%
%ADD20C,0.039000*%
%LNMASK0*%
G90*
G70*
G54D10*
X670Y344D03*
X563Y344D03*
X456Y344D03*
G54D11*
X740Y580D03*
X740Y781D03*
X740Y680D03*
G54D12*
X552Y860D03*
X252Y860D03*
X552Y760D03*
X252Y760D03*
X552Y660D03*
X252Y660D03*
X552Y560D03*
X252Y560D03*
X552Y860D03*
X252Y860D03*
X552Y760D03*
X252Y760D03*
X552Y660D03*
X252Y660D03*
X552Y560D03*
X252Y560D03*
G54D13*
X267Y250D03*
X67Y250D03*
X167Y450D03*
G54D12*
X118Y651D03*
X118Y751D03*
X118Y651D03*
X118Y751D03*
X496Y1026D03*
X396Y1026D03*
X496Y1026D03*
X396Y1026D03*
X158Y990D03*
X58Y990D03*
X158Y990D03*
X58Y990D03*
G54D14*
X642Y1013D03*
X740Y1013D03*
G54D15*
X500Y1218D03*
X400Y1218D03*
X300Y1218D03*
G54D16*
X500Y128D03*
X400Y128D03*
X300Y128D03*
G54D17*
X209Y1218D03*
X591Y1218D03*
X591Y92D03*
X213Y96D03*
G54D18*
X552Y860D03*
X552Y860D03*
X158Y990D03*
X158Y990D03*
G54D19*
X642Y1013D03*
G54D20*
G36*
X32Y285D02*
X102Y285D01*
X102Y215D01*
X32Y215D01*
X32Y285D01*
G37*
D02*
G04 End of Mask0*
M02*