G04 MADE WITH FRITZING*
G04 WWW.FRITZING.ORG*
G04 DOUBLE SIDED*
G04 HOLES PLATED*
G04 CONTOUR ON CENTER OF CONTOUR VECTOR*
%ASAXBY*%
%FSLAX23Y23*%
%MOIN*%
%OFA0B0*%
%SFA1.0B1.0*%
%ADD10C,0.066929*%
%ADD11C,0.059055*%
%ADD12C,0.039370*%
%ADD13C,0.055315X0.0549213*%
%ADD14C,0.000197*%
%ADD15C,0.009843*%
%ADD16C,0.001000*%
%ADD10C,0.008*%
%LNCONTOUR*%
G90*
G70*
G54D10*
G01X335Y1218D02*
G75*
G03X335Y1218I-33J0D01*
G01*
G01X335Y1218D02*
G75*
G03X335Y1218I-33J0D01*
G01*
G01X331Y1218D02*
G75*
G03X331Y1218I-30J0D01*
G01*
G01X321Y1218D02*
G75*
G03X321Y1218I-20J0D01*
G01*
G01X435Y1218D02*
G75*
G03X435Y1218I-33J0D01*
G01*
G01X435Y1218D02*
G75*
G03X435Y1218I-33J0D01*
G01*
G01X431Y1218D02*
G75*
G03X431Y1218I-30J0D01*
G01*
G01X421Y1218D02*
G75*
G03X421Y1218I-20J0D01*
G01*
G01X535Y1218D02*
G75*
G03X535Y1218I-33J0D01*
G01*
G01X535Y1218D02*
G75*
G03X535Y1218I-33J0D01*
G01*
G01X531Y1218D02*
G75*
G03X531Y1218I-30J0D01*
G01*
G01X521Y1218D02*
G75*
G03X521Y1218I-20J0D01*
G01*
G54D14*
G01X618Y1218D02*
G75*
G03X618Y1218I-28J0D01*
G01*
G01X239Y1218D02*
G75*
G03X239Y1218I-28J0D01*
G01*
G01X335Y127D02*
G75*
G03X335Y127I-33J0D01*
G01*
G01X335Y127D02*
G75*
G03X335Y127I-33J0D01*
G01*
G01X331Y127D02*
G75*
G03X331Y127I-30J0D01*
G01*
G01X321Y127D02*
G75*
G03X321Y127I-20J0D01*
G01*
G01X435Y127D02*
G75*
G03X435Y127I-33J0D01*
G01*
G01X435Y127D02*
G75*
G03X435Y127I-33J0D01*
G01*
G01X431Y127D02*
G75*
G03X431Y127I-30J0D01*
G01*
G01X421Y127D02*
G75*
G03X421Y127I-20J0D01*
G01*
G01X535Y127D02*
G75*
G03X535Y127I-33J0D01*
G01*
G01X535Y127D02*
G75*
G03X535Y127I-33J0D01*
G01*
G01X531Y127D02*
G75*
G03X531Y127I-30J0D01*
G01*
G01X521Y127D02*
G75*
G03X521Y127I-20J0D01*
G01*
G01X239Y94D02*
G75*
G03X239Y94I-28J0D01*
G01*
G01X618Y94D02*
G75*
G03X618Y94I-28J0D01*
G01*
X149Y1178D02*
X151Y1178D01*
D02*
X651Y1178D02*
X653Y1178D01*
D02*
X653Y133D02*
X651Y133D01*
D02*
X151Y133D02*
X149Y133D01*
G54D15*
D02*
X611Y1060D02*
X592Y1040D01*
D02*
X592Y1040D02*
X572Y1060D01*
D02*
X592Y1040D02*
X592Y1119D01*
X150Y1311D02*
X150Y1310D01*
X150Y1183D01*
X151Y1182D01*
X152Y1182D01*
X153Y1181D01*
X154Y1181D01*
X155Y1180D01*
X156Y1180D01*
X157Y1179D01*
X158Y1179D01*
X159Y1178D01*
X160Y1178D01*
X161Y1177D01*
X162Y1177D01*
X163Y1176D01*
X164Y1176D01*
X165Y1175D01*
X166Y1174D01*
X167Y1173D01*
X168Y1172D01*
X168Y1171D01*
X169Y1170D01*
X169Y1169D01*
X170Y1168D01*
X170Y1165D01*
X171Y1164D01*
X171Y1153D01*
X170Y1152D01*
X170Y1148D01*
X169Y1147D01*
X168Y1146D01*
X168Y1145D01*
X167Y1144D01*
X166Y1143D01*
X165Y1143D01*
X164Y1142D01*
X163Y1142D01*
X162Y1141D01*
X161Y1141D01*
X160Y1140D01*
X159Y1140D01*
X158Y1140D01*
X157Y1140D01*
X156Y1140D01*
X155Y1140D01*
X154Y1140D01*
X153Y1140D01*
X152Y1139D01*
X151Y1139D01*
X150Y1139D01*
X149Y1139D01*
X148Y1139D01*
X147Y1139D01*
X146Y1139D01*
X145Y1139D01*
X144Y1139D01*
X143Y1139D01*
X142Y1139D01*
X141Y1139D01*
X140Y1139D01*
X139Y1139D01*
X138Y1139D01*
X137Y1139D01*
X136Y1139D01*
X135Y1139D01*
X134Y1139D01*
X133Y1139D01*
X132Y1139D01*
X131Y1139D01*
X130Y1139D01*
X129Y1139D01*
X128Y1139D01*
X127Y1139D01*
X126Y1139D01*
X125Y1139D01*
X124Y1139D01*
X123Y1139D01*
X122Y1139D01*
X121Y1139D01*
X120Y1139D01*
X119Y1139D01*
X118Y1139D01*
X117Y1139D01*
X116Y1139D01*
X115Y1138D01*
X114Y1138D01*
X113Y1138D01*
X112Y1138D01*
X111Y1138D01*
X110Y1138D01*
X109Y1138D01*
X108Y1138D01*
X107Y1138D01*
X106Y1138D01*
X105Y1138D01*
X104Y1138D01*
X103Y1138D01*
X102Y1138D01*
X101Y1138D01*
X100Y1138D01*
X99Y1138D01*
X98Y1138D01*
X97Y1138D01*
X96Y1138D01*
X95Y1138D01*
X94Y1138D01*
X93Y1138D01*
X92Y1138D01*
X91Y1138D01*
X90Y1138D01*
X89Y1138D01*
X88Y1138D01*
X87Y1138D01*
X86Y1138D01*
X85Y1138D01*
X84Y1138D01*
X83Y1138D01*
X82Y1138D01*
X81Y1138D01*
X80Y1138D01*
X79Y1138D01*
X78Y1138D01*
X77Y1138D01*
X76Y1138D01*
X75Y1138D01*
X74Y1138D01*
X73Y1138D01*
X72Y1138D01*
X71Y1138D01*
X70Y1138D01*
X69Y1138D01*
X68Y1138D01*
X67Y1138D01*
X66Y1138D01*
X65Y1138D01*
X64Y1138D01*
X63Y1138D01*
X62Y1138D01*
X61Y1138D01*
X60Y1138D01*
X59Y1138D01*
X58Y1138D01*
X57Y1138D01*
X56Y1138D01*
X55Y1138D01*
X54Y1138D01*
X53Y1138D01*
X52Y1138D01*
X51Y1138D01*
X50Y1138D01*
X49Y1138D01*
X48Y1138D01*
X47Y1138D01*
X46Y1138D01*
X45Y1138D01*
X44Y1138D01*
X43Y1138D01*
X42Y1138D01*
X41Y1138D01*
X40Y1138D01*
X39Y1138D01*
X38Y1138D01*
X37Y1138D01*
X36Y1138D01*
X35Y1138D01*
X34Y1138D01*
X33Y1138D01*
X32Y1138D01*
X31Y1138D01*
X30Y1138D01*
X29Y1138D01*
X28Y1138D01*
X27Y1138D01*
X26Y1138D01*
X25Y1138D01*
X24Y1138D01*
X23Y1138D01*
X22Y1138D01*
X21Y1138D01*
X20Y1138D01*
X19Y1138D01*
X18Y1138D01*
X17Y1138D01*
X16Y1138D01*
X15Y1138D01*
X14Y1138D01*
X13Y1138D01*
X12Y1138D01*
X11Y1138D01*
X10Y1138D01*
X9Y1138D01*
X8Y1138D01*
X7Y1138D01*
X6Y1138D01*
X5Y1138D01*
X4Y1138D01*
X3Y1138D01*
X2Y1138D01*
X1Y1138D01*
X0Y1138D01*
X0Y174D01*
X1Y174D01*
X2Y174D01*
X3Y174D01*
X4Y174D01*
X5Y174D01*
X6Y174D01*
X7Y174D01*
X8Y174D01*
X9Y174D01*
X10Y174D01*
X11Y174D01*
X12Y174D01*
X13Y174D01*
X14Y174D01*
X15Y174D01*
X16Y174D01*
X17Y174D01*
X18Y174D01*
X19Y174D01*
X20Y174D01*
X21Y174D01*
X22Y174D01*
X23Y174D01*
X24Y174D01*
X25Y174D01*
X26Y174D01*
X27Y174D01*
X28Y174D01*
X29Y174D01*
X30Y174D01*
X31Y174D01*
X32Y174D01*
X33Y174D01*
X34Y174D01*
X35Y174D01*
X36Y174D01*
X37Y174D01*
X38Y174D01*
X39Y174D01*
X40Y174D01*
X41Y174D01*
X42Y174D01*
X43Y174D01*
X44Y174D01*
X45Y174D01*
X46Y174D01*
X47Y174D01*
X48Y174D01*
X49Y174D01*
X50Y174D01*
X51Y174D01*
X52Y174D01*
X53Y174D01*
X54Y174D01*
X55Y174D01*
X56Y174D01*
X57Y174D01*
X58Y174D01*
X59Y174D01*
X60Y174D01*
X61Y174D01*
X62Y174D01*
X63Y174D01*
X64Y174D01*
X65Y174D01*
X66Y174D01*
X67Y174D01*
X68Y174D01*
X69Y174D01*
X70Y174D01*
X71Y174D01*
X72Y174D01*
X73Y174D01*
X74Y174D01*
X75Y174D01*
X76Y174D01*
X77Y174D01*
X78Y174D01*
X79Y174D01*
X80Y174D01*
X81Y174D01*
X82Y174D01*
X83Y174D01*
X84Y174D01*
X85Y174D01*
X86Y174D01*
X87Y174D01*
X88Y174D01*
X89Y174D01*
X90Y174D01*
X91Y174D01*
X92Y174D01*
X93Y174D01*
X94Y174D01*
X95Y174D01*
X96Y174D01*
X97Y174D01*
X98Y174D01*
X99Y174D01*
X100Y174D01*
X101Y174D01*
X102Y174D01*
X103Y174D01*
X104Y174D01*
X105Y174D01*
X106Y174D01*
X107Y174D01*
X108Y174D01*
X109Y174D01*
X110Y174D01*
X111Y174D01*
X112Y174D01*
X113Y174D01*
X114Y174D01*
X115Y174D01*
X116Y174D01*
X117Y174D01*
X118Y174D01*
X119Y174D01*
X120Y174D01*
X121Y174D01*
X122Y174D01*
X123Y174D01*
X124Y174D01*
X125Y174D01*
X126Y174D01*
X127Y174D01*
X128Y174D01*
X129Y174D01*
X130Y174D01*
X131Y174D01*
X132Y174D01*
X133Y174D01*
X134Y174D01*
X135Y174D01*
X136Y174D01*
X137Y174D01*
X138Y174D01*
X139Y174D01*
X140Y174D01*
X141Y174D01*
X142Y174D01*
X143Y174D01*
X144Y174D01*
X145Y174D01*
X146Y174D01*
X147Y174D01*
X148Y174D01*
X149Y174D01*
X150Y174D01*
X151Y174D01*
X152Y174D01*
X153Y174D01*
X154Y174D01*
X155Y174D01*
X156Y174D01*
X157Y174D01*
X158Y174D01*
X159Y174D01*
X160Y174D01*
X161Y173D01*
X162Y172D01*
X163Y171D01*
X164Y170D01*
X165Y169D01*
X166Y168D01*
X167Y167D01*
X168Y166D01*
X168Y165D01*
X169Y164D01*
X169Y163D01*
X170Y162D01*
X170Y160D01*
X171Y159D01*
X171Y149D01*
X170Y148D01*
X170Y145D01*
X169Y144D01*
X168Y143D01*
X168Y142D01*
X167Y141D01*
X166Y140D01*
X165Y139D01*
X164Y138D01*
X163Y137D01*
X162Y136D01*
X161Y136D01*
X160Y135D01*
X159Y135D01*
X158Y134D01*
X157Y134D01*
X156Y134D01*
X155Y133D01*
X154Y133D01*
X153Y133D01*
X152Y133D01*
X151Y133D01*
X150Y133D01*
X150Y1D01*
X151Y1D01*
X152Y1D01*
X153Y1D01*
X154Y1D01*
X155Y1D01*
X156Y1D01*
X157Y1D01*
X158Y1D01*
X159Y1D01*
X160Y1D01*
X161Y1D01*
X162Y1D01*
X163Y1D01*
X164Y1D01*
X165Y1D01*
X166Y1D01*
X167Y1D01*
X168Y1D01*
X169Y1D01*
X170Y1D01*
X171Y1D01*
X172Y1D01*
X173Y1D01*
X174Y1D01*
X175Y1D01*
X176Y1D01*
X177Y1D01*
X178Y1D01*
X179Y1D01*
X180Y1D01*
X181Y1D01*
X182Y1D01*
X183Y1D01*
X184Y1D01*
X185Y1D01*
X186Y1D01*
X187Y1D01*
X188Y1D01*
X189Y1D01*
X190Y1D01*
X191Y1D01*
X192Y1D01*
X193Y1D01*
X194Y1D01*
X195Y1D01*
X196Y1D01*
X197Y1D01*
X198Y1D01*
X199Y1D01*
X200Y1D01*
X201Y1D01*
X202Y1D01*
X203Y1D01*
X204Y1D01*
X205Y1D01*
X206Y1D01*
X207Y1D01*
X208Y1D01*
X209Y1D01*
X210Y1D01*
X211Y1D01*
X212Y1D01*
X213Y1D01*
X214Y1D01*
X215Y1D01*
X216Y1D01*
X217Y1D01*
X218Y1D01*
X219Y1D01*
X220Y1D01*
X221Y1D01*
X222Y1D01*
X223Y1D01*
X224Y1D01*
X225Y1D01*
X226Y1D01*
X227Y1D01*
X228Y1D01*
X229Y1D01*
X230Y1D01*
X231Y1D01*
X232Y1D01*
X233Y1D01*
X234Y1D01*
X235Y1D01*
X236Y1D01*
X237Y1D01*
X238Y1D01*
X239Y1D01*
X240Y1D01*
X241Y1D01*
X242Y1D01*
X243Y1D01*
X244Y1D01*
X245Y1D01*
X246Y1D01*
X247Y1D01*
X248Y1D01*
X249Y1D01*
X250Y1D01*
X251Y1D01*
X252Y1D01*
X253Y1D01*
X254Y1D01*
X255Y1D01*
X256Y1D01*
X257Y1D01*
X258Y1D01*
X259Y1D01*
X260Y1D01*
X261Y1D01*
X262Y1D01*
X263Y1D01*
X264Y1D01*
X265Y1D01*
X266Y1D01*
X267Y1D01*
X268Y1D01*
X269Y1D01*
X270Y1D01*
X271Y1D01*
X272Y1D01*
X273Y1D01*
X274Y1D01*
X275Y1D01*
X276Y1D01*
X277Y1D01*
X278Y1D01*
X279Y1D01*
X280Y1D01*
X281Y1D01*
X282Y1D01*
X283Y1D01*
X284Y1D01*
X285Y1D01*
X286Y1D01*
X287Y1D01*
X288Y1D01*
X289Y1D01*
X290Y1D01*
X291Y1D01*
X292Y1D01*
X293Y1D01*
X294Y1D01*
X295Y1D01*
X296Y1D01*
X297Y1D01*
X298Y1D01*
X299Y1D01*
X300Y1D01*
X301Y1D01*
X302Y1D01*
X303Y1D01*
X304Y1D01*
X305Y1D01*
X306Y1D01*
X307Y1D01*
X308Y1D01*
X309Y1D01*
X310Y1D01*
X311Y1D01*
X312Y1D01*
X313Y1D01*
X314Y1D01*
X315Y1D01*
X316Y1D01*
X317Y1D01*
X318Y1D01*
X319Y1D01*
X320Y1D01*
X321Y1D01*
X322Y1D01*
X323Y1D01*
X324Y1D01*
X325Y1D01*
X326Y1D01*
X327Y1D01*
X328Y1D01*
X329Y1D01*
X330Y1D01*
X331Y1D01*
X332Y1D01*
X333Y1D01*
X334Y1D01*
X335Y1D01*
X336Y1D01*
X337Y1D01*
X338Y1D01*
X339Y1D01*
X340Y1D01*
X341Y1D01*
X342Y1D01*
X343Y1D01*
X344Y1D01*
X345Y1D01*
X346Y1D01*
X347Y1D01*
X348Y1D01*
X349Y1D01*
X350Y1D01*
X351Y1D01*
X352Y1D01*
X353Y1D01*
X354Y1D01*
X355Y1D01*
X356Y1D01*
X357Y1D01*
X358Y1D01*
X359Y1D01*
X360Y1D01*
X361Y1D01*
X362Y1D01*
X363Y1D01*
X364Y1D01*
X365Y1D01*
X366Y1D01*
X367Y1D01*
X368Y1D01*
X369Y1D01*
X370Y1D01*
X371Y1D01*
X372Y1D01*
X373Y1D01*
X374Y1D01*
X375Y1D01*
X376Y1D01*
X377Y1D01*
X378Y1D01*
X379Y1D01*
X380Y1D01*
X381Y1D01*
X382Y1D01*
X383Y1D01*
X384Y1D01*
X385Y1D01*
X386Y1D01*
X387Y1D01*
X388Y1D01*
X389Y1D01*
X390Y1D01*
X391Y1D01*
X392Y1D01*
X393Y1D01*
X394Y1D01*
X395Y1D01*
X396Y1D01*
X397Y1D01*
X398Y1D01*
X399Y1D01*
X400Y1D01*
X401Y1D01*
X402Y1D01*
X403Y1D01*
X404Y1D01*
X405Y1D01*
X406Y1D01*
X407Y1D01*
X408Y1D01*
X409Y1D01*
X410Y1D01*
X411Y1D01*
X412Y1D01*
X413Y1D01*
X414Y1D01*
X415Y1D01*
X416Y1D01*
X417Y1D01*
X418Y1D01*
X419Y1D01*
X420Y1D01*
X421Y1D01*
X422Y1D01*
X423Y1D01*
X424Y1D01*
X425Y1D01*
X426Y1D01*
X427Y1D01*
X428Y1D01*
X429Y1D01*
X430Y1D01*
X431Y1D01*
X432Y1D01*
X433Y1D01*
X434Y1D01*
X435Y1D01*
X436Y1D01*
X437Y1D01*
X438Y1D01*
X439Y1D01*
X440Y1D01*
X441Y1D01*
X442Y1D01*
X443Y1D01*
X444Y1D01*
X445Y1D01*
X446Y1D01*
X447Y1D01*
X448Y1D01*
X449Y1D01*
X450Y1D01*
X451Y1D01*
X452Y1D01*
X453Y1D01*
X454Y1D01*
X455Y1D01*
X456Y1D01*
X457Y1D01*
X458Y1D01*
X459Y1D01*
X460Y1D01*
X461Y1D01*
X462Y1D01*
X463Y1D01*
X464Y1D01*
X465Y1D01*
X466Y1D01*
X467Y1D01*
X468Y1D01*
X469Y1D01*
X470Y1D01*
X471Y1D01*
X472Y1D01*
X473Y1D01*
X474Y1D01*
X475Y1D01*
X476Y1D01*
X477Y1D01*
X478Y1D01*
X479Y1D01*
X480Y1D01*
X481Y1D01*
X482Y1D01*
X483Y1D01*
X484Y1D01*
X485Y1D01*
X486Y1D01*
X487Y1D01*
X488Y1D01*
X489Y1D01*
X490Y1D01*
X491Y1D01*
X492Y1D01*
X493Y1D01*
X494Y1D01*
X495Y1D01*
X496Y1D01*
X497Y1D01*
X498Y1D01*
X499Y1D01*
X500Y1D01*
X501Y1D01*
X502Y1D01*
X503Y1D01*
X504Y1D01*
X505Y1D01*
X506Y1D01*
X507Y1D01*
X508Y1D01*
X509Y1D01*
X510Y1D01*
X511Y1D01*
X512Y1D01*
X513Y1D01*
X514Y1D01*
X515Y1D01*
X516Y1D01*
X517Y1D01*
X518Y1D01*
X519Y1D01*
X520Y1D01*
X521Y1D01*
X522Y1D01*
X523Y1D01*
X524Y1D01*
X525Y1D01*
X526Y1D01*
X527Y1D01*
X528Y1D01*
X529Y1D01*
X530Y1D01*
X531Y1D01*
X532Y1D01*
X533Y1D01*
X534Y1D01*
X535Y1D01*
X536Y1D01*
X537Y1D01*
X538Y1D01*
X539Y1D01*
X540Y1D01*
X541Y1D01*
X542Y1D01*
X543Y1D01*
X544Y1D01*
X545Y1D01*
X546Y1D01*
X547Y1D01*
X548Y1D01*
X549Y1D01*
X550Y1D01*
X551Y1D01*
X552Y1D01*
X553Y1D01*
X554Y1D01*
X555Y1D01*
X556Y1D01*
X557Y1D01*
X558Y1D01*
X559Y1D01*
X560Y1D01*
X561Y1D01*
X562Y1D01*
X563Y1D01*
X564Y1D01*
X565Y1D01*
X566Y1D01*
X567Y1D01*
X568Y1D01*
X569Y1D01*
X570Y1D01*
X571Y1D01*
X572Y1D01*
X573Y1D01*
X574Y1D01*
X575Y1D01*
X576Y1D01*
X577Y1D01*
X578Y1D01*
X579Y1D01*
X580Y1D01*
X581Y1D01*
X582Y1D01*
X583Y1D01*
X584Y1D01*
X585Y1D01*
X586Y1D01*
X587Y1D01*
X588Y1D01*
X589Y1D01*
X590Y1D01*
X591Y1D01*
X592Y1D01*
X593Y1D01*
X594Y1D01*
X595Y1D01*
X596Y1D01*
X597Y1D01*
X598Y1D01*
X599Y1D01*
X600Y1D01*
X601Y1D01*
X602Y1D01*
X603Y1D01*
X604Y1D01*
X605Y1D01*
X606Y1D01*
X607Y1D01*
X608Y1D01*
X609Y1D01*
X610Y1D01*
X611Y1D01*
X612Y1D01*
X613Y1D01*
X614Y1D01*
X615Y1D01*
X616Y1D01*
X617Y1D01*
X618Y1D01*
X619Y1D01*
X620Y1D01*
X621Y1D01*
X622Y1D01*
X623Y1D01*
X624Y1D01*
X625Y1D01*
X626Y1D01*
X627Y1D01*
X628Y1D01*
X629Y1D01*
X630Y1D01*
X631Y1D01*
X632Y1D01*
X633Y1D01*
X634Y1D01*
X635Y1D01*
X636Y1D01*
X637Y1D01*
X638Y1D01*
X639Y1D01*
X640Y1D01*
X641Y1D01*
X642Y1D01*
X643Y1D01*
X644Y1D01*
X645Y1D01*
X646Y1D01*
X647Y1D01*
X648Y1D01*
X649Y1D01*
X650Y1D01*
X651Y1D01*
X651Y133D01*
X650Y133D01*
X649Y133D01*
X648Y133D01*
X647Y133D01*
X646Y133D01*
X645Y133D01*
X644Y133D01*
X643Y133D01*
X642Y134D01*
X641Y135D01*
X640Y136D01*
X639Y136D01*
X638Y137D01*
X637Y138D01*
X636Y139D01*
X635Y140D01*
X634Y141D01*
X633Y142D01*
X633Y143D01*
X632Y144D01*
X631Y145D01*
X631Y147D01*
X630Y148D01*
X630Y159D01*
X631Y160D01*
X631Y163D01*
X632Y164D01*
X632Y165D01*
X633Y166D01*
X634Y167D01*
X635Y168D01*
X636Y169D01*
X637Y170D01*
X638Y171D01*
X639Y172D01*
X640Y173D01*
X641Y174D01*
X642Y174D01*
X643Y174D01*
X644Y174D01*
X645Y174D01*
X646Y174D01*
X647Y174D01*
X648Y174D01*
X649Y174D01*
X650Y174D01*
X651Y174D01*
X652Y174D01*
X653Y174D01*
X654Y174D01*
X655Y174D01*
X656Y174D01*
X657Y174D01*
X658Y174D01*
X659Y174D01*
X660Y174D01*
X661Y174D01*
X662Y174D01*
X663Y174D01*
X664Y174D01*
X665Y174D01*
X666Y174D01*
X667Y174D01*
X668Y174D01*
X669Y174D01*
X670Y174D01*
X671Y174D01*
X672Y174D01*
X673Y174D01*
X674Y174D01*
X675Y174D01*
X676Y174D01*
X677Y174D01*
X678Y174D01*
X679Y174D01*
X680Y174D01*
X681Y174D01*
X682Y174D01*
X683Y174D01*
X684Y174D01*
X685Y174D01*
X686Y174D01*
X687Y174D01*
X688Y174D01*
X689Y174D01*
X690Y174D01*
X691Y174D01*
X692Y174D01*
X693Y174D01*
X694Y174D01*
X695Y174D01*
X696Y174D01*
X697Y174D01*
X698Y174D01*
X699Y174D01*
X700Y174D01*
X701Y174D01*
X702Y174D01*
X703Y174D01*
X704Y174D01*
X705Y174D01*
X706Y174D01*
X707Y174D01*
X708Y174D01*
X709Y174D01*
X710Y174D01*
X711Y174D01*
X712Y174D01*
X713Y174D01*
X714Y174D01*
X715Y174D01*
X716Y174D01*
X717Y174D01*
X718Y174D01*
X719Y174D01*
X720Y174D01*
X721Y174D01*
X722Y174D01*
X723Y174D01*
X724Y174D01*
X725Y174D01*
X726Y174D01*
X727Y174D01*
X728Y174D01*
X729Y174D01*
X730Y174D01*
X731Y174D01*
X732Y174D01*
X733Y174D01*
X734Y174D01*
X735Y174D01*
X736Y174D01*
X737Y174D01*
X738Y174D01*
X739Y174D01*
X740Y174D01*
X741Y174D01*
X742Y174D01*
X743Y174D01*
X744Y174D01*
X745Y174D01*
X746Y174D01*
X747Y174D01*
X748Y174D01*
X749Y174D01*
X750Y174D01*
X751Y174D01*
X752Y174D01*
X753Y174D01*
X754Y174D01*
X755Y174D01*
X756Y174D01*
X757Y174D01*
X758Y174D01*
X759Y174D01*
X760Y174D01*
X761Y174D01*
X762Y174D01*
X763Y174D01*
X764Y174D01*
X765Y174D01*
X766Y174D01*
X767Y174D01*
X768Y174D01*
X769Y174D01*
X770Y174D01*
X771Y174D01*
X772Y174D01*
X773Y174D01*
X774Y174D01*
X775Y174D01*
X776Y174D01*
X777Y174D01*
X778Y174D01*
X779Y174D01*
X780Y174D01*
X781Y174D01*
X782Y174D01*
X783Y174D01*
X784Y174D01*
X785Y174D01*
X786Y174D01*
X787Y174D01*
X788Y174D01*
X789Y174D01*
X790Y174D01*
X791Y174D01*
X792Y174D01*
X793Y174D01*
X794Y174D01*
X795Y174D01*
X796Y174D01*
X797Y174D01*
X798Y174D01*
X799Y174D01*
X800Y174D01*
X801Y174D01*
X801Y1138D01*
X800Y1138D01*
X799Y1138D01*
X798Y1138D01*
X797Y1138D01*
X796Y1138D01*
X795Y1138D01*
X794Y1138D01*
X793Y1138D01*
X792Y1138D01*
X791Y1138D01*
X790Y1138D01*
X789Y1138D01*
X788Y1138D01*
X787Y1138D01*
X786Y1138D01*
X785Y1138D01*
X784Y1138D01*
X783Y1138D01*
X782Y1138D01*
X781Y1138D01*
X780Y1138D01*
X779Y1138D01*
X778Y1138D01*
X777Y1138D01*
X776Y1138D01*
X775Y1138D01*
X774Y1138D01*
X773Y1138D01*
X772Y1138D01*
X771Y1138D01*
X770Y1138D01*
X769Y1138D01*
X768Y1138D01*
X767Y1138D01*
X766Y1138D01*
X765Y1138D01*
X764Y1138D01*
X763Y1138D01*
X762Y1138D01*
X761Y1138D01*
X760Y1138D01*
X759Y1138D01*
X758Y1138D01*
X757Y1138D01*
X756Y1138D01*
X755Y1138D01*
X754Y1138D01*
X753Y1138D01*
X752Y1138D01*
X751Y1138D01*
X750Y1138D01*
X749Y1138D01*
X748Y1138D01*
X747Y1138D01*
X746Y1138D01*
X745Y1138D01*
X744Y1138D01*
X743Y1138D01*
X742Y1138D01*
X741Y1138D01*
X740Y1138D01*
X739Y1138D01*
X738Y1138D01*
X737Y1138D01*
X736Y1138D01*
X735Y1138D01*
X734Y1138D01*
X733Y1138D01*
X732Y1138D01*
X731Y1139D01*
X730Y1139D01*
X729Y1139D01*
X728Y1139D01*
X727Y1139D01*
X726Y1139D01*
X725Y1139D01*
X724Y1139D01*
X723Y1139D01*
X722Y1139D01*
X721Y1139D01*
X720Y1139D01*
X719Y1139D01*
X718Y1139D01*
X717Y1139D01*
X716Y1139D01*
X715Y1139D01*
X714Y1139D01*
X713Y1139D01*
X712Y1139D01*
X711Y1139D01*
X710Y1139D01*
X709Y1139D01*
X708Y1139D01*
X707Y1139D01*
X706Y1139D01*
X705Y1139D01*
X704Y1139D01*
X703Y1139D01*
X702Y1139D01*
X701Y1139D01*
X700Y1139D01*
X699Y1139D01*
X698Y1139D01*
X697Y1139D01*
X696Y1139D01*
X695Y1139D01*
X694Y1139D01*
X693Y1139D01*
X692Y1139D01*
X691Y1139D01*
X690Y1139D01*
X689Y1139D01*
X688Y1139D01*
X687Y1139D01*
X686Y1139D01*
X685Y1139D01*
X684Y1139D01*
X683Y1139D01*
X682Y1139D01*
X681Y1139D01*
X680Y1139D01*
X679Y1139D01*
X678Y1139D01*
X677Y1139D01*
X676Y1139D01*
X675Y1139D01*
X674Y1139D01*
X673Y1139D01*
X672Y1139D01*
X671Y1139D01*
X670Y1139D01*
X669Y1139D01*
X668Y1139D01*
X667Y1139D01*
X666Y1139D01*
X665Y1139D01*
X664Y1139D01*
X663Y1139D01*
X662Y1139D01*
X661Y1139D01*
X660Y1139D01*
X659Y1139D01*
X658Y1139D01*
X657Y1139D01*
X656Y1139D01*
X655Y1139D01*
X654Y1139D01*
X653Y1139D01*
X652Y1139D01*
X651Y1139D01*
X650Y1139D01*
X649Y1139D01*
X648Y1139D01*
X647Y1139D01*
X646Y1139D01*
X645Y1139D01*
X644Y1139D01*
X643Y1139D01*
X642Y1139D01*
X641Y1139D01*
X640Y1139D01*
X639Y1140D01*
X638Y1141D01*
X637Y1142D01*
X636Y1143D01*
X635Y1144D01*
X634Y1145D01*
X633Y1146D01*
X632Y1147D01*
X632Y1148D01*
X631Y1149D01*
X631Y1152D01*
X630Y1153D01*
X630Y1164D01*
X631Y1165D01*
X631Y1168D01*
X632Y1169D01*
X632Y1170D01*
X633Y1171D01*
X633Y1172D01*
X634Y1173D01*
X635Y1174D01*
X636Y1175D01*
X637Y1176D01*
X638Y1176D01*
X639Y1177D01*
X640Y1177D01*
X641Y1178D01*
X642Y1178D01*
X643Y1179D01*
X644Y1179D01*
X645Y1180D01*
X646Y1180D01*
X647Y1181D01*
X648Y1181D01*
X649Y1182D01*
X650Y1182D01*
X651Y1183D01*
X651Y1311D01*
X650Y1311D01*
X649Y1311D01*
X648Y1311D01*
X647Y1311D01*
X646Y1311D01*
X645Y1311D01*
X644Y1311D01*
X643Y1311D01*
X642Y1311D01*
X641Y1311D01*
X640Y1311D01*
X639Y1311D01*
X638Y1311D01*
X637Y1311D01*
X636Y1311D01*
X635Y1311D01*
X634Y1311D01*
X633Y1311D01*
X632Y1311D01*
X631Y1311D01*
X630Y1311D01*
X629Y1311D01*
X628Y1311D01*
X627Y1311D01*
X626Y1311D01*
X625Y1311D01*
X624Y1311D01*
X623Y1311D01*
X622Y1311D01*
X621Y1311D01*
X620Y1311D01*
X619Y1311D01*
X618Y1311D01*
X617Y1311D01*
X616Y1311D01*
X615Y1311D01*
X614Y1311D01*
X613Y1311D01*
X612Y1311D01*
X611Y1311D01*
X610Y1311D01*
X609Y1311D01*
X608Y1311D01*
X607Y1311D01*
X606Y1311D01*
X605Y1311D01*
X604Y1311D01*
X603Y1311D01*
X602Y1311D01*
X601Y1311D01*
X600Y1311D01*
X599Y1311D01*
X598Y1311D01*
X597Y1311D01*
X596Y1311D01*
X595Y1311D01*
X594Y1311D01*
X593Y1311D01*
X592Y1311D01*
X591Y1311D01*
X590Y1311D01*
X589Y1311D01*
X588Y1311D01*
X587Y1311D01*
X586Y1311D01*
X585Y1311D01*
X584Y1311D01*
X583Y1311D01*
X582Y1311D01*
X581Y1311D01*
X580Y1311D01*
X579Y1311D01*
X578Y1311D01*
X577Y1311D01*
X576Y1311D01*
X575Y1311D01*
X574Y1311D01*
X573Y1311D01*
X572Y1311D01*
X571Y1311D01*
X570Y1311D01*
X569Y1311D01*
X568Y1311D01*
X567Y1311D01*
X566Y1311D01*
X565Y1311D01*
X564Y1311D01*
X563Y1311D01*
X562Y1311D01*
X561Y1311D01*
X560Y1311D01*
X559Y1311D01*
X558Y1311D01*
X557Y1311D01*
X556Y1311D01*
X555Y1311D01*
X554Y1311D01*
X553Y1311D01*
X552Y1311D01*
X551Y1311D01*
X550Y1311D01*
X549Y1311D01*
X548Y1311D01*
X547Y1311D01*
X546Y1311D01*
X545Y1311D01*
X544Y1311D01*
X543Y1311D01*
X542Y1311D01*
X541Y1311D01*
X540Y1311D01*
X539Y1311D01*
X538Y1311D01*
X537Y1311D01*
X536Y1311D01*
X535Y1311D01*
X534Y1311D01*
X533Y1311D01*
X532Y1311D01*
X531Y1311D01*
X530Y1311D01*
X529Y1311D01*
X528Y1311D01*
X527Y1311D01*
X526Y1311D01*
X525Y1311D01*
X524Y1311D01*
X523Y1311D01*
X522Y1311D01*
X521Y1311D01*
X520Y1311D01*
X519Y1311D01*
X518Y1311D01*
X517Y1311D01*
X516Y1311D01*
X515Y1311D01*
X514Y1311D01*
X513Y1311D01*
X512Y1311D01*
X511Y1311D01*
X510Y1311D01*
X509Y1311D01*
X508Y1311D01*
X507Y1311D01*
X506Y1311D01*
X505Y1311D01*
X504Y1311D01*
X503Y1311D01*
X502Y1311D01*
X501Y1311D01*
X500Y1311D01*
X499Y1311D01*
X498Y1311D01*
X497Y1311D01*
X496Y1311D01*
X495Y1311D01*
X494Y1311D01*
X493Y1311D01*
X492Y1311D01*
X491Y1311D01*
X490Y1311D01*
X489Y1311D01*
X488Y1311D01*
X487Y1311D01*
X486Y1311D01*
X485Y1311D01*
X484Y1311D01*
X483Y1311D01*
X482Y1311D01*
X481Y1311D01*
X480Y1311D01*
X479Y1311D01*
X478Y1311D01*
X477Y1311D01*
X476Y1311D01*
X475Y1311D01*
X474Y1311D01*
X473Y1311D01*
X472Y1311D01*
X471Y1311D01*
X470Y1311D01*
X469Y1311D01*
X468Y1311D01*
X467Y1311D01*
X466Y1311D01*
X465Y1311D01*
X464Y1311D01*
X463Y1311D01*
X462Y1311D01*
X461Y1311D01*
X460Y1311D01*
X459Y1311D01*
X458Y1311D01*
X457Y1311D01*
X456Y1311D01*
X455Y1311D01*
X454Y1311D01*
X453Y1311D01*
X452Y1311D01*
X451Y1311D01*
X450Y1311D01*
X449Y1311D01*
X448Y1311D01*
X447Y1311D01*
X446Y1311D01*
X445Y1311D01*
X444Y1311D01*
X443Y1311D01*
X442Y1311D01*
X441Y1311D01*
X440Y1311D01*
X439Y1311D01*
X438Y1311D01*
X437Y1311D01*
X436Y1311D01*
X435Y1311D01*
X434Y1311D01*
X433Y1311D01*
X432Y1311D01*
X431Y1311D01*
X430Y1311D01*
X429Y1311D01*
X428Y1311D01*
X427Y1311D01*
X426Y1311D01*
X425Y1311D01*
X424Y1311D01*
X423Y1311D01*
X422Y1311D01*
X421Y1311D01*
X420Y1311D01*
X419Y1311D01*
X418Y1311D01*
X417Y1311D01*
X416Y1311D01*
X415Y1311D01*
X414Y1311D01*
X413Y1311D01*
X412Y1311D01*
X411Y1311D01*
X410Y1311D01*
X409Y1311D01*
X408Y1311D01*
X407Y1311D01*
X406Y1311D01*
X405Y1311D01*
X404Y1311D01*
X403Y1311D01*
X402Y1311D01*
X401Y1311D01*
X400Y1311D01*
X399Y1311D01*
X398Y1311D01*
X397Y1311D01*
X396Y1311D01*
X395Y1311D01*
X394Y1311D01*
X393Y1311D01*
X392Y1311D01*
X391Y1311D01*
X390Y1311D01*
X389Y1311D01*
X388Y1311D01*
X387Y1311D01*
X386Y1311D01*
X385Y1311D01*
X384Y1311D01*
X383Y1311D01*
X382Y1311D01*
X381Y1311D01*
X380Y1311D01*
X379Y1311D01*
X378Y1311D01*
X377Y1311D01*
X376Y1311D01*
X375Y1311D01*
X374Y1311D01*
X373Y1311D01*
X372Y1311D01*
X371Y1311D01*
X370Y1311D01*
X369Y1311D01*
X368Y1311D01*
X367Y1311D01*
X366Y1311D01*
X365Y1311D01*
X364Y1311D01*
X363Y1311D01*
X362Y1311D01*
X361Y1311D01*
X360Y1311D01*
X359Y1311D01*
X358Y1311D01*
X357Y1311D01*
X356Y1311D01*
X355Y1311D01*
X354Y1311D01*
X353Y1311D01*
X352Y1311D01*
X351Y1311D01*
X350Y1311D01*
X349Y1311D01*
X348Y1311D01*
X347Y1311D01*
X346Y1311D01*
X345Y1311D01*
X344Y1311D01*
X343Y1311D01*
X342Y1311D01*
X341Y1311D01*
X340Y1311D01*
X339Y1311D01*
X338Y1311D01*
X337Y1311D01*
X336Y1311D01*
X335Y1311D01*
X334Y1311D01*
X333Y1311D01*
X332Y1311D01*
X331Y1311D01*
X330Y1311D01*
X329Y1311D01*
X328Y1311D01*
X327Y1311D01*
X326Y1311D01*
X325Y1311D01*
X324Y1311D01*
X323Y1311D01*
X322Y1311D01*
X321Y1311D01*
X320Y1311D01*
X319Y1311D01*
X318Y1311D01*
X317Y1311D01*
X316Y1311D01*
X315Y1311D01*
X314Y1311D01*
X313Y1311D01*
X312Y1311D01*
X311Y1311D01*
X310Y1311D01*
X309Y1311D01*
X308Y1311D01*
X307Y1311D01*
X306Y1311D01*
X305Y1311D01*
X304Y1311D01*
X303Y1311D01*
X302Y1311D01*
X301Y1311D01*
X300Y1311D01*
X299Y1311D01*
X298Y1311D01*
X297Y1311D01*
X296Y1311D01*
X295Y1311D01*
X294Y1311D01*
X293Y1311D01*
X292Y1311D01*
X291Y1311D01*
X290Y1311D01*
X289Y1311D01*
X288Y1311D01*
X287Y1311D01*
X286Y1311D01*
X285Y1311D01*
X284Y1311D01*
X283Y1311D01*
X282Y1311D01*
X281Y1311D01*
X280Y1311D01*
X279Y1311D01*
X278Y1311D01*
X277Y1311D01*
X276Y1311D01*
X275Y1311D01*
X274Y1311D01*
X273Y1311D01*
X272Y1311D01*
X271Y1311D01*
X270Y1311D01*
X269Y1311D01*
X268Y1311D01*
X267Y1311D01*
X266Y1311D01*
X265Y1311D01*
X264Y1311D01*
X263Y1311D01*
X262Y1311D01*
X261Y1311D01*
X260Y1311D01*
X259Y1311D01*
X258Y1311D01*
X257Y1311D01*
X256Y1311D01*
X255Y1311D01*
X254Y1311D01*
X253Y1311D01*
X252Y1311D01*
X251Y1311D01*
X250Y1311D01*
X249Y1311D01*
X248Y1311D01*
X247Y1311D01*
X246Y1311D01*
X245Y1311D01*
X244Y1311D01*
X243Y1311D01*
X242Y1311D01*
X241Y1311D01*
X240Y1311D01*
X239Y1311D01*
X238Y1311D01*
X237Y1311D01*
X236Y1311D01*
X235Y1311D01*
X234Y1311D01*
X233Y1311D01*
X232Y1311D01*
X231Y1311D01*
X230Y1311D01*
X229Y1311D01*
X228Y1311D01*
X227Y1311D01*
X226Y1311D01*
X225Y1311D01*
X224Y1311D01*
X223Y1311D01*
X222Y1311D01*
X221Y1311D01*
X220Y1311D01*
X219Y1311D01*
X218Y1311D01*
X217Y1311D01*
X216Y1311D01*
X215Y1311D01*
X214Y1311D01*
X213Y1311D01*
X212Y1311D01*
X211Y1311D01*
X210Y1311D01*
X209Y1311D01*
X208Y1311D01*
X207Y1311D01*
X206Y1311D01*
X205Y1311D01*
X204Y1311D01*
X203Y1311D01*
X202Y1311D01*
X201Y1311D01*
X200Y1311D01*
X199Y1311D01*
X198Y1311D01*
X197Y1311D01*
X196Y1311D01*
X195Y1311D01*
X194Y1311D01*
X193Y1311D01*
X192Y1311D01*
X191Y1311D01*
X190Y1311D01*
X189Y1311D01*
X188Y1311D01*
X187Y1311D01*
X186Y1311D01*
X185Y1311D01*
X184Y1311D01*
X183Y1311D01*
X182Y1311D01*
X181Y1311D01*
X180Y1311D01*
X179Y1311D01*
X178Y1311D01*
X177Y1311D01*
X176Y1311D01*
X175Y1311D01*
X174Y1311D01*
X173Y1311D01*
X172Y1311D01*
X171Y1311D01*
X170Y1311D01*
X169Y1311D01*
X168Y1311D01*
X167Y1311D01*
X166Y1311D01*
X165Y1311D01*
X164Y1311D01*
X163Y1311D01*
X162Y1311D01*
X161Y1311D01*
X160Y1311D01*
X159Y1311D01*
X158Y1311D01*
X157Y1311D01*
X156Y1311D01*
X155Y1311D01*
X154Y1311D01*
X153Y1311D01*
X152Y1311D01*
X151Y1311D01*
X150Y1311D01*
D02*
G54D16*
X260Y1178D02*
X340Y1258D01*
X260Y1258D02*
X340Y1178D01*
X260Y1178D02*
X260Y1258D01*
X340Y1178D02*
X340Y1258D01*
D02*
X360Y1178D02*
X440Y1258D01*
X360Y1258D02*
X440Y1178D01*
X360Y1178D02*
X360Y1258D01*
X440Y1178D02*
X440Y1258D01*
D02*
X460Y1178D02*
X540Y1258D01*
X460Y1258D02*
X540Y1178D01*
X460Y1178D02*
X460Y1258D01*
X540Y1178D02*
X540Y1258D01*
D02*
X550Y1178D02*
X630Y1258D01*
X550Y1258D02*
X630Y1178D01*
X550Y1218D02*
X630Y1218D01*
D02*
X171Y1178D02*
X251Y1258D01*
X171Y1258D02*
X251Y1178D01*
X171Y1218D02*
X251Y1218D01*
D02*
X260Y87D02*
X340Y167D01*
X260Y167D02*
X340Y87D01*
X260Y87D02*
X260Y167D01*
X340Y87D02*
X340Y167D01*
D02*
X360Y87D02*
X440Y167D01*
X360Y167D02*
X440Y87D01*
X360Y87D02*
X360Y167D01*
X440Y87D02*
X440Y167D01*
D02*
X460Y87D02*
X540Y167D01*
X460Y167D02*
X540Y87D01*
X460Y87D02*
X460Y167D01*
X540Y87D02*
X540Y167D01*
D02*
X171Y54D02*
X251Y134D01*
X171Y134D02*
X251Y54D01*
X171Y94D02*
X251Y94D01*
D02*
X550Y54D02*
X630Y134D01*
X550Y134D02*
X630Y54D01*
X550Y94D02*
X630Y94D01*
D02*
G04 End of contour*
M02*