G04 MADE WITH FRITZING*
G04 WWW.FRITZING.ORG*
G04 DOUBLE SIDED*
G04 HOLES PLATED*
G04 CONTOUR ON CENTER OF CONTOUR VECTOR*
%ASAXBY*%
%FSLAX23Y23*%
%MOIN*%
%OFA0B0*%
%SFA1.0B1.0*%
%ADD10C,0.009843*%
%ADD11R,0.001000X0.001000*%
%LNSILK1*%
G90*
G70*
G54D10*
X592Y1040D02*
X592Y1119D01*
G54D11*
X385Y1301D02*
X392Y1301D01*
X406Y1301D02*
X414Y1301D01*
X385Y1300D02*
X393Y1300D01*
X406Y1300D02*
X414Y1300D01*
X385Y1299D02*
X393Y1299D01*
X405Y1299D02*
X414Y1299D01*
X385Y1298D02*
X394Y1298D01*
X404Y1298D02*
X414Y1298D01*
X385Y1297D02*
X395Y1297D01*
X404Y1297D02*
X414Y1297D01*
X385Y1296D02*
X396Y1296D01*
X403Y1296D02*
X414Y1296D01*
X385Y1295D02*
X396Y1295D01*
X402Y1295D02*
X414Y1295D01*
X385Y1294D02*
X397Y1294D01*
X402Y1294D02*
X414Y1294D01*
X385Y1293D02*
X398Y1293D01*
X401Y1293D02*
X414Y1293D01*
X385Y1292D02*
X390Y1292D01*
X392Y1292D02*
X398Y1292D01*
X400Y1292D02*
X407Y1292D01*
X409Y1292D02*
X414Y1292D01*
X385Y1291D02*
X390Y1291D01*
X393Y1291D02*
X406Y1291D01*
X409Y1291D02*
X414Y1291D01*
X385Y1290D02*
X390Y1290D01*
X393Y1290D02*
X405Y1290D01*
X409Y1290D02*
X414Y1290D01*
X385Y1289D02*
X390Y1289D01*
X394Y1289D02*
X405Y1289D01*
X409Y1289D02*
X414Y1289D01*
X385Y1288D02*
X390Y1288D01*
X395Y1288D02*
X404Y1288D01*
X409Y1288D02*
X414Y1288D01*
X385Y1287D02*
X390Y1287D01*
X395Y1287D02*
X403Y1287D01*
X409Y1287D02*
X414Y1287D01*
X385Y1286D02*
X390Y1286D01*
X396Y1286D02*
X402Y1286D01*
X409Y1286D02*
X414Y1286D01*
X385Y1285D02*
X390Y1285D01*
X397Y1285D02*
X402Y1285D01*
X409Y1285D02*
X414Y1285D01*
X385Y1284D02*
X390Y1284D01*
X397Y1284D02*
X402Y1284D01*
X409Y1284D02*
X414Y1284D01*
X385Y1283D02*
X390Y1283D01*
X397Y1283D02*
X402Y1283D01*
X409Y1283D02*
X414Y1283D01*
X385Y1282D02*
X390Y1282D01*
X397Y1282D02*
X401Y1282D01*
X409Y1282D02*
X414Y1282D01*
X385Y1281D02*
X390Y1281D01*
X398Y1281D02*
X400Y1281D01*
X409Y1281D02*
X414Y1281D01*
X385Y1280D02*
X390Y1280D01*
X409Y1280D02*
X414Y1280D01*
X385Y1279D02*
X390Y1279D01*
X409Y1279D02*
X414Y1279D01*
X385Y1278D02*
X390Y1278D01*
X409Y1278D02*
X414Y1278D01*
X385Y1277D02*
X390Y1277D01*
X409Y1277D02*
X414Y1277D01*
X385Y1276D02*
X390Y1276D01*
X409Y1276D02*
X414Y1276D01*
X385Y1275D02*
X390Y1275D01*
X409Y1275D02*
X414Y1275D01*
X385Y1274D02*
X390Y1274D01*
X409Y1274D02*
X414Y1274D01*
X385Y1273D02*
X390Y1273D01*
X409Y1273D02*
X414Y1273D01*
X385Y1272D02*
X390Y1272D01*
X409Y1272D02*
X414Y1272D01*
X385Y1271D02*
X390Y1271D01*
X409Y1271D02*
X414Y1271D01*
X385Y1270D02*
X390Y1270D01*
X409Y1270D02*
X414Y1270D01*
X385Y1269D02*
X390Y1269D01*
X409Y1269D02*
X414Y1269D01*
X385Y1268D02*
X390Y1268D01*
X409Y1268D02*
X414Y1268D01*
X385Y1267D02*
X390Y1267D01*
X409Y1267D02*
X414Y1267D01*
X385Y1266D02*
X390Y1266D01*
X409Y1266D02*
X414Y1266D01*
X419Y1266D02*
X419Y1266D01*
X423Y1266D02*
X423Y1266D01*
X385Y1265D02*
X390Y1265D01*
X409Y1265D02*
X414Y1265D01*
X419Y1265D02*
X419Y1265D01*
X423Y1265D02*
X423Y1265D01*
X385Y1264D02*
X390Y1264D01*
X409Y1264D02*
X414Y1264D01*
X420Y1264D02*
X420Y1264D01*
X422Y1264D02*
X423Y1264D01*
X385Y1263D02*
X390Y1263D01*
X409Y1263D02*
X414Y1263D01*
X420Y1263D02*
X420Y1263D01*
X422Y1263D02*
X423Y1263D01*
X385Y1262D02*
X390Y1262D01*
X409Y1262D02*
X414Y1262D01*
X421Y1262D02*
X421Y1262D01*
X423Y1262D02*
X423Y1262D01*
X385Y1261D02*
X390Y1261D01*
X409Y1261D02*
X414Y1261D01*
X421Y1261D02*
X421Y1261D01*
X385Y1260D02*
X390Y1260D01*
X409Y1260D02*
X414Y1260D01*
X385Y1259D02*
X390Y1259D01*
X409Y1259D02*
X414Y1259D01*
X385Y1258D02*
X390Y1258D01*
X409Y1258D02*
X414Y1258D01*
X385Y1257D02*
X390Y1257D01*
X409Y1257D02*
X414Y1257D01*
X385Y1256D02*
X389Y1256D01*
X409Y1256D02*
X413Y1256D01*
X387Y1255D02*
X387Y1255D01*
X412Y1255D02*
X412Y1255D01*
X587Y1117D02*
X593Y1117D01*
X586Y1116D02*
X594Y1116D01*
X586Y1115D02*
X594Y1115D01*
X586Y1114D02*
X594Y1114D01*
X586Y1113D02*
X594Y1113D01*
X586Y1112D02*
X594Y1112D01*
X586Y1111D02*
X594Y1111D01*
X586Y1110D02*
X594Y1110D01*
X586Y1109D02*
X594Y1109D01*
X586Y1108D02*
X594Y1108D01*
X586Y1107D02*
X594Y1107D01*
X586Y1106D02*
X594Y1106D01*
X586Y1105D02*
X594Y1105D01*
X586Y1104D02*
X594Y1104D01*
X586Y1103D02*
X594Y1103D01*
X586Y1102D02*
X594Y1102D01*
X586Y1101D02*
X594Y1101D01*
X586Y1100D02*
X594Y1100D01*
X587Y1099D02*
X593Y1099D01*
X682Y1092D02*
X707Y1092D01*
X677Y1091D02*
X712Y1091D01*
X673Y1090D02*
X716Y1090D01*
X587Y1089D02*
X593Y1089D01*
X670Y1089D02*
X719Y1089D01*
X586Y1088D02*
X594Y1088D01*
X667Y1088D02*
X688Y1088D01*
X701Y1088D02*
X722Y1088D01*
X586Y1087D02*
X594Y1087D01*
X665Y1087D02*
X681Y1087D01*
X708Y1087D02*
X724Y1087D01*
X586Y1086D02*
X594Y1086D01*
X662Y1086D02*
X676Y1086D01*
X713Y1086D02*
X727Y1086D01*
X586Y1085D02*
X594Y1085D01*
X660Y1085D02*
X672Y1085D01*
X716Y1085D02*
X729Y1085D01*
X586Y1084D02*
X594Y1084D01*
X658Y1084D02*
X669Y1084D01*
X719Y1084D02*
X731Y1084D01*
X586Y1083D02*
X594Y1083D01*
X656Y1083D02*
X667Y1083D01*
X722Y1083D02*
X733Y1083D01*
X586Y1082D02*
X594Y1082D01*
X654Y1082D02*
X664Y1082D01*
X724Y1082D02*
X735Y1082D01*
X586Y1081D02*
X594Y1081D01*
X653Y1081D02*
X662Y1081D01*
X727Y1081D02*
X736Y1081D01*
X586Y1080D02*
X594Y1080D01*
X651Y1080D02*
X660Y1080D01*
X729Y1080D02*
X738Y1080D01*
X586Y1079D02*
X594Y1079D01*
X650Y1079D02*
X658Y1079D01*
X730Y1079D02*
X739Y1079D01*
X586Y1078D02*
X594Y1078D01*
X648Y1078D02*
X656Y1078D01*
X732Y1078D02*
X741Y1078D01*
X586Y1077D02*
X594Y1077D01*
X647Y1077D02*
X655Y1077D01*
X734Y1077D02*
X742Y1077D01*
X586Y1076D02*
X594Y1076D01*
X646Y1076D02*
X653Y1076D01*
X735Y1076D02*
X743Y1076D01*
X295Y1075D02*
X305Y1075D01*
X586Y1075D02*
X594Y1075D01*
X644Y1075D02*
X652Y1075D01*
X737Y1075D02*
X744Y1075D01*
X293Y1074D02*
X306Y1074D01*
X586Y1074D02*
X594Y1074D01*
X643Y1074D02*
X650Y1074D01*
X738Y1074D02*
X746Y1074D01*
X290Y1073D02*
X306Y1073D01*
X586Y1073D02*
X594Y1073D01*
X642Y1073D02*
X649Y1073D01*
X740Y1073D02*
X747Y1073D01*
X288Y1072D02*
X305Y1072D01*
X586Y1072D02*
X594Y1072D01*
X641Y1072D02*
X648Y1072D01*
X741Y1072D02*
X748Y1072D01*
X285Y1071D02*
X296Y1071D01*
X587Y1071D02*
X593Y1071D01*
X640Y1071D02*
X647Y1071D01*
X742Y1071D02*
X749Y1071D01*
X283Y1070D02*
X294Y1070D01*
X589Y1070D02*
X591Y1070D01*
X639Y1070D02*
X645Y1070D01*
X743Y1070D02*
X750Y1070D01*
X280Y1069D02*
X291Y1069D01*
X638Y1069D02*
X644Y1069D01*
X745Y1069D02*
X751Y1069D01*
X277Y1068D02*
X288Y1068D01*
X637Y1068D02*
X643Y1068D01*
X746Y1068D02*
X752Y1068D01*
X275Y1067D02*
X286Y1067D01*
X636Y1067D02*
X642Y1067D01*
X747Y1067D02*
X753Y1067D01*
X274Y1066D02*
X283Y1066D01*
X635Y1066D02*
X641Y1066D01*
X748Y1066D02*
X754Y1066D01*
X274Y1065D02*
X281Y1065D01*
X634Y1065D02*
X640Y1065D01*
X749Y1065D02*
X755Y1065D01*
X274Y1064D02*
X283Y1064D01*
X633Y1064D02*
X639Y1064D01*
X750Y1064D02*
X755Y1064D01*
X275Y1063D02*
X286Y1063D01*
X633Y1063D02*
X638Y1063D01*
X751Y1063D02*
X756Y1063D01*
X277Y1062D02*
X288Y1062D01*
X632Y1062D02*
X637Y1062D01*
X751Y1062D02*
X757Y1062D01*
X280Y1061D02*
X291Y1061D01*
X575Y1061D02*
X577Y1061D01*
X606Y1061D02*
X607Y1061D01*
X631Y1061D02*
X637Y1061D01*
X752Y1061D02*
X758Y1061D01*
X282Y1060D02*
X293Y1060D01*
X574Y1060D02*
X578Y1060D01*
X604Y1060D02*
X609Y1060D01*
X630Y1060D02*
X636Y1060D01*
X753Y1060D02*
X758Y1060D01*
X285Y1059D02*
X296Y1059D01*
X573Y1059D02*
X579Y1059D01*
X603Y1059D02*
X609Y1059D01*
X630Y1059D02*
X635Y1059D01*
X754Y1059D02*
X758Y1059D01*
X287Y1058D02*
X305Y1058D01*
X574Y1058D02*
X580Y1058D01*
X603Y1058D02*
X609Y1058D01*
X629Y1058D02*
X634Y1058D01*
X754Y1058D02*
X758Y1058D01*
X290Y1057D02*
X306Y1057D01*
X575Y1057D02*
X581Y1057D01*
X602Y1057D02*
X608Y1057D01*
X628Y1057D02*
X634Y1057D01*
X754Y1057D02*
X758Y1057D01*
X293Y1056D02*
X306Y1056D01*
X576Y1056D02*
X582Y1056D01*
X601Y1056D02*
X607Y1056D01*
X628Y1056D02*
X633Y1056D01*
X754Y1056D02*
X758Y1056D01*
X295Y1055D02*
X305Y1055D01*
X577Y1055D02*
X583Y1055D01*
X600Y1055D02*
X606Y1055D01*
X627Y1055D02*
X632Y1055D01*
X754Y1055D02*
X758Y1055D01*
X578Y1054D02*
X584Y1054D01*
X599Y1054D02*
X605Y1054D01*
X626Y1054D02*
X631Y1054D01*
X754Y1054D02*
X758Y1054D01*
X578Y1053D02*
X585Y1053D01*
X598Y1053D02*
X604Y1053D01*
X626Y1053D02*
X631Y1053D01*
X754Y1053D02*
X758Y1053D01*
X579Y1052D02*
X585Y1052D01*
X597Y1052D02*
X603Y1052D01*
X626Y1052D02*
X630Y1052D01*
X754Y1052D02*
X758Y1052D01*
X580Y1051D02*
X586Y1051D01*
X596Y1051D02*
X602Y1051D01*
X626Y1051D02*
X630Y1051D01*
X754Y1051D02*
X758Y1051D01*
X581Y1050D02*
X587Y1050D01*
X595Y1050D02*
X601Y1050D01*
X754Y1050D02*
X758Y1050D01*
X582Y1049D02*
X588Y1049D01*
X594Y1049D02*
X601Y1049D01*
X754Y1049D02*
X758Y1049D01*
X583Y1048D02*
X589Y1048D01*
X594Y1048D02*
X600Y1048D01*
X754Y1048D02*
X758Y1048D01*
X584Y1047D02*
X590Y1047D01*
X593Y1047D02*
X599Y1047D01*
X754Y1047D02*
X758Y1047D01*
X585Y1046D02*
X598Y1046D01*
X756Y1046D02*
X758Y1046D01*
X586Y1045D02*
X597Y1045D01*
X275Y1044D02*
X304Y1044D01*
X587Y1044D02*
X596Y1044D01*
X274Y1043D02*
X305Y1043D01*
X587Y1043D02*
X595Y1043D01*
X274Y1042D02*
X305Y1042D01*
X589Y1042D02*
X594Y1042D01*
X274Y1041D02*
X306Y1041D01*
X273Y1040D02*
X277Y1040D01*
X302Y1040D02*
X306Y1040D01*
X273Y1039D02*
X277Y1039D01*
X302Y1039D02*
X306Y1039D01*
X273Y1038D02*
X277Y1038D01*
X302Y1038D02*
X306Y1038D01*
X273Y1037D02*
X277Y1037D01*
X302Y1037D02*
X306Y1037D01*
X273Y1036D02*
X277Y1036D01*
X302Y1036D02*
X306Y1036D01*
X273Y1035D02*
X277Y1035D01*
X302Y1035D02*
X306Y1035D01*
X273Y1034D02*
X277Y1034D01*
X302Y1034D02*
X306Y1034D01*
X273Y1033D02*
X277Y1033D01*
X302Y1033D02*
X306Y1033D01*
X273Y1032D02*
X277Y1032D01*
X302Y1032D02*
X306Y1032D01*
X273Y1031D02*
X277Y1031D01*
X302Y1031D02*
X306Y1031D01*
X273Y1030D02*
X277Y1030D01*
X302Y1030D02*
X306Y1030D01*
X273Y1029D02*
X277Y1029D01*
X302Y1029D02*
X306Y1029D01*
X274Y1028D02*
X277Y1028D01*
X302Y1028D02*
X306Y1028D01*
X274Y1027D02*
X306Y1027D01*
X274Y1026D02*
X305Y1026D01*
X275Y1025D02*
X304Y1025D01*
X276Y1024D02*
X303Y1024D01*
X279Y1007D02*
X285Y1007D01*
X279Y1006D02*
X286Y1006D01*
X279Y1005D02*
X286Y1005D01*
X279Y1004D02*
X286Y1004D01*
X279Y1003D02*
X286Y1003D01*
X279Y1002D02*
X286Y1002D01*
X279Y1001D02*
X286Y1001D01*
X280Y1000D02*
X285Y1000D01*
X274Y983D02*
X305Y983D01*
X274Y982D02*
X306Y982D01*
X757Y982D02*
X757Y982D01*
X273Y981D02*
X306Y981D01*
X755Y981D02*
X758Y981D01*
X273Y980D02*
X306Y980D01*
X754Y980D02*
X758Y980D01*
X273Y979D02*
X277Y979D01*
X284Y979D02*
X288Y979D01*
X302Y979D02*
X306Y979D01*
X754Y979D02*
X758Y979D01*
X273Y978D02*
X277Y978D01*
X284Y978D02*
X288Y978D01*
X303Y978D02*
X305Y978D01*
X754Y978D02*
X758Y978D01*
X273Y977D02*
X277Y977D01*
X284Y977D02*
X288Y977D01*
X754Y977D02*
X758Y977D01*
X273Y976D02*
X277Y976D01*
X284Y976D02*
X288Y976D01*
X627Y976D02*
X630Y976D01*
X754Y976D02*
X758Y976D01*
X273Y975D02*
X277Y975D01*
X284Y975D02*
X288Y975D01*
X627Y975D02*
X631Y975D01*
X754Y975D02*
X758Y975D01*
X273Y974D02*
X277Y974D01*
X284Y974D02*
X288Y974D01*
X627Y974D02*
X631Y974D01*
X754Y974D02*
X758Y974D01*
X273Y973D02*
X277Y973D01*
X284Y973D02*
X288Y973D01*
X627Y973D02*
X632Y973D01*
X754Y973D02*
X758Y973D01*
X273Y972D02*
X277Y972D01*
X284Y972D02*
X288Y972D01*
X628Y972D02*
X633Y972D01*
X754Y972D02*
X758Y972D01*
X273Y971D02*
X277Y971D01*
X284Y971D02*
X288Y971D01*
X628Y971D02*
X633Y971D01*
X754Y971D02*
X758Y971D01*
X273Y970D02*
X277Y970D01*
X284Y970D02*
X288Y970D01*
X629Y970D02*
X634Y970D01*
X754Y970D02*
X758Y970D01*
X273Y969D02*
X277Y969D01*
X284Y969D02*
X288Y969D01*
X630Y969D02*
X635Y969D01*
X754Y969D02*
X758Y969D01*
X273Y968D02*
X277Y968D01*
X284Y968D02*
X288Y968D01*
X630Y968D02*
X636Y968D01*
X753Y968D02*
X758Y968D01*
X273Y967D02*
X277Y967D01*
X284Y967D02*
X288Y967D01*
X631Y967D02*
X636Y967D01*
X752Y967D02*
X758Y967D01*
X273Y966D02*
X288Y966D01*
X632Y966D02*
X637Y966D01*
X751Y966D02*
X757Y966D01*
X273Y965D02*
X288Y965D01*
X632Y965D02*
X638Y965D01*
X751Y965D02*
X756Y965D01*
X274Y964D02*
X288Y964D01*
X633Y964D02*
X639Y964D01*
X750Y964D02*
X755Y964D01*
X274Y963D02*
X287Y963D01*
X634Y963D02*
X640Y963D01*
X749Y963D02*
X755Y963D01*
X635Y962D02*
X641Y962D01*
X748Y962D02*
X754Y962D01*
X636Y961D02*
X642Y961D01*
X747Y961D02*
X753Y961D01*
X637Y960D02*
X643Y960D01*
X746Y960D02*
X752Y960D01*
X638Y959D02*
X644Y959D01*
X745Y959D02*
X751Y959D01*
X434Y958D02*
X466Y958D01*
X639Y958D02*
X645Y958D01*
X744Y958D02*
X750Y958D01*
X433Y957D02*
X469Y957D01*
X640Y957D02*
X646Y957D01*
X743Y957D02*
X749Y957D01*
X433Y956D02*
X469Y956D01*
X641Y956D02*
X648Y956D01*
X741Y956D02*
X748Y956D01*
X433Y955D02*
X469Y955D01*
X642Y955D02*
X649Y955D01*
X740Y955D02*
X747Y955D01*
X433Y954D02*
X468Y954D01*
X643Y954D02*
X650Y954D01*
X739Y954D02*
X746Y954D01*
X433Y953D02*
X437Y953D01*
X644Y953D02*
X652Y953D01*
X737Y953D02*
X745Y953D01*
X433Y952D02*
X437Y952D01*
X645Y952D02*
X653Y952D01*
X736Y952D02*
X743Y952D01*
X433Y951D02*
X437Y951D01*
X647Y951D02*
X654Y951D01*
X734Y951D02*
X742Y951D01*
X433Y950D02*
X437Y950D01*
X648Y950D02*
X656Y950D01*
X733Y950D02*
X741Y950D01*
X433Y949D02*
X437Y949D01*
X649Y949D02*
X658Y949D01*
X731Y949D02*
X739Y949D01*
X433Y948D02*
X437Y948D01*
X651Y948D02*
X660Y948D01*
X729Y948D02*
X738Y948D01*
X433Y947D02*
X437Y947D01*
X652Y947D02*
X662Y947D01*
X727Y947D02*
X736Y947D01*
X433Y946D02*
X437Y946D01*
X654Y946D02*
X664Y946D01*
X725Y946D02*
X735Y946D01*
X433Y945D02*
X437Y945D01*
X656Y945D02*
X666Y945D01*
X723Y945D02*
X733Y945D01*
X433Y944D02*
X437Y944D01*
X657Y944D02*
X669Y944D01*
X720Y944D02*
X731Y944D01*
X433Y943D02*
X437Y943D01*
X659Y943D02*
X672Y943D01*
X717Y943D02*
X729Y943D01*
X433Y942D02*
X437Y942D01*
X661Y942D02*
X675Y942D01*
X714Y942D02*
X727Y942D01*
X433Y941D02*
X437Y941D01*
X664Y941D02*
X679Y941D01*
X710Y941D02*
X725Y941D01*
X433Y940D02*
X437Y940D01*
X666Y940D02*
X686Y940D01*
X703Y940D02*
X722Y940D01*
X433Y939D02*
X437Y939D01*
X669Y939D02*
X720Y939D01*
X433Y938D02*
X437Y938D01*
X672Y938D02*
X716Y938D01*
X433Y937D02*
X437Y937D01*
X676Y937D02*
X713Y937D01*
X434Y936D02*
X437Y936D01*
X681Y936D02*
X708Y936D01*
X435Y935D02*
X436Y935D01*
X688Y935D02*
X700Y935D01*
X656Y924D02*
X657Y924D01*
X685Y924D02*
X704Y924D01*
X716Y924D02*
X726Y924D01*
X655Y923D02*
X658Y923D01*
X685Y923D02*
X704Y923D01*
X715Y923D02*
X727Y923D01*
X655Y922D02*
X658Y922D01*
X685Y922D02*
X704Y922D01*
X715Y922D02*
X728Y922D01*
X434Y921D02*
X437Y921D01*
X456Y921D02*
X458Y921D01*
X655Y921D02*
X658Y921D01*
X685Y921D02*
X704Y921D01*
X715Y921D02*
X729Y921D01*
X434Y920D02*
X437Y920D01*
X456Y920D02*
X459Y920D01*
X655Y920D02*
X658Y920D01*
X685Y920D02*
X688Y920D01*
X719Y920D02*
X722Y920D01*
X725Y920D02*
X730Y920D01*
X433Y919D02*
X437Y919D01*
X455Y919D02*
X459Y919D01*
X655Y919D02*
X658Y919D01*
X685Y919D02*
X688Y919D01*
X719Y919D02*
X722Y919D01*
X726Y919D02*
X730Y919D01*
X433Y918D02*
X437Y918D01*
X455Y918D02*
X459Y918D01*
X655Y918D02*
X658Y918D01*
X685Y918D02*
X688Y918D01*
X719Y918D02*
X722Y918D01*
X727Y918D02*
X731Y918D01*
X433Y917D02*
X437Y917D01*
X455Y917D02*
X459Y917D01*
X467Y917D02*
X469Y917D01*
X655Y917D02*
X658Y917D01*
X685Y917D02*
X688Y917D01*
X719Y917D02*
X722Y917D01*
X727Y917D02*
X731Y917D01*
X433Y916D02*
X437Y916D01*
X455Y916D02*
X459Y916D01*
X466Y916D02*
X471Y916D01*
X655Y916D02*
X658Y916D01*
X685Y916D02*
X688Y916D01*
X719Y916D02*
X722Y916D01*
X728Y916D02*
X732Y916D01*
X433Y915D02*
X437Y915D01*
X455Y915D02*
X459Y915D01*
X465Y915D02*
X471Y915D01*
X655Y915D02*
X658Y915D01*
X685Y915D02*
X688Y915D01*
X719Y915D02*
X722Y915D01*
X728Y915D02*
X732Y915D01*
X433Y914D02*
X459Y914D01*
X465Y914D02*
X471Y914D01*
X655Y914D02*
X658Y914D01*
X685Y914D02*
X688Y914D01*
X719Y914D02*
X722Y914D01*
X729Y914D02*
X733Y914D01*
X433Y913D02*
X459Y913D01*
X465Y913D02*
X471Y913D01*
X655Y913D02*
X658Y913D01*
X685Y913D02*
X688Y913D01*
X719Y913D02*
X722Y913D01*
X729Y913D02*
X733Y913D01*
X433Y912D02*
X459Y912D01*
X465Y912D02*
X471Y912D01*
X655Y912D02*
X658Y912D01*
X685Y912D02*
X688Y912D01*
X719Y912D02*
X722Y912D01*
X730Y912D02*
X734Y912D01*
X433Y911D02*
X459Y911D01*
X466Y911D02*
X471Y911D01*
X655Y911D02*
X658Y911D01*
X685Y911D02*
X688Y911D01*
X719Y911D02*
X722Y911D01*
X730Y911D02*
X734Y911D01*
X433Y910D02*
X438Y910D01*
X655Y910D02*
X658Y910D01*
X685Y910D02*
X695Y910D01*
X719Y910D02*
X722Y910D01*
X731Y910D02*
X734Y910D01*
X433Y909D02*
X437Y909D01*
X655Y909D02*
X658Y909D01*
X685Y909D02*
X696Y909D01*
X719Y909D02*
X722Y909D01*
X731Y909D02*
X734Y909D01*
X433Y908D02*
X437Y908D01*
X655Y908D02*
X658Y908D01*
X685Y908D02*
X696Y908D01*
X719Y908D02*
X722Y908D01*
X731Y908D02*
X734Y908D01*
X433Y907D02*
X437Y907D01*
X655Y907D02*
X658Y907D01*
X685Y907D02*
X696Y907D01*
X719Y907D02*
X722Y907D01*
X731Y907D02*
X734Y907D01*
X433Y906D02*
X437Y906D01*
X655Y906D02*
X658Y906D01*
X685Y906D02*
X688Y906D01*
X719Y906D02*
X722Y906D01*
X731Y906D02*
X734Y906D01*
X434Y905D02*
X437Y905D01*
X655Y905D02*
X658Y905D01*
X685Y905D02*
X688Y905D01*
X719Y905D02*
X722Y905D01*
X730Y905D02*
X734Y905D01*
X434Y904D02*
X437Y904D01*
X655Y904D02*
X658Y904D01*
X685Y904D02*
X688Y904D01*
X719Y904D02*
X722Y904D01*
X730Y904D02*
X733Y904D01*
X655Y903D02*
X658Y903D01*
X685Y903D02*
X688Y903D01*
X719Y903D02*
X722Y903D01*
X729Y903D02*
X733Y903D01*
X655Y902D02*
X658Y902D01*
X685Y902D02*
X688Y902D01*
X719Y902D02*
X722Y902D01*
X729Y902D02*
X733Y902D01*
X655Y901D02*
X658Y901D01*
X685Y901D02*
X688Y901D01*
X719Y901D02*
X722Y901D01*
X728Y901D02*
X732Y901D01*
X655Y900D02*
X658Y900D01*
X685Y900D02*
X688Y900D01*
X719Y900D02*
X722Y900D01*
X728Y900D02*
X732Y900D01*
X655Y899D02*
X658Y899D01*
X685Y899D02*
X688Y899D01*
X719Y899D02*
X722Y899D01*
X727Y899D02*
X731Y899D01*
X655Y898D02*
X658Y898D01*
X685Y898D02*
X688Y898D01*
X719Y898D02*
X722Y898D01*
X727Y898D02*
X731Y898D01*
X655Y897D02*
X658Y897D01*
X685Y897D02*
X688Y897D01*
X719Y897D02*
X722Y897D01*
X726Y897D02*
X730Y897D01*
X655Y896D02*
X673Y896D01*
X685Y896D02*
X703Y896D01*
X716Y896D02*
X730Y896D01*
X655Y895D02*
X674Y895D01*
X685Y895D02*
X704Y895D01*
X715Y895D02*
X729Y895D01*
X655Y894D02*
X674Y894D01*
X685Y894D02*
X704Y894D01*
X715Y894D02*
X728Y894D01*
X21Y893D02*
X46Y893D01*
X655Y893D02*
X674Y893D01*
X685Y893D02*
X704Y893D01*
X715Y893D02*
X727Y893D01*
X21Y892D02*
X46Y892D01*
X655Y892D02*
X673Y892D01*
X685Y892D02*
X703Y892D01*
X716Y892D02*
X724Y892D01*
X22Y891D02*
X45Y891D01*
X30Y890D02*
X37Y890D01*
X457Y890D02*
X458Y890D01*
X29Y889D02*
X32Y889D01*
X34Y889D02*
X38Y889D01*
X456Y889D02*
X459Y889D01*
X28Y888D02*
X31Y888D01*
X35Y888D02*
X39Y888D01*
X455Y888D02*
X459Y888D01*
X27Y887D02*
X31Y887D01*
X36Y887D02*
X40Y887D01*
X455Y887D02*
X459Y887D01*
X26Y886D02*
X30Y886D01*
X37Y886D02*
X40Y886D01*
X455Y886D02*
X459Y886D01*
X25Y885D02*
X29Y885D01*
X38Y885D02*
X41Y885D01*
X438Y885D02*
X466Y885D01*
X25Y884D02*
X28Y884D01*
X39Y884D02*
X42Y884D01*
X436Y884D02*
X467Y884D01*
X24Y883D02*
X27Y883D01*
X40Y883D02*
X43Y883D01*
X435Y883D02*
X467Y883D01*
X23Y882D02*
X26Y882D01*
X40Y882D02*
X44Y882D01*
X434Y882D02*
X467Y882D01*
X22Y881D02*
X25Y881D01*
X41Y881D02*
X45Y881D01*
X434Y881D02*
X465Y881D01*
X21Y880D02*
X25Y880D01*
X42Y880D02*
X45Y880D01*
X434Y880D02*
X438Y880D01*
X455Y880D02*
X459Y880D01*
X21Y879D02*
X24Y879D01*
X43Y879D02*
X46Y879D01*
X433Y879D02*
X437Y879D01*
X455Y879D02*
X459Y879D01*
X21Y878D02*
X23Y878D01*
X44Y878D02*
X45Y878D01*
X433Y878D02*
X437Y878D01*
X455Y878D02*
X459Y878D01*
X433Y877D02*
X437Y877D01*
X455Y877D02*
X459Y877D01*
X433Y876D02*
X437Y876D01*
X455Y876D02*
X459Y876D01*
X433Y875D02*
X437Y875D01*
X455Y875D02*
X459Y875D01*
X433Y874D02*
X437Y874D01*
X455Y874D02*
X459Y874D01*
X434Y873D02*
X437Y873D01*
X455Y873D02*
X459Y873D01*
X434Y872D02*
X438Y872D01*
X455Y872D02*
X459Y872D01*
X434Y871D02*
X440Y871D01*
X456Y871D02*
X459Y871D01*
X435Y870D02*
X441Y870D01*
X456Y870D02*
X458Y870D01*
X436Y869D02*
X441Y869D01*
X22Y868D02*
X22Y868D01*
X37Y868D02*
X38Y868D01*
X437Y868D02*
X441Y868D01*
X21Y867D02*
X23Y867D01*
X37Y867D02*
X39Y867D01*
X439Y867D02*
X440Y867D01*
X21Y866D02*
X23Y866D01*
X36Y866D02*
X39Y866D01*
X21Y865D02*
X23Y865D01*
X36Y865D02*
X39Y865D01*
X21Y864D02*
X23Y864D01*
X36Y864D02*
X39Y864D01*
X44Y864D02*
X47Y864D01*
X21Y863D02*
X39Y863D01*
X44Y863D02*
X47Y863D01*
X21Y862D02*
X39Y862D01*
X44Y862D02*
X47Y862D01*
X21Y861D02*
X39Y861D01*
X44Y861D02*
X47Y861D01*
X21Y860D02*
X37Y860D01*
X45Y860D02*
X46Y860D01*
X21Y859D02*
X23Y859D01*
X21Y858D02*
X23Y858D01*
X21Y857D02*
X23Y857D01*
X21Y856D02*
X23Y856D01*
X457Y856D02*
X458Y856D01*
X456Y855D02*
X459Y855D01*
X455Y854D02*
X459Y854D01*
X455Y853D02*
X459Y853D01*
X455Y852D02*
X459Y852D01*
X437Y851D02*
X466Y851D01*
X436Y850D02*
X467Y850D01*
X435Y849D02*
X467Y849D01*
X434Y848D02*
X467Y848D01*
X434Y847D02*
X465Y847D01*
X434Y846D02*
X438Y846D01*
X455Y846D02*
X459Y846D01*
X24Y845D02*
X36Y845D01*
X433Y845D02*
X437Y845D01*
X455Y845D02*
X459Y845D01*
X23Y844D02*
X37Y844D01*
X433Y844D02*
X437Y844D01*
X455Y844D02*
X459Y844D01*
X22Y843D02*
X38Y843D01*
X433Y843D02*
X437Y843D01*
X455Y843D02*
X459Y843D01*
X21Y842D02*
X25Y842D01*
X35Y842D02*
X38Y842D01*
X433Y842D02*
X437Y842D01*
X455Y842D02*
X459Y842D01*
X21Y841D02*
X24Y841D01*
X36Y841D02*
X39Y841D01*
X433Y841D02*
X437Y841D01*
X455Y841D02*
X459Y841D01*
X21Y840D02*
X23Y840D01*
X36Y840D02*
X39Y840D01*
X433Y840D02*
X437Y840D01*
X455Y840D02*
X459Y840D01*
X21Y839D02*
X23Y839D01*
X36Y839D02*
X39Y839D01*
X434Y839D02*
X438Y839D01*
X455Y839D02*
X459Y839D01*
X21Y838D02*
X23Y838D01*
X36Y838D02*
X39Y838D01*
X434Y838D02*
X439Y838D01*
X455Y838D02*
X459Y838D01*
X21Y837D02*
X23Y837D01*
X36Y837D02*
X39Y837D01*
X434Y837D02*
X440Y837D01*
X456Y837D02*
X459Y837D01*
X21Y836D02*
X24Y836D01*
X36Y836D02*
X39Y836D01*
X435Y836D02*
X441Y836D01*
X456Y836D02*
X458Y836D01*
X21Y835D02*
X25Y835D01*
X35Y835D02*
X38Y835D01*
X436Y835D02*
X441Y835D01*
X22Y834D02*
X26Y834D01*
X34Y834D02*
X38Y834D01*
X437Y834D02*
X441Y834D01*
X23Y833D02*
X27Y833D01*
X33Y833D02*
X37Y833D01*
X439Y833D02*
X439Y833D01*
X21Y832D02*
X45Y832D01*
X21Y831D02*
X46Y831D01*
X21Y830D02*
X45Y830D01*
X21Y821D02*
X46Y821D01*
X21Y820D02*
X46Y820D01*
X435Y820D02*
X436Y820D01*
X467Y820D02*
X468Y820D01*
X21Y819D02*
X46Y819D01*
X434Y819D02*
X437Y819D01*
X466Y819D02*
X469Y819D01*
X21Y818D02*
X23Y818D01*
X32Y818D02*
X35Y818D01*
X44Y818D02*
X46Y818D01*
X433Y818D02*
X437Y818D01*
X465Y818D02*
X469Y818D01*
X21Y817D02*
X23Y817D01*
X32Y817D02*
X35Y817D01*
X44Y817D02*
X46Y817D01*
X433Y817D02*
X437Y817D01*
X465Y817D02*
X469Y817D01*
X21Y816D02*
X23Y816D01*
X32Y816D02*
X35Y816D01*
X44Y816D02*
X46Y816D01*
X433Y816D02*
X437Y816D01*
X465Y816D02*
X469Y816D01*
X21Y815D02*
X23Y815D01*
X32Y815D02*
X35Y815D01*
X44Y815D02*
X46Y815D01*
X433Y815D02*
X437Y815D01*
X465Y815D02*
X469Y815D01*
X21Y814D02*
X23Y814D01*
X32Y814D02*
X35Y814D01*
X44Y814D02*
X46Y814D01*
X356Y814D02*
X360Y814D01*
X384Y814D02*
X388Y814D01*
X433Y814D02*
X437Y814D01*
X465Y814D02*
X469Y814D01*
X21Y813D02*
X23Y813D01*
X32Y813D02*
X34Y813D01*
X44Y813D02*
X46Y813D01*
X355Y813D02*
X360Y813D01*
X382Y813D02*
X389Y813D01*
X433Y813D02*
X469Y813D01*
X21Y812D02*
X23Y812D01*
X44Y812D02*
X46Y812D01*
X354Y812D02*
X361Y812D01*
X381Y812D02*
X390Y812D01*
X433Y812D02*
X469Y812D01*
X21Y811D02*
X23Y811D01*
X44Y811D02*
X46Y811D01*
X353Y811D02*
X360Y811D01*
X380Y811D02*
X391Y811D01*
X433Y811D02*
X469Y811D01*
X21Y810D02*
X23Y810D01*
X44Y810D02*
X46Y810D01*
X352Y810D02*
X360Y810D01*
X378Y810D02*
X391Y810D01*
X433Y810D02*
X469Y810D01*
X21Y809D02*
X23Y809D01*
X44Y809D02*
X46Y809D01*
X352Y809D02*
X357Y809D01*
X377Y809D02*
X385Y809D01*
X387Y809D02*
X391Y809D01*
X433Y809D02*
X468Y809D01*
X21Y808D02*
X23Y808D01*
X44Y808D02*
X46Y808D01*
X352Y808D02*
X356Y808D01*
X376Y808D02*
X383Y808D01*
X387Y808D02*
X391Y808D01*
X433Y808D02*
X437Y808D01*
X21Y807D02*
X23Y807D01*
X44Y807D02*
X46Y807D01*
X352Y807D02*
X356Y807D01*
X375Y807D02*
X382Y807D01*
X387Y807D02*
X391Y807D01*
X433Y807D02*
X437Y807D01*
X678Y807D02*
X678Y807D01*
X21Y806D02*
X23Y806D01*
X44Y806D02*
X45Y806D01*
X352Y806D02*
X356Y806D01*
X373Y806D02*
X381Y806D01*
X387Y806D02*
X391Y806D01*
X433Y806D02*
X437Y806D01*
X676Y806D02*
X680Y806D01*
X352Y805D02*
X356Y805D01*
X372Y805D02*
X380Y805D01*
X387Y805D02*
X391Y805D01*
X433Y805D02*
X437Y805D01*
X676Y805D02*
X680Y805D01*
X352Y804D02*
X356Y804D01*
X371Y804D02*
X378Y804D01*
X387Y804D02*
X391Y804D01*
X433Y804D02*
X437Y804D01*
X676Y804D02*
X680Y804D01*
X352Y803D02*
X356Y803D01*
X369Y803D02*
X377Y803D01*
X387Y803D02*
X391Y803D01*
X434Y803D02*
X437Y803D01*
X676Y803D02*
X680Y803D01*
X352Y802D02*
X356Y802D01*
X368Y802D02*
X376Y802D01*
X387Y802D02*
X391Y802D01*
X434Y802D02*
X436Y802D01*
X676Y802D02*
X680Y802D01*
X352Y801D02*
X356Y801D01*
X367Y801D02*
X374Y801D01*
X387Y801D02*
X391Y801D01*
X676Y801D02*
X680Y801D01*
X352Y800D02*
X356Y800D01*
X366Y800D02*
X373Y800D01*
X387Y800D02*
X391Y800D01*
X676Y800D02*
X680Y800D01*
X352Y799D02*
X356Y799D01*
X364Y799D02*
X372Y799D01*
X387Y799D02*
X391Y799D01*
X676Y799D02*
X680Y799D01*
X352Y798D02*
X356Y798D01*
X363Y798D02*
X371Y798D01*
X387Y798D02*
X391Y798D01*
X676Y798D02*
X680Y798D01*
X352Y797D02*
X356Y797D01*
X362Y797D02*
X369Y797D01*
X387Y797D02*
X391Y797D01*
X676Y797D02*
X680Y797D01*
X22Y796D02*
X22Y796D01*
X44Y796D02*
X45Y796D01*
X352Y796D02*
X356Y796D01*
X360Y796D02*
X368Y796D01*
X387Y796D02*
X391Y796D01*
X676Y796D02*
X680Y796D01*
X21Y795D02*
X23Y795D01*
X44Y795D02*
X46Y795D01*
X352Y795D02*
X356Y795D01*
X359Y795D02*
X367Y795D01*
X387Y795D02*
X391Y795D01*
X676Y795D02*
X680Y795D01*
X21Y794D02*
X23Y794D01*
X44Y794D02*
X46Y794D01*
X352Y794D02*
X365Y794D01*
X385Y794D02*
X391Y794D01*
X676Y794D02*
X680Y794D01*
X21Y793D02*
X23Y793D01*
X44Y793D02*
X46Y793D01*
X352Y793D02*
X364Y793D01*
X383Y793D02*
X391Y793D01*
X676Y793D02*
X680Y793D01*
X21Y792D02*
X23Y792D01*
X44Y792D02*
X46Y792D01*
X353Y792D02*
X363Y792D01*
X383Y792D02*
X390Y792D01*
X676Y792D02*
X680Y792D01*
X21Y791D02*
X46Y791D01*
X353Y791D02*
X362Y791D01*
X383Y791D02*
X389Y791D01*
X676Y791D02*
X680Y791D01*
X21Y790D02*
X46Y790D01*
X355Y790D02*
X360Y790D01*
X383Y790D02*
X388Y790D01*
X676Y790D02*
X679Y790D01*
X21Y789D02*
X46Y789D01*
X357Y789D02*
X358Y789D01*
X385Y789D02*
X386Y789D01*
X21Y788D02*
X44Y788D01*
X439Y788D02*
X453Y788D01*
X21Y787D02*
X23Y787D01*
X437Y787D02*
X455Y787D01*
X21Y786D02*
X23Y786D01*
X436Y786D02*
X456Y786D01*
X21Y785D02*
X23Y785D01*
X436Y785D02*
X457Y785D01*
X21Y784D02*
X23Y784D01*
X435Y784D02*
X458Y784D01*
X434Y783D02*
X439Y783D01*
X443Y783D02*
X447Y783D01*
X453Y783D02*
X458Y783D01*
X434Y782D02*
X438Y782D01*
X443Y782D02*
X447Y782D01*
X454Y782D02*
X459Y782D01*
X434Y781D02*
X438Y781D01*
X443Y781D02*
X447Y781D01*
X455Y781D02*
X459Y781D01*
X677Y781D02*
X679Y781D01*
X433Y780D02*
X437Y780D01*
X443Y780D02*
X447Y780D01*
X455Y780D02*
X459Y780D01*
X676Y780D02*
X680Y780D01*
X433Y779D02*
X437Y779D01*
X443Y779D02*
X447Y779D01*
X455Y779D02*
X459Y779D01*
X676Y779D02*
X680Y779D01*
X433Y778D02*
X437Y778D01*
X443Y778D02*
X447Y778D01*
X455Y778D02*
X459Y778D01*
X676Y778D02*
X680Y778D01*
X359Y777D02*
X373Y777D01*
X433Y777D02*
X437Y777D01*
X443Y777D02*
X447Y777D01*
X455Y777D02*
X459Y777D01*
X676Y777D02*
X680Y777D01*
X357Y776D02*
X375Y776D01*
X433Y776D02*
X437Y776D01*
X443Y776D02*
X447Y776D01*
X455Y776D02*
X459Y776D01*
X676Y776D02*
X680Y776D01*
X356Y775D02*
X376Y775D01*
X433Y775D02*
X437Y775D01*
X443Y775D02*
X447Y775D01*
X455Y775D02*
X459Y775D01*
X676Y775D02*
X680Y775D01*
X355Y774D02*
X377Y774D01*
X433Y774D02*
X437Y774D01*
X443Y774D02*
X447Y774D01*
X455Y774D02*
X459Y774D01*
X676Y774D02*
X680Y774D01*
X24Y773D02*
X36Y773D01*
X354Y773D02*
X378Y773D01*
X433Y773D02*
X437Y773D01*
X443Y773D02*
X447Y773D01*
X455Y773D02*
X459Y773D01*
X676Y773D02*
X680Y773D01*
X23Y772D02*
X37Y772D01*
X353Y772D02*
X360Y772D01*
X363Y772D02*
X368Y772D01*
X372Y772D02*
X379Y772D01*
X433Y772D02*
X437Y772D01*
X443Y772D02*
X447Y772D01*
X455Y772D02*
X459Y772D01*
X676Y772D02*
X680Y772D01*
X22Y771D02*
X38Y771D01*
X353Y771D02*
X358Y771D01*
X363Y771D02*
X367Y771D01*
X374Y771D02*
X380Y771D01*
X433Y771D02*
X437Y771D01*
X443Y771D02*
X447Y771D01*
X454Y771D02*
X458Y771D01*
X676Y771D02*
X680Y771D01*
X21Y770D02*
X25Y770D01*
X28Y770D02*
X30Y770D01*
X35Y770D02*
X38Y770D01*
X352Y770D02*
X357Y770D01*
X363Y770D02*
X367Y770D01*
X375Y770D02*
X380Y770D01*
X433Y770D02*
X437Y770D01*
X443Y770D02*
X448Y770D01*
X452Y770D02*
X458Y770D01*
X676Y770D02*
X680Y770D01*
X21Y769D02*
X24Y769D01*
X28Y769D02*
X30Y769D01*
X36Y769D02*
X39Y769D01*
X352Y769D02*
X357Y769D01*
X363Y769D02*
X367Y769D01*
X376Y769D02*
X380Y769D01*
X433Y769D02*
X437Y769D01*
X443Y769D02*
X457Y769D01*
X676Y769D02*
X680Y769D01*
X21Y768D02*
X23Y768D01*
X28Y768D02*
X30Y768D01*
X36Y768D02*
X39Y768D01*
X352Y768D02*
X356Y768D01*
X363Y768D02*
X367Y768D01*
X376Y768D02*
X380Y768D01*
X433Y768D02*
X437Y768D01*
X443Y768D02*
X456Y768D01*
X676Y768D02*
X680Y768D01*
X21Y767D02*
X23Y767D01*
X28Y767D02*
X30Y767D01*
X36Y767D02*
X39Y767D01*
X352Y767D02*
X356Y767D01*
X363Y767D02*
X367Y767D01*
X376Y767D02*
X380Y767D01*
X434Y767D02*
X437Y767D01*
X444Y767D02*
X455Y767D01*
X676Y767D02*
X680Y767D01*
X21Y766D02*
X23Y766D01*
X28Y766D02*
X30Y766D01*
X36Y766D02*
X39Y766D01*
X352Y766D02*
X356Y766D01*
X363Y766D02*
X367Y766D01*
X376Y766D02*
X380Y766D01*
X434Y766D02*
X436Y766D01*
X444Y766D02*
X454Y766D01*
X626Y766D02*
X627Y766D01*
X676Y766D02*
X680Y766D01*
X21Y765D02*
X23Y765D01*
X28Y765D02*
X30Y765D01*
X36Y765D02*
X39Y765D01*
X352Y765D02*
X356Y765D01*
X363Y765D02*
X367Y765D01*
X376Y765D02*
X380Y765D01*
X624Y765D02*
X629Y765D01*
X676Y765D02*
X680Y765D01*
X21Y764D02*
X23Y764D01*
X28Y764D02*
X30Y764D01*
X36Y764D02*
X39Y764D01*
X352Y764D02*
X356Y764D01*
X363Y764D02*
X367Y764D01*
X376Y764D02*
X380Y764D01*
X622Y764D02*
X629Y764D01*
X677Y764D02*
X679Y764D01*
X21Y763D02*
X23Y763D01*
X28Y763D02*
X30Y763D01*
X36Y763D02*
X39Y763D01*
X352Y763D02*
X356Y763D01*
X363Y763D02*
X367Y763D01*
X376Y763D02*
X380Y763D01*
X622Y763D02*
X629Y763D01*
X21Y762D02*
X23Y762D01*
X28Y762D02*
X30Y762D01*
X36Y762D02*
X39Y762D01*
X352Y762D02*
X356Y762D01*
X363Y762D02*
X367Y762D01*
X376Y762D02*
X380Y762D01*
X621Y762D02*
X628Y762D01*
X21Y761D02*
X23Y761D01*
X28Y761D02*
X30Y761D01*
X35Y761D02*
X38Y761D01*
X352Y761D02*
X356Y761D01*
X363Y761D02*
X367Y761D01*
X376Y761D02*
X380Y761D01*
X621Y761D02*
X624Y761D01*
X21Y760D02*
X23Y760D01*
X28Y760D02*
X37Y760D01*
X352Y760D02*
X356Y760D01*
X363Y760D02*
X367Y760D01*
X376Y760D02*
X380Y760D01*
X621Y760D02*
X624Y760D01*
X21Y759D02*
X23Y759D01*
X28Y759D02*
X36Y759D01*
X352Y759D02*
X356Y759D01*
X363Y759D02*
X367Y759D01*
X375Y759D02*
X380Y759D01*
X621Y759D02*
X624Y759D01*
X21Y758D02*
X23Y758D01*
X28Y758D02*
X35Y758D01*
X352Y758D02*
X356Y758D01*
X363Y758D02*
X367Y758D01*
X374Y758D02*
X380Y758D01*
X621Y758D02*
X624Y758D01*
X352Y757D02*
X356Y757D01*
X363Y757D02*
X367Y757D01*
X373Y757D02*
X379Y757D01*
X621Y757D02*
X624Y757D01*
X352Y756D02*
X356Y756D01*
X363Y756D02*
X378Y756D01*
X621Y756D02*
X624Y756D01*
X352Y755D02*
X356Y755D01*
X363Y755D02*
X378Y755D01*
X621Y755D02*
X625Y755D01*
X352Y754D02*
X356Y754D01*
X363Y754D02*
X377Y754D01*
X433Y754D02*
X469Y754D01*
X621Y754D02*
X626Y754D01*
X352Y753D02*
X356Y753D01*
X363Y753D02*
X376Y753D01*
X433Y753D02*
X469Y753D01*
X622Y753D02*
X627Y753D01*
X353Y752D02*
X355Y752D01*
X364Y752D02*
X374Y752D01*
X433Y752D02*
X469Y752D01*
X623Y752D02*
X628Y752D01*
X433Y751D02*
X469Y751D01*
X624Y751D02*
X628Y751D01*
X29Y750D02*
X31Y750D01*
X433Y750D02*
X438Y750D01*
X449Y750D02*
X454Y750D01*
X465Y750D02*
X469Y750D01*
X625Y750D02*
X629Y750D01*
X26Y749D02*
X34Y749D01*
X433Y749D02*
X437Y749D01*
X449Y749D02*
X453Y749D01*
X465Y749D02*
X469Y749D01*
X621Y749D02*
X642Y749D01*
X24Y748D02*
X35Y748D01*
X433Y748D02*
X437Y748D01*
X449Y748D02*
X453Y748D01*
X465Y748D02*
X469Y748D01*
X621Y748D02*
X643Y748D01*
X23Y747D02*
X36Y747D01*
X433Y747D02*
X437Y747D01*
X449Y747D02*
X453Y747D01*
X465Y747D02*
X469Y747D01*
X621Y747D02*
X643Y747D01*
X23Y746D02*
X26Y746D01*
X34Y746D02*
X37Y746D01*
X433Y746D02*
X437Y746D01*
X449Y746D02*
X453Y746D01*
X465Y746D02*
X469Y746D01*
X621Y746D02*
X643Y746D01*
X22Y745D02*
X25Y745D01*
X35Y745D02*
X38Y745D01*
X433Y745D02*
X437Y745D01*
X449Y745D02*
X453Y745D01*
X465Y745D02*
X469Y745D01*
X21Y744D02*
X24Y744D01*
X35Y744D02*
X38Y744D01*
X433Y744D02*
X437Y744D01*
X449Y744D02*
X453Y744D01*
X465Y744D02*
X469Y744D01*
X21Y743D02*
X24Y743D01*
X36Y743D02*
X39Y743D01*
X433Y743D02*
X437Y743D01*
X449Y743D02*
X453Y743D01*
X465Y743D02*
X469Y743D01*
X21Y742D02*
X23Y742D01*
X36Y742D02*
X39Y742D01*
X433Y742D02*
X437Y742D01*
X449Y742D02*
X453Y742D01*
X465Y742D02*
X469Y742D01*
X21Y741D02*
X23Y741D01*
X36Y741D02*
X39Y741D01*
X433Y741D02*
X437Y741D01*
X449Y741D02*
X453Y741D01*
X465Y741D02*
X469Y741D01*
X21Y740D02*
X23Y740D01*
X36Y740D02*
X39Y740D01*
X355Y740D02*
X378Y740D01*
X434Y740D02*
X437Y740D01*
X449Y740D02*
X453Y740D01*
X465Y740D02*
X469Y740D01*
X21Y739D02*
X23Y739D01*
X36Y739D02*
X39Y739D01*
X353Y739D02*
X380Y739D01*
X434Y739D02*
X438Y739D01*
X449Y739D02*
X454Y739D01*
X465Y739D02*
X469Y739D01*
X21Y738D02*
X23Y738D01*
X36Y738D02*
X39Y738D01*
X352Y738D02*
X380Y738D01*
X434Y738D02*
X438Y738D01*
X448Y738D02*
X454Y738D01*
X464Y738D02*
X469Y738D01*
X21Y737D02*
X23Y737D01*
X36Y737D02*
X39Y737D01*
X352Y737D02*
X380Y737D01*
X434Y737D02*
X439Y737D01*
X447Y737D02*
X455Y737D01*
X463Y737D02*
X468Y737D01*
X21Y736D02*
X23Y736D01*
X36Y736D02*
X39Y736D01*
X352Y736D02*
X380Y736D01*
X435Y736D02*
X468Y736D01*
X627Y736D02*
X637Y736D01*
X21Y735D02*
X23Y735D01*
X36Y735D02*
X39Y735D01*
X354Y735D02*
X379Y735D01*
X436Y735D02*
X467Y735D01*
X625Y735D02*
X639Y735D01*
X21Y734D02*
X23Y734D01*
X37Y734D02*
X38Y734D01*
X371Y734D02*
X376Y734D01*
X436Y734D02*
X450Y734D01*
X452Y734D02*
X466Y734D01*
X623Y734D02*
X640Y734D01*
X372Y733D02*
X377Y733D01*
X438Y733D02*
X449Y733D01*
X454Y733D02*
X465Y733D01*
X623Y733D02*
X641Y733D01*
X372Y732D02*
X378Y732D01*
X440Y732D02*
X447Y732D01*
X456Y732D02*
X463Y732D01*
X622Y732D02*
X642Y732D01*
X373Y731D02*
X378Y731D01*
X621Y731D02*
X625Y731D01*
X638Y731D02*
X643Y731D01*
X374Y730D02*
X379Y730D01*
X621Y730D02*
X624Y730D01*
X639Y730D02*
X643Y730D01*
X374Y729D02*
X379Y729D01*
X621Y729D02*
X624Y729D01*
X640Y729D02*
X643Y729D01*
X375Y728D02*
X380Y728D01*
X621Y728D02*
X624Y728D01*
X640Y728D02*
X643Y728D01*
X376Y727D02*
X380Y727D01*
X621Y727D02*
X624Y727D01*
X640Y727D02*
X643Y727D01*
X376Y726D02*
X380Y726D01*
X621Y726D02*
X624Y726D01*
X640Y726D02*
X643Y726D01*
X37Y725D02*
X39Y725D01*
X376Y725D02*
X380Y725D01*
X621Y725D02*
X624Y725D01*
X640Y725D02*
X643Y725D01*
X36Y724D02*
X39Y724D01*
X376Y724D02*
X380Y724D01*
X621Y724D02*
X624Y724D01*
X640Y724D02*
X643Y724D01*
X36Y723D02*
X39Y723D01*
X376Y723D02*
X380Y723D01*
X621Y723D02*
X624Y723D01*
X640Y723D02*
X643Y723D01*
X23Y722D02*
X44Y722D01*
X376Y722D02*
X380Y722D01*
X621Y722D02*
X624Y722D01*
X640Y722D02*
X643Y722D01*
X22Y721D02*
X44Y721D01*
X375Y721D02*
X380Y721D01*
X621Y721D02*
X625Y721D01*
X639Y721D02*
X643Y721D01*
X22Y720D02*
X44Y720D01*
X370Y720D02*
X380Y720D01*
X621Y720D02*
X626Y720D01*
X638Y720D02*
X642Y720D01*
X21Y719D02*
X24Y719D01*
X36Y719D02*
X39Y719D01*
X353Y719D02*
X379Y719D01*
X622Y719D02*
X642Y719D01*
X21Y718D02*
X23Y718D01*
X36Y718D02*
X39Y718D01*
X352Y718D02*
X379Y718D01*
X434Y718D02*
X436Y718D01*
X456Y718D02*
X458Y718D01*
X623Y718D02*
X641Y718D01*
X21Y717D02*
X23Y717D01*
X36Y717D02*
X39Y717D01*
X352Y717D02*
X378Y717D01*
X434Y717D02*
X437Y717D01*
X456Y717D02*
X459Y717D01*
X624Y717D02*
X640Y717D01*
X21Y716D02*
X23Y716D01*
X36Y716D02*
X39Y716D01*
X352Y716D02*
X377Y716D01*
X433Y716D02*
X437Y716D01*
X455Y716D02*
X459Y716D01*
X625Y716D02*
X639Y716D01*
X21Y715D02*
X23Y715D01*
X36Y715D02*
X39Y715D01*
X353Y715D02*
X374Y715D01*
X433Y715D02*
X437Y715D01*
X455Y715D02*
X459Y715D01*
X21Y714D02*
X23Y714D01*
X36Y714D02*
X39Y714D01*
X433Y714D02*
X437Y714D01*
X455Y714D02*
X459Y714D01*
X21Y713D02*
X24Y713D01*
X36Y713D02*
X39Y713D01*
X433Y713D02*
X437Y713D01*
X455Y713D02*
X459Y713D01*
X466Y713D02*
X471Y713D01*
X22Y712D02*
X26Y712D01*
X37Y712D02*
X39Y712D01*
X433Y712D02*
X437Y712D01*
X455Y712D02*
X459Y712D01*
X465Y712D02*
X471Y712D01*
X22Y711D02*
X26Y711D01*
X433Y711D02*
X459Y711D01*
X465Y711D02*
X471Y711D01*
X24Y710D02*
X26Y710D01*
X433Y710D02*
X459Y710D01*
X465Y710D02*
X471Y710D01*
X433Y709D02*
X459Y709D01*
X465Y709D02*
X471Y709D01*
X433Y708D02*
X459Y708D01*
X466Y708D02*
X471Y708D01*
X433Y707D02*
X457Y707D01*
X467Y707D02*
X469Y707D01*
X433Y706D02*
X437Y706D01*
X637Y706D02*
X637Y706D01*
X433Y705D02*
X437Y705D01*
X623Y705D02*
X625Y705D01*
X634Y705D02*
X640Y705D01*
X433Y704D02*
X437Y704D01*
X622Y704D02*
X625Y704D01*
X633Y704D02*
X641Y704D01*
X433Y703D02*
X437Y703D01*
X621Y703D02*
X625Y703D01*
X632Y703D02*
X642Y703D01*
X23Y702D02*
X37Y702D01*
X355Y702D02*
X357Y702D01*
X374Y702D02*
X375Y702D01*
X433Y702D02*
X437Y702D01*
X621Y702D02*
X625Y702D01*
X632Y702D02*
X643Y702D01*
X21Y701D02*
X39Y701D01*
X354Y701D02*
X358Y701D01*
X371Y701D02*
X377Y701D01*
X434Y701D02*
X437Y701D01*
X621Y701D02*
X624Y701D01*
X631Y701D02*
X635Y701D01*
X639Y701D02*
X643Y701D01*
X21Y700D02*
X39Y700D01*
X353Y700D02*
X358Y700D01*
X370Y700D02*
X378Y700D01*
X435Y700D02*
X436Y700D01*
X621Y700D02*
X624Y700D01*
X631Y700D02*
X635Y700D01*
X640Y700D02*
X643Y700D01*
X22Y699D02*
X38Y699D01*
X353Y699D02*
X358Y699D01*
X369Y699D02*
X379Y699D01*
X621Y699D02*
X624Y699D01*
X631Y699D02*
X634Y699D01*
X640Y699D02*
X643Y699D01*
X32Y698D02*
X36Y698D01*
X353Y698D02*
X357Y698D01*
X369Y698D02*
X380Y698D01*
X621Y698D02*
X624Y698D01*
X630Y698D02*
X634Y698D01*
X640Y698D02*
X643Y698D01*
X33Y697D02*
X37Y697D01*
X352Y697D02*
X357Y697D01*
X368Y697D02*
X380Y697D01*
X621Y697D02*
X624Y697D01*
X630Y697D02*
X633Y697D01*
X640Y697D02*
X643Y697D01*
X34Y696D02*
X37Y696D01*
X352Y696D02*
X356Y696D01*
X368Y696D02*
X372Y696D01*
X376Y696D02*
X380Y696D01*
X621Y696D02*
X624Y696D01*
X629Y696D02*
X633Y696D01*
X640Y696D02*
X643Y696D01*
X35Y695D02*
X38Y695D01*
X352Y695D02*
X356Y695D01*
X367Y695D02*
X372Y695D01*
X376Y695D02*
X380Y695D01*
X621Y695D02*
X624Y695D01*
X629Y695D02*
X632Y695D01*
X640Y695D02*
X643Y695D01*
X680Y695D02*
X680Y695D01*
X36Y694D02*
X39Y694D01*
X352Y694D02*
X356Y694D01*
X367Y694D02*
X371Y694D01*
X376Y694D02*
X380Y694D01*
X621Y694D02*
X624Y694D01*
X628Y694D02*
X632Y694D01*
X640Y694D02*
X643Y694D01*
X679Y694D02*
X681Y694D01*
X36Y693D02*
X39Y693D01*
X352Y693D02*
X356Y693D01*
X366Y693D02*
X371Y693D01*
X376Y693D02*
X380Y693D01*
X621Y693D02*
X624Y693D01*
X628Y693D02*
X632Y693D01*
X640Y693D02*
X643Y693D01*
X679Y693D02*
X681Y693D01*
X36Y692D02*
X39Y692D01*
X352Y692D02*
X356Y692D01*
X366Y692D02*
X371Y692D01*
X376Y692D02*
X380Y692D01*
X621Y692D02*
X624Y692D01*
X628Y692D02*
X631Y692D01*
X640Y692D02*
X643Y692D01*
X679Y692D02*
X681Y692D01*
X36Y691D02*
X39Y691D01*
X352Y691D02*
X356Y691D01*
X366Y691D02*
X370Y691D01*
X376Y691D02*
X380Y691D01*
X621Y691D02*
X624Y691D01*
X627Y691D02*
X631Y691D01*
X640Y691D02*
X643Y691D01*
X679Y691D02*
X681Y691D01*
X36Y690D02*
X39Y690D01*
X352Y690D02*
X356Y690D01*
X365Y690D02*
X370Y690D01*
X376Y690D02*
X380Y690D01*
X621Y690D02*
X630Y690D01*
X640Y690D02*
X643Y690D01*
X679Y690D02*
X681Y690D01*
X35Y689D02*
X39Y689D01*
X352Y689D02*
X356Y689D01*
X365Y689D02*
X369Y689D01*
X376Y689D02*
X380Y689D01*
X621Y689D02*
X630Y689D01*
X639Y689D02*
X643Y689D01*
X679Y689D02*
X681Y689D01*
X33Y688D02*
X38Y688D01*
X352Y688D02*
X356Y688D01*
X364Y688D02*
X369Y688D01*
X376Y688D02*
X380Y688D01*
X622Y688D02*
X629Y688D01*
X638Y688D02*
X642Y688D01*
X673Y688D02*
X687Y688D01*
X32Y687D02*
X37Y687D01*
X352Y687D02*
X356Y687D01*
X364Y687D02*
X368Y687D01*
X376Y687D02*
X380Y687D01*
X623Y687D02*
X628Y687D01*
X638Y687D02*
X642Y687D01*
X672Y687D02*
X688Y687D01*
X33Y686D02*
X36Y686D01*
X352Y686D02*
X356Y686D01*
X363Y686D02*
X368Y686D01*
X376Y686D02*
X380Y686D01*
X456Y686D02*
X459Y686D01*
X625Y686D02*
X626Y686D01*
X639Y686D02*
X641Y686D01*
X672Y686D02*
X688Y686D01*
X352Y685D02*
X356Y685D01*
X363Y685D02*
X368Y685D01*
X376Y685D02*
X380Y685D01*
X455Y685D02*
X459Y685D01*
X672Y685D02*
X688Y685D01*
X352Y684D02*
X356Y684D01*
X362Y684D02*
X367Y684D01*
X376Y684D02*
X380Y684D01*
X455Y684D02*
X459Y684D01*
X679Y684D02*
X681Y684D01*
X352Y683D02*
X357Y683D01*
X362Y683D02*
X367Y683D01*
X376Y683D02*
X380Y683D01*
X455Y683D02*
X459Y683D01*
X679Y683D02*
X681Y683D01*
X353Y682D02*
X366Y682D01*
X375Y682D02*
X380Y682D01*
X438Y682D02*
X466Y682D01*
X679Y682D02*
X681Y682D01*
X353Y681D02*
X366Y681D01*
X374Y681D02*
X380Y681D01*
X436Y681D02*
X467Y681D01*
X679Y681D02*
X681Y681D01*
X354Y680D02*
X365Y680D01*
X374Y680D02*
X379Y680D01*
X435Y680D02*
X467Y680D01*
X679Y680D02*
X681Y680D01*
X355Y679D02*
X364Y679D01*
X374Y679D02*
X378Y679D01*
X435Y679D02*
X467Y679D01*
X679Y679D02*
X681Y679D01*
X27Y678D02*
X33Y678D01*
X356Y678D02*
X363Y678D01*
X375Y678D02*
X377Y678D01*
X434Y678D02*
X466Y678D01*
X679Y678D02*
X681Y678D01*
X24Y677D02*
X36Y677D01*
X359Y677D02*
X359Y677D01*
X434Y677D02*
X438Y677D01*
X455Y677D02*
X459Y677D01*
X23Y676D02*
X37Y676D01*
X434Y676D02*
X437Y676D01*
X455Y676D02*
X459Y676D01*
X641Y676D02*
X641Y676D01*
X22Y675D02*
X38Y675D01*
X433Y675D02*
X437Y675D01*
X455Y675D02*
X459Y675D01*
X624Y675D02*
X643Y675D01*
X21Y674D02*
X25Y674D01*
X35Y674D02*
X38Y674D01*
X433Y674D02*
X437Y674D01*
X455Y674D02*
X459Y674D01*
X623Y674D02*
X643Y674D01*
X21Y673D02*
X24Y673D01*
X36Y673D02*
X39Y673D01*
X433Y673D02*
X437Y673D01*
X455Y673D02*
X459Y673D01*
X622Y673D02*
X643Y673D01*
X21Y672D02*
X23Y672D01*
X36Y672D02*
X39Y672D01*
X433Y672D02*
X437Y672D01*
X455Y672D02*
X459Y672D01*
X621Y672D02*
X642Y672D01*
X21Y671D02*
X23Y671D01*
X36Y671D02*
X39Y671D01*
X433Y671D02*
X437Y671D01*
X455Y671D02*
X459Y671D01*
X621Y671D02*
X625Y671D01*
X21Y670D02*
X23Y670D01*
X36Y670D02*
X39Y670D01*
X434Y670D02*
X437Y670D01*
X455Y670D02*
X459Y670D01*
X621Y670D02*
X624Y670D01*
X21Y669D02*
X23Y669D01*
X36Y669D02*
X39Y669D01*
X434Y669D02*
X438Y669D01*
X455Y669D02*
X459Y669D01*
X621Y669D02*
X624Y669D01*
X21Y668D02*
X23Y668D01*
X36Y668D02*
X39Y668D01*
X434Y668D02*
X440Y668D01*
X455Y668D02*
X459Y668D01*
X621Y668D02*
X624Y668D01*
X21Y667D02*
X23Y667D01*
X36Y667D02*
X39Y667D01*
X435Y667D02*
X441Y667D01*
X456Y667D02*
X459Y667D01*
X621Y667D02*
X624Y667D01*
X21Y666D02*
X24Y666D01*
X36Y666D02*
X39Y666D01*
X435Y666D02*
X441Y666D01*
X621Y666D02*
X624Y666D01*
X22Y665D02*
X25Y665D01*
X34Y665D02*
X38Y665D01*
X359Y665D02*
X373Y665D01*
X436Y665D02*
X441Y665D01*
X621Y665D02*
X625Y665D01*
X22Y664D02*
X37Y664D01*
X357Y664D02*
X375Y664D01*
X438Y664D02*
X440Y664D01*
X621Y664D02*
X625Y664D01*
X23Y663D02*
X36Y663D01*
X356Y663D02*
X377Y663D01*
X622Y663D02*
X626Y663D01*
X25Y662D02*
X35Y662D01*
X355Y662D02*
X377Y662D01*
X623Y662D02*
X627Y662D01*
X354Y661D02*
X378Y661D01*
X623Y661D02*
X627Y661D01*
X353Y660D02*
X360Y660D01*
X373Y660D02*
X379Y660D01*
X624Y660D02*
X628Y660D01*
X353Y659D02*
X358Y659D01*
X374Y659D02*
X380Y659D01*
X621Y659D02*
X642Y659D01*
X352Y658D02*
X357Y658D01*
X375Y658D02*
X380Y658D01*
X621Y658D02*
X643Y658D01*
X352Y657D02*
X357Y657D01*
X376Y657D02*
X380Y657D01*
X621Y657D02*
X643Y657D01*
X352Y656D02*
X356Y656D01*
X376Y656D02*
X380Y656D01*
X621Y656D02*
X643Y656D01*
X352Y655D02*
X356Y655D01*
X376Y655D02*
X380Y655D01*
X22Y654D02*
X37Y654D01*
X352Y654D02*
X356Y654D01*
X376Y654D02*
X380Y654D01*
X21Y653D02*
X39Y653D01*
X352Y653D02*
X356Y653D01*
X376Y653D02*
X380Y653D01*
X437Y653D02*
X438Y653D01*
X21Y652D02*
X39Y652D01*
X352Y652D02*
X356Y652D01*
X376Y652D02*
X380Y652D01*
X436Y652D02*
X439Y652D01*
X452Y652D02*
X456Y652D01*
X22Y651D02*
X38Y651D01*
X352Y651D02*
X356Y651D01*
X376Y651D02*
X380Y651D01*
X435Y651D02*
X439Y651D01*
X450Y651D02*
X457Y651D01*
X33Y650D02*
X36Y650D01*
X352Y650D02*
X356Y650D01*
X376Y650D02*
X380Y650D01*
X434Y650D02*
X439Y650D01*
X449Y650D02*
X458Y650D01*
X34Y649D02*
X37Y649D01*
X352Y649D02*
X356Y649D01*
X376Y649D02*
X380Y649D01*
X434Y649D02*
X438Y649D01*
X449Y649D02*
X459Y649D01*
X35Y648D02*
X38Y648D01*
X352Y648D02*
X357Y648D01*
X376Y648D02*
X380Y648D01*
X434Y648D02*
X438Y648D01*
X448Y648D02*
X459Y648D01*
X35Y647D02*
X38Y647D01*
X352Y647D02*
X357Y647D01*
X375Y647D02*
X380Y647D01*
X434Y647D02*
X437Y647D01*
X448Y647D02*
X452Y647D01*
X455Y647D02*
X459Y647D01*
X36Y646D02*
X39Y646D01*
X353Y646D02*
X358Y646D01*
X374Y646D02*
X380Y646D01*
X433Y646D02*
X437Y646D01*
X447Y646D02*
X451Y646D01*
X455Y646D02*
X459Y646D01*
X627Y646D02*
X633Y646D01*
X642Y646D02*
X642Y646D01*
X36Y645D02*
X39Y645D01*
X353Y645D02*
X360Y645D01*
X373Y645D02*
X379Y645D01*
X433Y645D02*
X437Y645D01*
X447Y645D02*
X451Y645D01*
X455Y645D02*
X459Y645D01*
X625Y645D02*
X634Y645D01*
X640Y645D02*
X643Y645D01*
X36Y644D02*
X39Y644D01*
X354Y644D02*
X378Y644D01*
X433Y644D02*
X437Y644D01*
X446Y644D02*
X451Y644D01*
X455Y644D02*
X459Y644D01*
X623Y644D02*
X634Y644D01*
X640Y644D02*
X643Y644D01*
X36Y643D02*
X39Y643D01*
X355Y643D02*
X377Y643D01*
X433Y643D02*
X437Y643D01*
X446Y643D02*
X450Y643D01*
X455Y643D02*
X459Y643D01*
X623Y643D02*
X634Y643D01*
X640Y643D02*
X643Y643D01*
X36Y642D02*
X39Y642D01*
X356Y642D02*
X377Y642D01*
X433Y642D02*
X437Y642D01*
X446Y642D02*
X450Y642D01*
X455Y642D02*
X459Y642D01*
X622Y642D02*
X634Y642D01*
X640Y642D02*
X643Y642D01*
X27Y641D02*
X38Y641D01*
X357Y641D02*
X375Y641D01*
X433Y641D02*
X437Y641D01*
X445Y641D02*
X449Y641D01*
X455Y641D02*
X459Y641D01*
X621Y641D02*
X625Y641D01*
X631Y641D02*
X634Y641D01*
X640Y641D02*
X643Y641D01*
X21Y640D02*
X38Y640D01*
X359Y640D02*
X373Y640D01*
X433Y640D02*
X437Y640D01*
X445Y640D02*
X449Y640D01*
X455Y640D02*
X459Y640D01*
X621Y640D02*
X624Y640D01*
X631Y640D02*
X634Y640D01*
X640Y640D02*
X643Y640D01*
X21Y639D02*
X37Y639D01*
X433Y639D02*
X437Y639D01*
X444Y639D02*
X448Y639D01*
X455Y639D02*
X459Y639D01*
X621Y639D02*
X624Y639D01*
X631Y639D02*
X634Y639D01*
X640Y639D02*
X643Y639D01*
X21Y638D02*
X34Y638D01*
X433Y638D02*
X437Y638D01*
X444Y638D02*
X448Y638D01*
X455Y638D02*
X459Y638D01*
X621Y638D02*
X624Y638D01*
X631Y638D02*
X634Y638D01*
X640Y638D02*
X643Y638D01*
X433Y637D02*
X437Y637D01*
X443Y637D02*
X448Y637D01*
X455Y637D02*
X459Y637D01*
X621Y637D02*
X624Y637D01*
X631Y637D02*
X634Y637D01*
X640Y637D02*
X643Y637D01*
X434Y636D02*
X437Y636D01*
X443Y636D02*
X447Y636D01*
X455Y636D02*
X459Y636D01*
X621Y636D02*
X624Y636D01*
X631Y636D02*
X634Y636D01*
X640Y636D02*
X643Y636D01*
X434Y635D02*
X438Y635D01*
X442Y635D02*
X447Y635D01*
X455Y635D02*
X459Y635D01*
X621Y635D02*
X624Y635D01*
X631Y635D02*
X634Y635D01*
X640Y635D02*
X643Y635D01*
X434Y634D02*
X446Y634D01*
X454Y634D02*
X459Y634D01*
X621Y634D02*
X624Y634D01*
X631Y634D02*
X634Y634D01*
X640Y634D02*
X643Y634D01*
X435Y633D02*
X446Y633D01*
X453Y633D02*
X458Y633D01*
X621Y633D02*
X624Y633D01*
X631Y633D02*
X634Y633D01*
X640Y633D02*
X643Y633D01*
X436Y632D02*
X445Y632D01*
X454Y632D02*
X458Y632D01*
X621Y632D02*
X624Y632D01*
X631Y632D02*
X634Y632D01*
X640Y632D02*
X643Y632D01*
X437Y631D02*
X444Y631D01*
X454Y631D02*
X456Y631D01*
X621Y631D02*
X625Y631D01*
X631Y631D02*
X634Y631D01*
X639Y631D02*
X643Y631D01*
X439Y630D02*
X441Y630D01*
X621Y630D02*
X626Y630D01*
X631Y630D02*
X634Y630D01*
X638Y630D02*
X642Y630D01*
X622Y629D02*
X642Y629D01*
X354Y628D02*
X378Y628D01*
X623Y628D02*
X641Y628D01*
X352Y627D02*
X380Y627D01*
X624Y627D02*
X640Y627D01*
X352Y626D02*
X380Y626D01*
X625Y626D02*
X639Y626D01*
X352Y625D02*
X380Y625D01*
X352Y624D02*
X380Y624D01*
X354Y623D02*
X378Y623D01*
X369Y622D02*
X375Y622D01*
X370Y621D02*
X376Y621D01*
X371Y620D02*
X377Y620D01*
X372Y619D02*
X378Y619D01*
X373Y618D02*
X379Y618D01*
X374Y617D02*
X380Y617D01*
X375Y616D02*
X380Y616D01*
X616Y616D02*
X617Y616D01*
X639Y616D02*
X639Y616D01*
X375Y615D02*
X380Y615D01*
X614Y615D02*
X618Y615D01*
X637Y615D02*
X641Y615D01*
X376Y614D02*
X380Y614D01*
X613Y614D02*
X618Y614D01*
X635Y614D02*
X642Y614D01*
X376Y613D02*
X380Y613D01*
X612Y613D02*
X618Y613D01*
X634Y613D02*
X643Y613D01*
X666Y613D02*
X690Y613D01*
X376Y612D02*
X380Y612D01*
X612Y612D02*
X617Y612D01*
X633Y612D02*
X643Y612D01*
X666Y612D02*
X691Y612D01*
X376Y611D02*
X380Y611D01*
X612Y611D02*
X615Y611D01*
X631Y611D02*
X637Y611D01*
X640Y611D02*
X643Y611D01*
X666Y611D02*
X692Y611D01*
X376Y610D02*
X380Y610D01*
X612Y610D02*
X615Y610D01*
X630Y610D02*
X636Y610D01*
X640Y610D02*
X643Y610D01*
X668Y610D02*
X672Y610D01*
X678Y610D02*
X682Y610D01*
X689Y610D02*
X693Y610D01*
X376Y609D02*
X380Y609D01*
X612Y609D02*
X615Y609D01*
X629Y609D02*
X635Y609D01*
X640Y609D02*
X643Y609D01*
X667Y609D02*
X671Y609D01*
X679Y609D02*
X683Y609D01*
X690Y609D02*
X693Y609D01*
X375Y608D02*
X380Y608D01*
X612Y608D02*
X615Y608D01*
X627Y608D02*
X633Y608D01*
X640Y608D02*
X643Y608D01*
X667Y608D02*
X670Y608D01*
X680Y608D02*
X683Y608D01*
X690Y608D02*
X693Y608D01*
X371Y607D02*
X380Y607D01*
X612Y607D02*
X615Y607D01*
X626Y607D02*
X632Y607D01*
X640Y607D02*
X643Y607D01*
X666Y607D02*
X669Y607D01*
X680Y607D02*
X684Y607D01*
X691Y607D02*
X693Y607D01*
X26Y606D02*
X28Y606D01*
X37Y606D02*
X38Y606D01*
X370Y606D02*
X379Y606D01*
X612Y606D02*
X615Y606D01*
X625Y606D02*
X631Y606D01*
X640Y606D02*
X643Y606D01*
X666Y606D02*
X669Y606D01*
X681Y606D02*
X684Y606D01*
X691Y606D02*
X693Y606D01*
X23Y605D02*
X29Y605D01*
X35Y605D02*
X41Y605D01*
X370Y605D02*
X378Y605D01*
X612Y605D02*
X615Y605D01*
X624Y605D02*
X630Y605D01*
X640Y605D02*
X643Y605D01*
X666Y605D02*
X668Y605D01*
X681Y605D02*
X684Y605D01*
X691Y605D02*
X693Y605D01*
X22Y604D02*
X30Y604D01*
X34Y604D02*
X42Y604D01*
X370Y604D02*
X377Y604D01*
X612Y604D02*
X615Y604D01*
X622Y604D02*
X628Y604D01*
X640Y604D02*
X643Y604D01*
X666Y604D02*
X668Y604D01*
X681Y604D02*
X684Y604D01*
X691Y604D02*
X693Y604D01*
X21Y603D02*
X31Y603D01*
X33Y603D02*
X43Y603D01*
X370Y603D02*
X376Y603D01*
X612Y603D02*
X615Y603D01*
X621Y603D02*
X627Y603D01*
X640Y603D02*
X643Y603D01*
X666Y603D02*
X668Y603D01*
X681Y603D02*
X684Y603D01*
X691Y603D02*
X693Y603D01*
X21Y602D02*
X24Y602D01*
X28Y602D02*
X36Y602D01*
X40Y602D02*
X43Y602D01*
X612Y602D02*
X615Y602D01*
X620Y602D02*
X626Y602D01*
X640Y602D02*
X643Y602D01*
X666Y602D02*
X669Y602D01*
X681Y602D02*
X684Y602D01*
X691Y602D02*
X693Y602D01*
X21Y601D02*
X23Y601D01*
X29Y601D02*
X35Y601D01*
X41Y601D02*
X43Y601D01*
X612Y601D02*
X615Y601D01*
X618Y601D02*
X624Y601D01*
X640Y601D02*
X643Y601D01*
X666Y601D02*
X669Y601D01*
X681Y601D02*
X684Y601D01*
X691Y601D02*
X693Y601D01*
X21Y600D02*
X23Y600D01*
X29Y600D02*
X34Y600D01*
X41Y600D02*
X43Y600D01*
X612Y600D02*
X615Y600D01*
X617Y600D02*
X623Y600D01*
X639Y600D02*
X643Y600D01*
X666Y600D02*
X670Y600D01*
X680Y600D02*
X683Y600D01*
X691Y600D02*
X693Y600D01*
X21Y599D02*
X23Y599D01*
X28Y599D02*
X34Y599D01*
X41Y599D02*
X43Y599D01*
X612Y599D02*
X622Y599D01*
X637Y599D02*
X643Y599D01*
X667Y599D02*
X683Y599D01*
X691Y599D02*
X693Y599D01*
X21Y598D02*
X24Y598D01*
X27Y598D02*
X35Y598D01*
X41Y598D02*
X43Y598D01*
X612Y598D02*
X621Y598D01*
X637Y598D02*
X642Y598D01*
X668Y598D02*
X682Y598D01*
X691Y598D02*
X693Y598D01*
X21Y597D02*
X24Y597D01*
X26Y597D02*
X30Y597D01*
X32Y597D02*
X36Y597D01*
X40Y597D02*
X43Y597D01*
X613Y597D02*
X619Y597D01*
X637Y597D02*
X641Y597D01*
X669Y597D02*
X681Y597D01*
X22Y596D02*
X29Y596D01*
X33Y596D02*
X43Y596D01*
X614Y596D02*
X618Y596D01*
X637Y596D02*
X640Y596D01*
X671Y596D02*
X679Y596D01*
X23Y595D02*
X28Y595D01*
X34Y595D02*
X42Y595D01*
X23Y594D02*
X27Y594D01*
X35Y594D02*
X41Y594D01*
X22Y593D02*
X28Y593D01*
X36Y593D02*
X39Y593D01*
X21Y592D02*
X29Y592D01*
X21Y591D02*
X24Y591D01*
X26Y591D02*
X29Y591D01*
X21Y590D02*
X23Y590D01*
X27Y590D02*
X28Y590D01*
X435Y585D02*
X469Y585D01*
X683Y585D02*
X685Y585D01*
X434Y584D02*
X469Y584D01*
X683Y584D02*
X686Y584D01*
X433Y583D02*
X469Y583D01*
X683Y583D02*
X686Y583D01*
X434Y582D02*
X469Y582D01*
X683Y582D02*
X686Y582D01*
X435Y581D02*
X469Y581D01*
X683Y581D02*
X686Y581D01*
X453Y580D02*
X457Y580D01*
X465Y580D02*
X469Y580D01*
X658Y580D02*
X660Y580D01*
X667Y580D02*
X686Y580D01*
X453Y579D02*
X457Y579D01*
X465Y579D02*
X469Y579D01*
X657Y579D02*
X661Y579D01*
X666Y579D02*
X686Y579D01*
X453Y578D02*
X457Y578D01*
X465Y578D02*
X469Y578D01*
X656Y578D02*
X661Y578D01*
X666Y578D02*
X686Y578D01*
X453Y577D02*
X457Y577D01*
X465Y577D02*
X469Y577D01*
X656Y577D02*
X661Y577D01*
X666Y577D02*
X686Y577D01*
X451Y576D02*
X457Y576D01*
X465Y576D02*
X469Y576D01*
X657Y576D02*
X661Y576D01*
X666Y576D02*
X668Y576D01*
X683Y576D02*
X686Y576D01*
X449Y575D02*
X457Y575D01*
X465Y575D02*
X469Y575D01*
X657Y575D02*
X660Y575D01*
X666Y575D02*
X668Y575D01*
X683Y575D02*
X686Y575D01*
X448Y574D02*
X457Y574D01*
X465Y574D02*
X469Y574D01*
X666Y574D02*
X668Y574D01*
X683Y574D02*
X686Y574D01*
X446Y573D02*
X457Y573D01*
X465Y573D02*
X469Y573D01*
X666Y573D02*
X668Y573D01*
X683Y573D02*
X686Y573D01*
X444Y572D02*
X457Y572D01*
X465Y572D02*
X469Y572D01*
X666Y572D02*
X668Y572D01*
X683Y572D02*
X685Y572D01*
X442Y571D02*
X451Y571D01*
X453Y571D02*
X457Y571D01*
X465Y571D02*
X469Y571D01*
X441Y570D02*
X449Y570D01*
X453Y570D02*
X457Y570D01*
X465Y570D02*
X469Y570D01*
X439Y569D02*
X447Y569D01*
X453Y569D02*
X457Y569D01*
X465Y569D02*
X469Y569D01*
X437Y568D02*
X446Y568D01*
X453Y568D02*
X458Y568D01*
X465Y568D02*
X469Y568D01*
X436Y567D02*
X444Y567D01*
X454Y567D02*
X459Y567D01*
X464Y567D02*
X469Y567D01*
X434Y566D02*
X442Y566D01*
X454Y566D02*
X468Y566D01*
X434Y565D02*
X441Y565D01*
X455Y565D02*
X468Y565D01*
X90Y564D02*
X95Y564D01*
X107Y564D02*
X112Y564D01*
X434Y564D02*
X439Y564D01*
X456Y564D02*
X467Y564D01*
X90Y563D02*
X96Y563D01*
X106Y563D02*
X112Y563D01*
X434Y563D02*
X437Y563D01*
X457Y563D02*
X466Y563D01*
X90Y562D02*
X97Y562D01*
X105Y562D02*
X112Y562D01*
X461Y562D02*
X462Y562D01*
X90Y561D02*
X97Y561D01*
X105Y561D02*
X112Y561D01*
X90Y560D02*
X98Y560D01*
X104Y560D02*
X112Y560D01*
X668Y560D02*
X670Y560D01*
X678Y560D02*
X683Y560D01*
X90Y559D02*
X99Y559D01*
X103Y559D02*
X112Y559D01*
X667Y559D02*
X670Y559D01*
X677Y559D02*
X684Y559D01*
X22Y558D02*
X46Y558D01*
X90Y558D02*
X99Y558D01*
X103Y558D02*
X112Y558D01*
X666Y558D02*
X670Y558D01*
X676Y558D02*
X685Y558D01*
X21Y557D02*
X46Y557D01*
X90Y557D02*
X100Y557D01*
X102Y557D02*
X106Y557D01*
X108Y557D02*
X112Y557D01*
X666Y557D02*
X669Y557D01*
X676Y557D02*
X679Y557D01*
X682Y557D02*
X685Y557D01*
X21Y556D02*
X46Y556D01*
X90Y556D02*
X94Y556D01*
X96Y556D02*
X106Y556D01*
X108Y556D02*
X112Y556D01*
X666Y556D02*
X669Y556D01*
X675Y556D02*
X678Y556D01*
X683Y556D02*
X686Y556D01*
X22Y555D02*
X46Y555D01*
X90Y555D02*
X94Y555D01*
X97Y555D02*
X105Y555D01*
X108Y555D02*
X112Y555D01*
X666Y555D02*
X668Y555D01*
X675Y555D02*
X678Y555D01*
X683Y555D02*
X686Y555D01*
X31Y554D02*
X33Y554D01*
X44Y554D02*
X46Y554D01*
X90Y554D02*
X94Y554D01*
X97Y554D02*
X104Y554D01*
X108Y554D02*
X112Y554D01*
X128Y554D02*
X140Y554D01*
X157Y554D02*
X160Y554D01*
X175Y554D02*
X177Y554D01*
X666Y554D02*
X668Y554D01*
X674Y554D02*
X677Y554D01*
X683Y554D02*
X686Y554D01*
X31Y553D02*
X33Y553D01*
X44Y553D02*
X46Y553D01*
X90Y553D02*
X94Y553D01*
X98Y553D02*
X104Y553D01*
X108Y553D02*
X112Y553D01*
X128Y553D02*
X142Y553D01*
X157Y553D02*
X160Y553D01*
X174Y553D02*
X177Y553D01*
X666Y553D02*
X668Y553D01*
X674Y553D02*
X677Y553D01*
X683Y553D02*
X686Y553D01*
X31Y552D02*
X33Y552D01*
X44Y552D02*
X46Y552D01*
X90Y552D02*
X94Y552D01*
X99Y552D02*
X103Y552D01*
X108Y552D02*
X112Y552D01*
X128Y552D02*
X143Y552D01*
X157Y552D02*
X161Y552D01*
X173Y552D02*
X177Y552D01*
X666Y552D02*
X668Y552D01*
X673Y552D02*
X676Y552D01*
X683Y552D02*
X686Y552D01*
X31Y551D02*
X33Y551D01*
X44Y551D02*
X46Y551D01*
X90Y551D02*
X94Y551D01*
X99Y551D02*
X103Y551D01*
X108Y551D02*
X112Y551D01*
X128Y551D02*
X144Y551D01*
X157Y551D02*
X162Y551D01*
X172Y551D02*
X177Y551D01*
X438Y551D02*
X445Y551D01*
X666Y551D02*
X668Y551D01*
X673Y551D02*
X676Y551D01*
X683Y551D02*
X686Y551D01*
X31Y550D02*
X33Y550D01*
X44Y550D02*
X46Y550D01*
X90Y550D02*
X94Y550D01*
X99Y550D02*
X103Y550D01*
X108Y550D02*
X112Y550D01*
X139Y550D02*
X144Y550D01*
X158Y550D02*
X163Y550D01*
X171Y550D02*
X176Y550D01*
X436Y550D02*
X447Y550D01*
X666Y550D02*
X668Y550D01*
X673Y550D02*
X676Y550D01*
X683Y550D02*
X686Y550D01*
X31Y549D02*
X33Y549D01*
X44Y549D02*
X46Y549D01*
X90Y549D02*
X94Y549D01*
X100Y549D02*
X102Y549D01*
X108Y549D02*
X112Y549D01*
X140Y549D02*
X144Y549D01*
X159Y549D02*
X164Y549D01*
X170Y549D02*
X175Y549D01*
X435Y549D02*
X448Y549D01*
X666Y549D02*
X668Y549D01*
X672Y549D02*
X675Y549D01*
X683Y549D02*
X686Y549D01*
X31Y548D02*
X33Y548D01*
X44Y548D02*
X46Y548D01*
X90Y548D02*
X94Y548D01*
X108Y548D02*
X112Y548D01*
X141Y548D02*
X144Y548D01*
X160Y548D02*
X165Y548D01*
X170Y548D02*
X175Y548D01*
X434Y548D02*
X448Y548D01*
X666Y548D02*
X669Y548D01*
X672Y548D02*
X675Y548D01*
X683Y548D02*
X686Y548D01*
X31Y547D02*
X33Y547D01*
X44Y547D02*
X46Y547D01*
X90Y547D02*
X94Y547D01*
X108Y547D02*
X112Y547D01*
X141Y547D02*
X144Y547D01*
X160Y547D02*
X165Y547D01*
X169Y547D02*
X174Y547D01*
X434Y547D02*
X449Y547D01*
X666Y547D02*
X669Y547D01*
X671Y547D02*
X674Y547D01*
X683Y547D02*
X685Y547D01*
X31Y546D02*
X33Y546D01*
X43Y546D02*
X46Y546D01*
X90Y546D02*
X94Y546D01*
X108Y546D02*
X112Y546D01*
X141Y546D02*
X144Y546D01*
X161Y546D02*
X166Y546D01*
X168Y546D02*
X173Y546D01*
X434Y546D02*
X438Y546D01*
X445Y546D02*
X449Y546D01*
X456Y546D02*
X459Y546D01*
X666Y546D02*
X674Y546D01*
X682Y546D02*
X685Y546D01*
X31Y545D02*
X34Y545D01*
X42Y545D02*
X46Y545D01*
X90Y545D02*
X94Y545D01*
X108Y545D02*
X112Y545D01*
X130Y545D02*
X138Y545D01*
X141Y545D02*
X144Y545D01*
X162Y545D02*
X172Y545D01*
X433Y545D02*
X437Y545D01*
X445Y545D02*
X449Y545D01*
X455Y545D02*
X459Y545D01*
X667Y545D02*
X673Y545D01*
X682Y545D02*
X685Y545D01*
X32Y544D02*
X45Y544D01*
X90Y544D02*
X94Y544D01*
X108Y544D02*
X112Y544D01*
X126Y544D02*
X144Y544D01*
X163Y544D02*
X171Y544D01*
X433Y544D02*
X437Y544D01*
X445Y544D02*
X449Y544D01*
X455Y544D02*
X459Y544D01*
X668Y544D02*
X672Y544D01*
X682Y544D02*
X684Y544D01*
X32Y543D02*
X44Y543D01*
X90Y543D02*
X94Y543D01*
X108Y543D02*
X112Y543D01*
X125Y543D02*
X145Y543D01*
X164Y543D02*
X170Y543D01*
X433Y543D02*
X437Y543D01*
X445Y543D02*
X449Y543D01*
X455Y543D02*
X459Y543D01*
X682Y543D02*
X683Y543D01*
X34Y542D02*
X43Y542D01*
X90Y542D02*
X94Y542D01*
X108Y542D02*
X112Y542D01*
X124Y542D02*
X145Y542D01*
X164Y542D02*
X170Y542D01*
X433Y542D02*
X437Y542D01*
X445Y542D02*
X449Y542D01*
X455Y542D02*
X459Y542D01*
X90Y541D02*
X94Y541D01*
X108Y541D02*
X112Y541D01*
X124Y541D02*
X145Y541D01*
X164Y541D02*
X170Y541D01*
X433Y541D02*
X437Y541D01*
X445Y541D02*
X449Y541D01*
X455Y541D02*
X459Y541D01*
X90Y540D02*
X94Y540D01*
X108Y540D02*
X112Y540D01*
X123Y540D02*
X128Y540D01*
X140Y540D02*
X145Y540D01*
X163Y540D02*
X171Y540D01*
X433Y540D02*
X437Y540D01*
X445Y540D02*
X449Y540D01*
X455Y540D02*
X459Y540D01*
X90Y539D02*
X94Y539D01*
X108Y539D02*
X112Y539D01*
X123Y539D02*
X127Y539D01*
X141Y539D02*
X145Y539D01*
X162Y539D02*
X172Y539D01*
X433Y539D02*
X437Y539D01*
X445Y539D02*
X449Y539D01*
X455Y539D02*
X459Y539D01*
X90Y538D02*
X94Y538D01*
X108Y538D02*
X112Y538D01*
X123Y538D02*
X127Y538D01*
X141Y538D02*
X145Y538D01*
X161Y538D02*
X166Y538D01*
X168Y538D02*
X173Y538D01*
X433Y538D02*
X437Y538D01*
X445Y538D02*
X449Y538D01*
X455Y538D02*
X459Y538D01*
X90Y537D02*
X94Y537D01*
X108Y537D02*
X112Y537D01*
X123Y537D02*
X127Y537D01*
X141Y537D02*
X145Y537D01*
X160Y537D02*
X165Y537D01*
X169Y537D02*
X174Y537D01*
X434Y537D02*
X438Y537D01*
X445Y537D02*
X449Y537D01*
X455Y537D02*
X459Y537D01*
X90Y536D02*
X94Y536D01*
X108Y536D02*
X112Y536D01*
X123Y536D02*
X127Y536D01*
X141Y536D02*
X145Y536D01*
X160Y536D02*
X165Y536D01*
X170Y536D02*
X175Y536D01*
X434Y536D02*
X438Y536D01*
X445Y536D02*
X449Y536D01*
X455Y536D02*
X459Y536D01*
X90Y535D02*
X94Y535D01*
X108Y535D02*
X112Y535D01*
X123Y535D02*
X127Y535D01*
X139Y535D02*
X145Y535D01*
X159Y535D02*
X164Y535D01*
X170Y535D02*
X175Y535D01*
X435Y535D02*
X439Y535D01*
X445Y535D02*
X449Y535D01*
X455Y535D02*
X459Y535D01*
X26Y534D02*
X34Y534D01*
X90Y534D02*
X94Y534D01*
X108Y534D02*
X112Y534D01*
X123Y534D02*
X127Y534D01*
X137Y534D02*
X145Y534D01*
X158Y534D02*
X163Y534D01*
X171Y534D02*
X176Y534D01*
X435Y534D02*
X440Y534D01*
X445Y534D02*
X449Y534D01*
X454Y534D02*
X459Y534D01*
X24Y533D02*
X36Y533D01*
X90Y533D02*
X94Y533D01*
X108Y533D02*
X112Y533D01*
X124Y533D02*
X145Y533D01*
X157Y533D02*
X162Y533D01*
X172Y533D02*
X177Y533D01*
X435Y533D02*
X459Y533D01*
X23Y532D02*
X37Y532D01*
X90Y532D02*
X94Y532D01*
X108Y532D02*
X112Y532D01*
X124Y532D02*
X145Y532D01*
X156Y532D02*
X161Y532D01*
X173Y532D02*
X178Y532D01*
X434Y532D02*
X458Y532D01*
X22Y531D02*
X38Y531D01*
X90Y531D02*
X94Y531D01*
X108Y531D02*
X112Y531D01*
X125Y531D02*
X145Y531D01*
X156Y531D02*
X160Y531D01*
X174Y531D02*
X178Y531D01*
X434Y531D02*
X457Y531D01*
X21Y530D02*
X25Y530D01*
X28Y530D02*
X30Y530D01*
X35Y530D02*
X38Y530D01*
X90Y530D02*
X93Y530D01*
X109Y530D02*
X112Y530D01*
X126Y530D02*
X139Y530D01*
X142Y530D02*
X145Y530D01*
X156Y530D02*
X160Y530D01*
X174Y530D02*
X178Y530D01*
X434Y530D02*
X456Y530D01*
X21Y529D02*
X24Y529D01*
X28Y529D02*
X30Y529D01*
X36Y529D02*
X39Y529D01*
X91Y529D02*
X92Y529D01*
X109Y529D02*
X111Y529D01*
X128Y529D02*
X137Y529D01*
X142Y529D02*
X144Y529D01*
X157Y529D02*
X159Y529D01*
X176Y529D02*
X177Y529D01*
X434Y529D02*
X454Y529D01*
X21Y528D02*
X23Y528D01*
X28Y528D02*
X30Y528D01*
X36Y528D02*
X39Y528D01*
X21Y527D02*
X23Y527D01*
X28Y527D02*
X30Y527D01*
X36Y527D02*
X39Y527D01*
X21Y526D02*
X23Y526D01*
X28Y526D02*
X30Y526D01*
X36Y526D02*
X39Y526D01*
X21Y525D02*
X23Y525D01*
X28Y525D02*
X30Y525D01*
X36Y525D02*
X39Y525D01*
X21Y524D02*
X23Y524D01*
X28Y524D02*
X30Y524D01*
X36Y524D02*
X39Y524D01*
X21Y523D02*
X23Y523D01*
X28Y523D02*
X30Y523D01*
X36Y523D02*
X39Y523D01*
X21Y522D02*
X23Y522D01*
X28Y522D02*
X30Y522D01*
X36Y522D02*
X38Y522D01*
X21Y521D02*
X23Y521D01*
X28Y521D02*
X31Y521D01*
X34Y521D02*
X38Y521D01*
X21Y520D02*
X23Y520D01*
X28Y520D02*
X37Y520D01*
X21Y519D02*
X23Y519D01*
X28Y519D02*
X36Y519D01*
X22Y518D02*
X23Y518D01*
X29Y518D02*
X35Y518D01*
X434Y517D02*
X458Y517D01*
X434Y516D02*
X459Y516D01*
X434Y515D02*
X459Y515D01*
X434Y514D02*
X459Y514D01*
X436Y513D02*
X457Y513D01*
X451Y512D02*
X456Y512D01*
X452Y511D02*
X456Y511D01*
X22Y510D02*
X38Y510D01*
X452Y510D02*
X457Y510D01*
X21Y509D02*
X39Y509D01*
X453Y509D02*
X458Y509D01*
X21Y508D02*
X39Y508D01*
X454Y508D02*
X458Y508D01*
X22Y507D02*
X38Y507D01*
X454Y507D02*
X459Y507D01*
X32Y506D02*
X36Y506D01*
X455Y506D02*
X459Y506D01*
X33Y505D02*
X37Y505D01*
X455Y505D02*
X459Y505D01*
X34Y504D02*
X38Y504D01*
X455Y504D02*
X459Y504D01*
X35Y503D02*
X38Y503D01*
X455Y503D02*
X459Y503D01*
X36Y502D02*
X39Y502D01*
X455Y502D02*
X459Y502D01*
X36Y501D02*
X39Y501D01*
X455Y501D02*
X459Y501D01*
X36Y500D02*
X39Y500D01*
X454Y500D02*
X459Y500D01*
X36Y499D02*
X39Y499D01*
X436Y499D02*
X459Y499D01*
X36Y498D02*
X39Y498D01*
X434Y498D02*
X458Y498D01*
X35Y497D02*
X39Y497D01*
X434Y497D02*
X457Y497D01*
X32Y496D02*
X38Y496D01*
X434Y496D02*
X456Y496D01*
X32Y495D02*
X37Y495D01*
X434Y495D02*
X453Y495D01*
X33Y494D02*
X36Y494D01*
X26Y486D02*
X34Y486D01*
X24Y485D02*
X36Y485D01*
X23Y484D02*
X37Y484D01*
X22Y483D02*
X38Y483D01*
X441Y483D02*
X454Y483D01*
X21Y482D02*
X24Y482D01*
X28Y482D02*
X30Y482D01*
X35Y482D02*
X38Y482D01*
X439Y482D02*
X455Y482D01*
X21Y481D02*
X24Y481D01*
X28Y481D02*
X30Y481D01*
X36Y481D02*
X39Y481D01*
X424Y481D02*
X426Y481D01*
X438Y481D02*
X456Y481D01*
X21Y480D02*
X23Y480D01*
X28Y480D02*
X30Y480D01*
X36Y480D02*
X39Y480D01*
X424Y480D02*
X427Y480D01*
X437Y480D02*
X457Y480D01*
X21Y479D02*
X23Y479D01*
X28Y479D02*
X30Y479D01*
X36Y479D02*
X39Y479D01*
X423Y479D02*
X427Y479D01*
X437Y479D02*
X443Y479D01*
X452Y479D02*
X458Y479D01*
X21Y478D02*
X23Y478D01*
X28Y478D02*
X30Y478D01*
X36Y478D02*
X39Y478D01*
X423Y478D02*
X427Y478D01*
X436Y478D02*
X441Y478D01*
X454Y478D02*
X458Y478D01*
X21Y477D02*
X23Y477D01*
X28Y477D02*
X30Y477D01*
X36Y477D02*
X39Y477D01*
X423Y477D02*
X427Y477D01*
X436Y477D02*
X440Y477D01*
X455Y477D02*
X459Y477D01*
X21Y476D02*
X23Y476D01*
X28Y476D02*
X30Y476D01*
X36Y476D02*
X39Y476D01*
X423Y476D02*
X427Y476D01*
X436Y476D02*
X439Y476D01*
X455Y476D02*
X459Y476D01*
X21Y475D02*
X23Y475D01*
X28Y475D02*
X30Y475D01*
X36Y475D02*
X39Y475D01*
X423Y475D02*
X427Y475D01*
X435Y475D02*
X439Y475D01*
X455Y475D02*
X459Y475D01*
X21Y474D02*
X23Y474D01*
X28Y474D02*
X30Y474D01*
X36Y474D02*
X38Y474D01*
X423Y474D02*
X427Y474D01*
X435Y474D02*
X439Y474D01*
X455Y474D02*
X459Y474D01*
X21Y473D02*
X23Y473D01*
X28Y473D02*
X31Y473D01*
X34Y473D02*
X38Y473D01*
X423Y473D02*
X427Y473D01*
X435Y473D02*
X439Y473D01*
X455Y473D02*
X459Y473D01*
X21Y472D02*
X23Y472D01*
X28Y472D02*
X37Y472D01*
X423Y472D02*
X427Y472D01*
X435Y472D02*
X439Y472D01*
X455Y472D02*
X459Y472D01*
X21Y471D02*
X23Y471D01*
X28Y471D02*
X36Y471D01*
X423Y471D02*
X427Y471D01*
X435Y471D02*
X439Y471D01*
X455Y471D02*
X459Y471D01*
X22Y470D02*
X23Y470D01*
X29Y470D02*
X35Y470D01*
X423Y470D02*
X427Y470D01*
X436Y470D02*
X440Y470D01*
X455Y470D02*
X459Y470D01*
X424Y469D02*
X427Y469D01*
X436Y469D02*
X441Y469D01*
X454Y469D02*
X459Y469D01*
X424Y468D02*
X428Y468D01*
X436Y468D02*
X441Y468D01*
X453Y468D02*
X458Y468D01*
X424Y467D02*
X428Y467D01*
X437Y467D02*
X442Y467D01*
X452Y467D02*
X457Y467D01*
X424Y466D02*
X429Y466D01*
X438Y466D02*
X443Y466D01*
X451Y466D02*
X457Y466D01*
X425Y465D02*
X457Y465D01*
X426Y464D02*
X459Y464D01*
X427Y463D02*
X459Y463D01*
X26Y462D02*
X34Y462D01*
X428Y462D02*
X459Y462D01*
X24Y461D02*
X36Y461D01*
X429Y461D02*
X458Y461D01*
X23Y460D02*
X37Y460D01*
X22Y459D02*
X38Y459D01*
X21Y458D02*
X24Y458D01*
X35Y458D02*
X38Y458D01*
X21Y457D02*
X24Y457D01*
X36Y457D02*
X39Y457D01*
X21Y456D02*
X23Y456D01*
X36Y456D02*
X39Y456D01*
X21Y455D02*
X23Y455D01*
X36Y455D02*
X39Y455D01*
X21Y454D02*
X23Y454D01*
X36Y454D02*
X39Y454D01*
X21Y453D02*
X23Y453D01*
X36Y453D02*
X39Y453D01*
X21Y452D02*
X24Y452D01*
X36Y452D02*
X39Y452D01*
X22Y451D02*
X25Y451D01*
X35Y451D02*
X38Y451D01*
X22Y450D02*
X26Y450D01*
X34Y450D02*
X37Y450D01*
X23Y449D02*
X27Y449D01*
X33Y449D02*
X37Y449D01*
X438Y449D02*
X454Y449D01*
X21Y448D02*
X46Y448D01*
X437Y448D02*
X455Y448D01*
X21Y447D02*
X46Y447D01*
X436Y447D02*
X456Y447D01*
X22Y446D02*
X45Y446D01*
X435Y446D02*
X457Y446D01*
X435Y445D02*
X440Y445D01*
X443Y445D02*
X447Y445D01*
X452Y445D02*
X458Y445D01*
X434Y444D02*
X439Y444D01*
X443Y444D02*
X447Y444D01*
X454Y444D02*
X459Y444D01*
X434Y443D02*
X438Y443D01*
X443Y443D02*
X447Y443D01*
X455Y443D02*
X459Y443D01*
X433Y442D02*
X437Y442D01*
X443Y442D02*
X447Y442D01*
X455Y442D02*
X459Y442D01*
X433Y441D02*
X437Y441D01*
X443Y441D02*
X447Y441D01*
X455Y441D02*
X459Y441D01*
X433Y440D02*
X437Y440D01*
X443Y440D02*
X447Y440D01*
X455Y440D02*
X459Y440D01*
X433Y439D02*
X437Y439D01*
X443Y439D02*
X447Y439D01*
X455Y439D02*
X459Y439D01*
X22Y438D02*
X38Y438D01*
X433Y438D02*
X437Y438D01*
X443Y438D02*
X447Y438D01*
X455Y438D02*
X459Y438D01*
X21Y437D02*
X39Y437D01*
X433Y437D02*
X437Y437D01*
X443Y437D02*
X447Y437D01*
X455Y437D02*
X459Y437D01*
X21Y436D02*
X39Y436D01*
X433Y436D02*
X437Y436D01*
X443Y436D02*
X447Y436D01*
X455Y436D02*
X459Y436D01*
X22Y435D02*
X38Y435D01*
X433Y435D02*
X437Y435D01*
X443Y435D02*
X447Y435D01*
X455Y435D02*
X459Y435D01*
X33Y434D02*
X37Y434D01*
X433Y434D02*
X437Y434D01*
X443Y434D02*
X447Y434D01*
X455Y434D02*
X459Y434D01*
X34Y433D02*
X37Y433D01*
X433Y433D02*
X437Y433D01*
X443Y433D02*
X447Y433D01*
X454Y433D02*
X459Y433D01*
X35Y432D02*
X38Y432D01*
X433Y432D02*
X437Y432D01*
X443Y432D02*
X447Y432D01*
X453Y432D02*
X458Y432D01*
X35Y431D02*
X38Y431D01*
X433Y431D02*
X437Y431D01*
X443Y431D02*
X458Y431D01*
X36Y430D02*
X39Y430D01*
X433Y430D02*
X437Y430D01*
X443Y430D02*
X457Y430D01*
X36Y429D02*
X39Y429D01*
X433Y429D02*
X437Y429D01*
X443Y429D02*
X456Y429D01*
X36Y428D02*
X39Y428D01*
X434Y428D02*
X437Y428D01*
X444Y428D02*
X455Y428D01*
X36Y427D02*
X39Y427D01*
X434Y427D02*
X436Y427D01*
X444Y427D02*
X453Y427D01*
X36Y426D02*
X39Y426D01*
X24Y425D02*
X38Y425D01*
X21Y424D02*
X38Y424D01*
X21Y423D02*
X37Y423D01*
X22Y422D02*
X33Y422D01*
X523Y416D02*
X533Y416D01*
X543Y416D02*
X555Y416D01*
X565Y416D02*
X574Y416D01*
X587Y416D02*
X601Y416D01*
X522Y415D02*
X534Y415D01*
X543Y415D02*
X556Y415D01*
X565Y415D02*
X575Y415D01*
X587Y415D02*
X601Y415D01*
X521Y414D02*
X535Y414D01*
X543Y414D02*
X557Y414D01*
X566Y414D02*
X575Y414D01*
X587Y414D02*
X601Y414D01*
X521Y413D02*
X523Y413D01*
X533Y413D02*
X535Y413D01*
X543Y413D02*
X545Y413D01*
X555Y413D02*
X557Y413D01*
X568Y413D02*
X570Y413D01*
X573Y413D02*
X576Y413D01*
X587Y413D02*
X589Y413D01*
X593Y413D02*
X595Y413D01*
X599Y413D02*
X601Y413D01*
X21Y412D02*
X23Y412D01*
X37Y412D02*
X38Y412D01*
X521Y412D02*
X524Y412D01*
X534Y412D02*
X535Y412D01*
X543Y412D02*
X545Y412D01*
X555Y412D02*
X557Y412D01*
X568Y412D02*
X570Y412D01*
X574Y412D02*
X577Y412D01*
X587Y412D02*
X589Y412D01*
X593Y412D02*
X595Y412D01*
X599Y412D02*
X601Y412D01*
X21Y411D02*
X23Y411D01*
X36Y411D02*
X39Y411D01*
X522Y411D02*
X525Y411D01*
X543Y411D02*
X545Y411D01*
X555Y411D02*
X557Y411D01*
X568Y411D02*
X570Y411D01*
X575Y411D02*
X577Y411D01*
X593Y411D02*
X595Y411D01*
X21Y410D02*
X23Y410D01*
X36Y410D02*
X39Y410D01*
X523Y410D02*
X526Y410D01*
X543Y410D02*
X545Y410D01*
X555Y410D02*
X557Y410D01*
X568Y410D02*
X570Y410D01*
X575Y410D02*
X578Y410D01*
X593Y410D02*
X595Y410D01*
X21Y409D02*
X23Y409D01*
X36Y409D02*
X39Y409D01*
X44Y409D02*
X46Y409D01*
X524Y409D02*
X526Y409D01*
X543Y409D02*
X545Y409D01*
X555Y409D02*
X557Y409D01*
X568Y409D02*
X570Y409D01*
X576Y409D02*
X578Y409D01*
X593Y409D02*
X595Y409D01*
X21Y408D02*
X23Y408D01*
X36Y408D02*
X39Y408D01*
X44Y408D02*
X47Y408D01*
X524Y408D02*
X527Y408D01*
X543Y408D02*
X545Y408D01*
X555Y408D02*
X557Y408D01*
X568Y408D02*
X570Y408D01*
X576Y408D02*
X578Y408D01*
X593Y408D02*
X595Y408D01*
X21Y407D02*
X39Y407D01*
X44Y407D02*
X47Y407D01*
X525Y407D02*
X528Y407D01*
X543Y407D02*
X545Y407D01*
X555Y407D02*
X557Y407D01*
X568Y407D02*
X570Y407D01*
X577Y407D02*
X579Y407D01*
X593Y407D02*
X595Y407D01*
X21Y406D02*
X39Y406D01*
X44Y406D02*
X47Y406D01*
X526Y406D02*
X529Y406D01*
X543Y406D02*
X545Y406D01*
X555Y406D02*
X557Y406D01*
X568Y406D02*
X570Y406D01*
X577Y406D02*
X579Y406D01*
X593Y406D02*
X595Y406D01*
X21Y405D02*
X38Y405D01*
X44Y405D02*
X47Y405D01*
X527Y405D02*
X530Y405D01*
X543Y405D02*
X557Y405D01*
X568Y405D02*
X570Y405D01*
X577Y405D02*
X579Y405D01*
X593Y405D02*
X595Y405D01*
X21Y404D02*
X23Y404D01*
X527Y404D02*
X530Y404D01*
X543Y404D02*
X556Y404D01*
X568Y404D02*
X570Y404D01*
X577Y404D02*
X579Y404D01*
X593Y404D02*
X595Y404D01*
X21Y403D02*
X23Y403D01*
X528Y403D02*
X531Y403D01*
X543Y403D02*
X555Y403D01*
X568Y403D02*
X570Y403D01*
X577Y403D02*
X579Y403D01*
X593Y403D02*
X595Y403D01*
X21Y402D02*
X23Y402D01*
X529Y402D02*
X532Y402D01*
X543Y402D02*
X546Y402D01*
X568Y402D02*
X570Y402D01*
X576Y402D02*
X579Y402D01*
X593Y402D02*
X595Y402D01*
X21Y401D02*
X23Y401D01*
X530Y401D02*
X533Y401D01*
X543Y401D02*
X545Y401D01*
X568Y401D02*
X570Y401D01*
X576Y401D02*
X578Y401D01*
X593Y401D02*
X595Y401D01*
X21Y400D02*
X23Y400D01*
X531Y400D02*
X533Y400D01*
X543Y400D02*
X545Y400D01*
X568Y400D02*
X570Y400D01*
X575Y400D02*
X578Y400D01*
X593Y400D02*
X595Y400D01*
X531Y399D02*
X534Y399D01*
X543Y399D02*
X545Y399D01*
X568Y399D02*
X570Y399D01*
X575Y399D02*
X577Y399D01*
X593Y399D02*
X595Y399D01*
X522Y398D02*
X523Y398D01*
X532Y398D02*
X535Y398D01*
X543Y398D02*
X545Y398D01*
X568Y398D02*
X570Y398D01*
X574Y398D02*
X577Y398D01*
X593Y398D02*
X595Y398D01*
X521Y397D02*
X523Y397D01*
X533Y397D02*
X535Y397D01*
X543Y397D02*
X545Y397D01*
X568Y397D02*
X570Y397D01*
X574Y397D02*
X576Y397D01*
X593Y397D02*
X595Y397D01*
X521Y396D02*
X535Y396D01*
X543Y396D02*
X545Y396D01*
X566Y396D02*
X576Y396D01*
X593Y396D02*
X595Y396D01*
X158Y395D02*
X176Y395D01*
X522Y395D02*
X535Y395D01*
X543Y395D02*
X545Y395D01*
X565Y395D02*
X575Y395D01*
X593Y395D02*
X595Y395D01*
X154Y394D02*
X179Y394D01*
X523Y394D02*
X534Y394D01*
X543Y394D02*
X545Y394D01*
X565Y394D02*
X574Y394D01*
X593Y394D02*
X595Y394D01*
X151Y393D02*
X182Y393D01*
X525Y393D02*
X532Y393D01*
X567Y393D02*
X571Y393D01*
X149Y392D02*
X184Y392D01*
X147Y391D02*
X186Y391D01*
X22Y390D02*
X45Y390D01*
X145Y390D02*
X188Y390D01*
X21Y389D02*
X46Y389D01*
X143Y389D02*
X190Y389D01*
X21Y388D02*
X46Y388D01*
X142Y388D02*
X192Y388D01*
X22Y387D02*
X45Y387D01*
X140Y387D02*
X193Y387D01*
X28Y386D02*
X32Y386D01*
X139Y386D02*
X194Y386D01*
X29Y385D02*
X32Y385D01*
X138Y385D02*
X195Y385D01*
X28Y384D02*
X33Y384D01*
X137Y384D02*
X164Y384D01*
X169Y384D02*
X197Y384D01*
X27Y383D02*
X34Y383D01*
X136Y383D02*
X157Y383D01*
X176Y383D02*
X198Y383D01*
X26Y382D02*
X30Y382D01*
X32Y382D02*
X35Y382D01*
X135Y382D02*
X154Y382D01*
X179Y382D02*
X199Y382D01*
X25Y381D02*
X29Y381D01*
X32Y381D02*
X36Y381D01*
X134Y381D02*
X151Y381D01*
X182Y381D02*
X200Y381D01*
X24Y380D02*
X28Y380D01*
X33Y380D02*
X37Y380D01*
X133Y380D02*
X149Y380D01*
X184Y380D02*
X200Y380D01*
X24Y379D02*
X27Y379D01*
X34Y379D02*
X38Y379D01*
X132Y379D02*
X148Y379D01*
X186Y379D02*
X201Y379D01*
X23Y378D02*
X26Y378D01*
X35Y378D02*
X38Y378D01*
X131Y378D02*
X146Y378D01*
X187Y378D02*
X202Y378D01*
X22Y377D02*
X25Y377D01*
X36Y377D02*
X39Y377D01*
X130Y377D02*
X145Y377D01*
X189Y377D02*
X203Y377D01*
X21Y376D02*
X24Y376D01*
X37Y376D02*
X38Y376D01*
X130Y376D02*
X144Y376D01*
X190Y376D02*
X204Y376D01*
X21Y375D02*
X24Y375D01*
X129Y375D02*
X142Y375D01*
X191Y375D02*
X204Y375D01*
X22Y374D02*
X23Y374D01*
X128Y374D02*
X141Y374D01*
X192Y374D02*
X205Y374D01*
X128Y373D02*
X141Y373D01*
X193Y373D02*
X206Y373D01*
X127Y372D02*
X140Y372D01*
X194Y372D02*
X206Y372D01*
X127Y371D02*
X139Y371D01*
X194Y371D02*
X207Y371D01*
X126Y370D02*
X138Y370D01*
X195Y370D02*
X207Y370D01*
X126Y369D02*
X138Y369D01*
X196Y369D02*
X208Y369D01*
X125Y368D02*
X137Y368D01*
X196Y368D02*
X208Y368D01*
X125Y367D02*
X136Y367D01*
X197Y367D02*
X209Y367D01*
X124Y366D02*
X136Y366D01*
X198Y366D02*
X209Y366D01*
X124Y365D02*
X135Y365D01*
X198Y365D02*
X209Y365D01*
X124Y364D02*
X135Y364D01*
X198Y364D02*
X210Y364D01*
X123Y363D02*
X135Y363D01*
X199Y363D02*
X210Y363D01*
X123Y362D02*
X134Y362D01*
X199Y362D02*
X210Y362D01*
X123Y361D02*
X134Y361D01*
X200Y361D02*
X211Y361D01*
X122Y360D02*
X134Y360D01*
X200Y360D02*
X211Y360D01*
X122Y359D02*
X133Y359D01*
X200Y359D02*
X211Y359D01*
X122Y358D02*
X133Y358D01*
X200Y358D02*
X211Y358D01*
X122Y357D02*
X133Y357D01*
X201Y357D02*
X212Y357D01*
X122Y356D02*
X133Y356D01*
X201Y356D02*
X212Y356D01*
X122Y355D02*
X133Y355D01*
X201Y355D02*
X212Y355D01*
X121Y354D02*
X132Y354D01*
X201Y354D02*
X212Y354D01*
X121Y353D02*
X132Y353D01*
X201Y353D02*
X212Y353D01*
X121Y352D02*
X132Y352D01*
X201Y352D02*
X212Y352D01*
X121Y351D02*
X132Y351D01*
X201Y351D02*
X212Y351D01*
X121Y350D02*
X132Y350D01*
X201Y350D02*
X212Y350D01*
X121Y349D02*
X132Y349D01*
X201Y349D02*
X212Y349D01*
X121Y348D02*
X132Y348D01*
X201Y348D02*
X212Y348D01*
X121Y347D02*
X132Y347D01*
X201Y347D02*
X212Y347D01*
X121Y346D02*
X132Y346D01*
X201Y346D02*
X212Y346D01*
X122Y345D02*
X133Y345D01*
X201Y345D02*
X212Y345D01*
X122Y344D02*
X133Y344D01*
X201Y344D02*
X212Y344D01*
X122Y343D02*
X133Y343D01*
X200Y343D02*
X212Y343D01*
X122Y342D02*
X133Y342D01*
X200Y342D02*
X211Y342D01*
X122Y341D02*
X133Y341D01*
X200Y341D02*
X211Y341D01*
X122Y340D02*
X134Y340D01*
X200Y340D02*
X211Y340D01*
X123Y339D02*
X134Y339D01*
X199Y339D02*
X211Y339D01*
X123Y338D02*
X134Y338D01*
X199Y338D02*
X210Y338D01*
X123Y337D02*
X135Y337D01*
X199Y337D02*
X210Y337D01*
X124Y336D02*
X135Y336D01*
X198Y336D02*
X210Y336D01*
X124Y335D02*
X135Y335D01*
X198Y335D02*
X209Y335D01*
X124Y334D02*
X136Y334D01*
X197Y334D02*
X209Y334D01*
X125Y333D02*
X136Y333D01*
X197Y333D02*
X209Y333D01*
X125Y332D02*
X137Y332D01*
X196Y332D02*
X208Y332D01*
X126Y331D02*
X138Y331D01*
X196Y331D02*
X208Y331D01*
X126Y330D02*
X138Y330D01*
X195Y330D02*
X207Y330D01*
X127Y329D02*
X139Y329D01*
X194Y329D02*
X207Y329D01*
X127Y328D02*
X140Y328D01*
X194Y328D02*
X206Y328D01*
X128Y327D02*
X141Y327D01*
X193Y327D02*
X206Y327D01*
X128Y326D02*
X142Y326D01*
X192Y326D02*
X205Y326D01*
X129Y325D02*
X143Y325D01*
X191Y325D02*
X204Y325D01*
X130Y324D02*
X144Y324D01*
X190Y324D02*
X204Y324D01*
X131Y323D02*
X145Y323D01*
X188Y323D02*
X203Y323D01*
X131Y322D02*
X146Y322D01*
X187Y322D02*
X202Y322D01*
X132Y321D02*
X148Y321D01*
X185Y321D02*
X201Y321D01*
X133Y320D02*
X150Y320D01*
X184Y320D02*
X200Y320D01*
X134Y319D02*
X152Y319D01*
X182Y319D02*
X199Y319D01*
X135Y318D02*
X154Y318D01*
X179Y318D02*
X198Y318D01*
X136Y317D02*
X158Y317D01*
X175Y317D02*
X197Y317D01*
X137Y316D02*
X196Y316D01*
X138Y315D02*
X195Y315D01*
X139Y314D02*
X194Y314D01*
X141Y313D02*
X193Y313D01*
X142Y312D02*
X191Y312D01*
X144Y311D02*
X190Y311D01*
X145Y310D02*
X188Y310D01*
X147Y309D02*
X186Y309D01*
X149Y308D02*
X184Y308D01*
X152Y307D02*
X182Y307D01*
X155Y306D02*
X179Y306D01*
X159Y305D02*
X175Y305D01*
X575Y288D02*
X585Y288D01*
X602Y288D02*
X609Y288D01*
X573Y287D02*
X586Y287D01*
X600Y287D02*
X610Y287D01*
X572Y286D02*
X587Y286D01*
X600Y286D02*
X610Y286D01*
X571Y285D02*
X586Y285D01*
X600Y285D02*
X610Y285D01*
X570Y284D02*
X586Y284D01*
X601Y284D02*
X610Y284D01*
X570Y283D02*
X574Y283D01*
X607Y283D02*
X610Y283D01*
X418Y282D02*
X439Y282D01*
X569Y282D02*
X574Y282D01*
X607Y282D02*
X610Y282D01*
X418Y281D02*
X439Y281D01*
X569Y281D02*
X573Y281D01*
X607Y281D02*
X610Y281D01*
X418Y280D02*
X439Y280D01*
X568Y280D02*
X573Y280D01*
X607Y280D02*
X610Y280D01*
X418Y279D02*
X439Y279D01*
X568Y279D02*
X572Y279D01*
X607Y279D02*
X610Y279D01*
X418Y278D02*
X421Y278D01*
X567Y278D02*
X572Y278D01*
X607Y278D02*
X610Y278D01*
X637Y278D02*
X646Y278D01*
X668Y278D02*
X681Y278D01*
X702Y278D02*
X712Y278D01*
X418Y277D02*
X421Y277D01*
X567Y277D02*
X571Y277D01*
X607Y277D02*
X610Y277D01*
X635Y277D02*
X648Y277D01*
X666Y277D02*
X683Y277D01*
X701Y277D02*
X714Y277D01*
X418Y276D02*
X421Y276D01*
X566Y276D02*
X571Y276D01*
X607Y276D02*
X610Y276D01*
X634Y276D02*
X649Y276D01*
X665Y276D02*
X684Y276D01*
X699Y276D02*
X715Y276D01*
X418Y275D02*
X421Y275D01*
X566Y275D02*
X570Y275D01*
X607Y275D02*
X610Y275D01*
X633Y275D02*
X650Y275D01*
X665Y275D02*
X685Y275D01*
X698Y275D02*
X716Y275D01*
X418Y274D02*
X421Y274D01*
X566Y274D02*
X570Y274D01*
X607Y274D02*
X610Y274D01*
X632Y274D02*
X651Y274D01*
X664Y274D02*
X685Y274D01*
X698Y274D02*
X717Y274D01*
X418Y273D02*
X421Y273D01*
X457Y273D02*
X467Y273D01*
X485Y273D02*
X486Y273D01*
X494Y273D02*
X500Y273D01*
X565Y273D02*
X569Y273D01*
X607Y273D02*
X610Y273D01*
X631Y273D02*
X636Y273D01*
X647Y273D02*
X652Y273D01*
X664Y273D02*
X668Y273D01*
X681Y273D02*
X684Y273D01*
X697Y273D02*
X702Y273D01*
X713Y273D02*
X718Y273D01*
X418Y272D02*
X421Y272D01*
X455Y272D02*
X469Y272D01*
X484Y272D02*
X487Y272D01*
X493Y272D02*
X502Y272D01*
X565Y272D02*
X569Y272D01*
X607Y272D02*
X610Y272D01*
X631Y272D02*
X635Y272D01*
X648Y272D02*
X652Y272D01*
X664Y272D02*
X668Y272D01*
X683Y272D02*
X683Y272D01*
X697Y272D02*
X701Y272D01*
X714Y272D02*
X718Y272D01*
X418Y271D02*
X433Y271D01*
X455Y271D02*
X470Y271D01*
X484Y271D02*
X487Y271D01*
X492Y271D02*
X504Y271D01*
X565Y271D02*
X569Y271D01*
X607Y271D02*
X610Y271D01*
X631Y271D02*
X634Y271D01*
X649Y271D02*
X652Y271D01*
X664Y271D02*
X669Y271D01*
X696Y271D02*
X700Y271D01*
X714Y271D02*
X718Y271D01*
X418Y270D02*
X435Y270D01*
X455Y270D02*
X471Y270D01*
X484Y270D02*
X487Y270D01*
X490Y270D02*
X504Y270D01*
X565Y270D02*
X569Y270D01*
X607Y270D02*
X610Y270D01*
X631Y270D02*
X634Y270D01*
X649Y270D02*
X652Y270D01*
X665Y270D02*
X672Y270D01*
X696Y270D02*
X700Y270D01*
X714Y270D02*
X718Y270D01*
X418Y269D02*
X435Y269D01*
X456Y269D02*
X471Y269D01*
X484Y269D02*
X487Y269D01*
X489Y269D02*
X505Y269D01*
X565Y269D02*
X569Y269D01*
X607Y269D02*
X610Y269D01*
X631Y269D02*
X634Y269D01*
X649Y269D02*
X652Y269D01*
X665Y269D02*
X674Y269D01*
X696Y269D02*
X700Y269D01*
X714Y269D02*
X718Y269D01*
X418Y268D02*
X435Y268D01*
X467Y268D02*
X472Y268D01*
X484Y268D02*
X494Y268D01*
X501Y268D02*
X505Y268D01*
X565Y268D02*
X569Y268D01*
X607Y268D02*
X610Y268D01*
X631Y268D02*
X634Y268D01*
X649Y268D02*
X652Y268D01*
X666Y268D02*
X676Y268D01*
X696Y268D02*
X700Y268D01*
X714Y268D02*
X718Y268D01*
X418Y267D02*
X434Y267D01*
X468Y267D02*
X472Y267D01*
X484Y267D02*
X493Y267D01*
X502Y267D02*
X505Y267D01*
X566Y267D02*
X569Y267D01*
X607Y267D02*
X610Y267D01*
X631Y267D02*
X634Y267D01*
X649Y267D02*
X652Y267D01*
X668Y267D02*
X679Y267D01*
X696Y267D02*
X700Y267D01*
X714Y267D02*
X718Y267D01*
X418Y266D02*
X421Y266D01*
X468Y266D02*
X472Y266D01*
X484Y266D02*
X492Y266D01*
X502Y266D02*
X506Y266D01*
X566Y266D02*
X570Y266D01*
X607Y266D02*
X610Y266D01*
X631Y266D02*
X634Y266D01*
X649Y266D02*
X652Y266D01*
X670Y266D02*
X681Y266D01*
X696Y266D02*
X718Y266D01*
X418Y265D02*
X421Y265D01*
X468Y265D02*
X472Y265D01*
X484Y265D02*
X491Y265D01*
X502Y265D02*
X506Y265D01*
X566Y265D02*
X570Y265D01*
X607Y265D02*
X610Y265D01*
X631Y265D02*
X634Y265D01*
X649Y265D02*
X652Y265D01*
X673Y265D02*
X683Y265D01*
X696Y265D02*
X718Y265D01*
X418Y264D02*
X421Y264D01*
X468Y264D02*
X472Y264D01*
X484Y264D02*
X490Y264D01*
X502Y264D02*
X505Y264D01*
X567Y264D02*
X571Y264D01*
X607Y264D02*
X610Y264D01*
X631Y264D02*
X634Y264D01*
X649Y264D02*
X652Y264D01*
X675Y264D02*
X684Y264D01*
X696Y264D02*
X718Y264D01*
X418Y263D02*
X421Y263D01*
X455Y263D02*
X472Y263D01*
X484Y263D02*
X488Y263D01*
X503Y263D02*
X504Y263D01*
X567Y263D02*
X572Y263D01*
X607Y263D02*
X610Y263D01*
X631Y263D02*
X634Y263D01*
X649Y263D02*
X652Y263D01*
X677Y263D02*
X684Y263D01*
X696Y263D02*
X717Y263D01*
X418Y262D02*
X421Y262D01*
X453Y262D02*
X472Y262D01*
X484Y262D02*
X487Y262D01*
X568Y262D02*
X572Y262D01*
X607Y262D02*
X610Y262D01*
X631Y262D02*
X634Y262D01*
X649Y262D02*
X652Y262D01*
X680Y262D02*
X685Y262D01*
X696Y262D02*
X700Y262D01*
X418Y261D02*
X421Y261D01*
X452Y261D02*
X472Y261D01*
X484Y261D02*
X487Y261D01*
X568Y261D02*
X573Y261D01*
X607Y261D02*
X610Y261D01*
X631Y261D02*
X634Y261D01*
X649Y261D02*
X652Y261D01*
X681Y261D02*
X685Y261D01*
X696Y261D02*
X700Y261D01*
X418Y260D02*
X421Y260D01*
X452Y260D02*
X472Y260D01*
X484Y260D02*
X487Y260D01*
X569Y260D02*
X573Y260D01*
X607Y260D02*
X610Y260D01*
X631Y260D02*
X634Y260D01*
X649Y260D02*
X652Y260D01*
X681Y260D02*
X685Y260D01*
X696Y260D02*
X700Y260D01*
X418Y259D02*
X421Y259D01*
X451Y259D02*
X472Y259D01*
X484Y259D02*
X487Y259D01*
X569Y259D02*
X574Y259D01*
X607Y259D02*
X610Y259D01*
X631Y259D02*
X635Y259D01*
X648Y259D02*
X652Y259D01*
X665Y259D02*
X665Y259D01*
X681Y259D02*
X685Y259D01*
X697Y259D02*
X701Y259D01*
X418Y258D02*
X421Y258D01*
X451Y258D02*
X455Y258D01*
X468Y258D02*
X472Y258D01*
X484Y258D02*
X487Y258D01*
X570Y258D02*
X574Y258D01*
X607Y258D02*
X610Y258D01*
X631Y258D02*
X636Y258D01*
X647Y258D02*
X652Y258D01*
X664Y258D02*
X667Y258D01*
X681Y258D02*
X685Y258D01*
X697Y258D02*
X702Y258D01*
X418Y257D02*
X421Y257D01*
X451Y257D02*
X454Y257D01*
X468Y257D02*
X472Y257D01*
X484Y257D02*
X487Y257D01*
X570Y257D02*
X585Y257D01*
X602Y257D02*
X616Y257D01*
X632Y257D02*
X651Y257D01*
X664Y257D02*
X685Y257D01*
X698Y257D02*
X717Y257D01*
X418Y256D02*
X421Y256D01*
X451Y256D02*
X454Y256D01*
X469Y256D02*
X472Y256D01*
X484Y256D02*
X487Y256D01*
X571Y256D02*
X586Y256D01*
X600Y256D02*
X617Y256D01*
X633Y256D02*
X650Y256D01*
X664Y256D02*
X684Y256D01*
X698Y256D02*
X718Y256D01*
X418Y255D02*
X421Y255D01*
X451Y255D02*
X454Y255D01*
X469Y255D02*
X472Y255D01*
X484Y255D02*
X487Y255D01*
X572Y255D02*
X587Y255D01*
X600Y255D02*
X617Y255D01*
X634Y255D02*
X649Y255D01*
X664Y255D02*
X683Y255D01*
X699Y255D02*
X718Y255D01*
X418Y254D02*
X421Y254D01*
X451Y254D02*
X454Y254D01*
X467Y254D02*
X472Y254D01*
X484Y254D02*
X487Y254D01*
X573Y254D02*
X586Y254D01*
X600Y254D02*
X617Y254D01*
X635Y254D02*
X648Y254D01*
X666Y254D02*
X682Y254D01*
X701Y254D02*
X718Y254D01*
X418Y253D02*
X421Y253D01*
X451Y253D02*
X455Y253D01*
X466Y253D02*
X472Y253D01*
X484Y253D02*
X487Y253D01*
X575Y253D02*
X586Y253D01*
X601Y253D02*
X616Y253D01*
X637Y253D02*
X646Y253D01*
X668Y253D02*
X681Y253D01*
X702Y253D02*
X717Y253D01*
X418Y252D02*
X421Y252D01*
X451Y252D02*
X456Y252D01*
X464Y252D02*
X472Y252D01*
X484Y252D02*
X487Y252D01*
X418Y251D02*
X421Y251D01*
X451Y251D02*
X472Y251D01*
X484Y251D02*
X487Y251D01*
X418Y250D02*
X421Y250D01*
X452Y250D02*
X472Y250D01*
X484Y250D02*
X487Y250D01*
X418Y249D02*
X421Y249D01*
X453Y249D02*
X467Y249D01*
X469Y249D02*
X472Y249D01*
X484Y249D02*
X487Y249D01*
X418Y248D02*
X421Y248D01*
X454Y248D02*
X465Y248D01*
X469Y248D02*
X472Y248D01*
X484Y248D02*
X487Y248D01*
X384Y62D02*
X412Y62D01*
X384Y61D02*
X413Y61D01*
X384Y60D02*
X414Y60D01*
X384Y59D02*
X413Y59D01*
X384Y58D02*
X413Y58D01*
X384Y57D02*
X412Y57D01*
X384Y56D02*
X390Y56D01*
X384Y55D02*
X390Y55D01*
X384Y54D02*
X390Y54D01*
X384Y53D02*
X390Y53D01*
X384Y52D02*
X390Y52D01*
X384Y51D02*
X390Y51D01*
X384Y50D02*
X390Y50D01*
X384Y49D02*
X390Y49D01*
X384Y48D02*
X390Y48D01*
X384Y47D02*
X406Y47D01*
X384Y46D02*
X407Y46D01*
X384Y45D02*
X407Y45D01*
X384Y44D02*
X408Y44D01*
X384Y43D02*
X407Y43D01*
X384Y42D02*
X407Y42D01*
X384Y41D02*
X390Y41D01*
X384Y40D02*
X390Y40D01*
X384Y39D02*
X390Y39D01*
X384Y38D02*
X390Y38D01*
X384Y37D02*
X390Y37D01*
X384Y36D02*
X390Y36D01*
X384Y35D02*
X390Y35D01*
X384Y34D02*
X390Y34D01*
X384Y33D02*
X390Y33D01*
X380Y32D02*
X380Y32D01*
X384Y32D02*
X390Y32D01*
X380Y31D02*
X380Y31D01*
X384Y31D02*
X390Y31D01*
X380Y30D02*
X390Y30D01*
X380Y29D02*
X380Y29D01*
X384Y29D02*
X390Y29D01*
X380Y28D02*
X380Y28D01*
X384Y28D02*
X390Y28D01*
X384Y27D02*
X390Y27D01*
X384Y26D02*
X390Y26D01*
X384Y25D02*
X390Y25D01*
X384Y24D02*
X390Y24D01*
X384Y23D02*
X390Y23D01*
X384Y22D02*
X390Y22D01*
X384Y21D02*
X390Y21D01*
X384Y20D02*
X390Y20D01*
X384Y19D02*
X390Y19D01*
X385Y18D02*
X389Y18D01*
X385Y17D02*
X389Y17D01*
X386Y16D02*
X388Y16D01*
D02*
G04 End of Silk1*
M02*