G04 MADE WITH FRITZING*
G04 WWW.FRITZING.ORG*
G04 DOUBLE SIDED*
G04 HOLES PLATED*
G04 CONTOUR ON CENTER OF CONTOUR VECTOR*
%ASAXBY*%
%FSLAX23Y23*%
%MOIN*%
%OFA0B0*%
%SFA1.0B1.0*%
%ADD10C,0.075000*%
%ADD11C,0.099000*%
%ADD12C,0.062992*%
%ADD13C,0.074000*%
%ADD14C,0.067559*%
%ADD15C,0.079370*%
%ADD16C,0.078000*%
%ADD17C,0.039370*%
%ADD18R,0.075000X0.075000*%
%ADD19R,0.062992X0.062992*%
%ADD20C,0.008000*%
%ADD21C,0.029000*%
%LNCOPPER1*%
G90*
G70*
G54D10*
X552Y860D03*
X252Y860D03*
X552Y760D03*
X252Y760D03*
X552Y660D03*
X252Y660D03*
X552Y560D03*
X252Y560D03*
X552Y860D03*
X252Y860D03*
X552Y760D03*
X252Y760D03*
X552Y660D03*
X252Y660D03*
X552Y560D03*
X252Y560D03*
G54D11*
X259Y242D03*
X59Y242D03*
X159Y442D03*
G54D10*
X118Y651D03*
X118Y751D03*
X118Y651D03*
X118Y751D03*
X496Y1026D03*
X396Y1026D03*
X496Y1026D03*
X396Y1026D03*
X158Y990D03*
X58Y990D03*
X158Y990D03*
X58Y990D03*
G54D12*
X642Y1013D03*
X740Y1013D03*
G54D13*
X670Y281D03*
X563Y281D03*
X456Y281D03*
X670Y281D03*
X563Y281D03*
X456Y281D03*
G54D14*
X500Y1218D03*
X400Y1218D03*
X300Y1218D03*
G54D15*
X500Y128D03*
X400Y128D03*
X300Y128D03*
G54D16*
X738Y575D03*
X738Y775D03*
X738Y675D03*
G54D17*
X465Y846D03*
G54D18*
X552Y860D03*
X552Y860D03*
X158Y990D03*
X158Y990D03*
G54D19*
X642Y1013D03*
G54D20*
X519Y1024D02*
X621Y1015D01*
D02*
X233Y673D02*
X137Y738D01*
D02*
X574Y762D02*
X713Y773D01*
D02*
X531Y649D02*
X182Y454D01*
D02*
X392Y1003D02*
X326Y624D01*
D02*
X519Y144D02*
X651Y264D01*
D02*
X326Y624D02*
X269Y575D01*
D02*
X485Y166D02*
X491Y151D01*
D02*
X284Y233D02*
X485Y166D01*
D02*
X657Y608D02*
X669Y307D01*
D02*
X719Y659D02*
X657Y608D01*
D02*
X464Y305D02*
X544Y538D01*
D02*
X728Y996D02*
X681Y935D01*
D02*
X497Y938D02*
X469Y859D01*
D02*
X681Y935D02*
X497Y938D01*
D02*
X331Y1128D02*
X678Y1084D01*
D02*
X307Y1200D02*
X331Y1128D01*
D02*
X678Y1084D02*
X726Y1029D01*
D02*
X170Y1009D02*
X290Y1202D01*
D02*
X169Y341D02*
X79Y259D01*
D02*
X431Y286D02*
X169Y341D01*
D02*
X83Y231D02*
X278Y138D01*
G54D21*
X24Y277D02*
X94Y277D01*
X94Y207D01*
X24Y207D01*
X24Y277D01*
D02*
G04 End of Copper1*
M02*