G04 MADE WITH FRITZING*
G04 WWW.FRITZING.ORG*
G04 DOUBLE SIDED*
G04 HOLES PLATED*
G04 CONTOUR ON CENTER OF CONTOUR VECTOR*
%ASAXBY*%
%FSLAX23Y23*%
%MOIN*%
%OFA0B0*%
%SFA1.0B1.0*%
%ADD10C,0.009843*%
%ADD11C,0.008000*%
%ADD12C,0.010000*%
%ADD13C,0.005000*%
%ADD14R,0.001000X0.001000*%
%LNSILK1*%
G90*
G70*
G54D10*
X592Y1040D02*
X592Y1119D01*
G54D11*
D02*
X792Y195D02*
X792Y367D01*
D02*
X792Y367D02*
X334Y367D01*
D02*
X334Y367D02*
X334Y195D01*
D02*
X334Y195D02*
X792Y195D01*
G54D12*
D02*
X550Y1268D02*
X250Y1268D01*
D02*
X250Y1268D02*
X250Y1168D01*
D02*
X250Y1168D02*
X550Y1168D01*
D02*
X550Y1168D02*
X550Y1268D01*
G54D13*
D02*
X515Y1268D02*
X550Y1233D01*
G54D12*
D02*
X550Y178D02*
X250Y178D01*
D02*
X250Y78D02*
X550Y78D01*
D02*
X550Y78D02*
X550Y178D01*
G54D13*
D02*
X515Y178D02*
X550Y143D01*
G54D14*
X385Y1301D02*
X392Y1301D01*
X406Y1301D02*
X414Y1301D01*
X385Y1300D02*
X393Y1300D01*
X406Y1300D02*
X414Y1300D01*
X385Y1299D02*
X393Y1299D01*
X405Y1299D02*
X414Y1299D01*
X385Y1298D02*
X394Y1298D01*
X404Y1298D02*
X414Y1298D01*
X385Y1297D02*
X395Y1297D01*
X404Y1297D02*
X414Y1297D01*
X385Y1296D02*
X396Y1296D01*
X403Y1296D02*
X414Y1296D01*
X385Y1295D02*
X396Y1295D01*
X402Y1295D02*
X414Y1295D01*
X385Y1294D02*
X397Y1294D01*
X402Y1294D02*
X414Y1294D01*
X385Y1293D02*
X398Y1293D01*
X401Y1293D02*
X414Y1293D01*
X385Y1292D02*
X390Y1292D01*
X392Y1292D02*
X398Y1292D01*
X400Y1292D02*
X407Y1292D01*
X409Y1292D02*
X414Y1292D01*
X385Y1291D02*
X390Y1291D01*
X393Y1291D02*
X406Y1291D01*
X409Y1291D02*
X414Y1291D01*
X385Y1290D02*
X390Y1290D01*
X393Y1290D02*
X405Y1290D01*
X409Y1290D02*
X414Y1290D01*
X385Y1289D02*
X390Y1289D01*
X394Y1289D02*
X405Y1289D01*
X409Y1289D02*
X414Y1289D01*
X385Y1288D02*
X390Y1288D01*
X395Y1288D02*
X404Y1288D01*
X409Y1288D02*
X414Y1288D01*
X385Y1287D02*
X390Y1287D01*
X395Y1287D02*
X403Y1287D01*
X409Y1287D02*
X414Y1287D01*
X385Y1286D02*
X390Y1286D01*
X396Y1286D02*
X402Y1286D01*
X409Y1286D02*
X414Y1286D01*
X385Y1285D02*
X390Y1285D01*
X397Y1285D02*
X402Y1285D01*
X409Y1285D02*
X414Y1285D01*
X385Y1284D02*
X390Y1284D01*
X397Y1284D02*
X402Y1284D01*
X409Y1284D02*
X414Y1284D01*
X385Y1283D02*
X390Y1283D01*
X397Y1283D02*
X402Y1283D01*
X409Y1283D02*
X414Y1283D01*
X385Y1282D02*
X390Y1282D01*
X397Y1282D02*
X401Y1282D01*
X409Y1282D02*
X414Y1282D01*
X385Y1281D02*
X390Y1281D01*
X398Y1281D02*
X400Y1281D01*
X409Y1281D02*
X414Y1281D01*
X385Y1280D02*
X390Y1280D01*
X409Y1280D02*
X414Y1280D01*
X385Y1279D02*
X390Y1279D01*
X409Y1279D02*
X414Y1279D01*
X385Y1278D02*
X390Y1278D01*
X409Y1278D02*
X414Y1278D01*
X385Y1277D02*
X390Y1277D01*
X409Y1277D02*
X414Y1277D01*
X385Y1276D02*
X390Y1276D01*
X409Y1276D02*
X414Y1276D01*
X385Y1275D02*
X390Y1275D01*
X409Y1275D02*
X414Y1275D01*
X385Y1274D02*
X390Y1274D01*
X409Y1274D02*
X414Y1274D01*
X385Y1273D02*
X390Y1273D01*
X409Y1273D02*
X414Y1273D01*
X385Y1272D02*
X390Y1272D01*
X409Y1272D02*
X414Y1272D01*
X385Y1271D02*
X390Y1271D01*
X409Y1271D02*
X414Y1271D01*
X385Y1270D02*
X390Y1270D01*
X409Y1270D02*
X414Y1270D01*
X385Y1269D02*
X390Y1269D01*
X409Y1269D02*
X414Y1269D01*
X385Y1268D02*
X390Y1268D01*
X409Y1268D02*
X414Y1268D01*
X385Y1267D02*
X390Y1267D01*
X409Y1267D02*
X414Y1267D01*
X385Y1266D02*
X390Y1266D01*
X409Y1266D02*
X414Y1266D01*
X419Y1266D02*
X419Y1266D01*
X423Y1266D02*
X423Y1266D01*
X385Y1265D02*
X390Y1265D01*
X409Y1265D02*
X414Y1265D01*
X419Y1265D02*
X419Y1265D01*
X423Y1265D02*
X423Y1265D01*
X385Y1264D02*
X390Y1264D01*
X409Y1264D02*
X414Y1264D01*
X420Y1264D02*
X420Y1264D01*
X422Y1264D02*
X423Y1264D01*
X385Y1263D02*
X390Y1263D01*
X409Y1263D02*
X414Y1263D01*
X420Y1263D02*
X420Y1263D01*
X422Y1263D02*
X423Y1263D01*
X385Y1262D02*
X390Y1262D01*
X409Y1262D02*
X414Y1262D01*
X421Y1262D02*
X421Y1262D01*
X423Y1262D02*
X423Y1262D01*
X385Y1261D02*
X390Y1261D01*
X409Y1261D02*
X414Y1261D01*
X421Y1261D02*
X421Y1261D01*
X385Y1260D02*
X390Y1260D01*
X409Y1260D02*
X414Y1260D01*
X385Y1259D02*
X390Y1259D01*
X409Y1259D02*
X414Y1259D01*
X385Y1258D02*
X390Y1258D01*
X409Y1258D02*
X414Y1258D01*
X385Y1257D02*
X390Y1257D01*
X409Y1257D02*
X414Y1257D01*
X385Y1256D02*
X389Y1256D01*
X409Y1256D02*
X413Y1256D01*
X387Y1255D02*
X387Y1255D01*
X412Y1255D02*
X412Y1255D01*
X587Y1117D02*
X593Y1117D01*
X586Y1116D02*
X594Y1116D01*
X586Y1115D02*
X594Y1115D01*
X586Y1114D02*
X594Y1114D01*
X586Y1113D02*
X594Y1113D01*
X47Y1112D02*
X49Y1112D01*
X64Y1112D02*
X66Y1112D01*
X79Y1112D02*
X95Y1112D01*
X139Y1112D02*
X156Y1112D01*
X586Y1112D02*
X594Y1112D01*
X46Y1111D02*
X49Y1111D01*
X63Y1111D02*
X66Y1111D01*
X78Y1111D02*
X96Y1111D01*
X138Y1111D02*
X157Y1111D01*
X586Y1111D02*
X594Y1111D01*
X46Y1110D02*
X49Y1110D01*
X63Y1110D02*
X66Y1110D01*
X77Y1110D02*
X96Y1110D01*
X138Y1110D02*
X158Y1110D01*
X586Y1110D02*
X594Y1110D01*
X46Y1109D02*
X49Y1109D01*
X63Y1109D02*
X66Y1109D01*
X77Y1109D02*
X97Y1109D01*
X139Y1109D02*
X158Y1109D01*
X586Y1109D02*
X594Y1109D01*
X46Y1108D02*
X49Y1108D01*
X63Y1108D02*
X66Y1108D01*
X77Y1108D02*
X80Y1108D01*
X93Y1108D02*
X97Y1108D01*
X155Y1108D02*
X158Y1108D01*
X586Y1108D02*
X594Y1108D01*
X46Y1107D02*
X49Y1107D01*
X63Y1107D02*
X66Y1107D01*
X77Y1107D02*
X80Y1107D01*
X94Y1107D02*
X97Y1107D01*
X155Y1107D02*
X158Y1107D01*
X586Y1107D02*
X594Y1107D01*
X46Y1106D02*
X49Y1106D01*
X63Y1106D02*
X66Y1106D01*
X77Y1106D02*
X80Y1106D01*
X94Y1106D02*
X97Y1106D01*
X155Y1106D02*
X158Y1106D01*
X586Y1106D02*
X594Y1106D01*
X46Y1105D02*
X49Y1105D01*
X63Y1105D02*
X66Y1105D01*
X77Y1105D02*
X80Y1105D01*
X94Y1105D02*
X97Y1105D01*
X155Y1105D02*
X158Y1105D01*
X586Y1105D02*
X594Y1105D01*
X46Y1104D02*
X49Y1104D01*
X63Y1104D02*
X66Y1104D01*
X77Y1104D02*
X80Y1104D01*
X94Y1104D02*
X97Y1104D01*
X155Y1104D02*
X158Y1104D01*
X586Y1104D02*
X594Y1104D01*
X46Y1103D02*
X50Y1103D01*
X63Y1103D02*
X66Y1103D01*
X77Y1103D02*
X80Y1103D01*
X94Y1103D02*
X97Y1103D01*
X155Y1103D02*
X158Y1103D01*
X586Y1103D02*
X594Y1103D01*
X46Y1102D02*
X50Y1102D01*
X62Y1102D02*
X66Y1102D01*
X77Y1102D02*
X80Y1102D01*
X94Y1102D02*
X97Y1102D01*
X155Y1102D02*
X158Y1102D01*
X586Y1102D02*
X594Y1102D01*
X47Y1101D02*
X50Y1101D01*
X62Y1101D02*
X65Y1101D01*
X77Y1101D02*
X80Y1101D01*
X94Y1101D02*
X97Y1101D01*
X155Y1101D02*
X158Y1101D01*
X586Y1101D02*
X594Y1101D01*
X47Y1100D02*
X51Y1100D01*
X61Y1100D02*
X65Y1100D01*
X77Y1100D02*
X80Y1100D01*
X94Y1100D02*
X97Y1100D01*
X155Y1100D02*
X158Y1100D01*
X586Y1100D02*
X594Y1100D01*
X47Y1099D02*
X51Y1099D01*
X61Y1099D02*
X65Y1099D01*
X77Y1099D02*
X80Y1099D01*
X94Y1099D02*
X97Y1099D01*
X154Y1099D02*
X158Y1099D01*
X587Y1099D02*
X593Y1099D01*
X48Y1098D02*
X51Y1098D01*
X61Y1098D02*
X64Y1098D01*
X77Y1098D02*
X80Y1098D01*
X94Y1098D02*
X97Y1098D01*
X143Y1098D02*
X158Y1098D01*
X48Y1097D02*
X52Y1097D01*
X60Y1097D02*
X64Y1097D01*
X77Y1097D02*
X80Y1097D01*
X94Y1097D02*
X97Y1097D01*
X142Y1097D02*
X157Y1097D01*
X49Y1096D02*
X52Y1096D01*
X60Y1096D02*
X63Y1096D01*
X77Y1096D02*
X80Y1096D01*
X94Y1096D02*
X97Y1096D01*
X142Y1096D02*
X157Y1096D01*
X49Y1095D02*
X53Y1095D01*
X59Y1095D02*
X63Y1095D01*
X77Y1095D02*
X80Y1095D01*
X94Y1095D02*
X97Y1095D01*
X142Y1095D02*
X157Y1095D01*
X49Y1094D02*
X53Y1094D01*
X59Y1094D02*
X63Y1094D01*
X77Y1094D02*
X80Y1094D01*
X94Y1094D02*
X97Y1094D01*
X144Y1094D02*
X158Y1094D01*
X50Y1093D02*
X53Y1093D01*
X59Y1093D02*
X62Y1093D01*
X77Y1093D02*
X80Y1093D01*
X94Y1093D02*
X97Y1093D01*
X154Y1093D02*
X158Y1093D01*
X50Y1092D02*
X54Y1092D01*
X58Y1092D02*
X62Y1092D01*
X77Y1092D02*
X80Y1092D01*
X94Y1092D02*
X97Y1092D01*
X114Y1092D02*
X121Y1092D01*
X155Y1092D02*
X158Y1092D01*
X682Y1092D02*
X707Y1092D01*
X51Y1091D02*
X54Y1091D01*
X58Y1091D02*
X62Y1091D01*
X77Y1091D02*
X80Y1091D01*
X94Y1091D02*
X97Y1091D01*
X114Y1091D02*
X121Y1091D01*
X155Y1091D02*
X158Y1091D01*
X677Y1091D02*
X712Y1091D01*
X51Y1090D02*
X55Y1090D01*
X57Y1090D02*
X61Y1090D01*
X77Y1090D02*
X80Y1090D01*
X94Y1090D02*
X97Y1090D01*
X114Y1090D02*
X121Y1090D01*
X155Y1090D02*
X158Y1090D01*
X673Y1090D02*
X716Y1090D01*
X51Y1089D02*
X55Y1089D01*
X57Y1089D02*
X61Y1089D01*
X77Y1089D02*
X80Y1089D01*
X94Y1089D02*
X97Y1089D01*
X114Y1089D02*
X121Y1089D01*
X155Y1089D02*
X158Y1089D01*
X587Y1089D02*
X593Y1089D01*
X670Y1089D02*
X719Y1089D01*
X52Y1088D02*
X60Y1088D01*
X77Y1088D02*
X80Y1088D01*
X94Y1088D02*
X97Y1088D01*
X114Y1088D02*
X121Y1088D01*
X155Y1088D02*
X158Y1088D01*
X586Y1088D02*
X594Y1088D01*
X667Y1088D02*
X688Y1088D01*
X701Y1088D02*
X722Y1088D01*
X52Y1087D02*
X60Y1087D01*
X77Y1087D02*
X80Y1087D01*
X94Y1087D02*
X97Y1087D01*
X114Y1087D02*
X121Y1087D01*
X155Y1087D02*
X158Y1087D01*
X586Y1087D02*
X594Y1087D01*
X665Y1087D02*
X681Y1087D01*
X708Y1087D02*
X724Y1087D01*
X53Y1086D02*
X60Y1086D01*
X77Y1086D02*
X80Y1086D01*
X94Y1086D02*
X97Y1086D01*
X114Y1086D02*
X121Y1086D01*
X155Y1086D02*
X158Y1086D01*
X586Y1086D02*
X594Y1086D01*
X662Y1086D02*
X676Y1086D01*
X713Y1086D02*
X727Y1086D01*
X53Y1085D02*
X59Y1085D01*
X77Y1085D02*
X80Y1085D01*
X94Y1085D02*
X97Y1085D01*
X115Y1085D02*
X120Y1085D01*
X155Y1085D02*
X158Y1085D01*
X586Y1085D02*
X594Y1085D01*
X660Y1085D02*
X672Y1085D01*
X716Y1085D02*
X729Y1085D01*
X53Y1084D02*
X59Y1084D01*
X77Y1084D02*
X80Y1084D01*
X93Y1084D02*
X97Y1084D01*
X155Y1084D02*
X158Y1084D01*
X586Y1084D02*
X594Y1084D01*
X658Y1084D02*
X669Y1084D01*
X719Y1084D02*
X731Y1084D01*
X54Y1083D02*
X58Y1083D01*
X77Y1083D02*
X97Y1083D01*
X139Y1083D02*
X158Y1083D01*
X586Y1083D02*
X594Y1083D01*
X656Y1083D02*
X667Y1083D01*
X722Y1083D02*
X733Y1083D01*
X54Y1082D02*
X58Y1082D01*
X77Y1082D02*
X96Y1082D01*
X138Y1082D02*
X158Y1082D01*
X586Y1082D02*
X594Y1082D01*
X654Y1082D02*
X664Y1082D01*
X724Y1082D02*
X735Y1082D01*
X54Y1081D02*
X58Y1081D01*
X78Y1081D02*
X96Y1081D01*
X138Y1081D02*
X157Y1081D01*
X586Y1081D02*
X594Y1081D01*
X653Y1081D02*
X662Y1081D01*
X727Y1081D02*
X736Y1081D01*
X55Y1080D02*
X57Y1080D01*
X79Y1080D02*
X94Y1080D01*
X139Y1080D02*
X156Y1080D01*
X586Y1080D02*
X594Y1080D01*
X651Y1080D02*
X660Y1080D01*
X729Y1080D02*
X738Y1080D01*
X586Y1079D02*
X594Y1079D01*
X650Y1079D02*
X658Y1079D01*
X730Y1079D02*
X739Y1079D01*
X586Y1078D02*
X594Y1078D01*
X648Y1078D02*
X656Y1078D01*
X732Y1078D02*
X741Y1078D01*
X586Y1077D02*
X594Y1077D01*
X647Y1077D02*
X655Y1077D01*
X734Y1077D02*
X742Y1077D01*
X586Y1076D02*
X594Y1076D01*
X646Y1076D02*
X653Y1076D01*
X735Y1076D02*
X743Y1076D01*
X586Y1075D02*
X594Y1075D01*
X644Y1075D02*
X652Y1075D01*
X737Y1075D02*
X744Y1075D01*
X586Y1074D02*
X594Y1074D01*
X643Y1074D02*
X650Y1074D01*
X738Y1074D02*
X746Y1074D01*
X586Y1073D02*
X594Y1073D01*
X642Y1073D02*
X649Y1073D01*
X740Y1073D02*
X747Y1073D01*
X586Y1072D02*
X594Y1072D01*
X641Y1072D02*
X648Y1072D01*
X741Y1072D02*
X748Y1072D01*
X587Y1071D02*
X593Y1071D01*
X640Y1071D02*
X647Y1071D01*
X742Y1071D02*
X749Y1071D01*
X589Y1070D02*
X591Y1070D01*
X639Y1070D02*
X645Y1070D01*
X743Y1070D02*
X750Y1070D01*
X638Y1069D02*
X644Y1069D01*
X745Y1069D02*
X751Y1069D01*
X637Y1068D02*
X643Y1068D01*
X746Y1068D02*
X752Y1068D01*
X636Y1067D02*
X642Y1067D01*
X747Y1067D02*
X753Y1067D01*
X635Y1066D02*
X641Y1066D01*
X748Y1066D02*
X754Y1066D01*
X634Y1065D02*
X640Y1065D01*
X749Y1065D02*
X755Y1065D01*
X633Y1064D02*
X639Y1064D01*
X750Y1064D02*
X755Y1064D01*
X633Y1063D02*
X638Y1063D01*
X751Y1063D02*
X756Y1063D01*
X632Y1062D02*
X637Y1062D01*
X751Y1062D02*
X757Y1062D01*
X575Y1061D02*
X577Y1061D01*
X606Y1061D02*
X607Y1061D01*
X631Y1061D02*
X637Y1061D01*
X752Y1061D02*
X758Y1061D01*
X574Y1060D02*
X578Y1060D01*
X604Y1060D02*
X609Y1060D01*
X630Y1060D02*
X636Y1060D01*
X753Y1060D02*
X758Y1060D01*
X573Y1059D02*
X579Y1059D01*
X603Y1059D02*
X609Y1059D01*
X630Y1059D02*
X635Y1059D01*
X754Y1059D02*
X758Y1059D01*
X574Y1058D02*
X580Y1058D01*
X603Y1058D02*
X609Y1058D01*
X629Y1058D02*
X634Y1058D01*
X754Y1058D02*
X758Y1058D01*
X575Y1057D02*
X581Y1057D01*
X602Y1057D02*
X608Y1057D01*
X628Y1057D02*
X634Y1057D01*
X754Y1057D02*
X758Y1057D01*
X576Y1056D02*
X582Y1056D01*
X601Y1056D02*
X607Y1056D01*
X628Y1056D02*
X633Y1056D01*
X754Y1056D02*
X758Y1056D01*
X577Y1055D02*
X583Y1055D01*
X600Y1055D02*
X606Y1055D01*
X627Y1055D02*
X632Y1055D01*
X754Y1055D02*
X758Y1055D01*
X578Y1054D02*
X584Y1054D01*
X599Y1054D02*
X605Y1054D01*
X626Y1054D02*
X631Y1054D01*
X754Y1054D02*
X758Y1054D01*
X578Y1053D02*
X585Y1053D01*
X598Y1053D02*
X604Y1053D01*
X626Y1053D02*
X631Y1053D01*
X754Y1053D02*
X758Y1053D01*
X579Y1052D02*
X585Y1052D01*
X597Y1052D02*
X603Y1052D01*
X626Y1052D02*
X630Y1052D01*
X754Y1052D02*
X758Y1052D01*
X580Y1051D02*
X586Y1051D01*
X596Y1051D02*
X602Y1051D01*
X626Y1051D02*
X630Y1051D01*
X754Y1051D02*
X758Y1051D01*
X581Y1050D02*
X587Y1050D01*
X595Y1050D02*
X601Y1050D01*
X754Y1050D02*
X758Y1050D01*
X582Y1049D02*
X588Y1049D01*
X594Y1049D02*
X601Y1049D01*
X754Y1049D02*
X758Y1049D01*
X583Y1048D02*
X589Y1048D01*
X594Y1048D02*
X600Y1048D01*
X754Y1048D02*
X758Y1048D01*
X584Y1047D02*
X590Y1047D01*
X593Y1047D02*
X599Y1047D01*
X754Y1047D02*
X758Y1047D01*
X585Y1046D02*
X598Y1046D01*
X756Y1046D02*
X758Y1046D01*
X586Y1045D02*
X597Y1045D01*
X587Y1044D02*
X596Y1044D01*
X587Y1043D02*
X595Y1043D01*
X589Y1042D02*
X594Y1042D01*
X757Y982D02*
X757Y982D01*
X755Y981D02*
X758Y981D01*
X754Y980D02*
X758Y980D01*
X754Y979D02*
X758Y979D01*
X754Y978D02*
X758Y978D01*
X754Y977D02*
X758Y977D01*
X627Y976D02*
X630Y976D01*
X754Y976D02*
X758Y976D01*
X627Y975D02*
X631Y975D01*
X754Y975D02*
X758Y975D01*
X627Y974D02*
X631Y974D01*
X754Y974D02*
X758Y974D01*
X627Y973D02*
X632Y973D01*
X754Y973D02*
X758Y973D01*
X628Y972D02*
X633Y972D01*
X754Y972D02*
X758Y972D01*
X628Y971D02*
X633Y971D01*
X754Y971D02*
X758Y971D01*
X629Y970D02*
X634Y970D01*
X754Y970D02*
X758Y970D01*
X630Y969D02*
X635Y969D01*
X754Y969D02*
X758Y969D01*
X630Y968D02*
X636Y968D01*
X753Y968D02*
X758Y968D01*
X631Y967D02*
X636Y967D01*
X752Y967D02*
X758Y967D01*
X632Y966D02*
X637Y966D01*
X751Y966D02*
X757Y966D01*
X632Y965D02*
X638Y965D01*
X751Y965D02*
X756Y965D01*
X633Y964D02*
X639Y964D01*
X750Y964D02*
X755Y964D01*
X634Y963D02*
X640Y963D01*
X749Y963D02*
X755Y963D01*
X635Y962D02*
X641Y962D01*
X748Y962D02*
X754Y962D01*
X636Y961D02*
X642Y961D01*
X747Y961D02*
X753Y961D01*
X637Y960D02*
X643Y960D01*
X746Y960D02*
X752Y960D01*
X638Y959D02*
X644Y959D01*
X745Y959D02*
X751Y959D01*
X639Y958D02*
X645Y958D01*
X744Y958D02*
X750Y958D01*
X398Y957D02*
X429Y957D01*
X640Y957D02*
X646Y957D01*
X743Y957D02*
X749Y957D01*
X398Y956D02*
X430Y956D01*
X641Y956D02*
X648Y956D01*
X741Y956D02*
X748Y956D01*
X398Y955D02*
X430Y955D01*
X642Y955D02*
X649Y955D01*
X740Y955D02*
X747Y955D01*
X398Y954D02*
X430Y954D01*
X643Y954D02*
X650Y954D01*
X739Y954D02*
X746Y954D01*
X398Y953D02*
X402Y953D01*
X644Y953D02*
X652Y953D01*
X737Y953D02*
X745Y953D01*
X398Y952D02*
X401Y952D01*
X645Y952D02*
X653Y952D01*
X736Y952D02*
X743Y952D01*
X398Y951D02*
X401Y951D01*
X647Y951D02*
X654Y951D01*
X734Y951D02*
X742Y951D01*
X398Y950D02*
X401Y950D01*
X648Y950D02*
X656Y950D01*
X733Y950D02*
X741Y950D01*
X398Y949D02*
X401Y949D01*
X649Y949D02*
X658Y949D01*
X731Y949D02*
X739Y949D01*
X398Y948D02*
X401Y948D01*
X651Y948D02*
X660Y948D01*
X729Y948D02*
X738Y948D01*
X398Y947D02*
X401Y947D01*
X652Y947D02*
X662Y947D01*
X727Y947D02*
X736Y947D01*
X398Y946D02*
X401Y946D01*
X654Y946D02*
X664Y946D01*
X725Y946D02*
X735Y946D01*
X398Y945D02*
X401Y945D01*
X656Y945D02*
X666Y945D01*
X723Y945D02*
X733Y945D01*
X398Y944D02*
X401Y944D01*
X657Y944D02*
X669Y944D01*
X720Y944D02*
X731Y944D01*
X398Y943D02*
X401Y943D01*
X659Y943D02*
X672Y943D01*
X717Y943D02*
X729Y943D01*
X398Y942D02*
X401Y942D01*
X661Y942D02*
X675Y942D01*
X714Y942D02*
X727Y942D01*
X398Y941D02*
X401Y941D01*
X664Y941D02*
X679Y941D01*
X710Y941D02*
X725Y941D01*
X398Y940D02*
X401Y940D01*
X666Y940D02*
X686Y940D01*
X703Y940D02*
X722Y940D01*
X398Y939D02*
X401Y939D01*
X669Y939D02*
X720Y939D01*
X398Y938D02*
X401Y938D01*
X672Y938D02*
X716Y938D01*
X399Y937D02*
X401Y937D01*
X676Y937D02*
X713Y937D01*
X681Y936D02*
X708Y936D01*
X688Y935D02*
X700Y935D01*
X399Y924D02*
X401Y924D01*
X419Y924D02*
X421Y924D01*
X656Y924D02*
X657Y924D01*
X685Y924D02*
X704Y924D01*
X716Y924D02*
X726Y924D01*
X398Y923D02*
X401Y923D01*
X418Y923D02*
X421Y923D01*
X655Y923D02*
X658Y923D01*
X685Y923D02*
X704Y923D01*
X715Y923D02*
X727Y923D01*
X398Y922D02*
X401Y922D01*
X418Y922D02*
X421Y922D01*
X655Y922D02*
X658Y922D01*
X685Y922D02*
X704Y922D01*
X715Y922D02*
X728Y922D01*
X398Y921D02*
X401Y921D01*
X418Y921D02*
X421Y921D01*
X655Y921D02*
X658Y921D01*
X685Y921D02*
X704Y921D01*
X715Y921D02*
X729Y921D01*
X398Y920D02*
X401Y920D01*
X418Y920D02*
X421Y920D01*
X428Y920D02*
X431Y920D01*
X655Y920D02*
X658Y920D01*
X685Y920D02*
X688Y920D01*
X719Y920D02*
X722Y920D01*
X725Y920D02*
X730Y920D01*
X398Y919D02*
X401Y919D01*
X418Y919D02*
X421Y919D01*
X427Y919D02*
X432Y919D01*
X655Y919D02*
X658Y919D01*
X685Y919D02*
X688Y919D01*
X719Y919D02*
X722Y919D01*
X726Y919D02*
X730Y919D01*
X398Y918D02*
X421Y918D01*
X427Y918D02*
X432Y918D01*
X655Y918D02*
X658Y918D01*
X685Y918D02*
X688Y918D01*
X719Y918D02*
X722Y918D01*
X727Y918D02*
X731Y918D01*
X398Y917D02*
X421Y917D01*
X427Y917D02*
X432Y917D01*
X655Y917D02*
X658Y917D01*
X685Y917D02*
X688Y917D01*
X719Y917D02*
X722Y917D01*
X727Y917D02*
X731Y917D01*
X398Y916D02*
X421Y916D01*
X427Y916D02*
X432Y916D01*
X655Y916D02*
X658Y916D01*
X685Y916D02*
X688Y916D01*
X719Y916D02*
X722Y916D01*
X728Y916D02*
X732Y916D01*
X398Y915D02*
X421Y915D01*
X427Y915D02*
X432Y915D01*
X655Y915D02*
X658Y915D01*
X685Y915D02*
X688Y915D01*
X719Y915D02*
X722Y915D01*
X728Y915D02*
X732Y915D01*
X398Y914D02*
X419Y914D01*
X429Y914D02*
X430Y914D01*
X655Y914D02*
X658Y914D01*
X685Y914D02*
X688Y914D01*
X719Y914D02*
X722Y914D01*
X729Y914D02*
X733Y914D01*
X398Y913D02*
X401Y913D01*
X655Y913D02*
X658Y913D01*
X685Y913D02*
X688Y913D01*
X719Y913D02*
X722Y913D01*
X729Y913D02*
X733Y913D01*
X398Y912D02*
X401Y912D01*
X655Y912D02*
X658Y912D01*
X685Y912D02*
X688Y912D01*
X719Y912D02*
X722Y912D01*
X730Y912D02*
X734Y912D01*
X398Y911D02*
X401Y911D01*
X655Y911D02*
X658Y911D01*
X685Y911D02*
X688Y911D01*
X719Y911D02*
X722Y911D01*
X730Y911D02*
X734Y911D01*
X398Y910D02*
X401Y910D01*
X655Y910D02*
X658Y910D01*
X685Y910D02*
X695Y910D01*
X719Y910D02*
X722Y910D01*
X731Y910D02*
X734Y910D01*
X398Y909D02*
X401Y909D01*
X655Y909D02*
X658Y909D01*
X685Y909D02*
X696Y909D01*
X719Y909D02*
X722Y909D01*
X731Y909D02*
X734Y909D01*
X399Y908D02*
X400Y908D01*
X655Y908D02*
X658Y908D01*
X685Y908D02*
X696Y908D01*
X719Y908D02*
X722Y908D01*
X731Y908D02*
X734Y908D01*
X655Y907D02*
X658Y907D01*
X685Y907D02*
X696Y907D01*
X719Y907D02*
X722Y907D01*
X731Y907D02*
X734Y907D01*
X655Y906D02*
X658Y906D01*
X685Y906D02*
X688Y906D01*
X719Y906D02*
X722Y906D01*
X731Y906D02*
X734Y906D01*
X655Y905D02*
X658Y905D01*
X685Y905D02*
X688Y905D01*
X719Y905D02*
X722Y905D01*
X730Y905D02*
X734Y905D01*
X655Y904D02*
X658Y904D01*
X685Y904D02*
X688Y904D01*
X719Y904D02*
X722Y904D01*
X730Y904D02*
X733Y904D01*
X655Y903D02*
X658Y903D01*
X685Y903D02*
X688Y903D01*
X719Y903D02*
X722Y903D01*
X729Y903D02*
X733Y903D01*
X655Y902D02*
X658Y902D01*
X685Y902D02*
X688Y902D01*
X719Y902D02*
X722Y902D01*
X729Y902D02*
X733Y902D01*
X655Y901D02*
X658Y901D01*
X685Y901D02*
X688Y901D01*
X719Y901D02*
X722Y901D01*
X728Y901D02*
X732Y901D01*
X655Y900D02*
X658Y900D01*
X685Y900D02*
X688Y900D01*
X719Y900D02*
X722Y900D01*
X728Y900D02*
X732Y900D01*
X655Y899D02*
X658Y899D01*
X685Y899D02*
X688Y899D01*
X719Y899D02*
X722Y899D01*
X727Y899D02*
X731Y899D01*
X655Y898D02*
X658Y898D01*
X685Y898D02*
X688Y898D01*
X719Y898D02*
X722Y898D01*
X727Y898D02*
X731Y898D01*
X655Y897D02*
X658Y897D01*
X685Y897D02*
X688Y897D01*
X719Y897D02*
X722Y897D01*
X726Y897D02*
X730Y897D01*
X655Y896D02*
X673Y896D01*
X685Y896D02*
X703Y896D01*
X716Y896D02*
X730Y896D01*
X418Y895D02*
X421Y895D01*
X655Y895D02*
X674Y895D01*
X685Y895D02*
X704Y895D01*
X715Y895D02*
X729Y895D01*
X418Y894D02*
X421Y894D01*
X655Y894D02*
X674Y894D01*
X685Y894D02*
X704Y894D01*
X715Y894D02*
X728Y894D01*
X418Y893D02*
X421Y893D01*
X655Y893D02*
X674Y893D01*
X685Y893D02*
X704Y893D01*
X715Y893D02*
X727Y893D01*
X418Y892D02*
X422Y892D01*
X655Y892D02*
X673Y892D01*
X685Y892D02*
X703Y892D01*
X716Y892D02*
X724Y892D01*
X401Y891D02*
X428Y891D01*
X400Y890D02*
X428Y890D01*
X399Y889D02*
X428Y889D01*
X399Y888D02*
X428Y888D01*
X398Y887D02*
X402Y887D01*
X418Y887D02*
X421Y887D01*
X398Y886D02*
X401Y886D01*
X418Y886D02*
X421Y886D01*
X398Y885D02*
X401Y885D01*
X418Y885D02*
X421Y885D01*
X398Y884D02*
X401Y884D01*
X418Y884D02*
X421Y884D01*
X398Y883D02*
X401Y883D01*
X418Y883D02*
X421Y883D01*
X398Y882D02*
X401Y882D01*
X418Y882D02*
X421Y882D01*
X398Y881D02*
X401Y881D01*
X418Y881D02*
X421Y881D01*
X398Y880D02*
X402Y880D01*
X418Y880D02*
X421Y880D01*
X399Y879D02*
X403Y879D01*
X418Y879D02*
X421Y879D01*
X399Y878D02*
X405Y878D01*
X418Y878D02*
X421Y878D01*
X400Y877D02*
X405Y877D01*
X401Y876D02*
X405Y876D01*
X403Y875D02*
X404Y875D01*
X419Y865D02*
X420Y865D01*
X418Y864D02*
X421Y864D01*
X418Y863D02*
X421Y863D01*
X418Y862D02*
X421Y862D01*
X403Y861D02*
X427Y861D01*
X401Y860D02*
X428Y860D01*
X400Y859D02*
X428Y859D01*
X399Y858D02*
X428Y858D01*
X398Y857D02*
X427Y857D01*
X398Y856D02*
X402Y856D01*
X418Y856D02*
X421Y856D01*
X398Y855D02*
X401Y855D01*
X418Y855D02*
X421Y855D01*
X398Y854D02*
X401Y854D01*
X418Y854D02*
X421Y854D01*
X398Y853D02*
X401Y853D01*
X418Y853D02*
X421Y853D01*
X398Y852D02*
X401Y852D01*
X418Y852D02*
X421Y852D01*
X398Y851D02*
X401Y851D01*
X418Y851D02*
X421Y851D01*
X398Y850D02*
X401Y850D01*
X418Y850D02*
X421Y850D01*
X398Y849D02*
X402Y849D01*
X418Y849D02*
X421Y849D01*
X399Y848D02*
X404Y848D01*
X418Y848D02*
X421Y848D01*
X18Y847D02*
X36Y847D01*
X399Y847D02*
X405Y847D01*
X419Y847D02*
X421Y847D01*
X17Y846D02*
X37Y846D01*
X400Y846D02*
X405Y846D01*
X17Y845D02*
X37Y845D01*
X401Y845D02*
X404Y845D01*
X24Y844D02*
X30Y844D01*
X23Y843D02*
X26Y843D01*
X28Y843D02*
X31Y843D01*
X22Y842D02*
X25Y842D01*
X29Y842D02*
X32Y842D01*
X22Y841D02*
X24Y841D01*
X30Y841D02*
X32Y841D01*
X21Y840D02*
X23Y840D01*
X31Y840D02*
X33Y840D01*
X20Y839D02*
X23Y839D01*
X32Y839D02*
X34Y839D01*
X19Y838D02*
X22Y838D01*
X32Y838D02*
X35Y838D01*
X18Y837D02*
X21Y837D01*
X33Y837D02*
X36Y837D01*
X17Y836D02*
X20Y836D01*
X34Y836D02*
X37Y836D01*
X17Y835D02*
X19Y835D01*
X35Y835D02*
X37Y835D01*
X18Y834D02*
X18Y834D01*
X36Y834D02*
X36Y834D01*
X399Y832D02*
X401Y832D01*
X428Y832D02*
X430Y832D01*
X398Y831D02*
X401Y831D01*
X427Y831D02*
X430Y831D01*
X398Y830D02*
X401Y830D01*
X427Y830D02*
X430Y830D01*
X398Y829D02*
X401Y829D01*
X427Y829D02*
X430Y829D01*
X398Y828D02*
X401Y828D01*
X427Y828D02*
X430Y828D01*
X398Y827D02*
X401Y827D01*
X427Y827D02*
X430Y827D01*
X18Y826D02*
X18Y826D01*
X30Y826D02*
X31Y826D01*
X398Y826D02*
X430Y826D01*
X17Y825D02*
X19Y825D01*
X30Y825D02*
X31Y825D01*
X398Y825D02*
X430Y825D01*
X17Y824D02*
X19Y824D01*
X30Y824D02*
X31Y824D01*
X398Y824D02*
X430Y824D01*
X17Y823D02*
X19Y823D01*
X30Y823D02*
X31Y823D01*
X36Y823D02*
X38Y823D01*
X398Y823D02*
X430Y823D01*
X17Y822D02*
X31Y822D01*
X35Y822D02*
X38Y822D01*
X398Y822D02*
X428Y822D01*
X17Y821D02*
X31Y821D01*
X35Y821D02*
X38Y821D01*
X398Y821D02*
X401Y821D01*
X17Y820D02*
X31Y820D01*
X36Y820D02*
X38Y820D01*
X398Y820D02*
X401Y820D01*
X17Y819D02*
X19Y819D01*
X398Y819D02*
X401Y819D01*
X17Y818D02*
X19Y818D01*
X398Y818D02*
X401Y818D01*
X17Y817D02*
X19Y817D01*
X398Y817D02*
X401Y817D01*
X17Y816D02*
X18Y816D01*
X399Y816D02*
X400Y816D01*
X21Y808D02*
X27Y808D01*
X19Y807D02*
X29Y807D01*
X18Y806D02*
X30Y806D01*
X17Y805D02*
X20Y805D01*
X28Y805D02*
X31Y805D01*
X17Y804D02*
X19Y804D01*
X29Y804D02*
X31Y804D01*
X405Y804D02*
X414Y804D01*
X17Y803D02*
X19Y803D01*
X30Y803D02*
X31Y803D01*
X402Y803D02*
X417Y803D01*
X17Y802D02*
X19Y802D01*
X30Y802D02*
X31Y802D01*
X401Y802D02*
X418Y802D01*
X17Y801D02*
X19Y801D01*
X30Y801D02*
X31Y801D01*
X341Y801D02*
X343Y801D01*
X364Y801D02*
X366Y801D01*
X400Y801D02*
X419Y801D01*
X17Y800D02*
X19Y800D01*
X29Y800D02*
X31Y800D01*
X339Y800D02*
X344Y800D01*
X362Y800D02*
X368Y800D01*
X399Y800D02*
X420Y800D01*
X17Y799D02*
X20Y799D01*
X28Y799D02*
X31Y799D01*
X338Y799D02*
X344Y799D01*
X361Y799D02*
X368Y799D01*
X399Y799D02*
X403Y799D01*
X407Y799D02*
X410Y799D01*
X416Y799D02*
X420Y799D01*
X18Y798D02*
X21Y798D01*
X27Y798D02*
X30Y798D01*
X338Y798D02*
X344Y798D01*
X359Y798D02*
X369Y798D01*
X398Y798D02*
X402Y798D01*
X407Y798D02*
X410Y798D01*
X417Y798D02*
X421Y798D01*
X18Y797D02*
X36Y797D01*
X337Y797D02*
X342Y797D01*
X358Y797D02*
X369Y797D01*
X398Y797D02*
X402Y797D01*
X407Y797D02*
X410Y797D01*
X418Y797D02*
X421Y797D01*
X17Y796D02*
X37Y796D01*
X337Y796D02*
X341Y796D01*
X357Y796D02*
X363Y796D01*
X366Y796D02*
X369Y796D01*
X398Y796D02*
X401Y796D01*
X407Y796D02*
X410Y796D01*
X418Y796D02*
X421Y796D01*
X18Y795D02*
X37Y795D01*
X337Y795D02*
X340Y795D01*
X355Y795D02*
X361Y795D01*
X366Y795D02*
X369Y795D01*
X398Y795D02*
X401Y795D01*
X407Y795D02*
X410Y795D01*
X418Y795D02*
X421Y795D01*
X337Y794D02*
X340Y794D01*
X354Y794D02*
X360Y794D01*
X366Y794D02*
X369Y794D01*
X398Y794D02*
X401Y794D01*
X407Y794D02*
X410Y794D01*
X418Y794D02*
X421Y794D01*
X337Y793D02*
X340Y793D01*
X353Y793D02*
X359Y793D01*
X366Y793D02*
X369Y793D01*
X398Y793D02*
X401Y793D01*
X407Y793D02*
X410Y793D01*
X418Y793D02*
X421Y793D01*
X337Y792D02*
X340Y792D01*
X352Y792D02*
X358Y792D01*
X366Y792D02*
X369Y792D01*
X398Y792D02*
X401Y792D01*
X407Y792D02*
X410Y792D01*
X418Y792D02*
X421Y792D01*
X337Y791D02*
X340Y791D01*
X350Y791D02*
X356Y791D01*
X366Y791D02*
X369Y791D01*
X398Y791D02*
X401Y791D01*
X407Y791D02*
X410Y791D01*
X418Y791D02*
X421Y791D01*
X337Y790D02*
X340Y790D01*
X349Y790D02*
X355Y790D01*
X366Y790D02*
X369Y790D01*
X398Y790D02*
X401Y790D01*
X407Y790D02*
X410Y790D01*
X418Y790D02*
X421Y790D01*
X337Y789D02*
X340Y789D01*
X348Y789D02*
X354Y789D01*
X366Y789D02*
X369Y789D01*
X398Y789D02*
X401Y789D01*
X407Y789D02*
X410Y789D01*
X417Y789D02*
X421Y789D01*
X17Y788D02*
X37Y788D01*
X337Y788D02*
X340Y788D01*
X346Y788D02*
X352Y788D01*
X366Y788D02*
X369Y788D01*
X398Y788D02*
X401Y788D01*
X407Y788D02*
X410Y788D01*
X416Y788D02*
X421Y788D01*
X17Y787D02*
X37Y787D01*
X337Y787D02*
X340Y787D01*
X345Y787D02*
X351Y787D01*
X366Y787D02*
X369Y787D01*
X398Y787D02*
X401Y787D01*
X407Y787D02*
X420Y787D01*
X17Y786D02*
X37Y786D01*
X337Y786D02*
X340Y786D01*
X344Y786D02*
X350Y786D01*
X366Y786D02*
X369Y786D01*
X398Y786D02*
X401Y786D01*
X407Y786D02*
X419Y786D01*
X17Y785D02*
X19Y785D01*
X26Y785D02*
X28Y785D01*
X35Y785D02*
X37Y785D01*
X337Y785D02*
X341Y785D01*
X343Y785D02*
X349Y785D01*
X365Y785D02*
X369Y785D01*
X398Y785D02*
X401Y785D01*
X407Y785D02*
X418Y785D01*
X17Y784D02*
X19Y784D01*
X26Y784D02*
X28Y784D01*
X35Y784D02*
X37Y784D01*
X337Y784D02*
X347Y784D01*
X363Y784D02*
X369Y784D01*
X398Y784D02*
X401Y784D01*
X407Y784D02*
X417Y784D01*
X17Y783D02*
X19Y783D01*
X26Y783D02*
X28Y783D01*
X35Y783D02*
X37Y783D01*
X338Y783D02*
X346Y783D01*
X362Y783D02*
X368Y783D01*
X400Y783D02*
X400Y783D01*
X409Y783D02*
X415Y783D01*
X17Y782D02*
X19Y782D01*
X26Y782D02*
X28Y782D01*
X35Y782D02*
X37Y782D01*
X338Y782D02*
X345Y782D01*
X362Y782D02*
X367Y782D01*
X17Y781D02*
X19Y781D01*
X27Y781D02*
X28Y781D01*
X35Y781D02*
X37Y781D01*
X340Y781D02*
X343Y781D01*
X363Y781D02*
X366Y781D01*
X17Y780D02*
X19Y780D01*
X35Y780D02*
X37Y780D01*
X17Y779D02*
X19Y779D01*
X35Y779D02*
X37Y779D01*
X17Y778D02*
X19Y778D01*
X35Y778D02*
X37Y778D01*
X17Y777D02*
X19Y777D01*
X35Y777D02*
X37Y777D01*
X17Y776D02*
X19Y776D01*
X36Y776D02*
X37Y776D01*
X398Y773D02*
X430Y773D01*
X398Y772D02*
X430Y772D01*
X398Y771D02*
X430Y771D01*
X342Y770D02*
X355Y770D01*
X398Y770D02*
X430Y770D01*
X341Y769D02*
X357Y769D01*
X398Y769D02*
X402Y769D01*
X412Y769D02*
X416Y769D01*
X427Y769D02*
X430Y769D01*
X340Y768D02*
X358Y768D01*
X398Y768D02*
X401Y768D01*
X413Y768D02*
X416Y768D01*
X427Y768D02*
X430Y768D01*
X17Y767D02*
X18Y767D01*
X36Y767D02*
X37Y767D01*
X339Y767D02*
X359Y767D01*
X398Y767D02*
X401Y767D01*
X413Y767D02*
X416Y767D01*
X427Y767D02*
X430Y767D01*
X17Y766D02*
X19Y766D01*
X35Y766D02*
X37Y766D01*
X338Y766D02*
X343Y766D01*
X346Y766D02*
X349Y766D01*
X355Y766D02*
X359Y766D01*
X398Y766D02*
X401Y766D01*
X413Y766D02*
X416Y766D01*
X427Y766D02*
X430Y766D01*
X17Y765D02*
X19Y765D01*
X35Y765D02*
X37Y765D01*
X338Y765D02*
X342Y765D01*
X346Y765D02*
X349Y765D01*
X356Y765D02*
X360Y765D01*
X398Y765D02*
X401Y765D01*
X413Y765D02*
X416Y765D01*
X427Y765D02*
X430Y765D01*
X17Y764D02*
X19Y764D01*
X35Y764D02*
X37Y764D01*
X337Y764D02*
X341Y764D01*
X346Y764D02*
X349Y764D01*
X356Y764D02*
X360Y764D01*
X398Y764D02*
X401Y764D01*
X413Y764D02*
X416Y764D01*
X427Y764D02*
X430Y764D01*
X17Y763D02*
X37Y763D01*
X337Y763D02*
X340Y763D01*
X346Y763D02*
X349Y763D01*
X357Y763D02*
X360Y763D01*
X398Y763D02*
X401Y763D01*
X413Y763D02*
X416Y763D01*
X427Y763D02*
X430Y763D01*
X17Y762D02*
X37Y762D01*
X337Y762D02*
X340Y762D01*
X346Y762D02*
X349Y762D01*
X357Y762D02*
X360Y762D01*
X398Y762D02*
X401Y762D01*
X413Y762D02*
X416Y762D01*
X427Y762D02*
X430Y762D01*
X17Y761D02*
X36Y761D01*
X337Y761D02*
X340Y761D01*
X346Y761D02*
X349Y761D01*
X357Y761D02*
X360Y761D01*
X398Y761D02*
X401Y761D01*
X413Y761D02*
X416Y761D01*
X427Y761D02*
X430Y761D01*
X17Y760D02*
X19Y760D01*
X337Y760D02*
X340Y760D01*
X346Y760D02*
X349Y760D01*
X357Y760D02*
X360Y760D01*
X398Y760D02*
X402Y760D01*
X412Y760D02*
X416Y760D01*
X427Y760D02*
X430Y760D01*
X17Y759D02*
X19Y759D01*
X337Y759D02*
X340Y759D01*
X346Y759D02*
X349Y759D01*
X357Y759D02*
X360Y759D01*
X398Y759D02*
X402Y759D01*
X412Y759D02*
X416Y759D01*
X427Y759D02*
X430Y759D01*
X17Y758D02*
X19Y758D01*
X337Y758D02*
X340Y758D01*
X346Y758D02*
X349Y758D01*
X357Y758D02*
X360Y758D01*
X399Y758D02*
X403Y758D01*
X411Y758D02*
X417Y758D01*
X426Y758D02*
X430Y758D01*
X18Y757D02*
X18Y757D01*
X337Y757D02*
X340Y757D01*
X346Y757D02*
X349Y757D01*
X357Y757D02*
X360Y757D01*
X399Y757D02*
X404Y757D01*
X410Y757D02*
X418Y757D01*
X425Y757D02*
X429Y757D01*
X337Y756D02*
X340Y756D01*
X346Y756D02*
X349Y756D01*
X356Y756D02*
X360Y756D01*
X400Y756D02*
X429Y756D01*
X337Y755D02*
X340Y755D01*
X346Y755D02*
X349Y755D01*
X356Y755D02*
X360Y755D01*
X400Y755D02*
X428Y755D01*
X337Y754D02*
X340Y754D01*
X346Y754D02*
X350Y754D01*
X354Y754D02*
X359Y754D01*
X401Y754D02*
X412Y754D01*
X416Y754D02*
X427Y754D01*
X657Y754D02*
X659Y754D01*
X337Y753D02*
X340Y753D01*
X346Y753D02*
X358Y753D01*
X403Y753D02*
X411Y753D01*
X417Y753D02*
X425Y753D01*
X655Y753D02*
X660Y753D01*
X337Y752D02*
X340Y752D01*
X346Y752D02*
X357Y752D01*
X654Y752D02*
X660Y752D01*
X337Y751D02*
X340Y751D01*
X346Y751D02*
X356Y751D01*
X653Y751D02*
X660Y751D01*
X338Y750D02*
X339Y750D01*
X347Y750D02*
X354Y750D01*
X652Y750D02*
X658Y750D01*
X20Y749D02*
X28Y749D01*
X652Y749D02*
X655Y749D01*
X19Y748D02*
X30Y748D01*
X652Y748D02*
X655Y748D01*
X18Y747D02*
X30Y747D01*
X652Y747D02*
X655Y747D01*
X17Y746D02*
X20Y746D01*
X23Y746D02*
X24Y746D01*
X29Y746D02*
X31Y746D01*
X652Y746D02*
X655Y746D01*
X17Y745D02*
X19Y745D01*
X23Y745D02*
X24Y745D01*
X29Y745D02*
X31Y745D01*
X652Y745D02*
X655Y745D01*
X17Y744D02*
X19Y744D01*
X23Y744D02*
X24Y744D01*
X30Y744D02*
X31Y744D01*
X652Y744D02*
X656Y744D01*
X17Y743D02*
X19Y743D01*
X23Y743D02*
X24Y743D01*
X30Y743D02*
X31Y743D01*
X652Y743D02*
X656Y743D01*
X17Y742D02*
X19Y742D01*
X23Y742D02*
X24Y742D01*
X30Y742D02*
X31Y742D01*
X653Y742D02*
X657Y742D01*
X17Y741D02*
X19Y741D01*
X23Y741D02*
X24Y741D01*
X30Y741D02*
X31Y741D01*
X654Y741D02*
X658Y741D01*
X17Y740D02*
X19Y740D01*
X23Y740D02*
X24Y740D01*
X29Y740D02*
X31Y740D01*
X399Y740D02*
X401Y740D01*
X419Y740D02*
X421Y740D01*
X654Y740D02*
X659Y740D01*
X17Y739D02*
X19Y739D01*
X23Y739D02*
X25Y739D01*
X28Y739D02*
X31Y739D01*
X338Y739D02*
X360Y739D01*
X398Y739D02*
X401Y739D01*
X418Y739D02*
X421Y739D01*
X655Y739D02*
X660Y739D01*
X17Y738D02*
X19Y738D01*
X23Y738D02*
X30Y738D01*
X337Y738D02*
X360Y738D01*
X398Y738D02*
X401Y738D01*
X418Y738D02*
X421Y738D01*
X656Y738D02*
X661Y738D01*
X17Y737D02*
X19Y737D01*
X23Y737D02*
X29Y737D01*
X337Y737D02*
X360Y737D01*
X398Y737D02*
X401Y737D01*
X418Y737D02*
X421Y737D01*
X653Y737D02*
X674Y737D01*
X24Y736D02*
X27Y736D01*
X338Y736D02*
X359Y736D01*
X398Y736D02*
X401Y736D01*
X418Y736D02*
X421Y736D01*
X428Y736D02*
X431Y736D01*
X652Y736D02*
X674Y736D01*
X353Y735D02*
X357Y735D01*
X398Y735D02*
X401Y735D01*
X418Y735D02*
X421Y735D01*
X427Y735D02*
X432Y735D01*
X652Y735D02*
X674Y735D01*
X354Y734D02*
X358Y734D01*
X398Y734D02*
X421Y734D01*
X427Y734D02*
X432Y734D01*
X653Y734D02*
X674Y734D01*
X354Y733D02*
X358Y733D01*
X398Y733D02*
X421Y733D01*
X427Y733D02*
X432Y733D01*
X355Y732D02*
X359Y732D01*
X398Y732D02*
X421Y732D01*
X427Y732D02*
X432Y732D01*
X356Y731D02*
X359Y731D01*
X398Y731D02*
X421Y731D01*
X427Y731D02*
X432Y731D01*
X356Y730D02*
X360Y730D01*
X398Y730D02*
X419Y730D01*
X429Y730D02*
X430Y730D01*
X21Y729D02*
X28Y729D01*
X357Y729D02*
X360Y729D01*
X398Y729D02*
X401Y729D01*
X20Y728D02*
X29Y728D01*
X357Y728D02*
X360Y728D01*
X398Y728D02*
X401Y728D01*
X19Y727D02*
X22Y727D01*
X27Y727D02*
X30Y727D01*
X357Y727D02*
X360Y727D01*
X398Y727D02*
X401Y727D01*
X18Y726D02*
X20Y726D01*
X28Y726D02*
X31Y726D01*
X357Y726D02*
X360Y726D01*
X398Y726D02*
X401Y726D01*
X17Y725D02*
X20Y725D01*
X29Y725D02*
X31Y725D01*
X357Y725D02*
X360Y725D01*
X398Y725D02*
X401Y725D01*
X17Y724D02*
X19Y724D01*
X29Y724D02*
X31Y724D01*
X356Y724D02*
X360Y724D01*
X399Y724D02*
X400Y724D01*
X658Y724D02*
X669Y724D01*
X17Y723D02*
X19Y723D01*
X30Y723D02*
X31Y723D01*
X338Y723D02*
X359Y723D01*
X656Y723D02*
X671Y723D01*
X17Y722D02*
X19Y722D01*
X30Y722D02*
X31Y722D01*
X337Y722D02*
X359Y722D01*
X655Y722D02*
X672Y722D01*
X17Y721D02*
X19Y721D01*
X30Y721D02*
X31Y721D01*
X337Y721D02*
X358Y721D01*
X654Y721D02*
X673Y721D01*
X17Y720D02*
X19Y720D01*
X30Y720D02*
X31Y720D01*
X338Y720D02*
X356Y720D01*
X653Y720D02*
X673Y720D01*
X17Y719D02*
X19Y719D01*
X30Y719D02*
X31Y719D01*
X652Y719D02*
X657Y719D01*
X670Y719D02*
X674Y719D01*
X17Y718D02*
X19Y718D01*
X30Y718D02*
X31Y718D01*
X652Y718D02*
X656Y718D01*
X671Y718D02*
X674Y718D01*
X17Y717D02*
X18Y717D01*
X30Y717D02*
X31Y717D01*
X652Y717D02*
X655Y717D01*
X671Y717D02*
X674Y717D01*
X652Y716D02*
X655Y716D01*
X671Y716D02*
X675Y716D01*
X652Y715D02*
X655Y715D01*
X671Y715D02*
X675Y715D01*
X652Y714D02*
X655Y714D01*
X671Y714D02*
X675Y714D01*
X652Y713D02*
X655Y713D01*
X671Y713D02*
X675Y713D01*
X652Y712D02*
X655Y712D01*
X671Y712D02*
X675Y712D01*
X418Y711D02*
X421Y711D01*
X652Y711D02*
X655Y711D01*
X671Y711D02*
X675Y711D01*
X30Y710D02*
X31Y710D01*
X418Y710D02*
X421Y710D01*
X652Y710D02*
X656Y710D01*
X671Y710D02*
X674Y710D01*
X30Y709D02*
X31Y709D01*
X340Y709D02*
X341Y709D01*
X418Y709D02*
X421Y709D01*
X652Y709D02*
X656Y709D01*
X670Y709D02*
X674Y709D01*
X30Y708D02*
X31Y708D01*
X339Y708D02*
X342Y708D01*
X353Y708D02*
X357Y708D01*
X418Y708D02*
X421Y708D01*
X653Y708D02*
X657Y708D01*
X669Y708D02*
X674Y708D01*
X19Y707D02*
X36Y707D01*
X338Y707D02*
X342Y707D01*
X352Y707D02*
X359Y707D01*
X402Y707D02*
X428Y707D01*
X654Y707D02*
X673Y707D01*
X18Y706D02*
X36Y706D01*
X338Y706D02*
X342Y706D01*
X351Y706D02*
X359Y706D01*
X400Y706D02*
X428Y706D01*
X654Y706D02*
X672Y706D01*
X17Y705D02*
X35Y705D01*
X338Y705D02*
X341Y705D01*
X350Y705D02*
X360Y705D01*
X399Y705D02*
X428Y705D01*
X655Y705D02*
X671Y705D01*
X17Y704D02*
X19Y704D01*
X30Y704D02*
X31Y704D01*
X337Y704D02*
X341Y704D01*
X350Y704D02*
X354Y704D01*
X357Y704D02*
X360Y704D01*
X399Y704D02*
X428Y704D01*
X657Y704D02*
X670Y704D01*
X17Y703D02*
X19Y703D01*
X30Y703D02*
X31Y703D01*
X337Y703D02*
X340Y703D01*
X350Y703D02*
X353Y703D01*
X357Y703D02*
X360Y703D01*
X398Y703D02*
X402Y703D01*
X418Y703D02*
X421Y703D01*
X17Y702D02*
X19Y702D01*
X30Y702D02*
X31Y702D01*
X337Y702D02*
X340Y702D01*
X349Y702D02*
X353Y702D01*
X357Y702D02*
X360Y702D01*
X398Y702D02*
X401Y702D01*
X418Y702D02*
X421Y702D01*
X17Y701D02*
X19Y701D01*
X30Y701D02*
X31Y701D01*
X337Y701D02*
X340Y701D01*
X349Y701D02*
X352Y701D01*
X357Y701D02*
X360Y701D01*
X398Y701D02*
X401Y701D01*
X418Y701D02*
X421Y701D01*
X17Y700D02*
X19Y700D01*
X30Y700D02*
X31Y700D01*
X337Y700D02*
X340Y700D01*
X348Y700D02*
X352Y700D01*
X357Y700D02*
X360Y700D01*
X398Y700D02*
X401Y700D01*
X418Y700D02*
X421Y700D01*
X17Y699D02*
X21Y699D01*
X30Y699D02*
X31Y699D01*
X337Y699D02*
X340Y699D01*
X348Y699D02*
X352Y699D01*
X357Y699D02*
X360Y699D01*
X398Y699D02*
X401Y699D01*
X418Y699D02*
X421Y699D01*
X18Y698D02*
X21Y698D01*
X337Y698D02*
X340Y698D01*
X347Y698D02*
X351Y698D01*
X357Y698D02*
X360Y698D01*
X398Y698D02*
X401Y698D01*
X418Y698D02*
X421Y698D01*
X20Y697D02*
X20Y697D01*
X337Y697D02*
X340Y697D01*
X347Y697D02*
X351Y697D01*
X357Y697D02*
X360Y697D01*
X398Y697D02*
X401Y697D01*
X418Y697D02*
X421Y697D01*
X337Y696D02*
X340Y696D01*
X347Y696D02*
X350Y696D01*
X357Y696D02*
X360Y696D01*
X398Y696D02*
X402Y696D01*
X418Y696D02*
X421Y696D01*
X337Y695D02*
X340Y695D01*
X346Y695D02*
X350Y695D01*
X357Y695D02*
X360Y695D01*
X399Y695D02*
X403Y695D01*
X418Y695D02*
X421Y695D01*
X337Y694D02*
X341Y694D01*
X346Y694D02*
X349Y694D01*
X357Y694D02*
X360Y694D01*
X399Y694D02*
X405Y694D01*
X418Y694D02*
X421Y694D01*
X668Y694D02*
X670Y694D01*
X337Y693D02*
X342Y693D01*
X345Y693D02*
X349Y693D01*
X356Y693D02*
X360Y693D01*
X400Y693D02*
X405Y693D01*
X654Y693D02*
X656Y693D01*
X666Y693D02*
X672Y693D01*
X338Y692D02*
X348Y692D01*
X356Y692D02*
X360Y692D01*
X401Y692D02*
X405Y692D01*
X653Y692D02*
X657Y692D01*
X664Y692D02*
X673Y692D01*
X339Y691D02*
X348Y691D01*
X355Y691D02*
X359Y691D01*
X403Y691D02*
X404Y691D01*
X653Y691D02*
X657Y691D01*
X664Y691D02*
X674Y691D01*
X17Y690D02*
X31Y690D01*
X340Y690D02*
X347Y690D01*
X355Y690D02*
X358Y690D01*
X652Y690D02*
X656Y690D01*
X663Y690D02*
X674Y690D01*
X17Y689D02*
X31Y689D01*
X341Y689D02*
X345Y689D01*
X356Y689D02*
X357Y689D01*
X652Y689D02*
X655Y689D01*
X663Y689D02*
X666Y689D01*
X671Y689D02*
X674Y689D01*
X25Y688D02*
X29Y688D01*
X652Y688D02*
X655Y688D01*
X662Y688D02*
X666Y688D01*
X671Y688D02*
X675Y688D01*
X27Y687D02*
X29Y687D01*
X652Y687D02*
X655Y687D01*
X662Y687D02*
X665Y687D01*
X671Y687D02*
X675Y687D01*
X27Y686D02*
X30Y686D01*
X652Y686D02*
X655Y686D01*
X661Y686D02*
X665Y686D01*
X671Y686D02*
X675Y686D01*
X28Y685D02*
X31Y685D01*
X652Y685D02*
X655Y685D01*
X661Y685D02*
X665Y685D01*
X671Y685D02*
X675Y685D01*
X29Y684D02*
X31Y684D01*
X652Y684D02*
X655Y684D01*
X661Y684D02*
X664Y684D01*
X671Y684D02*
X675Y684D01*
X30Y683D02*
X31Y683D01*
X652Y683D02*
X655Y683D01*
X660Y683D02*
X664Y683D01*
X671Y683D02*
X675Y683D01*
X30Y682D02*
X31Y682D01*
X652Y682D02*
X655Y682D01*
X660Y682D02*
X663Y682D01*
X671Y682D02*
X675Y682D01*
X30Y681D02*
X31Y681D01*
X401Y681D02*
X402Y681D01*
X652Y681D02*
X655Y681D01*
X659Y681D02*
X663Y681D01*
X671Y681D02*
X675Y681D01*
X28Y680D02*
X31Y680D01*
X400Y680D02*
X403Y680D01*
X414Y680D02*
X419Y680D01*
X652Y680D02*
X655Y680D01*
X659Y680D02*
X662Y680D01*
X671Y680D02*
X675Y680D01*
X26Y679D02*
X31Y679D01*
X399Y679D02*
X403Y679D01*
X413Y679D02*
X420Y679D01*
X652Y679D02*
X655Y679D01*
X658Y679D02*
X662Y679D01*
X671Y679D02*
X674Y679D01*
X26Y678D02*
X30Y678D01*
X342Y678D02*
X355Y678D01*
X399Y678D02*
X403Y678D01*
X412Y678D02*
X421Y678D01*
X652Y678D02*
X662Y678D01*
X671Y678D02*
X674Y678D01*
X341Y677D02*
X357Y677D01*
X398Y677D02*
X402Y677D01*
X412Y677D02*
X421Y677D01*
X652Y677D02*
X661Y677D01*
X670Y677D02*
X674Y677D01*
X340Y676D02*
X358Y676D01*
X398Y676D02*
X402Y676D01*
X411Y676D02*
X415Y676D01*
X418Y676D02*
X421Y676D01*
X653Y676D02*
X660Y676D01*
X670Y676D02*
X674Y676D01*
X680Y676D02*
X681Y676D01*
X339Y675D02*
X359Y675D01*
X398Y675D02*
X401Y675D01*
X411Y675D02*
X414Y675D01*
X418Y675D02*
X421Y675D01*
X654Y675D02*
X659Y675D01*
X670Y675D02*
X673Y675D01*
X680Y675D02*
X682Y675D01*
X338Y674D02*
X343Y674D01*
X355Y674D02*
X359Y674D01*
X398Y674D02*
X401Y674D01*
X410Y674D02*
X414Y674D01*
X418Y674D02*
X421Y674D01*
X670Y674D02*
X672Y674D01*
X680Y674D02*
X682Y674D01*
X338Y673D02*
X342Y673D01*
X356Y673D02*
X360Y673D01*
X398Y673D02*
X401Y673D01*
X410Y673D02*
X413Y673D01*
X418Y673D02*
X421Y673D01*
X680Y673D02*
X682Y673D01*
X337Y672D02*
X341Y672D01*
X356Y672D02*
X360Y672D01*
X398Y672D02*
X401Y672D01*
X409Y672D02*
X413Y672D01*
X418Y672D02*
X421Y672D01*
X680Y672D02*
X682Y672D01*
X21Y671D02*
X28Y671D01*
X337Y671D02*
X341Y671D01*
X357Y671D02*
X360Y671D01*
X398Y671D02*
X401Y671D01*
X409Y671D02*
X413Y671D01*
X418Y671D02*
X421Y671D01*
X675Y671D02*
X686Y671D01*
X19Y670D02*
X29Y670D01*
X337Y670D02*
X340Y670D01*
X357Y670D02*
X360Y670D01*
X398Y670D02*
X401Y670D01*
X408Y670D02*
X412Y670D01*
X418Y670D02*
X421Y670D01*
X675Y670D02*
X687Y670D01*
X18Y669D02*
X30Y669D01*
X337Y669D02*
X340Y669D01*
X357Y669D02*
X360Y669D01*
X398Y669D02*
X401Y669D01*
X408Y669D02*
X412Y669D01*
X418Y669D02*
X421Y669D01*
X675Y669D02*
X686Y669D01*
X17Y668D02*
X20Y668D01*
X28Y668D02*
X31Y668D01*
X337Y668D02*
X340Y668D01*
X357Y668D02*
X360Y668D01*
X398Y668D02*
X401Y668D01*
X408Y668D02*
X411Y668D01*
X418Y668D02*
X421Y668D01*
X680Y668D02*
X682Y668D01*
X17Y667D02*
X19Y667D01*
X29Y667D02*
X31Y667D01*
X337Y667D02*
X340Y667D01*
X357Y667D02*
X360Y667D01*
X398Y667D02*
X401Y667D01*
X407Y667D02*
X411Y667D01*
X418Y667D02*
X421Y667D01*
X680Y667D02*
X682Y667D01*
X17Y666D02*
X19Y666D01*
X30Y666D02*
X31Y666D01*
X337Y666D02*
X340Y666D01*
X357Y666D02*
X360Y666D01*
X398Y666D02*
X402Y666D01*
X407Y666D02*
X410Y666D01*
X418Y666D02*
X421Y666D01*
X680Y666D02*
X682Y666D01*
X17Y665D02*
X19Y665D01*
X30Y665D02*
X31Y665D01*
X337Y665D02*
X341Y665D01*
X357Y665D02*
X360Y665D01*
X398Y665D02*
X402Y665D01*
X406Y665D02*
X410Y665D01*
X417Y665D02*
X421Y665D01*
X680Y665D02*
X682Y665D01*
X17Y664D02*
X19Y664D01*
X30Y664D02*
X31Y664D01*
X337Y664D02*
X341Y664D01*
X356Y664D02*
X360Y664D01*
X399Y664D02*
X410Y664D01*
X417Y664D02*
X421Y664D01*
X668Y664D02*
X673Y664D01*
X680Y664D02*
X681Y664D01*
X17Y663D02*
X19Y663D01*
X30Y663D02*
X31Y663D01*
X338Y663D02*
X342Y663D01*
X356Y663D02*
X360Y663D01*
X399Y663D02*
X409Y663D01*
X416Y663D02*
X420Y663D01*
X655Y663D02*
X674Y663D01*
X17Y662D02*
X19Y662D01*
X29Y662D02*
X31Y662D01*
X338Y662D02*
X343Y662D01*
X354Y662D02*
X359Y662D01*
X400Y662D02*
X408Y662D01*
X416Y662D02*
X420Y662D01*
X654Y662D02*
X675Y662D01*
X17Y661D02*
X20Y661D01*
X29Y661D02*
X31Y661D01*
X339Y661D02*
X358Y661D01*
X402Y661D02*
X407Y661D01*
X417Y661D02*
X418Y661D01*
X653Y661D02*
X674Y661D01*
X18Y660D02*
X30Y660D01*
X340Y660D02*
X357Y660D01*
X653Y660D02*
X672Y660D01*
X19Y659D02*
X29Y659D01*
X341Y659D02*
X356Y659D01*
X652Y659D02*
X656Y659D01*
X20Y658D02*
X28Y658D01*
X343Y658D02*
X355Y658D01*
X652Y658D02*
X655Y658D01*
X652Y657D02*
X655Y657D01*
X652Y656D02*
X655Y656D01*
X652Y655D02*
X655Y655D01*
X652Y654D02*
X655Y654D01*
X652Y653D02*
X656Y653D01*
X653Y652D02*
X657Y652D01*
X17Y651D02*
X31Y651D01*
X653Y651D02*
X657Y651D01*
X17Y650D02*
X31Y650D01*
X654Y650D02*
X658Y650D01*
X18Y649D02*
X30Y649D01*
X655Y649D02*
X659Y649D01*
X27Y648D02*
X30Y648D01*
X655Y648D02*
X659Y648D01*
X28Y647D02*
X30Y647D01*
X338Y647D02*
X360Y647D01*
X653Y647D02*
X674Y647D01*
X29Y646D02*
X31Y646D01*
X337Y646D02*
X360Y646D01*
X652Y646D02*
X674Y646D01*
X29Y645D02*
X31Y645D01*
X337Y645D02*
X360Y645D01*
X652Y645D02*
X674Y645D01*
X30Y644D02*
X31Y644D01*
X338Y644D02*
X359Y644D01*
X653Y644D02*
X674Y644D01*
X30Y643D02*
X31Y643D01*
X351Y643D02*
X356Y643D01*
X29Y642D02*
X31Y642D01*
X352Y642D02*
X357Y642D01*
X22Y641D02*
X31Y641D01*
X353Y641D02*
X358Y641D01*
X17Y640D02*
X30Y640D01*
X354Y640D02*
X359Y640D01*
X17Y639D02*
X29Y639D01*
X355Y639D02*
X360Y639D01*
X356Y638D02*
X360Y638D01*
X357Y637D02*
X360Y637D01*
X357Y636D02*
X360Y636D01*
X357Y635D02*
X360Y635D01*
X357Y634D02*
X360Y634D01*
X658Y634D02*
X664Y634D01*
X673Y634D02*
X673Y634D01*
X357Y633D02*
X360Y633D01*
X656Y633D02*
X665Y633D01*
X672Y633D02*
X674Y633D01*
X356Y632D02*
X360Y632D01*
X655Y632D02*
X666Y632D01*
X671Y632D02*
X675Y632D01*
X353Y631D02*
X360Y631D01*
X654Y631D02*
X666Y631D01*
X671Y631D02*
X675Y631D01*
X352Y630D02*
X359Y630D01*
X653Y630D02*
X666Y630D01*
X671Y630D02*
X675Y630D01*
X352Y629D02*
X358Y629D01*
X652Y629D02*
X657Y629D01*
X663Y629D02*
X666Y629D01*
X671Y629D02*
X675Y629D01*
X352Y628D02*
X357Y628D01*
X652Y628D02*
X656Y628D01*
X663Y628D02*
X666Y628D01*
X671Y628D02*
X675Y628D01*
X354Y627D02*
X354Y627D01*
X652Y627D02*
X655Y627D01*
X663Y627D02*
X666Y627D01*
X671Y627D02*
X675Y627D01*
X652Y626D02*
X655Y626D01*
X663Y626D02*
X666Y626D01*
X671Y626D02*
X675Y626D01*
X652Y625D02*
X655Y625D01*
X663Y625D02*
X666Y625D01*
X671Y625D02*
X675Y625D01*
X652Y624D02*
X655Y624D01*
X663Y624D02*
X666Y624D01*
X671Y624D02*
X675Y624D01*
X652Y623D02*
X655Y623D01*
X663Y623D02*
X666Y623D01*
X671Y623D02*
X675Y623D01*
X652Y622D02*
X655Y622D01*
X663Y622D02*
X666Y622D01*
X671Y622D02*
X675Y622D01*
X652Y621D02*
X655Y621D01*
X663Y621D02*
X666Y621D01*
X671Y621D02*
X675Y621D01*
X400Y620D02*
X430Y620D01*
X652Y620D02*
X656Y620D01*
X663Y620D02*
X666Y620D01*
X671Y620D02*
X674Y620D01*
X398Y619D02*
X430Y619D01*
X652Y619D02*
X656Y619D01*
X663Y619D02*
X666Y619D01*
X670Y619D02*
X674Y619D01*
X398Y618D02*
X430Y618D01*
X653Y618D02*
X657Y618D01*
X662Y618D02*
X666Y618D01*
X669Y618D02*
X674Y618D01*
X398Y617D02*
X430Y617D01*
X654Y617D02*
X673Y617D01*
X399Y616D02*
X430Y616D01*
X654Y616D02*
X672Y616D01*
X416Y615D02*
X419Y615D01*
X427Y615D02*
X430Y615D01*
X655Y615D02*
X671Y615D01*
X416Y614D02*
X419Y614D01*
X427Y614D02*
X430Y614D01*
X657Y614D02*
X670Y614D01*
X416Y613D02*
X419Y613D01*
X427Y613D02*
X430Y613D01*
X19Y612D02*
X23Y612D01*
X29Y612D02*
X33Y612D01*
X415Y612D02*
X419Y612D01*
X427Y612D02*
X430Y612D01*
X18Y611D02*
X24Y611D01*
X28Y611D02*
X34Y611D01*
X413Y611D02*
X419Y611D01*
X427Y611D02*
X430Y611D01*
X17Y610D02*
X25Y610D01*
X27Y610D02*
X34Y610D01*
X411Y610D02*
X419Y610D01*
X427Y610D02*
X430Y610D01*
X17Y609D02*
X19Y609D01*
X23Y609D02*
X29Y609D01*
X33Y609D02*
X35Y609D01*
X410Y609D02*
X419Y609D01*
X427Y609D02*
X430Y609D01*
X17Y608D02*
X19Y608D01*
X24Y608D02*
X27Y608D01*
X33Y608D02*
X35Y608D01*
X408Y608D02*
X419Y608D01*
X427Y608D02*
X430Y608D01*
X17Y607D02*
X19Y607D01*
X23Y607D02*
X27Y607D01*
X33Y607D02*
X35Y607D01*
X406Y607D02*
X414Y607D01*
X416Y607D02*
X419Y607D01*
X427Y607D02*
X430Y607D01*
X17Y606D02*
X19Y606D01*
X22Y606D02*
X28Y606D01*
X33Y606D02*
X35Y606D01*
X405Y606D02*
X412Y606D01*
X416Y606D02*
X419Y606D01*
X427Y606D02*
X430Y606D01*
X17Y605D02*
X24Y605D01*
X26Y605D02*
X29Y605D01*
X33Y605D02*
X35Y605D01*
X403Y605D02*
X410Y605D01*
X416Y605D02*
X419Y605D01*
X427Y605D02*
X430Y605D01*
X18Y604D02*
X23Y604D01*
X27Y604D02*
X34Y604D01*
X401Y604D02*
X409Y604D01*
X416Y604D02*
X420Y604D01*
X426Y604D02*
X430Y604D01*
X647Y604D02*
X648Y604D01*
X670Y604D02*
X671Y604D01*
X19Y603D02*
X22Y603D01*
X28Y603D02*
X34Y603D01*
X399Y603D02*
X407Y603D01*
X417Y603D02*
X430Y603D01*
X645Y603D02*
X650Y603D01*
X668Y603D02*
X673Y603D01*
X18Y602D02*
X22Y602D01*
X29Y602D02*
X32Y602D01*
X398Y602D02*
X405Y602D01*
X417Y602D02*
X429Y602D01*
X644Y602D02*
X650Y602D01*
X666Y602D02*
X674Y602D01*
X17Y601D02*
X23Y601D01*
X398Y601D02*
X404Y601D01*
X418Y601D02*
X429Y601D01*
X644Y601D02*
X649Y601D01*
X665Y601D02*
X674Y601D01*
X17Y600D02*
X19Y600D01*
X21Y600D02*
X23Y600D01*
X398Y600D02*
X402Y600D01*
X419Y600D02*
X427Y600D01*
X643Y600D02*
X648Y600D01*
X664Y600D02*
X674Y600D01*
X399Y599D02*
X400Y599D01*
X421Y599D02*
X425Y599D01*
X643Y599D02*
X646Y599D01*
X663Y599D02*
X669Y599D01*
X671Y599D02*
X675Y599D01*
X643Y598D02*
X646Y598D01*
X661Y598D02*
X667Y598D01*
X671Y598D02*
X675Y598D01*
X643Y597D02*
X646Y597D01*
X660Y597D02*
X666Y597D01*
X671Y597D02*
X675Y597D01*
X643Y596D02*
X646Y596D01*
X659Y596D02*
X665Y596D01*
X671Y596D02*
X675Y596D01*
X643Y595D02*
X646Y595D01*
X657Y595D02*
X663Y595D01*
X671Y595D02*
X675Y595D01*
X643Y594D02*
X646Y594D01*
X656Y594D02*
X662Y594D01*
X671Y594D02*
X675Y594D01*
X643Y593D02*
X646Y593D01*
X655Y593D02*
X661Y593D01*
X671Y593D02*
X675Y593D01*
X643Y592D02*
X646Y592D01*
X654Y592D02*
X660Y592D01*
X671Y592D02*
X675Y592D01*
X643Y591D02*
X646Y591D01*
X652Y591D02*
X658Y591D01*
X671Y591D02*
X675Y591D01*
X643Y590D02*
X646Y590D01*
X651Y590D02*
X657Y590D01*
X671Y590D02*
X675Y590D01*
X402Y589D02*
X408Y589D01*
X643Y589D02*
X646Y589D01*
X650Y589D02*
X656Y589D01*
X671Y589D02*
X675Y589D01*
X401Y588D02*
X410Y588D01*
X643Y588D02*
X646Y588D01*
X648Y588D02*
X654Y588D01*
X671Y588D02*
X674Y588D01*
X400Y587D02*
X411Y587D01*
X643Y587D02*
X653Y587D01*
X668Y587D02*
X674Y587D01*
X399Y586D02*
X411Y586D01*
X644Y586D02*
X652Y586D01*
X668Y586D02*
X674Y586D01*
X398Y585D02*
X403Y585D01*
X407Y585D02*
X412Y585D01*
X419Y585D02*
X420Y585D01*
X644Y585D02*
X650Y585D01*
X668Y585D02*
X673Y585D01*
X686Y585D02*
X688Y585D01*
X398Y584D02*
X402Y584D01*
X409Y584D02*
X412Y584D01*
X418Y584D02*
X421Y584D01*
X646Y584D02*
X649Y584D01*
X669Y584D02*
X671Y584D01*
X685Y584D02*
X688Y584D01*
X398Y583D02*
X401Y583D01*
X409Y583D02*
X412Y583D01*
X418Y583D02*
X421Y583D01*
X685Y583D02*
X688Y583D01*
X398Y582D02*
X401Y582D01*
X409Y582D02*
X412Y582D01*
X418Y582D02*
X421Y582D01*
X685Y582D02*
X688Y582D01*
X398Y581D02*
X401Y581D01*
X409Y581D02*
X412Y581D01*
X418Y581D02*
X421Y581D01*
X685Y581D02*
X688Y581D01*
X398Y580D02*
X401Y580D01*
X409Y580D02*
X412Y580D01*
X418Y580D02*
X421Y580D01*
X685Y580D02*
X688Y580D01*
X398Y579D02*
X401Y579D01*
X409Y579D02*
X412Y579D01*
X418Y579D02*
X421Y579D01*
X685Y579D02*
X688Y579D01*
X398Y578D02*
X401Y578D01*
X409Y578D02*
X412Y578D01*
X418Y578D02*
X421Y578D01*
X685Y578D02*
X688Y578D01*
X398Y577D02*
X402Y577D01*
X409Y577D02*
X412Y577D01*
X418Y577D02*
X421Y577D01*
X685Y577D02*
X688Y577D01*
X398Y576D02*
X402Y576D01*
X409Y576D02*
X412Y576D01*
X418Y576D02*
X421Y576D01*
X685Y576D02*
X688Y576D01*
X399Y575D02*
X403Y575D01*
X409Y575D02*
X412Y575D01*
X418Y575D02*
X421Y575D01*
X685Y575D02*
X688Y575D01*
X399Y574D02*
X403Y574D01*
X409Y574D02*
X412Y574D01*
X418Y574D02*
X421Y574D01*
X685Y574D02*
X688Y574D01*
X18Y573D02*
X37Y573D01*
X400Y573D02*
X404Y573D01*
X408Y573D02*
X412Y573D01*
X415Y573D02*
X421Y573D01*
X685Y573D02*
X688Y573D01*
X17Y572D02*
X37Y572D01*
X399Y572D02*
X420Y572D01*
X686Y572D02*
X687Y572D01*
X18Y571D02*
X37Y571D01*
X398Y571D02*
X420Y571D01*
X25Y570D02*
X27Y570D01*
X35Y570D02*
X37Y570D01*
X398Y570D02*
X419Y570D01*
X25Y569D02*
X27Y569D01*
X35Y569D02*
X37Y569D01*
X399Y569D02*
X417Y569D01*
X25Y568D02*
X27Y568D01*
X35Y568D02*
X37Y568D01*
X25Y567D02*
X27Y567D01*
X35Y567D02*
X37Y567D01*
X25Y566D02*
X27Y566D01*
X35Y566D02*
X37Y566D01*
X25Y565D02*
X27Y565D01*
X35Y565D02*
X37Y565D01*
X685Y565D02*
X688Y565D01*
X25Y564D02*
X27Y564D01*
X35Y564D02*
X37Y564D01*
X685Y564D02*
X688Y564D01*
X25Y563D02*
X27Y563D01*
X35Y563D02*
X37Y563D01*
X67Y563D02*
X72Y563D01*
X83Y563D02*
X87Y563D01*
X685Y563D02*
X688Y563D01*
X26Y562D02*
X37Y562D01*
X67Y562D02*
X73Y562D01*
X82Y562D02*
X87Y562D01*
X685Y562D02*
X688Y562D01*
X26Y561D02*
X36Y561D01*
X67Y561D02*
X73Y561D01*
X81Y561D02*
X87Y561D01*
X685Y561D02*
X688Y561D01*
X29Y560D02*
X34Y560D01*
X67Y560D02*
X74Y560D01*
X81Y560D02*
X87Y560D01*
X685Y560D02*
X688Y560D01*
X67Y559D02*
X75Y559D01*
X80Y559D02*
X87Y559D01*
X685Y559D02*
X688Y559D01*
X67Y558D02*
X76Y558D01*
X79Y558D02*
X87Y558D01*
X399Y558D02*
X421Y558D01*
X685Y558D02*
X688Y558D01*
X67Y557D02*
X76Y557D01*
X79Y557D02*
X87Y557D01*
X398Y557D02*
X421Y557D01*
X685Y557D02*
X688Y557D01*
X67Y556D02*
X71Y556D01*
X73Y556D02*
X82Y556D01*
X84Y556D02*
X87Y556D01*
X398Y556D02*
X421Y556D01*
X685Y556D02*
X688Y556D01*
X67Y555D02*
X71Y555D01*
X73Y555D02*
X81Y555D01*
X84Y555D02*
X87Y555D01*
X399Y555D02*
X421Y555D01*
X685Y555D02*
X688Y555D01*
X67Y554D02*
X71Y554D01*
X74Y554D02*
X81Y554D01*
X84Y554D02*
X87Y554D01*
X103Y554D02*
X113Y554D01*
X129Y554D02*
X131Y554D01*
X145Y554D02*
X147Y554D01*
X414Y554D02*
X418Y554D01*
X685Y554D02*
X688Y554D01*
X19Y553D02*
X29Y553D01*
X67Y553D02*
X71Y553D01*
X75Y553D02*
X80Y553D01*
X84Y553D02*
X87Y553D01*
X102Y553D02*
X115Y553D01*
X129Y553D02*
X132Y553D01*
X144Y553D02*
X147Y553D01*
X414Y553D02*
X419Y553D01*
X686Y553D02*
X688Y553D01*
X18Y552D02*
X30Y552D01*
X67Y552D02*
X71Y552D01*
X75Y552D02*
X79Y552D01*
X84Y552D02*
X87Y552D01*
X102Y552D02*
X116Y552D01*
X128Y552D02*
X133Y552D01*
X143Y552D02*
X147Y552D01*
X415Y552D02*
X419Y552D01*
X18Y551D02*
X20Y551D01*
X22Y551D02*
X25Y551D01*
X28Y551D02*
X31Y551D01*
X67Y551D02*
X71Y551D01*
X76Y551D02*
X79Y551D01*
X84Y551D02*
X87Y551D01*
X102Y551D02*
X116Y551D01*
X129Y551D02*
X133Y551D01*
X142Y551D02*
X147Y551D01*
X416Y551D02*
X420Y551D01*
X17Y550D02*
X19Y550D01*
X23Y550D02*
X24Y550D01*
X29Y550D02*
X31Y550D01*
X67Y550D02*
X71Y550D01*
X76Y550D02*
X79Y550D01*
X84Y550D02*
X87Y550D01*
X113Y550D02*
X117Y550D01*
X130Y550D02*
X134Y550D01*
X142Y550D02*
X146Y550D01*
X416Y550D02*
X420Y550D01*
X17Y549D02*
X19Y549D01*
X23Y549D02*
X24Y549D01*
X30Y549D02*
X31Y549D01*
X67Y549D02*
X71Y549D01*
X77Y549D02*
X78Y549D01*
X84Y549D02*
X87Y549D01*
X114Y549D02*
X117Y549D01*
X131Y549D02*
X135Y549D01*
X141Y549D02*
X145Y549D01*
X417Y549D02*
X421Y549D01*
X17Y548D02*
X19Y548D01*
X23Y548D02*
X24Y548D01*
X30Y548D02*
X31Y548D01*
X67Y548D02*
X71Y548D01*
X84Y548D02*
X87Y548D01*
X114Y548D02*
X117Y548D01*
X131Y548D02*
X136Y548D01*
X140Y548D02*
X144Y548D01*
X418Y548D02*
X421Y548D01*
X17Y547D02*
X19Y547D01*
X23Y547D02*
X24Y547D01*
X30Y547D02*
X31Y547D01*
X67Y547D02*
X71Y547D01*
X84Y547D02*
X87Y547D01*
X114Y547D02*
X117Y547D01*
X132Y547D02*
X137Y547D01*
X139Y547D02*
X144Y547D01*
X418Y547D02*
X421Y547D01*
X17Y546D02*
X19Y546D01*
X23Y546D02*
X24Y546D01*
X30Y546D02*
X31Y546D01*
X67Y546D02*
X71Y546D01*
X84Y546D02*
X87Y546D01*
X114Y546D02*
X117Y546D01*
X133Y546D02*
X143Y546D01*
X418Y546D02*
X421Y546D01*
X17Y545D02*
X19Y545D01*
X23Y545D02*
X24Y545D01*
X30Y545D02*
X31Y545D01*
X67Y545D02*
X71Y545D01*
X84Y545D02*
X87Y545D01*
X102Y545D02*
X117Y545D01*
X134Y545D02*
X142Y545D01*
X418Y545D02*
X421Y545D01*
X17Y544D02*
X19Y544D01*
X23Y544D02*
X24Y544D01*
X29Y544D02*
X31Y544D01*
X67Y544D02*
X71Y544D01*
X84Y544D02*
X87Y544D01*
X100Y544D02*
X117Y544D01*
X135Y544D02*
X141Y544D01*
X418Y544D02*
X421Y544D01*
X17Y543D02*
X19Y543D01*
X23Y543D02*
X31Y543D01*
X67Y543D02*
X71Y543D01*
X84Y543D02*
X87Y543D01*
X99Y543D02*
X117Y543D01*
X135Y543D02*
X140Y543D01*
X417Y543D02*
X421Y543D01*
X17Y542D02*
X19Y542D01*
X23Y542D02*
X30Y542D01*
X67Y542D02*
X71Y542D01*
X84Y542D02*
X87Y542D01*
X98Y542D02*
X117Y542D01*
X135Y542D02*
X141Y542D01*
X407Y542D02*
X421Y542D01*
X17Y541D02*
X18Y541D01*
X23Y541D02*
X29Y541D01*
X67Y541D02*
X71Y541D01*
X84Y541D02*
X87Y541D01*
X98Y541D02*
X102Y541D01*
X113Y541D02*
X117Y541D01*
X134Y541D02*
X142Y541D01*
X399Y541D02*
X420Y541D01*
X67Y540D02*
X71Y540D01*
X84Y540D02*
X87Y540D01*
X98Y540D02*
X101Y540D01*
X114Y540D02*
X117Y540D01*
X133Y540D02*
X143Y540D01*
X398Y540D02*
X419Y540D01*
X67Y539D02*
X71Y539D01*
X84Y539D02*
X87Y539D01*
X98Y539D02*
X101Y539D01*
X114Y539D02*
X117Y539D01*
X133Y539D02*
X137Y539D01*
X139Y539D02*
X143Y539D01*
X398Y539D02*
X418Y539D01*
X67Y538D02*
X71Y538D01*
X84Y538D02*
X87Y538D01*
X98Y538D02*
X101Y538D01*
X114Y538D02*
X117Y538D01*
X132Y538D02*
X136Y538D01*
X140Y538D02*
X144Y538D01*
X399Y538D02*
X415Y538D01*
X67Y537D02*
X71Y537D01*
X84Y537D02*
X87Y537D01*
X98Y537D02*
X101Y537D01*
X113Y537D02*
X117Y537D01*
X131Y537D02*
X135Y537D01*
X140Y537D02*
X145Y537D01*
X67Y536D02*
X71Y536D01*
X84Y536D02*
X87Y536D01*
X98Y536D02*
X101Y536D01*
X112Y536D02*
X118Y536D01*
X130Y536D02*
X135Y536D01*
X141Y536D02*
X146Y536D01*
X67Y535D02*
X71Y535D01*
X84Y535D02*
X87Y535D01*
X98Y535D02*
X102Y535D01*
X110Y535D02*
X118Y535D01*
X129Y535D02*
X134Y535D01*
X142Y535D02*
X147Y535D01*
X18Y534D02*
X31Y534D01*
X67Y534D02*
X71Y534D01*
X84Y534D02*
X87Y534D01*
X98Y534D02*
X118Y534D01*
X128Y534D02*
X133Y534D01*
X143Y534D02*
X147Y534D01*
X17Y533D02*
X31Y533D01*
X67Y533D02*
X71Y533D01*
X84Y533D02*
X87Y533D01*
X99Y533D02*
X118Y533D01*
X128Y533D02*
X132Y533D01*
X144Y533D02*
X148Y533D01*
X18Y532D02*
X31Y532D01*
X68Y532D02*
X71Y532D01*
X84Y532D02*
X87Y532D01*
X100Y532D02*
X112Y532D01*
X115Y532D02*
X117Y532D01*
X128Y532D02*
X131Y532D01*
X145Y532D02*
X148Y532D01*
X26Y531D02*
X29Y531D01*
X68Y531D02*
X70Y531D01*
X85Y531D02*
X86Y531D01*
X102Y531D02*
X111Y531D01*
X115Y531D02*
X117Y531D01*
X129Y531D02*
X130Y531D01*
X146Y531D02*
X147Y531D01*
X27Y530D02*
X30Y530D01*
X28Y529D02*
X31Y529D01*
X29Y528D02*
X31Y528D01*
X408Y528D02*
X413Y528D01*
X30Y527D02*
X31Y527D01*
X404Y527D02*
X417Y527D01*
X30Y526D02*
X31Y526D01*
X403Y526D02*
X418Y526D01*
X30Y525D02*
X31Y525D01*
X389Y525D02*
X392Y525D01*
X402Y525D02*
X419Y525D01*
X29Y524D02*
X31Y524D01*
X389Y524D02*
X392Y524D01*
X401Y524D02*
X420Y524D01*
X27Y523D02*
X31Y523D01*
X389Y523D02*
X392Y523D01*
X401Y523D02*
X405Y523D01*
X416Y523D02*
X420Y523D01*
X26Y522D02*
X30Y522D01*
X389Y522D02*
X392Y522D01*
X400Y522D02*
X404Y522D01*
X417Y522D02*
X421Y522D01*
X27Y521D02*
X28Y521D01*
X389Y521D02*
X392Y521D01*
X400Y521D02*
X403Y521D01*
X418Y521D02*
X421Y521D01*
X389Y520D02*
X392Y520D01*
X400Y520D02*
X403Y520D01*
X418Y520D02*
X421Y520D01*
X389Y519D02*
X392Y519D01*
X400Y519D02*
X403Y519D01*
X418Y519D02*
X421Y519D01*
X389Y518D02*
X392Y518D01*
X400Y518D02*
X403Y518D01*
X418Y518D02*
X421Y518D01*
X389Y517D02*
X392Y517D01*
X400Y517D02*
X403Y517D01*
X418Y517D02*
X421Y517D01*
X389Y516D02*
X392Y516D01*
X400Y516D02*
X403Y516D01*
X418Y516D02*
X421Y516D01*
X389Y515D02*
X392Y515D01*
X400Y515D02*
X404Y515D01*
X417Y515D02*
X421Y515D01*
X20Y514D02*
X29Y514D01*
X389Y514D02*
X393Y514D01*
X401Y514D02*
X405Y514D01*
X416Y514D02*
X421Y514D01*
X18Y513D02*
X30Y513D01*
X389Y513D02*
X393Y513D01*
X401Y513D02*
X406Y513D01*
X415Y513D02*
X420Y513D01*
X18Y512D02*
X25Y512D01*
X27Y512D02*
X31Y512D01*
X390Y512D02*
X394Y512D01*
X402Y512D02*
X407Y512D01*
X414Y512D02*
X419Y512D01*
X17Y511D02*
X19Y511D01*
X23Y511D02*
X24Y511D01*
X29Y511D02*
X31Y511D01*
X390Y511D02*
X420Y511D01*
X17Y510D02*
X19Y510D01*
X23Y510D02*
X24Y510D01*
X30Y510D02*
X31Y510D01*
X391Y510D02*
X421Y510D01*
X17Y509D02*
X19Y509D01*
X23Y509D02*
X24Y509D01*
X30Y509D02*
X31Y509D01*
X392Y509D02*
X421Y509D01*
X17Y508D02*
X19Y508D01*
X23Y508D02*
X24Y508D01*
X30Y508D02*
X31Y508D01*
X393Y508D02*
X421Y508D01*
X17Y507D02*
X19Y507D01*
X23Y507D02*
X24Y507D01*
X30Y507D02*
X31Y507D01*
X395Y507D02*
X420Y507D01*
X17Y506D02*
X19Y506D01*
X23Y506D02*
X24Y506D01*
X30Y506D02*
X31Y506D01*
X17Y505D02*
X19Y505D01*
X23Y505D02*
X24Y505D01*
X29Y505D02*
X31Y505D01*
X17Y504D02*
X19Y504D01*
X23Y504D02*
X25Y504D01*
X27Y504D02*
X31Y504D01*
X17Y503D02*
X19Y503D01*
X23Y503D02*
X30Y503D01*
X17Y502D02*
X18Y502D01*
X23Y502D02*
X29Y502D01*
X404Y497D02*
X415Y497D01*
X402Y496D02*
X417Y496D01*
X21Y495D02*
X28Y495D01*
X401Y495D02*
X418Y495D01*
X19Y494D02*
X29Y494D01*
X400Y494D02*
X419Y494D01*
X18Y493D02*
X30Y493D01*
X399Y493D02*
X405Y493D01*
X407Y493D02*
X411Y493D01*
X415Y493D02*
X420Y493D01*
X17Y492D02*
X20Y492D01*
X28Y492D02*
X31Y492D01*
X399Y492D02*
X403Y492D01*
X407Y492D02*
X410Y492D01*
X416Y492D02*
X421Y492D01*
X17Y491D02*
X19Y491D01*
X29Y491D02*
X31Y491D01*
X398Y491D02*
X402Y491D01*
X407Y491D02*
X410Y491D01*
X417Y491D02*
X421Y491D01*
X17Y490D02*
X19Y490D01*
X30Y490D02*
X31Y490D01*
X398Y490D02*
X402Y490D01*
X407Y490D02*
X410Y490D01*
X418Y490D02*
X421Y490D01*
X17Y489D02*
X19Y489D01*
X30Y489D02*
X31Y489D01*
X398Y489D02*
X401Y489D01*
X407Y489D02*
X410Y489D01*
X418Y489D02*
X421Y489D01*
X17Y488D02*
X19Y488D01*
X30Y488D02*
X31Y488D01*
X398Y488D02*
X401Y488D01*
X407Y488D02*
X410Y488D01*
X418Y488D02*
X421Y488D01*
X17Y487D02*
X19Y487D01*
X29Y487D02*
X31Y487D01*
X398Y487D02*
X401Y487D01*
X407Y487D02*
X410Y487D01*
X418Y487D02*
X421Y487D01*
X18Y486D02*
X20Y486D01*
X28Y486D02*
X31Y486D01*
X398Y486D02*
X401Y486D01*
X407Y486D02*
X410Y486D01*
X418Y486D02*
X421Y486D01*
X18Y485D02*
X21Y485D01*
X27Y485D02*
X30Y485D01*
X398Y485D02*
X401Y485D01*
X407Y485D02*
X410Y485D01*
X418Y485D02*
X421Y485D01*
X18Y484D02*
X37Y484D01*
X398Y484D02*
X401Y484D01*
X407Y484D02*
X410Y484D01*
X418Y484D02*
X421Y484D01*
X17Y483D02*
X37Y483D01*
X398Y483D02*
X401Y483D01*
X407Y483D02*
X410Y483D01*
X418Y483D02*
X421Y483D01*
X18Y482D02*
X36Y482D01*
X398Y482D02*
X401Y482D01*
X407Y482D02*
X410Y482D01*
X417Y482D02*
X421Y482D01*
X398Y481D02*
X401Y481D01*
X407Y481D02*
X410Y481D01*
X416Y481D02*
X420Y481D01*
X398Y480D02*
X401Y480D01*
X407Y480D02*
X420Y480D01*
X398Y479D02*
X401Y479D01*
X407Y479D02*
X419Y479D01*
X398Y478D02*
X401Y478D01*
X407Y478D02*
X418Y478D01*
X399Y477D02*
X401Y477D01*
X408Y477D02*
X417Y477D01*
X17Y475D02*
X31Y475D01*
X17Y474D02*
X31Y474D01*
X18Y473D02*
X30Y473D01*
X27Y472D02*
X30Y472D01*
X28Y471D02*
X30Y471D01*
X29Y470D02*
X31Y470D01*
X29Y469D02*
X31Y469D01*
X30Y468D02*
X31Y468D01*
X30Y467D02*
X31Y467D01*
X29Y466D02*
X31Y466D01*
X22Y465D02*
X31Y465D01*
X17Y464D02*
X30Y464D01*
X17Y463D02*
X29Y463D01*
X17Y454D02*
X18Y454D01*
X30Y454D02*
X31Y454D01*
X17Y453D02*
X19Y453D01*
X30Y453D02*
X31Y453D01*
X17Y452D02*
X19Y452D01*
X30Y452D02*
X31Y452D01*
X37Y452D02*
X37Y452D01*
X17Y451D02*
X19Y451D01*
X30Y451D02*
X31Y451D01*
X36Y451D02*
X38Y451D01*
X17Y450D02*
X31Y450D01*
X35Y450D02*
X38Y450D01*
X17Y449D02*
X31Y449D01*
X36Y449D02*
X38Y449D01*
X17Y448D02*
X30Y448D01*
X37Y448D02*
X37Y448D01*
X17Y447D02*
X19Y447D01*
X17Y446D02*
X19Y446D01*
X17Y445D02*
X19Y445D01*
X17Y436D02*
X37Y436D01*
X17Y435D02*
X37Y435D01*
X18Y434D02*
X36Y434D01*
X23Y433D02*
X26Y433D01*
X23Y432D02*
X26Y432D01*
X22Y431D02*
X27Y431D01*
X21Y430D02*
X28Y430D01*
X20Y429D02*
X23Y429D01*
X26Y429D02*
X29Y429D01*
X20Y428D02*
X22Y428D01*
X27Y428D02*
X30Y428D01*
X19Y427D02*
X21Y427D01*
X28Y427D02*
X31Y427D01*
X18Y426D02*
X21Y426D01*
X29Y426D02*
X31Y426D01*
X17Y425D02*
X20Y425D01*
X30Y425D02*
X31Y425D01*
X17Y424D02*
X19Y424D01*
X710Y416D02*
X725Y416D01*
X710Y415D02*
X726Y415D01*
X710Y414D02*
X726Y414D01*
X341Y413D02*
X350Y413D01*
X362Y413D02*
X369Y413D01*
X710Y413D02*
X725Y413D01*
X339Y412D02*
X350Y412D01*
X362Y412D02*
X369Y412D01*
X710Y412D02*
X712Y412D01*
X338Y411D02*
X350Y411D01*
X362Y411D02*
X369Y411D01*
X710Y411D02*
X712Y411D01*
X338Y410D02*
X350Y410D01*
X362Y410D02*
X369Y410D01*
X710Y410D02*
X712Y410D01*
X337Y409D02*
X341Y409D01*
X367Y409D02*
X369Y409D01*
X710Y409D02*
X712Y409D01*
X337Y408D02*
X340Y408D01*
X367Y408D02*
X369Y408D01*
X710Y408D02*
X712Y408D01*
X739Y408D02*
X749Y408D01*
X761Y408D02*
X763Y408D01*
X768Y408D02*
X775Y408D01*
X336Y407D02*
X340Y407D01*
X367Y407D02*
X369Y407D01*
X710Y407D02*
X722Y407D01*
X739Y407D02*
X750Y407D01*
X761Y407D02*
X763Y407D01*
X767Y407D02*
X776Y407D01*
X336Y406D02*
X339Y406D01*
X367Y406D02*
X369Y406D01*
X710Y406D02*
X723Y406D01*
X739Y406D02*
X751Y406D01*
X761Y406D02*
X763Y406D01*
X766Y406D02*
X777Y406D01*
X335Y405D02*
X339Y405D01*
X367Y405D02*
X369Y405D01*
X390Y405D02*
X399Y405D01*
X415Y405D02*
X426Y405D01*
X442Y405D02*
X451Y405D01*
X710Y405D02*
X723Y405D01*
X748Y405D02*
X751Y405D01*
X761Y405D02*
X769Y405D01*
X774Y405D02*
X777Y405D01*
X335Y404D02*
X338Y404D01*
X367Y404D02*
X369Y404D01*
X389Y404D02*
X400Y404D01*
X414Y404D02*
X428Y404D01*
X441Y404D02*
X452Y404D01*
X710Y404D02*
X722Y404D01*
X749Y404D02*
X751Y404D01*
X761Y404D02*
X768Y404D01*
X775Y404D02*
X777Y404D01*
X334Y403D02*
X337Y403D01*
X367Y403D02*
X369Y403D01*
X388Y403D02*
X401Y403D01*
X413Y403D02*
X428Y403D01*
X440Y403D02*
X453Y403D01*
X710Y403D02*
X712Y403D01*
X749Y403D02*
X751Y403D01*
X761Y403D02*
X767Y403D01*
X775Y403D02*
X778Y403D01*
X334Y402D02*
X337Y402D01*
X367Y402D02*
X369Y402D01*
X387Y402D02*
X402Y402D01*
X413Y402D02*
X429Y402D01*
X439Y402D02*
X454Y402D01*
X710Y402D02*
X712Y402D01*
X749Y402D02*
X752Y402D01*
X761Y402D02*
X766Y402D01*
X775Y402D02*
X778Y402D01*
X334Y401D02*
X337Y401D01*
X367Y401D02*
X369Y401D01*
X386Y401D02*
X390Y401D01*
X399Y401D02*
X402Y401D01*
X412Y401D02*
X415Y401D01*
X427Y401D02*
X428Y401D01*
X439Y401D02*
X442Y401D01*
X451Y401D02*
X455Y401D01*
X710Y401D02*
X712Y401D01*
X740Y401D02*
X752Y401D01*
X761Y401D02*
X765Y401D01*
X776Y401D02*
X777Y401D01*
X334Y400D02*
X336Y400D01*
X367Y400D02*
X369Y400D01*
X386Y400D02*
X389Y400D01*
X400Y400D02*
X403Y400D01*
X413Y400D02*
X416Y400D01*
X438Y400D02*
X441Y400D01*
X452Y400D02*
X455Y400D01*
X710Y400D02*
X712Y400D01*
X737Y400D02*
X752Y400D01*
X761Y400D02*
X764Y400D01*
X333Y399D02*
X336Y399D01*
X367Y399D02*
X369Y399D01*
X386Y399D02*
X388Y399D01*
X400Y399D02*
X403Y399D01*
X413Y399D02*
X418Y399D01*
X438Y399D02*
X441Y399D01*
X452Y399D02*
X455Y399D01*
X710Y399D02*
X712Y399D01*
X736Y399D02*
X752Y399D01*
X761Y399D02*
X763Y399D01*
X334Y398D02*
X336Y398D01*
X367Y398D02*
X369Y398D01*
X386Y398D02*
X388Y398D01*
X400Y398D02*
X403Y398D01*
X413Y398D02*
X420Y398D01*
X438Y398D02*
X441Y398D01*
X453Y398D02*
X455Y398D01*
X710Y398D02*
X712Y398D01*
X736Y398D02*
X752Y398D01*
X761Y398D02*
X763Y398D01*
X334Y397D02*
X337Y397D01*
X367Y397D02*
X369Y397D01*
X386Y397D02*
X388Y397D01*
X400Y397D02*
X403Y397D01*
X415Y397D02*
X423Y397D01*
X438Y397D02*
X441Y397D01*
X453Y397D02*
X455Y397D01*
X710Y397D02*
X712Y397D01*
X735Y397D02*
X738Y397D01*
X749Y397D02*
X752Y397D01*
X761Y397D02*
X763Y397D01*
X334Y396D02*
X337Y396D01*
X367Y396D02*
X369Y396D01*
X386Y396D02*
X388Y396D01*
X400Y396D02*
X403Y396D01*
X417Y396D02*
X425Y396D01*
X438Y396D02*
X455Y396D01*
X710Y396D02*
X712Y396D01*
X735Y396D02*
X738Y396D01*
X749Y396D02*
X752Y396D01*
X761Y396D02*
X763Y396D01*
X335Y395D02*
X338Y395D01*
X367Y395D02*
X369Y395D01*
X386Y395D02*
X388Y395D01*
X400Y395D02*
X403Y395D01*
X419Y395D02*
X427Y395D01*
X438Y395D02*
X455Y395D01*
X710Y395D02*
X712Y395D01*
X735Y395D02*
X738Y395D01*
X749Y395D02*
X752Y395D01*
X761Y395D02*
X763Y395D01*
X335Y394D02*
X338Y394D01*
X367Y394D02*
X369Y394D01*
X386Y394D02*
X388Y394D01*
X400Y394D02*
X403Y394D01*
X421Y394D02*
X428Y394D01*
X438Y394D02*
X455Y394D01*
X710Y394D02*
X712Y394D01*
X735Y394D02*
X738Y394D01*
X749Y394D02*
X752Y394D01*
X761Y394D02*
X763Y394D01*
X336Y393D02*
X339Y393D01*
X367Y393D02*
X369Y393D01*
X386Y393D02*
X388Y393D01*
X400Y393D02*
X403Y393D01*
X424Y393D02*
X428Y393D01*
X438Y393D02*
X454Y393D01*
X710Y393D02*
X712Y393D01*
X735Y393D02*
X738Y393D01*
X747Y393D02*
X752Y393D01*
X761Y393D02*
X763Y393D01*
X336Y392D02*
X339Y392D01*
X367Y392D02*
X369Y392D01*
X386Y392D02*
X388Y392D01*
X400Y392D02*
X403Y392D01*
X426Y392D02*
X429Y392D01*
X438Y392D02*
X441Y392D01*
X710Y392D02*
X712Y392D01*
X736Y392D02*
X752Y392D01*
X761Y392D02*
X763Y392D01*
X337Y391D02*
X340Y391D01*
X367Y391D02*
X369Y391D01*
X386Y391D02*
X389Y391D01*
X400Y391D02*
X403Y391D01*
X426Y391D02*
X429Y391D01*
X438Y391D02*
X441Y391D01*
X710Y391D02*
X712Y391D01*
X736Y391D02*
X752Y391D01*
X761Y391D02*
X763Y391D01*
X337Y390D02*
X340Y390D01*
X367Y390D02*
X369Y390D01*
X386Y390D02*
X389Y390D01*
X399Y390D02*
X403Y390D01*
X413Y390D02*
X413Y390D01*
X426Y390D02*
X429Y390D01*
X438Y390D02*
X442Y390D01*
X710Y390D02*
X712Y390D01*
X737Y390D02*
X752Y390D01*
X761Y390D02*
X763Y390D01*
X338Y389D02*
X341Y389D01*
X367Y389D02*
X370Y389D01*
X386Y389D02*
X391Y389D01*
X398Y389D02*
X402Y389D01*
X412Y389D02*
X415Y389D01*
X425Y389D02*
X429Y389D01*
X439Y389D02*
X443Y389D01*
X710Y389D02*
X712Y389D01*
X738Y389D02*
X746Y389D01*
X750Y389D02*
X751Y389D01*
X761Y389D02*
X763Y389D01*
X338Y388D02*
X350Y388D01*
X362Y388D02*
X374Y388D01*
X387Y388D02*
X401Y388D01*
X412Y388D02*
X428Y388D01*
X439Y388D02*
X455Y388D01*
X149Y387D02*
X168Y387D01*
X339Y387D02*
X350Y387D01*
X361Y387D02*
X375Y387D01*
X388Y387D02*
X400Y387D01*
X413Y387D02*
X428Y387D01*
X440Y387D02*
X455Y387D01*
X146Y386D02*
X172Y386D01*
X340Y386D02*
X350Y386D01*
X362Y386D02*
X375Y386D01*
X389Y386D02*
X399Y386D01*
X414Y386D02*
X426Y386D01*
X442Y386D02*
X455Y386D01*
X143Y385D02*
X174Y385D01*
X343Y385D02*
X349Y385D01*
X363Y385D02*
X373Y385D01*
X392Y385D02*
X396Y385D01*
X417Y385D02*
X423Y385D01*
X444Y385D02*
X453Y385D01*
X141Y384D02*
X177Y384D01*
X139Y383D02*
X179Y383D01*
X137Y382D02*
X181Y382D01*
X135Y381D02*
X182Y381D01*
X134Y380D02*
X184Y380D01*
X132Y379D02*
X185Y379D01*
X131Y378D02*
X186Y378D01*
X130Y377D02*
X188Y377D01*
X129Y376D02*
X154Y376D01*
X163Y376D02*
X189Y376D01*
X128Y375D02*
X149Y375D01*
X169Y375D02*
X190Y375D01*
X127Y374D02*
X146Y374D01*
X172Y374D02*
X191Y374D01*
X126Y373D02*
X143Y373D01*
X174Y373D02*
X192Y373D01*
X125Y372D02*
X141Y372D01*
X176Y372D02*
X193Y372D01*
X124Y371D02*
X140Y371D01*
X178Y371D02*
X194Y371D01*
X123Y370D02*
X138Y370D01*
X180Y370D02*
X194Y370D01*
X122Y369D02*
X137Y369D01*
X181Y369D02*
X195Y369D01*
X122Y368D02*
X136Y368D01*
X182Y368D02*
X196Y368D01*
X121Y367D02*
X134Y367D01*
X183Y367D02*
X197Y367D01*
X120Y366D02*
X133Y366D01*
X184Y366D02*
X197Y366D01*
X120Y365D02*
X133Y365D01*
X185Y365D02*
X198Y365D01*
X119Y364D02*
X132Y364D01*
X186Y364D02*
X198Y364D01*
X119Y363D02*
X131Y363D01*
X187Y363D02*
X199Y363D01*
X118Y362D02*
X130Y362D01*
X187Y362D02*
X199Y362D01*
X118Y361D02*
X130Y361D01*
X188Y361D02*
X200Y361D01*
X117Y360D02*
X129Y360D01*
X189Y360D02*
X200Y360D01*
X117Y359D02*
X128Y359D01*
X189Y359D02*
X201Y359D01*
X116Y358D02*
X128Y358D01*
X190Y358D02*
X201Y358D01*
X116Y357D02*
X127Y357D01*
X190Y357D02*
X202Y357D01*
X116Y356D02*
X127Y356D01*
X191Y356D02*
X202Y356D01*
X115Y355D02*
X127Y355D01*
X191Y355D02*
X202Y355D01*
X115Y354D02*
X126Y354D01*
X191Y354D02*
X203Y354D01*
X115Y353D02*
X126Y353D01*
X192Y353D02*
X203Y353D01*
X114Y352D02*
X126Y352D01*
X192Y352D02*
X203Y352D01*
X114Y351D02*
X125Y351D01*
X192Y351D02*
X203Y351D01*
X114Y350D02*
X125Y350D01*
X192Y350D02*
X204Y350D01*
X114Y349D02*
X125Y349D01*
X193Y349D02*
X204Y349D01*
X114Y348D02*
X125Y348D01*
X193Y348D02*
X204Y348D01*
X114Y347D02*
X125Y347D01*
X193Y347D02*
X204Y347D01*
X114Y346D02*
X125Y346D01*
X193Y346D02*
X204Y346D01*
X113Y345D02*
X124Y345D01*
X193Y345D02*
X204Y345D01*
X113Y344D02*
X124Y344D01*
X193Y344D02*
X204Y344D01*
X113Y343D02*
X124Y343D01*
X193Y343D02*
X204Y343D01*
X113Y342D02*
X124Y342D01*
X193Y342D02*
X204Y342D01*
X113Y341D02*
X124Y341D01*
X193Y341D02*
X204Y341D01*
X113Y340D02*
X124Y340D01*
X193Y340D02*
X204Y340D01*
X113Y339D02*
X124Y339D01*
X193Y339D02*
X204Y339D01*
X114Y338D02*
X125Y338D01*
X193Y338D02*
X204Y338D01*
X114Y337D02*
X125Y337D01*
X193Y337D02*
X204Y337D01*
X114Y336D02*
X125Y336D01*
X193Y336D02*
X204Y336D01*
X114Y335D02*
X125Y335D01*
X193Y335D02*
X204Y335D01*
X114Y334D02*
X125Y334D01*
X192Y334D02*
X203Y334D01*
X114Y333D02*
X125Y333D01*
X192Y333D02*
X203Y333D01*
X115Y332D02*
X126Y332D01*
X192Y332D02*
X203Y332D01*
X115Y331D02*
X126Y331D01*
X192Y331D02*
X203Y331D01*
X115Y330D02*
X126Y330D01*
X191Y330D02*
X202Y330D01*
X115Y329D02*
X127Y329D01*
X191Y329D02*
X202Y329D01*
X116Y328D02*
X127Y328D01*
X190Y328D02*
X202Y328D01*
X116Y327D02*
X128Y327D01*
X190Y327D02*
X201Y327D01*
X117Y326D02*
X128Y326D01*
X190Y326D02*
X201Y326D01*
X117Y325D02*
X129Y325D01*
X189Y325D02*
X201Y325D01*
X117Y324D02*
X129Y324D01*
X188Y324D02*
X200Y324D01*
X118Y323D02*
X130Y323D01*
X188Y323D02*
X200Y323D01*
X118Y322D02*
X131Y322D01*
X187Y322D02*
X199Y322D01*
X119Y321D02*
X131Y321D01*
X186Y321D02*
X199Y321D01*
X119Y320D02*
X132Y320D01*
X186Y320D02*
X198Y320D01*
X120Y319D02*
X133Y319D01*
X185Y319D02*
X198Y319D01*
X121Y318D02*
X134Y318D01*
X184Y318D02*
X197Y318D01*
X121Y317D02*
X135Y317D01*
X183Y317D02*
X196Y317D01*
X122Y316D02*
X136Y316D01*
X182Y316D02*
X196Y316D01*
X123Y315D02*
X137Y315D01*
X180Y315D02*
X195Y315D01*
X124Y314D02*
X139Y314D01*
X179Y314D02*
X194Y314D01*
X124Y313D02*
X140Y313D01*
X177Y313D02*
X193Y313D01*
X125Y312D02*
X142Y312D01*
X176Y312D02*
X192Y312D01*
X126Y311D02*
X144Y311D01*
X173Y311D02*
X191Y311D01*
X127Y310D02*
X147Y310D01*
X171Y310D02*
X191Y310D01*
X128Y309D02*
X151Y309D01*
X167Y309D02*
X189Y309D01*
X129Y308D02*
X188Y308D01*
X130Y307D02*
X187Y307D01*
X132Y306D02*
X186Y306D01*
X133Y305D02*
X185Y305D01*
X134Y304D02*
X183Y304D01*
X136Y303D02*
X182Y303D01*
X138Y302D02*
X180Y302D01*
X140Y301D02*
X178Y301D01*
X142Y300D02*
X176Y300D01*
X144Y299D02*
X173Y299D01*
X147Y298D02*
X170Y298D01*
X151Y297D02*
X166Y297D01*
X674Y240D02*
X681Y240D01*
X695Y240D02*
X713Y240D01*
X728Y240D02*
X740Y240D01*
X760Y240D02*
X782Y240D01*
X664Y239D02*
X682Y239D01*
X695Y239D02*
X714Y239D01*
X728Y239D02*
X742Y239D01*
X760Y239D02*
X782Y239D01*
X663Y238D02*
X683Y238D01*
X695Y238D02*
X715Y238D01*
X728Y238D02*
X743Y238D01*
X760Y238D02*
X782Y238D01*
X663Y237D02*
X683Y237D01*
X695Y237D02*
X716Y237D01*
X728Y237D02*
X743Y237D01*
X760Y237D02*
X782Y237D01*
X662Y236D02*
X666Y236D01*
X679Y236D02*
X684Y236D01*
X695Y236D02*
X699Y236D01*
X712Y236D02*
X716Y236D01*
X732Y236D02*
X736Y236D01*
X739Y236D02*
X744Y236D01*
X760Y236D02*
X764Y236D01*
X769Y236D02*
X773Y236D01*
X778Y236D02*
X782Y236D01*
X663Y235D02*
X666Y235D01*
X680Y235D02*
X684Y235D01*
X695Y235D02*
X699Y235D01*
X713Y235D02*
X716Y235D01*
X732Y235D02*
X736Y235D01*
X740Y235D02*
X745Y235D01*
X761Y235D02*
X764Y235D01*
X769Y235D02*
X773Y235D01*
X778Y235D02*
X782Y235D01*
X663Y234D02*
X667Y234D01*
X680Y234D02*
X684Y234D01*
X695Y234D02*
X699Y234D01*
X713Y234D02*
X716Y234D01*
X732Y234D02*
X736Y234D01*
X741Y234D02*
X745Y234D01*
X761Y234D02*
X764Y234D01*
X769Y234D02*
X773Y234D01*
X779Y234D02*
X782Y234D01*
X663Y233D02*
X668Y233D01*
X681Y233D02*
X683Y233D01*
X695Y233D02*
X699Y233D01*
X713Y233D02*
X717Y233D01*
X732Y233D02*
X736Y233D01*
X741Y233D02*
X746Y233D01*
X761Y233D02*
X763Y233D01*
X769Y233D02*
X773Y233D01*
X779Y233D02*
X781Y233D01*
X664Y232D02*
X669Y232D01*
X695Y232D02*
X699Y232D01*
X713Y232D02*
X717Y232D01*
X732Y232D02*
X736Y232D01*
X742Y232D02*
X746Y232D01*
X769Y232D02*
X773Y232D01*
X665Y231D02*
X669Y231D01*
X695Y231D02*
X699Y231D01*
X713Y231D02*
X717Y231D01*
X732Y231D02*
X736Y231D01*
X742Y231D02*
X747Y231D01*
X769Y231D02*
X773Y231D01*
X665Y230D02*
X670Y230D01*
X695Y230D02*
X699Y230D01*
X713Y230D02*
X717Y230D01*
X732Y230D02*
X736Y230D01*
X743Y230D02*
X747Y230D01*
X769Y230D02*
X773Y230D01*
X666Y229D02*
X671Y229D01*
X695Y229D02*
X699Y229D01*
X713Y229D02*
X717Y229D01*
X732Y229D02*
X736Y229D01*
X743Y229D02*
X748Y229D01*
X769Y229D02*
X773Y229D01*
X667Y228D02*
X672Y228D01*
X695Y228D02*
X699Y228D01*
X713Y228D02*
X717Y228D01*
X732Y228D02*
X736Y228D01*
X744Y228D02*
X748Y228D01*
X769Y228D02*
X773Y228D01*
X668Y227D02*
X673Y227D01*
X695Y227D02*
X699Y227D01*
X713Y227D02*
X717Y227D01*
X732Y227D02*
X736Y227D01*
X744Y227D02*
X748Y227D01*
X769Y227D02*
X773Y227D01*
X669Y226D02*
X673Y226D01*
X695Y226D02*
X699Y226D01*
X713Y226D02*
X716Y226D01*
X732Y226D02*
X736Y226D01*
X745Y226D02*
X749Y226D01*
X769Y226D02*
X773Y226D01*
X669Y225D02*
X674Y225D01*
X695Y225D02*
X699Y225D01*
X713Y225D02*
X716Y225D01*
X732Y225D02*
X736Y225D01*
X745Y225D02*
X749Y225D01*
X769Y225D02*
X773Y225D01*
X670Y224D02*
X675Y224D01*
X695Y224D02*
X699Y224D01*
X712Y224D02*
X716Y224D01*
X732Y224D02*
X736Y224D01*
X746Y224D02*
X749Y224D01*
X769Y224D02*
X773Y224D01*
X671Y223D02*
X676Y223D01*
X695Y223D02*
X716Y223D01*
X732Y223D02*
X736Y223D01*
X746Y223D02*
X749Y223D01*
X769Y223D02*
X773Y223D01*
X672Y222D02*
X676Y222D01*
X695Y222D02*
X715Y222D01*
X732Y222D02*
X736Y222D01*
X745Y222D02*
X749Y222D01*
X769Y222D02*
X773Y222D01*
X672Y221D02*
X677Y221D01*
X695Y221D02*
X714Y221D01*
X732Y221D02*
X736Y221D01*
X745Y221D02*
X749Y221D01*
X769Y221D02*
X773Y221D01*
X673Y220D02*
X678Y220D01*
X695Y220D02*
X713Y220D01*
X732Y220D02*
X736Y220D01*
X745Y220D02*
X749Y220D01*
X769Y220D02*
X773Y220D01*
X674Y219D02*
X679Y219D01*
X695Y219D02*
X699Y219D01*
X732Y219D02*
X736Y219D01*
X744Y219D02*
X748Y219D01*
X769Y219D02*
X773Y219D01*
X675Y218D02*
X680Y218D01*
X695Y218D02*
X699Y218D01*
X732Y218D02*
X736Y218D01*
X744Y218D02*
X748Y218D01*
X769Y218D02*
X773Y218D01*
X675Y217D02*
X680Y217D01*
X695Y217D02*
X699Y217D01*
X732Y217D02*
X736Y217D01*
X743Y217D02*
X747Y217D01*
X769Y217D02*
X773Y217D01*
X676Y216D02*
X681Y216D01*
X695Y216D02*
X699Y216D01*
X732Y216D02*
X736Y216D01*
X743Y216D02*
X747Y216D01*
X769Y216D02*
X773Y216D01*
X677Y215D02*
X682Y215D01*
X695Y215D02*
X699Y215D01*
X732Y215D02*
X736Y215D01*
X742Y215D02*
X746Y215D01*
X769Y215D02*
X773Y215D01*
X664Y214D02*
X664Y214D01*
X678Y214D02*
X683Y214D01*
X695Y214D02*
X699Y214D01*
X732Y214D02*
X736Y214D01*
X742Y214D02*
X746Y214D01*
X769Y214D02*
X773Y214D01*
X663Y213D02*
X666Y213D01*
X679Y213D02*
X683Y213D01*
X695Y213D02*
X699Y213D01*
X732Y213D02*
X736Y213D01*
X741Y213D02*
X745Y213D01*
X769Y213D02*
X773Y213D01*
X662Y212D02*
X666Y212D01*
X679Y212D02*
X684Y212D01*
X695Y212D02*
X699Y212D01*
X732Y212D02*
X736Y212D01*
X741Y212D02*
X745Y212D01*
X769Y212D02*
X773Y212D01*
X662Y211D02*
X666Y211D01*
X680Y211D02*
X684Y211D01*
X695Y211D02*
X699Y211D01*
X732Y211D02*
X736Y211D01*
X740Y211D02*
X744Y211D01*
X769Y211D02*
X773Y211D01*
X663Y210D02*
X684Y210D01*
X695Y210D02*
X699Y210D01*
X729Y210D02*
X744Y210D01*
X769Y210D02*
X773Y210D01*
X663Y209D02*
X683Y209D01*
X695Y209D02*
X699Y209D01*
X728Y209D02*
X743Y209D01*
X769Y209D02*
X773Y209D01*
X664Y208D02*
X683Y208D01*
X695Y208D02*
X699Y208D01*
X728Y208D02*
X743Y208D01*
X769Y208D02*
X773Y208D01*
X665Y207D02*
X682Y207D01*
X695Y207D02*
X698Y207D01*
X728Y207D02*
X741Y207D01*
X770Y207D02*
X773Y207D01*
X667Y206D02*
X680Y206D01*
X696Y206D02*
X697Y206D01*
X729Y206D02*
X739Y206D01*
X771Y206D02*
X772Y206D01*
X246Y178D02*
X254Y178D01*
X245Y177D02*
X254Y177D01*
X245Y176D02*
X254Y176D01*
X245Y175D02*
X254Y175D01*
X245Y174D02*
X254Y174D01*
X245Y173D02*
X254Y173D01*
X245Y172D02*
X254Y172D01*
X245Y171D02*
X254Y171D01*
X245Y170D02*
X254Y170D01*
X245Y169D02*
X254Y169D01*
X245Y168D02*
X254Y168D01*
X245Y167D02*
X254Y167D01*
X245Y166D02*
X254Y166D01*
X245Y165D02*
X254Y165D01*
X245Y164D02*
X254Y164D01*
X245Y163D02*
X254Y163D01*
X245Y162D02*
X254Y162D01*
X245Y161D02*
X254Y161D01*
X245Y160D02*
X254Y160D01*
X245Y159D02*
X254Y159D01*
X245Y158D02*
X254Y158D01*
X245Y157D02*
X254Y157D01*
X245Y156D02*
X254Y156D01*
X245Y155D02*
X254Y155D01*
X245Y154D02*
X254Y154D01*
X245Y153D02*
X254Y153D01*
X245Y152D02*
X254Y152D01*
X245Y151D02*
X254Y151D01*
X245Y150D02*
X254Y150D01*
X245Y149D02*
X254Y149D01*
X245Y148D02*
X254Y148D01*
X245Y147D02*
X254Y147D01*
X245Y146D02*
X254Y146D01*
X245Y145D02*
X254Y145D01*
X245Y144D02*
X254Y144D01*
X245Y143D02*
X254Y143D01*
X245Y142D02*
X254Y142D01*
X245Y141D02*
X254Y141D01*
X245Y140D02*
X254Y140D01*
X245Y139D02*
X254Y139D01*
X245Y138D02*
X254Y138D01*
X245Y137D02*
X254Y137D01*
X245Y136D02*
X254Y136D01*
X245Y135D02*
X254Y135D01*
X245Y134D02*
X254Y134D01*
X245Y133D02*
X254Y133D01*
X245Y132D02*
X254Y132D01*
X245Y131D02*
X254Y131D01*
X245Y130D02*
X254Y130D01*
X245Y129D02*
X254Y129D01*
X245Y128D02*
X254Y128D01*
X245Y127D02*
X254Y127D01*
X245Y126D02*
X254Y126D01*
X245Y125D02*
X254Y125D01*
X245Y124D02*
X254Y124D01*
X245Y123D02*
X254Y123D01*
X245Y122D02*
X254Y122D01*
X245Y121D02*
X254Y121D01*
X245Y120D02*
X254Y120D01*
X245Y119D02*
X254Y119D01*
X245Y118D02*
X254Y118D01*
X245Y117D02*
X254Y117D01*
X245Y116D02*
X254Y116D01*
X245Y115D02*
X254Y115D01*
X245Y114D02*
X254Y114D01*
X245Y113D02*
X254Y113D01*
X245Y112D02*
X254Y112D01*
X245Y111D02*
X254Y111D01*
X245Y110D02*
X254Y110D01*
X245Y109D02*
X254Y109D01*
X245Y108D02*
X254Y108D01*
X246Y107D02*
X254Y107D01*
X246Y106D02*
X254Y106D01*
X246Y105D02*
X254Y105D01*
X246Y104D02*
X254Y104D01*
X247Y103D02*
X254Y103D01*
X247Y102D02*
X254Y102D01*
X247Y101D02*
X254Y101D01*
X247Y100D02*
X254Y100D01*
X247Y99D02*
X254Y99D01*
X247Y98D02*
X254Y98D01*
X247Y97D02*
X254Y97D01*
X247Y96D02*
X254Y96D01*
X247Y95D02*
X254Y95D01*
X247Y94D02*
X254Y94D01*
X247Y93D02*
X254Y93D01*
X247Y92D02*
X254Y92D01*
X247Y91D02*
X254Y91D01*
X247Y90D02*
X254Y90D01*
X246Y89D02*
X254Y89D01*
X246Y88D02*
X254Y88D01*
X246Y87D02*
X254Y87D01*
X246Y86D02*
X254Y86D01*
X245Y85D02*
X254Y85D01*
X245Y84D02*
X254Y84D01*
X245Y83D02*
X254Y83D01*
X245Y82D02*
X254Y82D01*
X245Y81D02*
X254Y81D01*
X245Y80D02*
X254Y80D01*
X245Y79D02*
X254Y79D01*
X384Y62D02*
X412Y62D01*
X384Y61D02*
X413Y61D01*
X384Y60D02*
X414Y60D01*
X384Y59D02*
X413Y59D01*
X384Y58D02*
X413Y58D01*
X384Y57D02*
X412Y57D01*
X384Y56D02*
X390Y56D01*
X384Y55D02*
X390Y55D01*
X384Y54D02*
X390Y54D01*
X384Y53D02*
X390Y53D01*
X384Y52D02*
X390Y52D01*
X384Y51D02*
X390Y51D01*
X384Y50D02*
X390Y50D01*
X384Y49D02*
X390Y49D01*
X384Y48D02*
X390Y48D01*
X384Y47D02*
X406Y47D01*
X384Y46D02*
X407Y46D01*
X384Y45D02*
X407Y45D01*
X384Y44D02*
X408Y44D01*
X384Y43D02*
X407Y43D01*
X384Y42D02*
X407Y42D01*
X384Y41D02*
X390Y41D01*
X384Y40D02*
X390Y40D01*
X384Y39D02*
X390Y39D01*
X384Y38D02*
X390Y38D01*
X384Y37D02*
X390Y37D01*
X384Y36D02*
X390Y36D01*
X384Y35D02*
X390Y35D01*
X384Y34D02*
X390Y34D01*
X384Y33D02*
X390Y33D01*
X380Y32D02*
X380Y32D01*
X384Y32D02*
X390Y32D01*
X380Y31D02*
X380Y31D01*
X384Y31D02*
X390Y31D01*
X380Y30D02*
X390Y30D01*
X380Y29D02*
X380Y29D01*
X384Y29D02*
X390Y29D01*
X380Y28D02*
X380Y28D01*
X384Y28D02*
X390Y28D01*
X384Y27D02*
X390Y27D01*
X384Y26D02*
X390Y26D01*
X384Y25D02*
X390Y25D01*
X384Y24D02*
X390Y24D01*
X384Y23D02*
X390Y23D01*
X384Y22D02*
X390Y22D01*
X384Y21D02*
X390Y21D01*
X384Y20D02*
X390Y20D01*
X384Y19D02*
X390Y19D01*
X385Y18D02*
X389Y18D01*
X385Y17D02*
X389Y17D01*
X386Y16D02*
X388Y16D01*
D02*
G04 End of Silk1*
M02*