; NON-PLATED HOLES START AT T1
; THROUGH (PLATED) HOLES START AT T100
M48
INCH
T1C0.059055
T100C0.040000
T101C0.015748
T102C0.031497
T103C0.035000
T104C0.041000
T105C0.038000
T106C0.039370
%
T1
X005908Y012180
X002129Y000960
X005908Y000920
X002089Y012180
T100
X006696Y002810
X004556Y002810
X005626Y002810
T101
X006550Y009260
X007250Y005360
T102
X007286Y010291
X006302Y010291
T103
X005515Y007519
X001578Y009897
X002515Y007519
X000578Y009897
X004959Y010256
X000953Y007516
X005515Y006519
X002515Y006519
X005515Y008519
X000953Y006516
X005515Y005519
X002515Y008519
X003959Y010256
X002515Y005519
T104
X001593Y004417
X002593Y002417
X000593Y002417
T105
X007286Y006141
X007286Y008148
X007286Y007141
T106
X004003Y001275
X005003Y001275
X003003Y012180
X004003Y012180
X003003Y001275
X005003Y012180
T00
M30
