G04 MADE WITH FRITZING*
G04 WWW.FRITZING.ORG*
G04 DOUBLE SIDED*
G04 HOLES PLATED*
G04 CONTOUR ON CENTER OF CONTOUR VECTOR*
%ASAXBY*%
%FSLAX23Y23*%
%MOIN*%
%OFA0B0*%
%SFA1.0B1.0*%
%ADD10C,0.005096*%
%ADD11C,0.003062*%
%ADD12C,0.002768*%
%ADD13C,0.008213*%
%ADD14C,0.007131*%
%ADD15R,0.008480X0.094378*%
%ADD16C,0.010000*%
%ADD17R,0.001000X0.001000*%
%LNSILK0*%
G90*
G70*
G54D10*
X665Y414D03*
G54D11*
X664Y413D03*
G54D10*
X666Y437D03*
G54D12*
X665Y436D03*
G54D13*
X712Y454D03*
X690Y362D03*
X588Y405D03*
X638Y491D03*
G54D14*
X85Y551D03*
G54D15*
X112Y547D03*
G54D16*
X602Y910D02*
X602Y510D01*
D02*
X602Y510D02*
X202Y510D01*
D02*
X202Y510D02*
X202Y910D01*
D02*
X602Y910D02*
X452Y910D01*
D02*
X352Y910D02*
X202Y910D01*
G54D17*
X398Y1127D02*
X414Y1127D01*
X426Y1127D02*
X442Y1127D01*
X459Y1127D02*
X469Y1127D01*
X492Y1127D02*
X504Y1127D01*
X396Y1126D02*
X414Y1126D01*
X425Y1126D02*
X443Y1126D01*
X458Y1126D02*
X470Y1126D01*
X492Y1126D02*
X504Y1126D01*
X395Y1125D02*
X414Y1125D01*
X424Y1125D02*
X444Y1125D01*
X458Y1125D02*
X470Y1125D01*
X492Y1125D02*
X504Y1125D01*
X395Y1124D02*
X414Y1124D01*
X424Y1124D02*
X444Y1124D01*
X458Y1124D02*
X470Y1124D01*
X492Y1124D02*
X503Y1124D01*
X394Y1123D02*
X398Y1123D01*
X411Y1123D02*
X414Y1123D01*
X424Y1123D02*
X427Y1123D01*
X441Y1123D02*
X444Y1123D01*
X458Y1123D02*
X462Y1123D01*
X467Y1123D02*
X470Y1123D01*
X492Y1123D02*
X496Y1123D01*
X394Y1122D02*
X398Y1122D01*
X411Y1122D02*
X414Y1122D01*
X424Y1122D02*
X427Y1122D01*
X441Y1122D02*
X444Y1122D01*
X458Y1122D02*
X462Y1122D01*
X467Y1122D02*
X470Y1122D01*
X492Y1122D02*
X496Y1122D01*
X394Y1121D02*
X397Y1121D01*
X411Y1121D02*
X414Y1121D01*
X424Y1121D02*
X427Y1121D01*
X441Y1121D02*
X444Y1121D01*
X458Y1121D02*
X462Y1121D01*
X467Y1121D02*
X470Y1121D01*
X492Y1121D02*
X496Y1121D01*
X394Y1120D02*
X397Y1120D01*
X411Y1120D02*
X414Y1120D01*
X424Y1120D02*
X427Y1120D01*
X441Y1120D02*
X444Y1120D01*
X458Y1120D02*
X462Y1120D01*
X467Y1120D02*
X470Y1120D01*
X492Y1120D02*
X496Y1120D01*
X394Y1119D02*
X398Y1119D01*
X411Y1119D02*
X414Y1119D01*
X424Y1119D02*
X427Y1119D01*
X441Y1119D02*
X444Y1119D01*
X458Y1119D02*
X462Y1119D01*
X467Y1119D02*
X470Y1119D01*
X492Y1119D02*
X496Y1119D01*
X394Y1118D02*
X398Y1118D01*
X411Y1118D02*
X414Y1118D01*
X424Y1118D02*
X427Y1118D01*
X441Y1118D02*
X444Y1118D01*
X458Y1118D02*
X462Y1118D01*
X467Y1118D02*
X470Y1118D01*
X492Y1118D02*
X496Y1118D01*
X395Y1117D02*
X414Y1117D01*
X424Y1117D02*
X427Y1117D01*
X441Y1117D02*
X444Y1117D01*
X458Y1117D02*
X462Y1117D01*
X467Y1117D02*
X470Y1117D01*
X492Y1117D02*
X496Y1117D01*
X395Y1116D02*
X414Y1116D01*
X424Y1116D02*
X427Y1116D01*
X441Y1116D02*
X444Y1116D01*
X458Y1116D02*
X462Y1116D01*
X467Y1116D02*
X470Y1116D01*
X492Y1116D02*
X496Y1116D01*
X396Y1115D02*
X414Y1115D01*
X424Y1115D02*
X427Y1115D01*
X441Y1115D02*
X444Y1115D01*
X458Y1115D02*
X462Y1115D01*
X467Y1115D02*
X470Y1115D01*
X492Y1115D02*
X496Y1115D01*
X398Y1114D02*
X414Y1114D01*
X424Y1114D02*
X427Y1114D01*
X441Y1114D02*
X444Y1114D01*
X458Y1114D02*
X462Y1114D01*
X466Y1114D02*
X470Y1114D01*
X492Y1114D02*
X496Y1114D01*
X402Y1113D02*
X407Y1113D01*
X410Y1113D02*
X414Y1113D01*
X424Y1113D02*
X427Y1113D01*
X441Y1113D02*
X444Y1113D01*
X456Y1113D02*
X472Y1113D01*
X492Y1113D02*
X496Y1113D01*
X402Y1112D02*
X406Y1112D01*
X411Y1112D02*
X414Y1112D01*
X424Y1112D02*
X427Y1112D01*
X441Y1112D02*
X444Y1112D01*
X455Y1112D02*
X473Y1112D01*
X492Y1112D02*
X496Y1112D01*
X402Y1111D02*
X406Y1111D01*
X411Y1111D02*
X414Y1111D01*
X424Y1111D02*
X427Y1111D01*
X441Y1111D02*
X444Y1111D01*
X455Y1111D02*
X474Y1111D01*
X492Y1111D02*
X496Y1111D01*
X401Y1110D02*
X405Y1110D01*
X411Y1110D02*
X414Y1110D01*
X424Y1110D02*
X427Y1110D01*
X441Y1110D02*
X444Y1110D01*
X454Y1110D02*
X474Y1110D01*
X485Y1110D02*
X486Y1110D01*
X492Y1110D02*
X496Y1110D01*
X401Y1109D02*
X405Y1109D01*
X411Y1109D02*
X414Y1109D01*
X424Y1109D02*
X427Y1109D01*
X441Y1109D02*
X444Y1109D01*
X454Y1109D02*
X457Y1109D01*
X471Y1109D02*
X474Y1109D01*
X484Y1109D02*
X487Y1109D01*
X492Y1109D02*
X496Y1109D01*
X400Y1108D02*
X404Y1108D01*
X411Y1108D02*
X414Y1108D01*
X424Y1108D02*
X427Y1108D01*
X441Y1108D02*
X444Y1108D01*
X454Y1108D02*
X457Y1108D01*
X471Y1108D02*
X474Y1108D01*
X484Y1108D02*
X487Y1108D01*
X492Y1108D02*
X496Y1108D01*
X399Y1107D02*
X403Y1107D01*
X411Y1107D02*
X414Y1107D01*
X424Y1107D02*
X427Y1107D01*
X441Y1107D02*
X444Y1107D01*
X454Y1107D02*
X457Y1107D01*
X471Y1107D02*
X474Y1107D01*
X484Y1107D02*
X487Y1107D01*
X492Y1107D02*
X496Y1107D01*
X399Y1106D02*
X403Y1106D01*
X411Y1106D02*
X414Y1106D01*
X424Y1106D02*
X427Y1106D01*
X441Y1106D02*
X444Y1106D01*
X454Y1106D02*
X457Y1106D01*
X471Y1106D02*
X474Y1106D01*
X484Y1106D02*
X487Y1106D01*
X492Y1106D02*
X496Y1106D01*
X398Y1105D02*
X402Y1105D01*
X411Y1105D02*
X414Y1105D01*
X424Y1105D02*
X427Y1105D01*
X441Y1105D02*
X444Y1105D01*
X454Y1105D02*
X457Y1105D01*
X471Y1105D02*
X474Y1105D01*
X484Y1105D02*
X487Y1105D01*
X492Y1105D02*
X496Y1105D01*
X398Y1104D02*
X402Y1104D01*
X411Y1104D02*
X414Y1104D01*
X424Y1104D02*
X427Y1104D01*
X441Y1104D02*
X444Y1104D01*
X454Y1104D02*
X457Y1104D01*
X471Y1104D02*
X474Y1104D01*
X484Y1104D02*
X487Y1104D01*
X492Y1104D02*
X496Y1104D01*
X397Y1103D02*
X401Y1103D01*
X411Y1103D02*
X414Y1103D01*
X424Y1103D02*
X427Y1103D01*
X441Y1103D02*
X444Y1103D01*
X454Y1103D02*
X457Y1103D01*
X471Y1103D02*
X474Y1103D01*
X484Y1103D02*
X487Y1103D01*
X492Y1103D02*
X496Y1103D01*
X397Y1102D02*
X400Y1102D01*
X411Y1102D02*
X414Y1102D01*
X424Y1102D02*
X427Y1102D01*
X441Y1102D02*
X444Y1102D01*
X454Y1102D02*
X457Y1102D01*
X471Y1102D02*
X474Y1102D01*
X484Y1102D02*
X487Y1102D01*
X492Y1102D02*
X496Y1102D01*
X396Y1101D02*
X400Y1101D01*
X411Y1101D02*
X414Y1101D01*
X424Y1101D02*
X427Y1101D01*
X441Y1101D02*
X444Y1101D01*
X454Y1101D02*
X457Y1101D01*
X471Y1101D02*
X474Y1101D01*
X484Y1101D02*
X487Y1101D01*
X492Y1101D02*
X496Y1101D01*
X395Y1100D02*
X399Y1100D01*
X411Y1100D02*
X414Y1100D01*
X424Y1100D02*
X428Y1100D01*
X441Y1100D02*
X444Y1100D01*
X454Y1100D02*
X458Y1100D01*
X471Y1100D02*
X474Y1100D01*
X484Y1100D02*
X488Y1100D01*
X492Y1100D02*
X496Y1100D01*
X395Y1099D02*
X399Y1099D01*
X411Y1099D02*
X414Y1099D01*
X424Y1099D02*
X444Y1099D01*
X454Y1099D02*
X474Y1099D01*
X484Y1099D02*
X503Y1099D01*
X394Y1098D02*
X398Y1098D01*
X411Y1098D02*
X414Y1098D01*
X425Y1098D02*
X444Y1098D01*
X455Y1098D02*
X474Y1098D01*
X484Y1098D02*
X504Y1098D01*
X394Y1097D02*
X398Y1097D01*
X411Y1097D02*
X414Y1097D01*
X425Y1097D02*
X443Y1097D01*
X455Y1097D02*
X473Y1097D01*
X484Y1097D02*
X504Y1097D01*
X395Y1096D02*
X397Y1096D01*
X412Y1096D02*
X413Y1096D01*
X427Y1096D02*
X442Y1096D01*
X457Y1096D02*
X472Y1096D01*
X485Y1096D02*
X503Y1096D01*
X99Y1095D02*
X116Y1095D01*
X91Y1094D02*
X124Y1094D01*
X86Y1093D02*
X129Y1093D01*
X82Y1092D02*
X133Y1092D01*
X78Y1091D02*
X136Y1091D01*
X75Y1090D02*
X140Y1090D01*
X72Y1089D02*
X142Y1089D01*
X70Y1088D02*
X145Y1088D01*
X389Y1088D02*
X401Y1088D01*
X67Y1087D02*
X147Y1087D01*
X383Y1087D02*
X407Y1087D01*
X65Y1086D02*
X150Y1086D01*
X379Y1086D02*
X411Y1086D01*
X63Y1085D02*
X98Y1085D01*
X117Y1085D02*
X152Y1085D01*
X376Y1085D02*
X414Y1085D01*
X61Y1084D02*
X90Y1084D01*
X124Y1084D02*
X154Y1084D01*
X374Y1084D02*
X417Y1084D01*
X59Y1083D02*
X85Y1083D01*
X129Y1083D02*
X156Y1083D01*
X371Y1083D02*
X419Y1083D01*
X57Y1082D02*
X81Y1082D01*
X133Y1082D02*
X157Y1082D01*
X369Y1082D02*
X421Y1082D01*
X55Y1081D02*
X78Y1081D01*
X137Y1081D02*
X159Y1081D01*
X367Y1081D02*
X423Y1081D01*
X54Y1080D02*
X75Y1080D01*
X140Y1080D02*
X161Y1080D01*
X365Y1080D02*
X425Y1080D01*
X52Y1079D02*
X72Y1079D01*
X142Y1079D02*
X162Y1079D01*
X364Y1079D02*
X427Y1079D01*
X50Y1078D02*
X69Y1078D01*
X145Y1078D02*
X164Y1078D01*
X362Y1078D02*
X389Y1078D01*
X402Y1078D02*
X428Y1078D01*
X49Y1077D02*
X67Y1077D01*
X147Y1077D02*
X166Y1077D01*
X361Y1077D02*
X383Y1077D01*
X408Y1077D02*
X430Y1077D01*
X48Y1076D02*
X65Y1076D01*
X149Y1076D02*
X167Y1076D01*
X359Y1076D02*
X379Y1076D01*
X412Y1076D02*
X431Y1076D01*
X46Y1075D02*
X63Y1075D01*
X151Y1075D02*
X168Y1075D01*
X358Y1075D02*
X376Y1075D01*
X414Y1075D02*
X433Y1075D01*
X45Y1074D02*
X61Y1074D01*
X153Y1074D02*
X170Y1074D01*
X357Y1074D02*
X373Y1074D01*
X417Y1074D02*
X434Y1074D01*
X44Y1073D02*
X59Y1073D01*
X155Y1073D02*
X171Y1073D01*
X356Y1073D02*
X371Y1073D01*
X419Y1073D02*
X435Y1073D01*
X42Y1072D02*
X58Y1072D01*
X157Y1072D02*
X172Y1072D01*
X354Y1072D02*
X369Y1072D01*
X421Y1072D02*
X436Y1072D01*
X41Y1071D02*
X56Y1071D01*
X158Y1071D02*
X173Y1071D01*
X353Y1071D02*
X368Y1071D01*
X423Y1071D02*
X437Y1071D01*
X40Y1070D02*
X54Y1070D01*
X160Y1070D02*
X175Y1070D01*
X352Y1070D02*
X366Y1070D01*
X425Y1070D02*
X438Y1070D01*
X39Y1069D02*
X53Y1069D01*
X162Y1069D02*
X176Y1069D01*
X351Y1069D02*
X365Y1069D01*
X426Y1069D02*
X439Y1069D01*
X38Y1068D02*
X51Y1068D01*
X163Y1068D02*
X177Y1068D01*
X350Y1068D02*
X363Y1068D01*
X427Y1068D02*
X440Y1068D01*
X37Y1067D02*
X50Y1067D01*
X164Y1067D02*
X178Y1067D01*
X218Y1067D02*
X220Y1067D01*
X246Y1067D02*
X249Y1067D01*
X350Y1067D02*
X362Y1067D01*
X429Y1067D02*
X441Y1067D01*
X36Y1066D02*
X49Y1066D01*
X166Y1066D02*
X179Y1066D01*
X218Y1066D02*
X221Y1066D01*
X246Y1066D02*
X249Y1066D01*
X349Y1066D02*
X361Y1066D01*
X430Y1066D02*
X442Y1066D01*
X34Y1065D02*
X47Y1065D01*
X167Y1065D02*
X180Y1065D01*
X218Y1065D02*
X221Y1065D01*
X246Y1065D02*
X249Y1065D01*
X348Y1065D02*
X360Y1065D01*
X431Y1065D02*
X443Y1065D01*
X33Y1064D02*
X46Y1064D01*
X168Y1064D02*
X181Y1064D01*
X218Y1064D02*
X221Y1064D01*
X246Y1064D02*
X249Y1064D01*
X347Y1064D02*
X358Y1064D01*
X432Y1064D02*
X443Y1064D01*
X33Y1063D02*
X45Y1063D01*
X170Y1063D02*
X182Y1063D01*
X218Y1063D02*
X221Y1063D01*
X246Y1063D02*
X249Y1063D01*
X346Y1063D02*
X357Y1063D01*
X433Y1063D02*
X444Y1063D01*
X32Y1062D02*
X44Y1062D01*
X171Y1062D02*
X183Y1062D01*
X218Y1062D02*
X221Y1062D01*
X246Y1062D02*
X249Y1062D01*
X346Y1062D02*
X356Y1062D01*
X434Y1062D02*
X445Y1062D01*
X31Y1061D02*
X43Y1061D01*
X172Y1061D02*
X184Y1061D01*
X218Y1061D02*
X221Y1061D01*
X246Y1061D02*
X249Y1061D01*
X345Y1061D02*
X356Y1061D01*
X435Y1061D02*
X446Y1061D01*
X30Y1060D02*
X42Y1060D01*
X173Y1060D02*
X185Y1060D01*
X218Y1060D02*
X221Y1060D01*
X246Y1060D02*
X249Y1060D01*
X344Y1060D02*
X355Y1060D01*
X436Y1060D02*
X446Y1060D01*
X29Y1059D02*
X41Y1059D01*
X174Y1059D02*
X186Y1059D01*
X218Y1059D02*
X249Y1059D01*
X343Y1059D02*
X354Y1059D01*
X437Y1059D02*
X447Y1059D01*
X28Y1058D02*
X40Y1058D01*
X175Y1058D02*
X187Y1058D01*
X218Y1058D02*
X249Y1058D01*
X343Y1058D02*
X353Y1058D01*
X437Y1058D02*
X448Y1058D01*
X27Y1057D02*
X39Y1057D01*
X176Y1057D02*
X187Y1057D01*
X218Y1057D02*
X249Y1057D01*
X342Y1057D02*
X352Y1057D01*
X438Y1057D02*
X448Y1057D01*
X26Y1056D02*
X38Y1056D01*
X177Y1056D02*
X188Y1056D01*
X218Y1056D02*
X249Y1056D01*
X342Y1056D02*
X352Y1056D01*
X439Y1056D02*
X449Y1056D01*
X26Y1055D02*
X37Y1055D01*
X178Y1055D02*
X189Y1055D01*
X246Y1055D02*
X249Y1055D01*
X341Y1055D02*
X351Y1055D01*
X439Y1055D02*
X449Y1055D01*
X25Y1054D02*
X36Y1054D01*
X179Y1054D02*
X190Y1054D01*
X246Y1054D02*
X249Y1054D01*
X341Y1054D02*
X350Y1054D01*
X440Y1054D02*
X450Y1054D01*
X24Y1053D02*
X35Y1053D01*
X180Y1053D02*
X190Y1053D01*
X246Y1053D02*
X249Y1053D01*
X340Y1053D02*
X350Y1053D01*
X441Y1053D02*
X450Y1053D01*
X23Y1052D02*
X34Y1052D01*
X180Y1052D02*
X191Y1052D01*
X246Y1052D02*
X249Y1052D01*
X340Y1052D02*
X349Y1052D01*
X441Y1052D02*
X451Y1052D01*
X23Y1051D02*
X33Y1051D01*
X181Y1051D02*
X192Y1051D01*
X236Y1051D02*
X249Y1051D01*
X339Y1051D02*
X349Y1051D01*
X442Y1051D02*
X451Y1051D01*
X22Y1050D02*
X32Y1050D01*
X140Y1050D02*
X175Y1050D01*
X182Y1050D02*
X193Y1050D01*
X235Y1050D02*
X249Y1050D01*
X339Y1050D02*
X348Y1050D01*
X442Y1050D02*
X452Y1050D01*
X21Y1049D02*
X32Y1049D01*
X139Y1049D02*
X176Y1049D01*
X183Y1049D02*
X193Y1049D01*
X235Y1049D02*
X249Y1049D01*
X338Y1049D02*
X348Y1049D01*
X443Y1049D02*
X452Y1049D01*
X20Y1048D02*
X31Y1048D01*
X138Y1048D02*
X177Y1048D01*
X184Y1048D02*
X194Y1048D01*
X236Y1048D02*
X248Y1048D01*
X338Y1048D02*
X347Y1048D01*
X443Y1048D02*
X453Y1048D01*
X20Y1047D02*
X30Y1047D01*
X138Y1047D02*
X177Y1047D01*
X184Y1047D02*
X195Y1047D01*
X338Y1047D02*
X347Y1047D01*
X444Y1047D02*
X453Y1047D01*
X19Y1046D02*
X29Y1046D01*
X137Y1046D02*
X177Y1046D01*
X185Y1046D02*
X195Y1046D01*
X337Y1046D02*
X346Y1046D01*
X444Y1046D02*
X453Y1046D01*
X19Y1045D02*
X29Y1045D01*
X137Y1045D02*
X177Y1045D01*
X186Y1045D02*
X196Y1045D01*
X337Y1045D02*
X346Y1045D01*
X444Y1045D02*
X454Y1045D01*
X18Y1044D02*
X28Y1044D01*
X138Y1044D02*
X177Y1044D01*
X187Y1044D02*
X197Y1044D01*
X336Y1044D02*
X346Y1044D01*
X445Y1044D02*
X454Y1044D01*
X17Y1043D02*
X27Y1043D01*
X138Y1043D02*
X177Y1043D01*
X187Y1043D02*
X197Y1043D01*
X336Y1043D02*
X345Y1043D01*
X445Y1043D02*
X454Y1043D01*
X17Y1042D02*
X27Y1042D01*
X139Y1042D02*
X176Y1042D01*
X188Y1042D02*
X198Y1042D01*
X336Y1042D02*
X345Y1042D01*
X445Y1042D02*
X455Y1042D01*
X16Y1041D02*
X26Y1041D01*
X140Y1041D02*
X175Y1041D01*
X188Y1041D02*
X198Y1041D01*
X336Y1041D02*
X345Y1041D01*
X435Y1041D02*
X455Y1041D01*
X16Y1040D02*
X26Y1040D01*
X143Y1040D02*
X172Y1040D01*
X189Y1040D02*
X199Y1040D01*
X335Y1040D02*
X345Y1040D01*
X435Y1040D02*
X455Y1040D01*
X15Y1039D02*
X25Y1039D01*
X190Y1039D02*
X199Y1039D01*
X335Y1039D02*
X344Y1039D01*
X436Y1039D02*
X455Y1039D01*
X15Y1038D02*
X24Y1038D01*
X190Y1038D02*
X200Y1038D01*
X222Y1038D02*
X245Y1038D01*
X335Y1038D02*
X344Y1038D01*
X436Y1038D02*
X454Y1038D01*
X14Y1037D02*
X24Y1037D01*
X191Y1037D02*
X200Y1037D01*
X219Y1037D02*
X248Y1037D01*
X335Y1037D02*
X344Y1037D01*
X437Y1037D02*
X454Y1037D01*
X14Y1036D02*
X23Y1036D01*
X191Y1036D02*
X201Y1036D01*
X218Y1036D02*
X248Y1036D01*
X335Y1036D02*
X344Y1036D01*
X437Y1036D02*
X454Y1036D01*
X13Y1035D02*
X23Y1035D01*
X192Y1035D02*
X201Y1035D01*
X218Y1035D02*
X249Y1035D01*
X334Y1035D02*
X343Y1035D01*
X437Y1035D02*
X453Y1035D01*
X13Y1034D02*
X22Y1034D01*
X192Y1034D02*
X202Y1034D01*
X218Y1034D02*
X249Y1034D01*
X334Y1034D02*
X343Y1034D01*
X437Y1034D02*
X453Y1034D01*
X12Y1033D02*
X22Y1033D01*
X193Y1033D02*
X202Y1033D01*
X218Y1033D02*
X221Y1033D01*
X246Y1033D02*
X249Y1033D01*
X334Y1033D02*
X343Y1033D01*
X438Y1033D02*
X453Y1033D01*
X12Y1032D02*
X21Y1032D01*
X200Y1032D02*
X203Y1032D01*
X218Y1032D02*
X221Y1032D01*
X246Y1032D02*
X249Y1032D01*
X334Y1032D02*
X343Y1032D01*
X438Y1032D02*
X453Y1032D01*
X11Y1031D02*
X21Y1031D01*
X200Y1031D02*
X203Y1031D01*
X218Y1031D02*
X221Y1031D01*
X246Y1031D02*
X249Y1031D01*
X334Y1031D02*
X343Y1031D01*
X438Y1031D02*
X453Y1031D01*
X11Y1030D02*
X20Y1030D01*
X200Y1030D02*
X204Y1030D01*
X218Y1030D02*
X221Y1030D01*
X246Y1030D02*
X249Y1030D01*
X334Y1030D02*
X343Y1030D01*
X438Y1030D02*
X452Y1030D01*
X10Y1029D02*
X20Y1029D01*
X200Y1029D02*
X204Y1029D01*
X218Y1029D02*
X221Y1029D01*
X246Y1029D02*
X249Y1029D01*
X334Y1029D02*
X343Y1029D01*
X438Y1029D02*
X452Y1029D01*
X10Y1028D02*
X19Y1028D01*
X200Y1028D02*
X205Y1028D01*
X218Y1028D02*
X221Y1028D01*
X246Y1028D02*
X249Y1028D01*
X334Y1028D02*
X343Y1028D01*
X438Y1028D02*
X452Y1028D01*
X10Y1027D02*
X19Y1027D01*
X200Y1027D02*
X205Y1027D01*
X218Y1027D02*
X221Y1027D01*
X246Y1027D02*
X249Y1027D01*
X334Y1027D02*
X343Y1027D01*
X438Y1027D02*
X452Y1027D01*
X9Y1026D02*
X19Y1026D01*
X200Y1026D02*
X205Y1026D01*
X218Y1026D02*
X221Y1026D01*
X246Y1026D02*
X249Y1026D01*
X334Y1026D02*
X343Y1026D01*
X438Y1026D02*
X452Y1026D01*
X9Y1025D02*
X18Y1025D01*
X200Y1025D02*
X206Y1025D01*
X218Y1025D02*
X221Y1025D01*
X246Y1025D02*
X249Y1025D01*
X334Y1025D02*
X343Y1025D01*
X438Y1025D02*
X452Y1025D01*
X8Y1024D02*
X18Y1024D01*
X200Y1024D02*
X206Y1024D01*
X218Y1024D02*
X221Y1024D01*
X246Y1024D02*
X249Y1024D01*
X334Y1024D02*
X343Y1024D01*
X438Y1024D02*
X452Y1024D01*
X8Y1023D02*
X17Y1023D01*
X200Y1023D02*
X206Y1023D01*
X218Y1023D02*
X221Y1023D01*
X246Y1023D02*
X249Y1023D01*
X334Y1023D02*
X343Y1023D01*
X438Y1023D02*
X452Y1023D01*
X8Y1022D02*
X17Y1022D01*
X200Y1022D02*
X207Y1022D01*
X218Y1022D02*
X221Y1022D01*
X246Y1022D02*
X249Y1022D01*
X334Y1022D02*
X343Y1022D01*
X438Y1022D02*
X453Y1022D01*
X7Y1021D02*
X17Y1021D01*
X200Y1021D02*
X207Y1021D01*
X218Y1021D02*
X249Y1021D01*
X334Y1021D02*
X343Y1021D01*
X438Y1021D02*
X453Y1021D01*
X7Y1020D02*
X16Y1020D01*
X200Y1020D02*
X207Y1020D01*
X218Y1020D02*
X249Y1020D01*
X334Y1020D02*
X343Y1020D01*
X438Y1020D02*
X453Y1020D01*
X7Y1019D02*
X16Y1019D01*
X200Y1019D02*
X208Y1019D01*
X219Y1019D02*
X248Y1019D01*
X334Y1019D02*
X343Y1019D01*
X437Y1019D02*
X453Y1019D01*
X7Y1018D02*
X16Y1018D01*
X200Y1018D02*
X208Y1018D01*
X220Y1018D02*
X247Y1018D01*
X334Y1018D02*
X343Y1018D01*
X437Y1018D02*
X453Y1018D01*
X6Y1017D02*
X15Y1017D01*
X200Y1017D02*
X208Y1017D01*
X335Y1017D02*
X344Y1017D01*
X437Y1017D02*
X454Y1017D01*
X6Y1016D02*
X15Y1016D01*
X200Y1016D02*
X208Y1016D01*
X335Y1016D02*
X344Y1016D01*
X437Y1016D02*
X454Y1016D01*
X6Y1015D02*
X15Y1015D01*
X200Y1015D02*
X209Y1015D01*
X335Y1015D02*
X344Y1015D01*
X436Y1015D02*
X454Y1015D01*
X6Y1014D02*
X15Y1014D01*
X200Y1014D02*
X209Y1014D01*
X335Y1014D02*
X344Y1014D01*
X436Y1014D02*
X455Y1014D01*
X5Y1013D02*
X14Y1013D01*
X200Y1013D02*
X209Y1013D01*
X335Y1013D02*
X344Y1013D01*
X436Y1013D02*
X455Y1013D01*
X5Y1012D02*
X14Y1012D01*
X200Y1012D02*
X209Y1012D01*
X336Y1012D02*
X345Y1012D01*
X435Y1012D02*
X455Y1012D01*
X5Y1011D02*
X14Y1011D01*
X201Y1011D02*
X210Y1011D01*
X336Y1011D02*
X345Y1011D01*
X446Y1011D02*
X455Y1011D01*
X5Y1010D02*
X14Y1010D01*
X201Y1010D02*
X210Y1010D01*
X336Y1010D02*
X345Y1010D01*
X445Y1010D02*
X454Y1010D01*
X5Y1009D02*
X14Y1009D01*
X201Y1009D02*
X210Y1009D01*
X336Y1009D02*
X346Y1009D01*
X445Y1009D02*
X454Y1009D01*
X4Y1008D02*
X13Y1008D01*
X201Y1008D02*
X210Y1008D01*
X228Y1008D02*
X230Y1008D01*
X337Y1008D02*
X346Y1008D01*
X445Y1008D02*
X454Y1008D01*
X4Y1007D02*
X13Y1007D01*
X201Y1007D02*
X210Y1007D01*
X227Y1007D02*
X245Y1007D01*
X337Y1007D02*
X346Y1007D01*
X444Y1007D02*
X453Y1007D01*
X4Y1006D02*
X13Y1006D01*
X201Y1006D02*
X211Y1006D01*
X226Y1006D02*
X247Y1006D01*
X337Y1006D02*
X347Y1006D01*
X444Y1006D02*
X453Y1006D01*
X4Y1005D02*
X13Y1005D01*
X202Y1005D02*
X211Y1005D01*
X227Y1005D02*
X248Y1005D01*
X338Y1005D02*
X347Y1005D01*
X443Y1005D02*
X453Y1005D01*
X4Y1004D02*
X13Y1004D01*
X202Y1004D02*
X211Y1004D01*
X228Y1004D02*
X248Y1004D01*
X338Y1004D02*
X348Y1004D01*
X443Y1004D02*
X452Y1004D01*
X4Y1003D02*
X13Y1003D01*
X202Y1003D02*
X211Y1003D01*
X245Y1003D02*
X249Y1003D01*
X339Y1003D02*
X348Y1003D01*
X442Y1003D02*
X452Y1003D01*
X3Y1002D02*
X12Y1002D01*
X202Y1002D02*
X211Y1002D01*
X246Y1002D02*
X249Y1002D01*
X339Y1002D02*
X349Y1002D01*
X442Y1002D02*
X451Y1002D01*
X3Y1001D02*
X12Y1001D01*
X202Y1001D02*
X211Y1001D01*
X246Y1001D02*
X249Y1001D01*
X340Y1001D02*
X349Y1001D01*
X441Y1001D02*
X451Y1001D01*
X3Y1000D02*
X12Y1000D01*
X202Y1000D02*
X211Y1000D01*
X246Y1000D02*
X249Y1000D01*
X340Y1000D02*
X350Y1000D01*
X441Y1000D02*
X451Y1000D01*
X3Y999D02*
X12Y999D01*
X202Y999D02*
X211Y999D01*
X246Y999D02*
X249Y999D01*
X340Y999D02*
X350Y999D01*
X440Y999D02*
X450Y999D01*
X3Y998D02*
X12Y998D01*
X202Y998D02*
X211Y998D01*
X246Y998D02*
X249Y998D01*
X341Y998D02*
X351Y998D01*
X440Y998D02*
X450Y998D01*
X3Y997D02*
X12Y997D01*
X202Y997D02*
X211Y997D01*
X245Y997D02*
X249Y997D01*
X341Y997D02*
X352Y997D01*
X439Y997D02*
X449Y997D01*
X3Y996D02*
X12Y996D01*
X203Y996D02*
X212Y996D01*
X244Y996D02*
X248Y996D01*
X342Y996D02*
X352Y996D01*
X438Y996D02*
X448Y996D01*
X3Y995D02*
X12Y995D01*
X203Y995D02*
X212Y995D01*
X244Y995D02*
X248Y995D01*
X343Y995D02*
X353Y995D01*
X438Y995D02*
X448Y995D01*
X3Y994D02*
X12Y994D01*
X203Y994D02*
X212Y994D01*
X243Y994D02*
X247Y994D01*
X343Y994D02*
X354Y994D01*
X437Y994D02*
X447Y994D01*
X3Y993D02*
X12Y993D01*
X203Y993D02*
X212Y993D01*
X242Y993D02*
X246Y993D01*
X344Y993D02*
X354Y993D01*
X436Y993D02*
X447Y993D01*
X3Y992D02*
X12Y992D01*
X203Y992D02*
X212Y992D01*
X242Y992D02*
X246Y992D01*
X345Y992D02*
X355Y992D01*
X435Y992D02*
X446Y992D01*
X3Y991D02*
X12Y991D01*
X203Y991D02*
X212Y991D01*
X227Y991D02*
X248Y991D01*
X345Y991D02*
X356Y991D01*
X434Y991D02*
X445Y991D01*
X3Y990D02*
X12Y990D01*
X203Y990D02*
X212Y990D01*
X227Y990D02*
X249Y990D01*
X346Y990D02*
X357Y990D01*
X433Y990D02*
X444Y990D01*
X3Y989D02*
X12Y989D01*
X203Y989D02*
X212Y989D01*
X227Y989D02*
X249Y989D01*
X347Y989D02*
X358Y989D01*
X432Y989D02*
X444Y989D01*
X3Y988D02*
X12Y988D01*
X203Y988D02*
X212Y988D01*
X227Y988D02*
X248Y988D01*
X348Y988D02*
X359Y988D01*
X431Y988D02*
X443Y988D01*
X3Y987D02*
X12Y987D01*
X203Y987D02*
X212Y987D01*
X348Y987D02*
X360Y987D01*
X430Y987D02*
X442Y987D01*
X3Y986D02*
X12Y986D01*
X203Y986D02*
X212Y986D01*
X349Y986D02*
X362Y986D01*
X429Y986D02*
X441Y986D01*
X3Y985D02*
X12Y985D01*
X203Y985D02*
X212Y985D01*
X350Y985D02*
X363Y985D01*
X428Y985D02*
X440Y985D01*
X3Y984D02*
X12Y984D01*
X202Y984D02*
X212Y984D01*
X351Y984D02*
X364Y984D01*
X426Y984D02*
X439Y984D01*
X3Y983D02*
X12Y983D01*
X202Y983D02*
X211Y983D01*
X352Y983D02*
X366Y983D01*
X425Y983D02*
X438Y983D01*
X3Y982D02*
X12Y982D01*
X202Y982D02*
X211Y982D01*
X353Y982D02*
X367Y982D01*
X423Y982D02*
X437Y982D01*
X3Y981D02*
X12Y981D01*
X202Y981D02*
X211Y981D01*
X354Y981D02*
X369Y981D01*
X422Y981D02*
X436Y981D01*
X3Y980D02*
X12Y980D01*
X202Y980D02*
X211Y980D01*
X355Y980D02*
X371Y980D01*
X420Y980D02*
X435Y980D01*
X3Y979D02*
X12Y979D01*
X202Y979D02*
X211Y979D01*
X356Y979D02*
X373Y979D01*
X418Y979D02*
X434Y979D01*
X4Y978D02*
X13Y978D01*
X202Y978D02*
X211Y978D01*
X218Y978D02*
X247Y978D01*
X358Y978D02*
X375Y978D01*
X415Y978D02*
X433Y978D01*
X4Y977D02*
X13Y977D01*
X202Y977D02*
X211Y977D01*
X218Y977D02*
X249Y977D01*
X359Y977D02*
X378Y977D01*
X412Y977D02*
X432Y977D01*
X4Y976D02*
X13Y976D01*
X202Y976D02*
X211Y976D01*
X218Y976D02*
X249Y976D01*
X360Y976D02*
X382Y976D01*
X409Y976D02*
X430Y976D01*
X4Y975D02*
X13Y975D01*
X202Y975D02*
X211Y975D01*
X218Y975D02*
X249Y975D01*
X362Y975D02*
X387Y975D01*
X403Y975D02*
X429Y975D01*
X4Y974D02*
X13Y974D01*
X201Y974D02*
X210Y974D01*
X218Y974D02*
X247Y974D01*
X363Y974D02*
X427Y974D01*
X4Y973D02*
X13Y973D01*
X201Y973D02*
X210Y973D01*
X218Y973D02*
X221Y973D01*
X228Y973D02*
X231Y973D01*
X365Y973D02*
X426Y973D01*
X5Y972D02*
X14Y972D01*
X201Y972D02*
X210Y972D01*
X218Y972D02*
X221Y972D01*
X228Y972D02*
X231Y972D01*
X367Y972D02*
X424Y972D01*
X5Y971D02*
X14Y971D01*
X201Y971D02*
X210Y971D01*
X218Y971D02*
X221Y971D01*
X228Y971D02*
X231Y971D01*
X369Y971D02*
X422Y971D01*
X5Y970D02*
X14Y970D01*
X201Y970D02*
X210Y970D01*
X218Y970D02*
X221Y970D01*
X228Y970D02*
X231Y970D01*
X371Y970D02*
X420Y970D01*
X5Y969D02*
X14Y969D01*
X200Y969D02*
X209Y969D01*
X218Y969D02*
X221Y969D01*
X228Y969D02*
X231Y969D01*
X373Y969D02*
X418Y969D01*
X5Y968D02*
X14Y968D01*
X200Y968D02*
X209Y968D01*
X218Y968D02*
X221Y968D01*
X228Y968D02*
X231Y968D01*
X376Y968D02*
X415Y968D01*
X6Y967D02*
X15Y967D01*
X200Y967D02*
X209Y967D01*
X218Y967D02*
X221Y967D01*
X228Y967D02*
X231Y967D01*
X379Y967D02*
X412Y967D01*
X6Y966D02*
X15Y966D01*
X200Y966D02*
X209Y966D01*
X218Y966D02*
X221Y966D01*
X228Y966D02*
X231Y966D01*
X382Y966D02*
X408Y966D01*
X6Y965D02*
X15Y965D01*
X200Y965D02*
X208Y965D01*
X218Y965D02*
X221Y965D01*
X228Y965D02*
X231Y965D01*
X388Y965D02*
X402Y965D01*
X6Y964D02*
X15Y964D01*
X200Y964D02*
X208Y964D01*
X218Y964D02*
X221Y964D01*
X228Y964D02*
X231Y964D01*
X7Y963D02*
X16Y963D01*
X200Y963D02*
X208Y963D01*
X218Y963D02*
X221Y963D01*
X228Y963D02*
X231Y963D01*
X7Y962D02*
X16Y962D01*
X200Y962D02*
X208Y962D01*
X218Y962D02*
X221Y962D01*
X229Y962D02*
X231Y962D01*
X760Y962D02*
X767Y962D01*
X7Y961D02*
X16Y961D01*
X200Y961D02*
X207Y961D01*
X218Y961D02*
X221Y961D01*
X758Y961D02*
X768Y961D01*
X7Y960D02*
X17Y960D01*
X200Y960D02*
X207Y960D01*
X218Y960D02*
X221Y960D01*
X758Y960D02*
X760Y960D01*
X766Y960D02*
X769Y960D01*
X8Y959D02*
X17Y959D01*
X200Y959D02*
X207Y959D01*
X218Y959D02*
X221Y959D01*
X758Y959D02*
X759Y959D01*
X768Y959D02*
X769Y959D01*
X8Y958D02*
X17Y958D01*
X200Y958D02*
X206Y958D01*
X218Y958D02*
X220Y958D01*
X757Y958D02*
X759Y958D01*
X768Y958D02*
X769Y958D01*
X8Y957D02*
X18Y957D01*
X200Y957D02*
X206Y957D01*
X758Y957D02*
X759Y957D01*
X767Y957D02*
X769Y957D01*
X9Y956D02*
X18Y956D01*
X200Y956D02*
X206Y956D01*
X758Y956D02*
X769Y956D01*
X9Y955D02*
X19Y955D01*
X200Y955D02*
X205Y955D01*
X759Y955D02*
X768Y955D01*
X10Y954D02*
X19Y954D01*
X200Y954D02*
X205Y954D01*
X760Y954D02*
X767Y954D01*
X10Y953D02*
X19Y953D01*
X200Y953D02*
X205Y953D01*
X10Y952D02*
X20Y952D01*
X200Y952D02*
X204Y952D01*
X11Y951D02*
X20Y951D01*
X200Y951D02*
X204Y951D01*
X761Y951D02*
X773Y951D01*
X11Y950D02*
X21Y950D01*
X200Y950D02*
X203Y950D01*
X759Y950D02*
X773Y950D01*
X12Y949D02*
X21Y949D01*
X200Y949D02*
X203Y949D01*
X758Y949D02*
X773Y949D01*
X12Y948D02*
X22Y948D01*
X193Y948D02*
X202Y948D01*
X758Y948D02*
X759Y948D01*
X767Y948D02*
X769Y948D01*
X13Y947D02*
X22Y947D01*
X192Y947D02*
X202Y947D01*
X698Y947D02*
X708Y947D01*
X757Y947D02*
X759Y947D01*
X768Y947D02*
X769Y947D01*
X13Y946D02*
X23Y946D01*
X192Y946D02*
X201Y946D01*
X698Y946D02*
X708Y946D01*
X757Y946D02*
X759Y946D01*
X768Y946D02*
X769Y946D01*
X14Y945D02*
X23Y945D01*
X191Y945D02*
X201Y945D01*
X698Y945D02*
X708Y945D01*
X758Y945D02*
X760Y945D01*
X767Y945D02*
X769Y945D01*
X14Y944D02*
X24Y944D01*
X191Y944D02*
X200Y944D01*
X697Y944D02*
X708Y944D01*
X758Y944D02*
X768Y944D01*
X15Y943D02*
X24Y943D01*
X190Y943D02*
X200Y943D01*
X697Y943D02*
X709Y943D01*
X759Y943D02*
X767Y943D01*
X15Y942D02*
X25Y942D01*
X190Y942D02*
X200Y942D01*
X697Y942D02*
X709Y942D01*
X16Y941D02*
X25Y941D01*
X143Y941D02*
X172Y941D01*
X189Y941D02*
X199Y941D01*
X697Y941D02*
X709Y941D01*
X16Y940D02*
X26Y940D01*
X140Y940D02*
X175Y940D01*
X188Y940D02*
X198Y940D01*
X697Y940D02*
X709Y940D01*
X17Y939D02*
X27Y939D01*
X139Y939D02*
X176Y939D01*
X188Y939D02*
X198Y939D01*
X696Y939D02*
X709Y939D01*
X760Y939D02*
X767Y939D01*
X17Y938D02*
X27Y938D01*
X138Y938D02*
X177Y938D01*
X187Y938D02*
X197Y938D01*
X696Y938D02*
X709Y938D01*
X758Y938D02*
X768Y938D01*
X18Y937D02*
X28Y937D01*
X138Y937D02*
X177Y937D01*
X187Y937D02*
X197Y937D01*
X696Y937D02*
X710Y937D01*
X758Y937D02*
X760Y937D01*
X763Y937D02*
X765Y937D01*
X767Y937D02*
X769Y937D01*
X19Y936D02*
X29Y936D01*
X137Y936D02*
X177Y936D01*
X186Y936D02*
X196Y936D01*
X696Y936D02*
X710Y936D01*
X758Y936D02*
X759Y936D01*
X763Y936D02*
X764Y936D01*
X768Y936D02*
X769Y936D01*
X19Y935D02*
X29Y935D01*
X137Y935D02*
X177Y935D01*
X185Y935D02*
X195Y935D01*
X668Y935D02*
X668Y935D01*
X696Y935D02*
X710Y935D01*
X738Y935D02*
X738Y935D01*
X757Y935D02*
X759Y935D01*
X762Y935D02*
X764Y935D01*
X768Y935D02*
X769Y935D01*
X20Y934D02*
X30Y934D01*
X138Y934D02*
X177Y934D01*
X184Y934D02*
X195Y934D01*
X667Y934D02*
X669Y934D01*
X696Y934D02*
X710Y934D01*
X736Y934D02*
X739Y934D01*
X758Y934D02*
X759Y934D01*
X762Y934D02*
X764Y934D01*
X767Y934D02*
X769Y934D01*
X20Y933D02*
X31Y933D01*
X138Y933D02*
X177Y933D01*
X184Y933D02*
X194Y933D01*
X666Y933D02*
X671Y933D01*
X695Y933D02*
X711Y933D01*
X735Y933D02*
X740Y933D01*
X758Y933D02*
X763Y933D01*
X765Y933D02*
X769Y933D01*
X21Y932D02*
X32Y932D01*
X139Y932D02*
X176Y932D01*
X183Y932D02*
X194Y932D01*
X665Y932D02*
X672Y932D01*
X693Y932D02*
X714Y932D01*
X734Y932D02*
X741Y932D01*
X759Y932D02*
X763Y932D01*
X765Y932D02*
X768Y932D01*
X22Y931D02*
X32Y931D01*
X140Y931D02*
X175Y931D01*
X182Y931D02*
X193Y931D01*
X664Y931D02*
X674Y931D01*
X690Y931D02*
X717Y931D01*
X732Y931D02*
X742Y931D01*
X760Y931D02*
X762Y931D01*
X765Y931D02*
X766Y931D01*
X23Y930D02*
X33Y930D01*
X181Y930D02*
X192Y930D01*
X663Y930D02*
X675Y930D01*
X687Y930D02*
X720Y930D01*
X731Y930D02*
X743Y930D01*
X23Y929D02*
X34Y929D01*
X181Y929D02*
X191Y929D01*
X662Y929D02*
X677Y929D01*
X685Y929D02*
X722Y929D01*
X729Y929D02*
X744Y929D01*
X24Y928D02*
X35Y928D01*
X180Y928D02*
X191Y928D01*
X661Y928D02*
X678Y928D01*
X683Y928D02*
X724Y928D01*
X728Y928D02*
X745Y928D01*
X761Y928D02*
X769Y928D01*
X25Y927D02*
X36Y927D01*
X179Y927D02*
X190Y927D01*
X661Y927D02*
X679Y927D01*
X682Y927D02*
X744Y927D01*
X759Y927D02*
X769Y927D01*
X26Y926D02*
X37Y926D01*
X178Y926D02*
X189Y926D01*
X662Y926D02*
X744Y926D01*
X758Y926D02*
X769Y926D01*
X26Y925D02*
X38Y925D01*
X177Y925D02*
X188Y925D01*
X663Y925D02*
X743Y925D01*
X758Y925D02*
X759Y925D01*
X27Y924D02*
X39Y924D01*
X176Y924D02*
X187Y924D01*
X663Y924D02*
X742Y924D01*
X757Y924D02*
X759Y924D01*
X28Y923D02*
X39Y923D01*
X175Y923D02*
X187Y923D01*
X664Y923D02*
X742Y923D01*
X757Y923D02*
X759Y923D01*
X29Y922D02*
X41Y922D01*
X174Y922D02*
X186Y922D01*
X665Y922D02*
X741Y922D01*
X758Y922D02*
X760Y922D01*
X30Y921D02*
X42Y921D01*
X173Y921D02*
X185Y921D01*
X666Y921D02*
X740Y921D01*
X758Y921D02*
X769Y921D01*
X31Y920D02*
X43Y920D01*
X172Y920D02*
X184Y920D01*
X666Y920D02*
X740Y920D01*
X759Y920D02*
X769Y920D01*
X32Y919D02*
X44Y919D01*
X171Y919D02*
X183Y919D01*
X667Y919D02*
X739Y919D01*
X32Y918D02*
X45Y918D01*
X170Y918D02*
X182Y918D01*
X668Y918D02*
X738Y918D01*
X33Y917D02*
X46Y917D01*
X168Y917D02*
X181Y917D01*
X668Y917D02*
X737Y917D01*
X34Y916D02*
X47Y916D01*
X167Y916D02*
X180Y916D01*
X669Y916D02*
X737Y916D01*
X36Y915D02*
X49Y915D01*
X166Y915D02*
X179Y915D01*
X670Y915D02*
X737Y915D01*
X37Y914D02*
X50Y914D01*
X164Y914D02*
X178Y914D01*
X669Y914D02*
X738Y914D01*
X38Y913D02*
X51Y913D01*
X163Y913D02*
X177Y913D01*
X669Y913D02*
X738Y913D01*
X39Y912D02*
X53Y912D01*
X162Y912D02*
X176Y912D01*
X668Y912D02*
X699Y912D01*
X707Y912D02*
X739Y912D01*
X40Y911D02*
X54Y911D01*
X160Y911D02*
X175Y911D01*
X668Y911D02*
X696Y911D01*
X710Y911D02*
X739Y911D01*
X41Y910D02*
X56Y910D01*
X159Y910D02*
X174Y910D01*
X667Y910D02*
X693Y910D01*
X713Y910D02*
X736Y910D01*
X42Y909D02*
X58Y909D01*
X157Y909D02*
X172Y909D01*
X667Y909D02*
X692Y909D01*
X714Y909D02*
X734Y909D01*
X755Y909D02*
X769Y909D01*
X44Y908D02*
X59Y908D01*
X155Y908D02*
X171Y908D01*
X666Y908D02*
X690Y908D01*
X716Y908D02*
X731Y908D01*
X754Y908D02*
X769Y908D01*
X45Y907D02*
X61Y907D01*
X154Y907D02*
X170Y907D01*
X666Y907D02*
X689Y907D01*
X717Y907D02*
X729Y907D01*
X759Y907D02*
X760Y907D01*
X46Y906D02*
X63Y906D01*
X151Y906D02*
X168Y906D01*
X665Y906D02*
X688Y906D01*
X718Y906D02*
X726Y906D01*
X758Y906D02*
X759Y906D01*
X48Y905D02*
X65Y905D01*
X149Y905D02*
X167Y905D01*
X665Y905D02*
X687Y905D01*
X719Y905D02*
X724Y905D01*
X758Y905D02*
X759Y905D01*
X49Y904D02*
X67Y904D01*
X147Y904D02*
X166Y904D01*
X665Y904D02*
X687Y904D01*
X719Y904D02*
X722Y904D01*
X758Y904D02*
X759Y904D01*
X50Y903D02*
X69Y903D01*
X145Y903D02*
X164Y903D01*
X665Y903D02*
X686Y903D01*
X759Y903D02*
X760Y903D01*
X52Y902D02*
X72Y902D01*
X142Y902D02*
X162Y902D01*
X664Y902D02*
X685Y902D01*
X759Y902D02*
X769Y902D01*
X54Y901D02*
X75Y901D01*
X140Y901D02*
X161Y901D01*
X664Y901D02*
X685Y901D01*
X762Y901D02*
X768Y901D01*
X55Y900D02*
X78Y900D01*
X137Y900D02*
X159Y900D01*
X659Y900D02*
X684Y900D01*
X57Y899D02*
X81Y899D01*
X134Y899D02*
X158Y899D01*
X653Y899D02*
X684Y899D01*
X59Y898D02*
X85Y898D01*
X130Y898D02*
X156Y898D01*
X649Y898D02*
X684Y898D01*
X761Y898D02*
X762Y898D01*
X766Y898D02*
X767Y898D01*
X61Y897D02*
X90Y897D01*
X124Y897D02*
X154Y897D01*
X649Y897D02*
X683Y897D01*
X759Y897D02*
X762Y897D01*
X765Y897D02*
X768Y897D01*
X63Y896D02*
X98Y896D01*
X117Y896D02*
X152Y896D01*
X649Y896D02*
X683Y896D01*
X759Y896D02*
X760Y896D01*
X764Y896D02*
X765Y896D01*
X768Y896D02*
X769Y896D01*
X65Y895D02*
X150Y895D01*
X649Y895D02*
X683Y895D01*
X758Y895D02*
X759Y895D01*
X764Y895D02*
X765Y895D01*
X768Y895D02*
X769Y895D01*
X67Y894D02*
X148Y894D01*
X649Y894D02*
X683Y894D01*
X758Y894D02*
X759Y894D01*
X763Y894D02*
X764Y894D01*
X768Y894D02*
X769Y894D01*
X69Y893D02*
X145Y893D01*
X649Y893D02*
X683Y893D01*
X758Y893D02*
X759Y893D01*
X763Y893D02*
X764Y893D01*
X769Y893D02*
X769Y893D01*
X72Y892D02*
X143Y892D01*
X649Y892D02*
X683Y892D01*
X759Y892D02*
X760Y892D01*
X762Y892D02*
X763Y892D01*
X75Y891D02*
X140Y891D01*
X649Y891D02*
X683Y891D01*
X760Y891D02*
X769Y891D01*
X78Y890D02*
X137Y890D01*
X649Y890D02*
X683Y890D01*
X762Y890D02*
X768Y890D01*
X81Y889D02*
X133Y889D01*
X649Y889D02*
X683Y889D01*
X86Y888D02*
X129Y888D01*
X649Y888D02*
X684Y888D01*
X91Y887D02*
X124Y887D01*
X651Y887D02*
X684Y887D01*
X761Y887D02*
X769Y887D01*
X99Y886D02*
X116Y886D01*
X657Y886D02*
X684Y886D01*
X759Y886D02*
X769Y886D01*
X662Y885D02*
X685Y885D01*
X759Y885D02*
X760Y885D01*
X664Y884D02*
X685Y884D01*
X758Y884D02*
X759Y884D01*
X664Y883D02*
X686Y883D01*
X758Y883D02*
X759Y883D01*
X665Y882D02*
X686Y882D01*
X720Y882D02*
X721Y882D01*
X758Y882D02*
X759Y882D01*
X665Y881D02*
X687Y881D01*
X719Y881D02*
X723Y881D01*
X759Y881D02*
X760Y881D01*
X665Y880D02*
X688Y880D01*
X718Y880D02*
X726Y880D01*
X760Y880D02*
X762Y880D01*
X666Y879D02*
X689Y879D01*
X717Y879D02*
X728Y879D01*
X666Y878D02*
X690Y878D01*
X716Y878D02*
X730Y878D01*
X666Y877D02*
X691Y877D01*
X715Y877D02*
X733Y877D01*
X667Y876D02*
X693Y876D01*
X713Y876D02*
X735Y876D01*
X760Y876D02*
X767Y876D01*
X667Y875D02*
X695Y875D01*
X711Y875D02*
X738Y875D01*
X759Y875D02*
X768Y875D01*
X668Y874D02*
X698Y874D01*
X709Y874D02*
X739Y874D01*
X758Y874D02*
X760Y874D01*
X768Y874D02*
X769Y874D01*
X668Y873D02*
X739Y873D01*
X758Y873D02*
X759Y873D01*
X768Y873D02*
X769Y873D01*
X669Y872D02*
X738Y872D01*
X758Y872D02*
X759Y872D01*
X768Y872D02*
X769Y872D01*
X670Y871D02*
X737Y871D01*
X758Y871D02*
X759Y871D01*
X768Y871D02*
X769Y871D01*
X669Y870D02*
X737Y870D01*
X758Y870D02*
X761Y870D01*
X767Y870D02*
X769Y870D01*
X669Y869D02*
X737Y869D01*
X754Y869D02*
X768Y869D01*
X668Y868D02*
X738Y868D01*
X667Y867D02*
X739Y867D01*
X666Y866D02*
X739Y866D01*
X759Y866D02*
X768Y866D01*
X666Y865D02*
X740Y865D01*
X758Y865D02*
X769Y865D01*
X665Y864D02*
X741Y864D01*
X768Y864D02*
X769Y864D01*
X664Y863D02*
X741Y863D01*
X768Y863D02*
X769Y863D01*
X664Y862D02*
X742Y862D01*
X759Y862D02*
X769Y862D01*
X663Y861D02*
X743Y861D01*
X758Y861D02*
X769Y861D01*
X662Y860D02*
X743Y860D01*
X768Y860D02*
X769Y860D01*
X662Y859D02*
X744Y859D01*
X768Y859D02*
X769Y859D01*
X661Y858D02*
X679Y858D01*
X683Y858D02*
X724Y858D01*
X727Y858D02*
X745Y858D01*
X759Y858D02*
X769Y858D01*
X78Y857D02*
X96Y857D01*
X108Y857D02*
X110Y857D01*
X124Y857D02*
X126Y857D01*
X139Y857D02*
X156Y857D01*
X662Y857D02*
X677Y857D01*
X684Y857D02*
X723Y857D01*
X729Y857D02*
X744Y857D01*
X758Y857D02*
X768Y857D01*
X77Y856D02*
X97Y856D01*
X107Y856D02*
X111Y856D01*
X124Y856D02*
X127Y856D01*
X138Y856D02*
X157Y856D01*
X663Y856D02*
X676Y856D01*
X686Y856D02*
X721Y856D01*
X730Y856D02*
X743Y856D01*
X77Y855D02*
X97Y855D01*
X107Y855D02*
X112Y855D01*
X123Y855D02*
X127Y855D01*
X137Y855D02*
X157Y855D01*
X664Y855D02*
X674Y855D01*
X689Y855D02*
X718Y855D01*
X732Y855D02*
X742Y855D01*
X77Y854D02*
X97Y854D01*
X108Y854D02*
X113Y854D01*
X123Y854D02*
X127Y854D01*
X137Y854D02*
X156Y854D01*
X665Y854D02*
X673Y854D01*
X691Y854D02*
X716Y854D01*
X733Y854D02*
X741Y854D01*
X760Y854D02*
X762Y854D01*
X765Y854D02*
X768Y854D01*
X77Y853D02*
X80Y853D01*
X93Y853D02*
X97Y853D01*
X109Y853D02*
X114Y853D01*
X123Y853D02*
X127Y853D01*
X137Y853D02*
X140Y853D01*
X666Y853D02*
X671Y853D01*
X695Y853D02*
X712Y853D01*
X734Y853D02*
X740Y853D01*
X759Y853D02*
X761Y853D01*
X764Y853D02*
X769Y853D01*
X77Y852D02*
X80Y852D01*
X94Y852D02*
X97Y852D01*
X110Y852D02*
X115Y852D01*
X123Y852D02*
X127Y852D01*
X137Y852D02*
X140Y852D01*
X667Y852D02*
X670Y852D01*
X695Y852D02*
X710Y852D01*
X736Y852D02*
X739Y852D01*
X758Y852D02*
X759Y852D01*
X764Y852D02*
X765Y852D01*
X768Y852D02*
X769Y852D01*
X77Y851D02*
X80Y851D01*
X94Y851D02*
X97Y851D01*
X111Y851D02*
X117Y851D01*
X123Y851D02*
X127Y851D01*
X137Y851D02*
X140Y851D01*
X668Y851D02*
X668Y851D01*
X696Y851D02*
X710Y851D01*
X737Y851D02*
X738Y851D01*
X758Y851D02*
X759Y851D01*
X763Y851D02*
X764Y851D01*
X768Y851D02*
X769Y851D01*
X77Y850D02*
X80Y850D01*
X94Y850D02*
X97Y850D01*
X112Y850D02*
X118Y850D01*
X123Y850D02*
X127Y850D01*
X137Y850D02*
X140Y850D01*
X696Y850D02*
X710Y850D01*
X758Y850D02*
X759Y850D01*
X763Y850D02*
X764Y850D01*
X768Y850D02*
X769Y850D01*
X77Y849D02*
X80Y849D01*
X94Y849D02*
X97Y849D01*
X113Y849D02*
X119Y849D01*
X123Y849D02*
X127Y849D01*
X137Y849D02*
X140Y849D01*
X696Y849D02*
X710Y849D01*
X758Y849D02*
X759Y849D01*
X763Y849D02*
X764Y849D01*
X77Y848D02*
X80Y848D01*
X94Y848D02*
X97Y848D01*
X115Y848D02*
X120Y848D01*
X123Y848D02*
X127Y848D01*
X137Y848D02*
X140Y848D01*
X696Y848D02*
X710Y848D01*
X759Y848D02*
X769Y848D01*
X77Y847D02*
X97Y847D01*
X116Y847D02*
X121Y847D01*
X123Y847D02*
X127Y847D01*
X137Y847D02*
X140Y847D01*
X696Y847D02*
X709Y847D01*
X760Y847D02*
X769Y847D01*
X77Y846D02*
X97Y846D01*
X117Y846D02*
X127Y846D01*
X137Y846D02*
X140Y846D01*
X697Y846D02*
X709Y846D01*
X77Y845D02*
X97Y845D01*
X118Y845D02*
X127Y845D01*
X137Y845D02*
X140Y845D01*
X697Y845D02*
X709Y845D01*
X77Y844D02*
X96Y844D01*
X119Y844D02*
X127Y844D01*
X137Y844D02*
X141Y844D01*
X697Y844D02*
X709Y844D01*
X77Y843D02*
X95Y843D01*
X120Y843D02*
X127Y843D01*
X138Y843D02*
X152Y843D01*
X697Y843D02*
X709Y843D01*
X760Y843D02*
X769Y843D01*
X77Y842D02*
X80Y842D01*
X122Y842D02*
X127Y842D01*
X138Y842D02*
X152Y842D01*
X697Y842D02*
X708Y842D01*
X759Y842D02*
X768Y842D01*
X77Y841D02*
X80Y841D01*
X122Y841D02*
X127Y841D01*
X138Y841D02*
X152Y841D01*
X698Y841D02*
X708Y841D01*
X758Y841D02*
X759Y841D01*
X77Y840D02*
X80Y840D01*
X121Y840D02*
X127Y840D01*
X138Y840D02*
X152Y840D01*
X698Y840D02*
X708Y840D01*
X758Y840D02*
X759Y840D01*
X77Y839D02*
X80Y839D01*
X120Y839D02*
X127Y839D01*
X137Y839D02*
X141Y839D01*
X698Y839D02*
X708Y839D01*
X758Y839D02*
X759Y839D01*
X77Y838D02*
X80Y838D01*
X118Y838D02*
X127Y838D01*
X137Y838D02*
X140Y838D01*
X699Y838D02*
X707Y838D01*
X758Y838D02*
X760Y838D01*
X77Y837D02*
X80Y837D01*
X117Y837D02*
X127Y837D01*
X137Y837D02*
X140Y837D01*
X759Y837D02*
X762Y837D01*
X77Y836D02*
X80Y836D01*
X116Y836D02*
X121Y836D01*
X123Y836D02*
X127Y836D01*
X137Y836D02*
X140Y836D01*
X760Y836D02*
X761Y836D01*
X77Y835D02*
X80Y835D01*
X115Y835D02*
X120Y835D01*
X123Y835D02*
X127Y835D01*
X137Y835D02*
X140Y835D01*
X77Y834D02*
X80Y834D01*
X114Y834D02*
X119Y834D01*
X123Y834D02*
X127Y834D01*
X137Y834D02*
X140Y834D01*
X77Y833D02*
X80Y833D01*
X112Y833D02*
X118Y833D01*
X123Y833D02*
X127Y833D01*
X137Y833D02*
X140Y833D01*
X77Y832D02*
X80Y832D01*
X111Y832D02*
X117Y832D01*
X123Y832D02*
X127Y832D01*
X137Y832D02*
X140Y832D01*
X760Y832D02*
X768Y832D01*
X77Y831D02*
X80Y831D01*
X110Y831D02*
X116Y831D01*
X123Y831D02*
X127Y831D01*
X137Y831D02*
X140Y831D01*
X759Y831D02*
X761Y831D01*
X764Y831D02*
X769Y831D01*
X77Y830D02*
X80Y830D01*
X109Y830D02*
X114Y830D01*
X123Y830D02*
X127Y830D01*
X137Y830D02*
X140Y830D01*
X758Y830D02*
X759Y830D01*
X764Y830D02*
X765Y830D01*
X768Y830D02*
X769Y830D01*
X77Y829D02*
X81Y829D01*
X108Y829D02*
X113Y829D01*
X123Y829D02*
X127Y829D01*
X137Y829D02*
X156Y829D01*
X758Y829D02*
X759Y829D01*
X763Y829D02*
X764Y829D01*
X768Y829D02*
X769Y829D01*
X77Y828D02*
X82Y828D01*
X107Y828D02*
X112Y828D01*
X123Y828D02*
X127Y828D01*
X137Y828D02*
X156Y828D01*
X758Y828D02*
X759Y828D01*
X763Y828D02*
X764Y828D01*
X768Y828D02*
X769Y828D01*
X77Y827D02*
X82Y827D01*
X107Y827D02*
X111Y827D01*
X124Y827D02*
X127Y827D01*
X138Y827D02*
X157Y827D01*
X758Y827D02*
X760Y827D01*
X762Y827D02*
X763Y827D01*
X768Y827D02*
X769Y827D01*
X77Y826D02*
X82Y826D01*
X107Y826D02*
X110Y826D01*
X124Y826D02*
X126Y826D01*
X139Y826D02*
X156Y826D01*
X759Y826D02*
X763Y826D01*
X766Y826D02*
X768Y826D01*
X760Y825D02*
X762Y825D01*
X765Y825D02*
X767Y825D01*
X118Y814D02*
X118Y814D01*
X108Y813D02*
X128Y813D01*
X103Y812D02*
X133Y812D01*
X100Y811D02*
X136Y811D01*
X97Y810D02*
X139Y810D01*
X94Y809D02*
X141Y809D01*
X92Y808D02*
X143Y808D01*
X90Y807D02*
X145Y807D01*
X88Y806D02*
X147Y806D01*
X87Y805D02*
X149Y805D01*
X85Y804D02*
X116Y804D01*
X119Y804D02*
X151Y804D01*
X84Y803D02*
X107Y803D01*
X129Y803D02*
X152Y803D01*
X82Y802D02*
X103Y802D01*
X133Y802D02*
X153Y802D01*
X81Y801D02*
X100Y801D01*
X136Y801D02*
X155Y801D01*
X80Y800D02*
X97Y800D01*
X139Y800D02*
X156Y800D01*
X457Y800D02*
X459Y800D01*
X79Y799D02*
X95Y799D01*
X141Y799D02*
X157Y799D01*
X456Y799D02*
X461Y799D01*
X77Y798D02*
X93Y798D01*
X143Y798D02*
X158Y798D01*
X456Y798D02*
X462Y798D01*
X76Y797D02*
X91Y797D01*
X145Y797D02*
X159Y797D01*
X456Y797D02*
X464Y797D01*
X75Y796D02*
X89Y796D01*
X147Y796D02*
X161Y796D01*
X457Y796D02*
X466Y796D01*
X74Y795D02*
X88Y795D01*
X148Y795D02*
X162Y795D01*
X458Y795D02*
X468Y795D01*
X73Y794D02*
X86Y794D01*
X150Y794D02*
X162Y794D01*
X458Y794D02*
X470Y794D01*
X72Y793D02*
X85Y793D01*
X151Y793D02*
X163Y793D01*
X459Y793D02*
X472Y793D01*
X72Y792D02*
X84Y792D01*
X152Y792D02*
X164Y792D01*
X459Y792D02*
X463Y792D01*
X466Y792D02*
X473Y792D01*
X71Y791D02*
X82Y791D01*
X153Y791D02*
X165Y791D01*
X460Y791D02*
X464Y791D01*
X468Y791D02*
X475Y791D01*
X70Y790D02*
X81Y790D01*
X154Y790D02*
X166Y790D01*
X460Y790D02*
X464Y790D01*
X469Y790D02*
X477Y790D01*
X69Y789D02*
X80Y789D01*
X155Y789D02*
X167Y789D01*
X461Y789D02*
X465Y789D01*
X471Y789D02*
X479Y789D01*
X68Y788D02*
X79Y788D01*
X156Y788D02*
X167Y788D01*
X461Y788D02*
X465Y788D01*
X473Y788D02*
X481Y788D01*
X68Y787D02*
X78Y787D01*
X157Y787D02*
X168Y787D01*
X462Y787D02*
X466Y787D01*
X473Y787D02*
X483Y787D01*
X67Y786D02*
X78Y786D01*
X158Y786D02*
X169Y786D01*
X462Y786D02*
X466Y786D01*
X472Y786D02*
X484Y786D01*
X66Y785D02*
X77Y785D01*
X159Y785D02*
X169Y785D01*
X463Y785D02*
X467Y785D01*
X471Y785D02*
X476Y785D01*
X478Y785D02*
X485Y785D01*
X66Y784D02*
X76Y784D01*
X160Y784D02*
X170Y784D01*
X464Y784D02*
X467Y784D01*
X470Y784D02*
X475Y784D01*
X480Y784D02*
X485Y784D01*
X65Y783D02*
X75Y783D01*
X161Y783D02*
X171Y783D01*
X464Y783D02*
X474Y783D01*
X482Y783D02*
X484Y783D01*
X64Y782D02*
X75Y782D01*
X161Y782D02*
X171Y782D01*
X465Y782D02*
X473Y782D01*
X64Y781D02*
X74Y781D01*
X162Y781D02*
X172Y781D01*
X440Y781D02*
X441Y781D01*
X465Y781D02*
X472Y781D01*
X63Y780D02*
X73Y780D01*
X163Y780D02*
X172Y780D01*
X439Y780D02*
X442Y780D01*
X466Y780D02*
X471Y780D01*
X63Y779D02*
X73Y779D01*
X163Y779D02*
X173Y779D01*
X439Y779D02*
X443Y779D01*
X448Y779D02*
X448Y779D01*
X466Y779D02*
X470Y779D01*
X62Y778D02*
X72Y778D01*
X164Y778D02*
X173Y778D01*
X439Y778D02*
X444Y778D01*
X447Y778D02*
X450Y778D01*
X467Y778D02*
X471Y778D01*
X62Y777D02*
X71Y777D01*
X164Y777D02*
X174Y777D01*
X440Y777D02*
X450Y777D01*
X467Y777D02*
X471Y777D01*
X61Y776D02*
X71Y776D01*
X165Y776D02*
X174Y776D01*
X441Y776D02*
X450Y776D01*
X468Y776D02*
X472Y776D01*
X61Y775D02*
X71Y775D01*
X165Y775D02*
X175Y775D01*
X442Y775D02*
X449Y775D01*
X469Y775D02*
X472Y775D01*
X61Y774D02*
X70Y774D01*
X166Y774D02*
X175Y774D01*
X443Y774D02*
X448Y774D01*
X469Y774D02*
X473Y774D01*
X60Y773D02*
X70Y773D01*
X166Y773D02*
X175Y773D01*
X442Y773D02*
X449Y773D01*
X470Y773D02*
X473Y773D01*
X60Y772D02*
X69Y772D01*
X167Y772D02*
X176Y772D01*
X441Y772D02*
X450Y772D01*
X470Y772D02*
X473Y772D01*
X60Y771D02*
X69Y771D01*
X167Y771D02*
X176Y771D01*
X440Y771D02*
X451Y771D01*
X471Y771D02*
X472Y771D01*
X59Y770D02*
X68Y770D01*
X167Y770D02*
X177Y770D01*
X439Y770D02*
X444Y770D01*
X447Y770D02*
X452Y770D01*
X59Y769D02*
X68Y769D01*
X168Y769D02*
X177Y769D01*
X438Y769D02*
X443Y769D01*
X448Y769D02*
X453Y769D01*
X59Y768D02*
X68Y768D01*
X168Y768D02*
X177Y768D01*
X437Y768D02*
X442Y768D01*
X449Y768D02*
X454Y768D01*
X58Y767D02*
X67Y767D01*
X168Y767D02*
X177Y767D01*
X437Y767D02*
X441Y767D01*
X450Y767D02*
X455Y767D01*
X58Y766D02*
X67Y766D01*
X169Y766D02*
X178Y766D01*
X437Y766D02*
X440Y766D01*
X451Y766D02*
X456Y766D01*
X58Y765D02*
X67Y765D01*
X169Y765D02*
X178Y765D01*
X438Y765D02*
X439Y765D01*
X452Y765D02*
X457Y765D01*
X58Y764D02*
X67Y764D01*
X169Y764D02*
X178Y764D01*
X453Y764D02*
X458Y764D01*
X57Y763D02*
X67Y763D01*
X169Y763D02*
X178Y763D01*
X454Y763D02*
X458Y763D01*
X57Y762D02*
X66Y762D01*
X169Y762D02*
X178Y762D01*
X455Y762D02*
X459Y762D01*
X57Y761D02*
X66Y761D01*
X170Y761D02*
X179Y761D01*
X456Y761D02*
X459Y761D01*
X57Y760D02*
X66Y760D01*
X170Y760D02*
X179Y760D01*
X456Y760D02*
X459Y760D01*
X57Y759D02*
X66Y759D01*
X170Y759D02*
X179Y759D01*
X418Y759D02*
X421Y759D01*
X455Y759D02*
X459Y759D01*
X57Y758D02*
X66Y758D01*
X170Y758D02*
X179Y758D01*
X418Y758D02*
X422Y758D01*
X454Y758D02*
X459Y758D01*
X57Y757D02*
X66Y757D01*
X170Y757D02*
X179Y757D01*
X418Y757D02*
X423Y757D01*
X426Y757D02*
X428Y757D01*
X453Y757D02*
X458Y757D01*
X57Y756D02*
X66Y756D01*
X170Y756D02*
X179Y756D01*
X419Y756D02*
X429Y756D01*
X448Y756D02*
X448Y756D01*
X452Y756D02*
X457Y756D01*
X57Y755D02*
X66Y755D01*
X170Y755D02*
X179Y755D01*
X420Y755D02*
X429Y755D01*
X447Y755D02*
X456Y755D01*
X57Y754D02*
X65Y754D01*
X170Y754D02*
X179Y754D01*
X421Y754D02*
X428Y754D01*
X446Y754D02*
X455Y754D01*
X56Y753D02*
X65Y753D01*
X170Y753D02*
X179Y753D01*
X421Y753D02*
X427Y753D01*
X447Y753D02*
X454Y753D01*
X56Y752D02*
X65Y752D01*
X170Y752D02*
X179Y752D01*
X421Y752D02*
X428Y752D01*
X448Y752D02*
X453Y752D01*
X56Y751D02*
X65Y751D01*
X170Y751D02*
X179Y751D01*
X420Y751D02*
X429Y751D01*
X57Y750D02*
X66Y750D01*
X170Y750D02*
X179Y750D01*
X419Y750D02*
X430Y750D01*
X57Y749D02*
X66Y749D01*
X170Y749D02*
X179Y749D01*
X418Y749D02*
X423Y749D01*
X426Y749D02*
X431Y749D01*
X57Y748D02*
X66Y748D01*
X170Y748D02*
X179Y748D01*
X417Y748D02*
X422Y748D01*
X427Y748D02*
X432Y748D01*
X57Y747D02*
X66Y747D01*
X170Y747D02*
X179Y747D01*
X416Y747D02*
X421Y747D01*
X428Y747D02*
X433Y747D01*
X57Y746D02*
X66Y746D01*
X170Y746D02*
X179Y746D01*
X415Y746D02*
X420Y746D01*
X429Y746D02*
X434Y746D01*
X57Y745D02*
X66Y745D01*
X170Y745D02*
X179Y745D01*
X415Y745D02*
X419Y745D01*
X430Y745D02*
X435Y745D01*
X57Y744D02*
X66Y744D01*
X170Y744D02*
X179Y744D01*
X416Y744D02*
X418Y744D01*
X431Y744D02*
X436Y744D01*
X57Y743D02*
X66Y743D01*
X170Y743D02*
X179Y743D01*
X432Y743D02*
X436Y743D01*
X57Y742D02*
X66Y742D01*
X169Y742D02*
X178Y742D01*
X433Y742D02*
X437Y742D01*
X58Y741D02*
X67Y741D01*
X169Y741D02*
X178Y741D01*
X434Y741D02*
X437Y741D01*
X58Y740D02*
X67Y740D01*
X169Y740D02*
X178Y740D01*
X434Y740D02*
X438Y740D01*
X58Y739D02*
X67Y739D01*
X169Y739D02*
X178Y739D01*
X393Y739D02*
X395Y739D01*
X435Y739D02*
X438Y739D01*
X58Y738D02*
X67Y738D01*
X168Y738D02*
X178Y738D01*
X392Y738D02*
X396Y738D01*
X434Y738D02*
X438Y738D01*
X58Y737D02*
X68Y737D01*
X168Y737D02*
X177Y737D01*
X391Y737D02*
X397Y737D01*
X433Y737D02*
X437Y737D01*
X59Y736D02*
X68Y736D01*
X168Y736D02*
X177Y736D01*
X391Y736D02*
X397Y736D01*
X432Y736D02*
X437Y736D01*
X59Y735D02*
X68Y735D01*
X168Y735D02*
X177Y735D01*
X391Y735D02*
X396Y735D01*
X404Y735D02*
X405Y735D01*
X431Y735D02*
X436Y735D01*
X59Y734D02*
X69Y734D01*
X167Y734D02*
X177Y734D01*
X392Y734D02*
X395Y734D01*
X403Y734D02*
X406Y734D01*
X425Y734D02*
X435Y734D01*
X60Y733D02*
X69Y733D01*
X167Y733D02*
X176Y733D01*
X394Y733D02*
X394Y733D01*
X402Y733D02*
X406Y733D01*
X425Y733D02*
X434Y733D01*
X60Y732D02*
X69Y732D01*
X167Y732D02*
X176Y732D01*
X401Y732D02*
X406Y732D01*
X425Y732D02*
X433Y732D01*
X60Y731D02*
X70Y731D01*
X166Y731D02*
X175Y731D01*
X400Y731D02*
X405Y731D01*
X426Y731D02*
X432Y731D01*
X61Y730D02*
X70Y730D01*
X166Y730D02*
X175Y730D01*
X399Y730D02*
X404Y730D01*
X61Y729D02*
X71Y729D01*
X165Y729D02*
X175Y729D01*
X399Y729D02*
X403Y729D01*
X62Y728D02*
X71Y728D01*
X165Y728D02*
X174Y728D01*
X399Y728D02*
X403Y728D01*
X62Y727D02*
X72Y727D01*
X164Y727D02*
X174Y727D01*
X399Y727D02*
X404Y727D01*
X62Y726D02*
X72Y726D01*
X164Y726D02*
X173Y726D01*
X400Y726D02*
X405Y726D01*
X63Y725D02*
X73Y725D01*
X163Y725D02*
X173Y725D01*
X401Y725D02*
X406Y725D01*
X63Y724D02*
X73Y724D01*
X162Y724D02*
X172Y724D01*
X402Y724D02*
X407Y724D01*
X64Y723D02*
X74Y723D01*
X162Y723D02*
X172Y723D01*
X403Y723D02*
X408Y723D01*
X65Y722D02*
X75Y722D01*
X161Y722D02*
X171Y722D01*
X404Y722D02*
X409Y722D01*
X65Y721D02*
X75Y721D01*
X160Y721D02*
X171Y721D01*
X405Y721D02*
X410Y721D01*
X417Y721D02*
X419Y721D01*
X66Y720D02*
X76Y720D01*
X160Y720D02*
X170Y720D01*
X406Y720D02*
X411Y720D01*
X416Y720D02*
X420Y720D01*
X66Y719D02*
X77Y719D01*
X159Y719D02*
X169Y719D01*
X407Y719D02*
X412Y719D01*
X415Y719D02*
X420Y719D01*
X67Y718D02*
X78Y718D01*
X158Y718D02*
X169Y718D01*
X408Y718D02*
X419Y718D01*
X68Y717D02*
X79Y717D01*
X157Y717D02*
X168Y717D01*
X409Y717D02*
X418Y717D01*
X68Y716D02*
X80Y716D01*
X156Y716D02*
X167Y716D01*
X410Y716D02*
X417Y716D01*
X69Y715D02*
X80Y715D01*
X155Y715D02*
X167Y715D01*
X384Y715D02*
X386Y715D01*
X411Y715D02*
X416Y715D01*
X70Y714D02*
X82Y714D01*
X154Y714D02*
X166Y714D01*
X383Y714D02*
X387Y714D01*
X410Y714D02*
X415Y714D01*
X71Y713D02*
X83Y713D01*
X153Y713D02*
X165Y713D01*
X383Y713D02*
X388Y713D01*
X409Y713D02*
X414Y713D01*
X72Y712D02*
X84Y712D01*
X103Y712D02*
X105Y712D01*
X131Y712D02*
X132Y712D01*
X152Y712D02*
X164Y712D01*
X384Y712D02*
X389Y712D01*
X408Y712D02*
X413Y712D01*
X73Y711D02*
X85Y711D01*
X103Y711D02*
X108Y711D01*
X128Y711D02*
X132Y711D01*
X151Y711D02*
X163Y711D01*
X384Y711D02*
X390Y711D01*
X408Y711D02*
X412Y711D01*
X73Y710D02*
X86Y710D01*
X103Y710D02*
X113Y710D01*
X123Y710D02*
X132Y710D01*
X149Y710D02*
X162Y710D01*
X381Y710D02*
X391Y710D01*
X408Y710D02*
X411Y710D01*
X74Y709D02*
X88Y709D01*
X103Y709D02*
X132Y709D01*
X148Y709D02*
X161Y709D01*
X378Y709D02*
X392Y709D01*
X409Y709D02*
X410Y709D01*
X75Y708D02*
X89Y708D01*
X103Y708D02*
X132Y708D01*
X146Y708D02*
X160Y708D01*
X377Y708D02*
X393Y708D01*
X77Y707D02*
X91Y707D01*
X103Y707D02*
X132Y707D01*
X145Y707D02*
X159Y707D01*
X376Y707D02*
X386Y707D01*
X389Y707D02*
X394Y707D01*
X78Y706D02*
X93Y706D01*
X103Y706D02*
X132Y706D01*
X143Y706D02*
X158Y706D01*
X375Y706D02*
X381Y706D01*
X390Y706D02*
X395Y706D01*
X79Y705D02*
X95Y705D01*
X103Y705D02*
X132Y705D01*
X141Y705D02*
X157Y705D01*
X374Y705D02*
X379Y705D01*
X391Y705D02*
X396Y705D01*
X80Y704D02*
X97Y704D01*
X103Y704D02*
X132Y704D01*
X139Y704D02*
X156Y704D01*
X374Y704D02*
X378Y704D01*
X392Y704D02*
X397Y704D01*
X81Y703D02*
X100Y703D01*
X103Y703D02*
X132Y703D01*
X136Y703D02*
X155Y703D01*
X374Y703D02*
X377Y703D01*
X393Y703D02*
X398Y703D01*
X83Y702D02*
X153Y702D01*
X374Y702D02*
X377Y702D01*
X394Y702D02*
X399Y702D01*
X84Y701D02*
X152Y701D01*
X374Y701D02*
X377Y701D01*
X395Y701D02*
X400Y701D01*
X85Y700D02*
X150Y700D01*
X374Y700D02*
X378Y700D01*
X396Y700D02*
X400Y700D01*
X87Y699D02*
X149Y699D01*
X374Y699D02*
X379Y699D01*
X397Y699D02*
X400Y699D01*
X89Y698D02*
X147Y698D01*
X375Y698D02*
X380Y698D01*
X398Y698D02*
X399Y698D01*
X91Y697D02*
X145Y697D01*
X376Y697D02*
X381Y697D01*
X93Y696D02*
X143Y696D01*
X377Y696D02*
X382Y696D01*
X95Y695D02*
X141Y695D01*
X378Y695D02*
X383Y695D01*
X97Y694D02*
X111Y694D01*
X125Y694D02*
X138Y694D01*
X363Y694D02*
X364Y694D01*
X379Y694D02*
X384Y694D01*
X100Y693D02*
X107Y693D01*
X129Y693D02*
X136Y693D01*
X362Y693D02*
X365Y693D01*
X380Y693D02*
X384Y693D01*
X103Y692D02*
X104Y692D01*
X132Y692D02*
X132Y692D01*
X362Y692D02*
X366Y692D01*
X381Y692D02*
X385Y692D01*
X362Y691D02*
X367Y691D01*
X382Y691D02*
X386Y691D01*
X363Y690D02*
X368Y690D01*
X383Y690D02*
X387Y690D01*
X364Y689D02*
X368Y689D01*
X383Y689D02*
X388Y689D01*
X365Y688D02*
X368Y688D01*
X384Y688D02*
X388Y688D01*
X365Y687D02*
X369Y687D01*
X385Y687D02*
X388Y687D01*
X366Y686D02*
X369Y686D01*
X387Y686D02*
X387Y686D01*
X366Y685D02*
X370Y685D01*
X366Y684D02*
X370Y684D01*
X367Y683D02*
X370Y683D01*
X351Y682D02*
X353Y682D01*
X367Y682D02*
X371Y682D01*
X350Y681D02*
X354Y681D01*
X368Y681D02*
X371Y681D01*
X350Y680D02*
X355Y680D01*
X368Y680D02*
X372Y680D01*
X351Y679D02*
X357Y679D01*
X368Y679D02*
X372Y679D01*
X352Y678D02*
X360Y678D01*
X369Y678D02*
X372Y678D01*
X353Y677D02*
X362Y677D01*
X369Y677D02*
X373Y677D01*
X332Y676D02*
X334Y676D01*
X354Y676D02*
X365Y676D01*
X370Y676D02*
X373Y676D01*
X331Y675D02*
X335Y675D01*
X357Y675D02*
X373Y675D01*
X330Y674D02*
X336Y674D01*
X359Y674D02*
X373Y674D01*
X383Y674D02*
X384Y674D01*
X329Y673D02*
X337Y673D01*
X362Y673D02*
X373Y673D01*
X382Y673D02*
X385Y673D01*
X328Y672D02*
X338Y672D01*
X365Y672D02*
X375Y672D01*
X381Y672D02*
X385Y672D01*
X327Y671D02*
X332Y671D01*
X334Y671D02*
X339Y671D01*
X367Y671D02*
X378Y671D01*
X380Y671D02*
X385Y671D01*
X326Y670D02*
X331Y670D01*
X335Y670D02*
X340Y670D01*
X370Y670D02*
X384Y670D01*
X326Y669D02*
X330Y669D01*
X336Y669D02*
X341Y669D01*
X372Y669D02*
X383Y669D01*
X326Y668D02*
X330Y668D01*
X337Y668D02*
X342Y668D01*
X345Y668D02*
X347Y668D01*
X375Y668D02*
X382Y668D01*
X326Y667D02*
X331Y667D01*
X338Y667D02*
X349Y667D01*
X377Y667D02*
X381Y667D01*
X327Y666D02*
X332Y666D01*
X339Y666D02*
X350Y666D01*
X328Y665D02*
X333Y665D01*
X340Y665D02*
X351Y665D01*
X329Y664D02*
X334Y664D01*
X340Y664D02*
X345Y664D01*
X347Y664D02*
X352Y664D01*
X330Y663D02*
X335Y663D01*
X339Y663D02*
X344Y663D01*
X348Y663D02*
X353Y663D01*
X331Y662D02*
X336Y662D01*
X338Y662D02*
X343Y662D01*
X349Y662D02*
X354Y662D01*
X332Y661D02*
X342Y661D01*
X350Y661D02*
X355Y661D01*
X333Y660D02*
X341Y660D01*
X351Y660D02*
X356Y660D01*
X334Y659D02*
X340Y659D01*
X352Y659D02*
X356Y659D01*
X334Y658D02*
X339Y658D01*
X353Y658D02*
X357Y658D01*
X334Y657D02*
X338Y657D01*
X353Y657D02*
X357Y657D01*
X334Y656D02*
X337Y656D01*
X352Y656D02*
X357Y656D01*
X311Y655D02*
X313Y655D01*
X334Y655D02*
X337Y655D01*
X351Y655D02*
X356Y655D01*
X310Y654D02*
X314Y654D01*
X334Y654D02*
X338Y654D01*
X350Y654D02*
X355Y654D01*
X309Y653D02*
X315Y653D01*
X335Y653D02*
X339Y653D01*
X349Y653D02*
X354Y653D01*
X308Y652D02*
X316Y652D01*
X335Y652D02*
X340Y652D01*
X348Y652D02*
X353Y652D01*
X307Y651D02*
X317Y651D01*
X336Y651D02*
X341Y651D01*
X347Y651D02*
X352Y651D01*
X306Y650D02*
X318Y650D01*
X337Y650D02*
X342Y650D01*
X346Y650D02*
X351Y650D01*
X305Y649D02*
X310Y649D01*
X314Y649D02*
X319Y649D01*
X338Y649D02*
X343Y649D01*
X345Y649D02*
X350Y649D01*
X304Y648D02*
X309Y648D01*
X315Y648D02*
X320Y648D01*
X339Y648D02*
X349Y648D01*
X303Y647D02*
X308Y647D01*
X316Y647D02*
X321Y647D01*
X340Y647D02*
X348Y647D01*
X302Y646D02*
X307Y646D01*
X317Y646D02*
X322Y646D01*
X341Y646D02*
X347Y646D01*
X302Y645D02*
X306Y645D01*
X318Y645D02*
X323Y645D01*
X343Y645D02*
X346Y645D01*
X302Y644D02*
X305Y644D01*
X319Y644D02*
X324Y644D01*
X302Y643D02*
X304Y643D01*
X319Y643D02*
X324Y643D01*
X318Y642D02*
X323Y642D01*
X317Y641D02*
X322Y641D01*
X316Y640D02*
X321Y640D01*
X315Y639D02*
X320Y639D01*
X333Y639D02*
X334Y639D01*
X314Y638D02*
X319Y638D01*
X332Y638D02*
X335Y638D01*
X313Y637D02*
X318Y637D01*
X332Y637D02*
X335Y637D01*
X313Y636D02*
X317Y636D01*
X331Y636D02*
X335Y636D01*
X313Y635D02*
X316Y635D01*
X331Y635D02*
X335Y635D01*
X313Y634D02*
X316Y634D01*
X330Y634D02*
X334Y634D01*
X313Y633D02*
X317Y633D01*
X329Y633D02*
X334Y633D01*
X313Y632D02*
X318Y632D01*
X328Y632D02*
X333Y632D01*
X314Y631D02*
X319Y631D01*
X327Y631D02*
X332Y631D01*
X315Y630D02*
X320Y630D01*
X326Y630D02*
X331Y630D01*
X316Y629D02*
X321Y629D01*
X325Y629D02*
X330Y629D01*
X317Y628D02*
X322Y628D01*
X324Y628D02*
X329Y628D01*
X318Y627D02*
X328Y627D01*
X319Y626D02*
X327Y626D01*
X320Y625D02*
X326Y625D01*
X321Y624D02*
X325Y624D01*
X22Y595D02*
X101Y595D01*
X22Y594D02*
X101Y594D01*
X22Y593D02*
X101Y593D01*
X22Y592D02*
X101Y592D01*
X22Y591D02*
X101Y591D01*
X22Y590D02*
X101Y590D01*
X22Y589D02*
X101Y589D01*
X22Y588D02*
X101Y588D01*
X22Y587D02*
X101Y587D01*
X22Y586D02*
X101Y586D01*
X22Y585D02*
X101Y585D01*
X22Y584D02*
X101Y584D01*
X22Y583D02*
X101Y583D01*
X22Y582D02*
X101Y582D01*
X22Y581D02*
X101Y581D01*
X22Y580D02*
X101Y580D01*
X22Y579D02*
X101Y579D01*
X22Y578D02*
X101Y578D01*
X22Y577D02*
X101Y577D01*
X22Y576D02*
X101Y576D01*
X22Y575D02*
X101Y575D01*
X22Y574D02*
X101Y574D01*
X22Y573D02*
X101Y573D01*
X22Y572D02*
X101Y572D01*
X22Y571D02*
X101Y571D01*
X22Y570D02*
X101Y570D01*
X22Y569D02*
X101Y569D01*
X22Y568D02*
X101Y568D01*
X22Y567D02*
X101Y567D01*
X22Y566D02*
X101Y566D01*
X22Y565D02*
X101Y565D01*
X22Y564D02*
X53Y564D01*
X58Y564D02*
X101Y564D01*
X22Y563D02*
X52Y563D01*
X59Y563D02*
X101Y563D01*
X22Y562D02*
X51Y562D01*
X60Y562D02*
X101Y562D01*
X22Y561D02*
X51Y561D01*
X60Y561D02*
X81Y561D01*
X88Y561D02*
X101Y561D01*
X22Y560D02*
X51Y560D01*
X60Y560D02*
X79Y560D01*
X90Y560D02*
X101Y560D01*
X22Y559D02*
X51Y559D01*
X60Y559D02*
X78Y559D01*
X91Y559D02*
X101Y559D01*
X22Y558D02*
X51Y558D01*
X60Y558D02*
X77Y558D01*
X92Y558D02*
X101Y558D01*
X22Y557D02*
X51Y557D01*
X60Y557D02*
X76Y557D01*
X93Y557D02*
X101Y557D01*
X22Y556D02*
X50Y556D01*
X61Y556D02*
X75Y556D01*
X94Y556D02*
X101Y556D01*
X22Y555D02*
X41Y555D01*
X94Y555D02*
X101Y555D01*
X22Y554D02*
X39Y554D01*
X94Y554D02*
X101Y554D01*
X22Y553D02*
X37Y553D01*
X95Y553D02*
X101Y553D01*
X22Y552D02*
X36Y552D01*
X95Y552D02*
X101Y552D01*
X22Y551D02*
X35Y551D01*
X95Y551D02*
X101Y551D01*
X22Y550D02*
X35Y550D01*
X95Y550D02*
X101Y550D01*
X22Y549D02*
X34Y549D01*
X94Y549D02*
X101Y549D01*
X22Y548D02*
X34Y548D01*
X94Y548D02*
X101Y548D01*
X22Y547D02*
X33Y547D01*
X45Y547D02*
X50Y547D01*
X60Y547D02*
X75Y547D01*
X94Y547D02*
X101Y547D01*
X22Y546D02*
X33Y546D01*
X44Y546D02*
X51Y546D01*
X60Y546D02*
X76Y546D01*
X93Y546D02*
X101Y546D01*
X22Y545D02*
X33Y545D01*
X43Y545D02*
X51Y545D01*
X60Y545D02*
X77Y545D01*
X92Y545D02*
X101Y545D01*
X22Y544D02*
X33Y544D01*
X43Y544D02*
X51Y544D01*
X60Y544D02*
X78Y544D01*
X91Y544D02*
X101Y544D01*
X22Y543D02*
X33Y543D01*
X43Y543D02*
X51Y543D01*
X60Y543D02*
X79Y543D01*
X90Y543D02*
X101Y543D01*
X22Y542D02*
X33Y542D01*
X43Y542D02*
X51Y542D01*
X60Y542D02*
X83Y542D01*
X87Y542D02*
X101Y542D01*
X22Y541D02*
X33Y541D01*
X43Y541D02*
X51Y541D01*
X60Y541D02*
X101Y541D01*
X22Y540D02*
X33Y540D01*
X43Y540D02*
X51Y540D01*
X60Y540D02*
X101Y540D01*
X22Y539D02*
X33Y539D01*
X43Y539D02*
X51Y539D01*
X60Y539D02*
X101Y539D01*
X22Y538D02*
X33Y538D01*
X43Y538D02*
X52Y538D01*
X59Y538D02*
X101Y538D01*
X22Y537D02*
X33Y537D01*
X43Y537D02*
X53Y537D01*
X58Y537D02*
X101Y537D01*
X22Y536D02*
X33Y536D01*
X43Y536D02*
X101Y536D01*
X22Y535D02*
X33Y535D01*
X43Y535D02*
X101Y535D01*
X22Y534D02*
X33Y534D01*
X42Y534D02*
X101Y534D01*
X22Y533D02*
X33Y533D01*
X42Y533D02*
X101Y533D01*
X22Y532D02*
X34Y532D01*
X42Y532D02*
X101Y532D01*
X22Y531D02*
X35Y531D01*
X41Y531D02*
X101Y531D01*
X22Y530D02*
X101Y530D01*
X22Y529D02*
X101Y529D01*
X22Y528D02*
X101Y528D01*
X22Y527D02*
X101Y527D01*
X22Y526D02*
X101Y526D01*
X22Y525D02*
X101Y525D01*
X22Y524D02*
X101Y524D01*
X22Y523D02*
X101Y523D01*
X22Y522D02*
X101Y522D01*
X650Y522D02*
X660Y522D01*
X22Y521D02*
X101Y521D01*
X646Y521D02*
X663Y521D01*
X22Y520D02*
X101Y520D01*
X644Y520D02*
X666Y520D01*
X22Y519D02*
X101Y519D01*
X642Y519D02*
X668Y519D01*
X22Y518D02*
X101Y518D01*
X640Y518D02*
X670Y518D01*
X22Y517D02*
X101Y517D01*
X638Y517D02*
X671Y517D01*
X22Y516D02*
X101Y516D01*
X637Y516D02*
X673Y516D01*
X22Y515D02*
X101Y515D01*
X636Y515D02*
X674Y515D01*
X22Y514D02*
X101Y514D01*
X634Y514D02*
X675Y514D01*
X22Y513D02*
X101Y513D01*
X633Y513D02*
X649Y513D01*
X662Y513D02*
X676Y513D01*
X753Y513D02*
X778Y513D01*
X22Y512D02*
X101Y512D01*
X632Y512D02*
X646Y512D01*
X664Y512D02*
X677Y512D01*
X753Y512D02*
X778Y512D01*
X22Y511D02*
X101Y511D01*
X631Y511D02*
X644Y511D01*
X666Y511D02*
X678Y511D01*
X753Y511D02*
X778Y511D01*
X22Y510D02*
X101Y510D01*
X630Y510D02*
X643Y510D01*
X668Y510D02*
X679Y510D01*
X770Y510D02*
X771Y510D01*
X22Y509D02*
X101Y509D01*
X630Y509D02*
X641Y509D01*
X669Y509D02*
X680Y509D01*
X769Y509D02*
X770Y509D01*
X22Y508D02*
X101Y508D01*
X629Y508D02*
X640Y508D01*
X670Y508D02*
X681Y508D01*
X768Y508D02*
X769Y508D01*
X22Y507D02*
X101Y507D01*
X628Y507D02*
X639Y507D01*
X671Y507D02*
X681Y507D01*
X767Y507D02*
X769Y507D01*
X22Y506D02*
X101Y506D01*
X627Y506D02*
X638Y506D01*
X673Y506D02*
X682Y506D01*
X766Y506D02*
X769Y506D01*
X22Y505D02*
X101Y505D01*
X626Y505D02*
X637Y505D01*
X674Y505D02*
X683Y505D01*
X765Y505D02*
X771Y505D01*
X22Y504D02*
X101Y504D01*
X626Y504D02*
X636Y504D01*
X674Y504D02*
X684Y504D01*
X764Y504D02*
X766Y504D01*
X770Y504D02*
X772Y504D01*
X22Y503D02*
X101Y503D01*
X625Y503D02*
X635Y503D01*
X675Y503D02*
X684Y503D01*
X763Y503D02*
X765Y503D01*
X771Y503D02*
X774Y503D01*
X22Y502D02*
X101Y502D01*
X624Y502D02*
X634Y502D01*
X676Y502D02*
X685Y502D01*
X695Y502D02*
X707Y502D01*
X762Y502D02*
X764Y502D01*
X772Y502D02*
X775Y502D01*
X624Y501D02*
X634Y501D01*
X677Y501D02*
X686Y501D01*
X689Y501D02*
X711Y501D01*
X761Y501D02*
X763Y501D01*
X774Y501D02*
X776Y501D01*
X623Y500D02*
X633Y500D01*
X678Y500D02*
X714Y500D01*
X760Y500D02*
X762Y500D01*
X775Y500D02*
X778Y500D01*
X622Y499D02*
X632Y499D01*
X679Y499D02*
X717Y499D01*
X760Y499D02*
X761Y499D01*
X777Y499D02*
X778Y499D01*
X600Y498D02*
X616Y498D01*
X622Y498D02*
X631Y498D01*
X679Y498D02*
X718Y498D01*
X778Y498D02*
X778Y498D01*
X597Y497D02*
X603Y497D01*
X621Y497D02*
X631Y497D01*
X676Y497D02*
X720Y497D01*
X594Y496D02*
X599Y496D01*
X621Y496D02*
X630Y496D01*
X674Y496D02*
X721Y496D01*
X593Y495D02*
X596Y495D01*
X620Y495D02*
X629Y495D01*
X671Y495D02*
X723Y495D01*
X591Y494D02*
X594Y494D01*
X620Y494D02*
X629Y494D01*
X669Y494D02*
X694Y494D01*
X705Y494D02*
X724Y494D01*
X753Y494D02*
X755Y494D01*
X760Y494D02*
X778Y494D01*
X590Y493D02*
X593Y493D01*
X619Y493D02*
X628Y493D01*
X667Y493D02*
X690Y493D01*
X710Y493D02*
X725Y493D01*
X753Y493D02*
X755Y493D01*
X760Y493D02*
X778Y493D01*
X588Y492D02*
X591Y492D01*
X619Y492D02*
X628Y492D01*
X665Y492D02*
X690Y492D01*
X712Y492D02*
X725Y492D01*
X753Y492D02*
X755Y492D01*
X761Y492D02*
X777Y492D01*
X587Y491D02*
X590Y491D01*
X618Y491D02*
X627Y491D01*
X663Y491D02*
X680Y491D01*
X683Y491D02*
X691Y491D01*
X714Y491D02*
X726Y491D01*
X587Y490D02*
X589Y490D01*
X618Y490D02*
X627Y490D01*
X641Y490D02*
X642Y490D01*
X661Y490D02*
X678Y490D01*
X684Y490D02*
X691Y490D01*
X716Y490D02*
X727Y490D01*
X586Y489D02*
X588Y489D01*
X617Y489D02*
X626Y489D01*
X643Y489D02*
X644Y489D01*
X660Y489D02*
X675Y489D01*
X684Y489D02*
X692Y489D01*
X717Y489D02*
X728Y489D01*
X585Y488D02*
X588Y488D01*
X617Y488D02*
X626Y488D01*
X645Y488D02*
X646Y488D01*
X658Y488D02*
X672Y488D01*
X685Y488D02*
X692Y488D01*
X718Y488D02*
X728Y488D01*
X584Y487D02*
X587Y487D01*
X617Y487D02*
X625Y487D01*
X647Y487D02*
X648Y487D01*
X656Y487D02*
X670Y487D01*
X685Y487D02*
X692Y487D01*
X719Y487D02*
X729Y487D01*
X765Y487D02*
X773Y487D01*
X584Y486D02*
X586Y486D01*
X616Y486D02*
X625Y486D01*
X649Y486D02*
X650Y486D01*
X655Y486D02*
X668Y486D01*
X686Y486D02*
X693Y486D01*
X720Y486D02*
X729Y486D01*
X764Y486D02*
X774Y486D01*
X583Y485D02*
X586Y485D01*
X616Y485D02*
X624Y485D01*
X650Y485D02*
X666Y485D01*
X686Y485D02*
X693Y485D01*
X721Y485D02*
X730Y485D01*
X762Y485D02*
X766Y485D01*
X772Y485D02*
X776Y485D01*
X583Y484D02*
X585Y484D01*
X615Y484D02*
X624Y484D01*
X652Y484D02*
X664Y484D01*
X687Y484D02*
X694Y484D01*
X721Y484D02*
X730Y484D01*
X761Y484D02*
X764Y484D01*
X774Y484D02*
X776Y484D01*
X582Y483D02*
X585Y483D01*
X615Y483D02*
X624Y483D01*
X650Y483D02*
X662Y483D01*
X687Y483D02*
X694Y483D01*
X722Y483D02*
X731Y483D01*
X761Y483D02*
X763Y483D01*
X775Y483D02*
X777Y483D01*
X582Y482D02*
X584Y482D01*
X615Y482D02*
X623Y482D01*
X649Y482D02*
X660Y482D01*
X688Y482D02*
X694Y482D01*
X723Y482D02*
X731Y482D01*
X760Y482D02*
X762Y482D01*
X776Y482D02*
X778Y482D01*
X582Y481D02*
X584Y481D01*
X614Y481D02*
X623Y481D01*
X647Y481D02*
X659Y481D01*
X688Y481D02*
X695Y481D01*
X723Y481D02*
X731Y481D01*
X760Y481D02*
X762Y481D01*
X776Y481D02*
X778Y481D01*
X581Y480D02*
X584Y480D01*
X614Y480D02*
X622Y480D01*
X646Y480D02*
X656Y480D01*
X658Y480D02*
X661Y480D01*
X688Y480D02*
X695Y480D01*
X723Y480D02*
X731Y480D01*
X760Y480D02*
X761Y480D01*
X777Y480D02*
X778Y480D01*
X581Y479D02*
X584Y479D01*
X614Y479D02*
X622Y479D01*
X644Y479D02*
X655Y479D01*
X659Y479D02*
X662Y479D01*
X689Y479D02*
X695Y479D01*
X724Y479D02*
X732Y479D01*
X760Y479D02*
X761Y479D01*
X777Y479D02*
X778Y479D01*
X581Y478D02*
X583Y478D01*
X613Y478D02*
X622Y478D01*
X643Y478D02*
X653Y478D01*
X661Y478D02*
X664Y478D01*
X689Y478D02*
X696Y478D01*
X724Y478D02*
X732Y478D01*
X760Y478D02*
X761Y478D01*
X777Y478D02*
X778Y478D01*
X580Y477D02*
X583Y477D01*
X613Y477D02*
X621Y477D01*
X642Y477D02*
X651Y477D01*
X662Y477D02*
X665Y477D01*
X690Y477D02*
X696Y477D01*
X724Y477D02*
X732Y477D01*
X760Y477D02*
X761Y477D01*
X777Y477D02*
X778Y477D01*
X580Y476D02*
X583Y476D01*
X613Y476D02*
X621Y476D01*
X641Y476D02*
X650Y476D01*
X663Y476D02*
X667Y476D01*
X690Y476D02*
X696Y476D01*
X724Y476D02*
X732Y476D01*
X761Y476D02*
X762Y476D01*
X776Y476D02*
X777Y476D01*
X580Y475D02*
X583Y475D01*
X612Y475D02*
X621Y475D01*
X639Y475D02*
X648Y475D01*
X665Y475D02*
X668Y475D01*
X690Y475D02*
X697Y475D01*
X724Y475D02*
X732Y475D01*
X761Y475D02*
X762Y475D01*
X776Y475D02*
X777Y475D01*
X580Y474D02*
X583Y474D01*
X612Y474D02*
X620Y474D01*
X638Y474D02*
X647Y474D01*
X666Y474D02*
X670Y474D01*
X691Y474D02*
X697Y474D01*
X725Y474D02*
X732Y474D01*
X762Y474D02*
X763Y474D01*
X775Y474D02*
X776Y474D01*
X580Y473D02*
X583Y473D01*
X612Y473D02*
X620Y473D01*
X637Y473D02*
X645Y473D01*
X667Y473D02*
X671Y473D01*
X691Y473D02*
X697Y473D01*
X725Y473D02*
X733Y473D01*
X763Y473D02*
X765Y473D01*
X774Y473D02*
X775Y473D01*
X580Y472D02*
X583Y472D01*
X611Y472D02*
X620Y472D01*
X636Y472D02*
X644Y472D01*
X668Y472D02*
X672Y472D01*
X691Y472D02*
X697Y472D01*
X725Y472D02*
X733Y472D01*
X753Y472D02*
X777Y472D01*
X580Y471D02*
X583Y471D01*
X611Y471D02*
X619Y471D01*
X635Y471D02*
X643Y471D01*
X670Y471D02*
X674Y471D01*
X692Y471D02*
X698Y471D01*
X725Y471D02*
X733Y471D01*
X753Y471D02*
X778Y471D01*
X580Y470D02*
X583Y470D01*
X611Y470D02*
X619Y470D01*
X633Y470D02*
X641Y470D01*
X671Y470D02*
X675Y470D01*
X692Y470D02*
X698Y470D01*
X725Y470D02*
X733Y470D01*
X776Y470D02*
X778Y470D01*
X580Y469D02*
X583Y469D01*
X611Y469D02*
X619Y469D01*
X632Y469D02*
X640Y469D01*
X672Y469D02*
X676Y469D01*
X692Y469D02*
X698Y469D01*
X725Y469D02*
X733Y469D01*
X580Y468D02*
X583Y468D01*
X610Y468D02*
X619Y468D01*
X631Y468D02*
X639Y468D01*
X673Y468D02*
X678Y468D01*
X693Y468D02*
X698Y468D01*
X725Y468D02*
X733Y468D01*
X580Y467D02*
X583Y467D01*
X610Y467D02*
X618Y467D01*
X630Y467D02*
X654Y467D01*
X674Y467D02*
X679Y467D01*
X693Y467D02*
X699Y467D01*
X725Y467D02*
X733Y467D01*
X580Y466D02*
X583Y466D01*
X610Y466D02*
X618Y466D01*
X623Y466D02*
X667Y466D01*
X675Y466D02*
X680Y466D01*
X693Y466D02*
X699Y466D01*
X725Y466D02*
X732Y466D01*
X767Y466D02*
X771Y466D01*
X580Y465D02*
X583Y465D01*
X610Y465D02*
X681Y465D01*
X693Y465D02*
X699Y465D01*
X724Y465D02*
X732Y465D01*
X764Y465D02*
X774Y465D01*
X580Y464D02*
X583Y464D01*
X610Y464D02*
X682Y464D01*
X694Y464D02*
X699Y464D01*
X724Y464D02*
X732Y464D01*
X763Y464D02*
X775Y464D01*
X580Y463D02*
X584Y463D01*
X605Y463D02*
X650Y463D01*
X663Y463D02*
X686Y463D01*
X694Y463D02*
X699Y463D01*
X724Y463D02*
X732Y463D01*
X762Y463D02*
X776Y463D01*
X580Y462D02*
X584Y462D01*
X601Y462D02*
X634Y462D01*
X679Y462D02*
X690Y462D01*
X694Y462D02*
X700Y462D01*
X724Y462D02*
X732Y462D01*
X761Y462D02*
X777Y462D01*
X580Y461D02*
X584Y461D01*
X597Y461D02*
X630Y461D01*
X681Y461D02*
X700Y461D01*
X724Y461D02*
X732Y461D01*
X761Y461D02*
X777Y461D01*
X580Y460D02*
X584Y460D01*
X593Y460D02*
X619Y460D01*
X623Y460D02*
X629Y460D01*
X682Y460D02*
X687Y460D01*
X693Y460D02*
X700Y460D01*
X724Y460D02*
X732Y460D01*
X760Y460D02*
X765Y460D01*
X768Y460D02*
X770Y460D01*
X772Y460D02*
X778Y460D01*
X580Y459D02*
X584Y459D01*
X591Y459D02*
X616Y459D01*
X622Y459D02*
X628Y459D01*
X683Y459D02*
X688Y459D01*
X695Y459D02*
X701Y459D01*
X723Y459D02*
X732Y459D01*
X760Y459D02*
X764Y459D01*
X768Y459D02*
X770Y459D01*
X774Y459D02*
X778Y459D01*
X581Y458D02*
X585Y458D01*
X588Y458D02*
X616Y458D01*
X621Y458D02*
X627Y458D01*
X684Y458D02*
X689Y458D01*
X695Y458D02*
X700Y458D01*
X702Y458D02*
X704Y458D01*
X723Y458D02*
X731Y458D01*
X760Y458D02*
X763Y458D01*
X768Y458D02*
X770Y458D01*
X775Y458D02*
X778Y458D01*
X581Y457D02*
X606Y457D01*
X608Y457D02*
X616Y457D01*
X620Y457D02*
X625Y457D01*
X685Y457D02*
X690Y457D01*
X695Y457D02*
X700Y457D01*
X706Y457D02*
X707Y457D01*
X723Y457D02*
X731Y457D01*
X760Y457D02*
X763Y457D01*
X768Y457D02*
X770Y457D01*
X775Y457D02*
X778Y457D01*
X581Y456D02*
X602Y456D01*
X608Y456D02*
X616Y456D01*
X619Y456D02*
X624Y456D01*
X686Y456D02*
X691Y456D01*
X695Y456D02*
X701Y456D01*
X723Y456D02*
X731Y456D01*
X760Y456D02*
X763Y456D01*
X768Y456D02*
X770Y456D01*
X775Y456D02*
X778Y456D01*
X580Y455D02*
X599Y455D01*
X608Y455D02*
X616Y455D01*
X618Y455D02*
X623Y455D01*
X687Y455D02*
X692Y455D01*
X696Y455D02*
X701Y455D01*
X722Y455D02*
X731Y455D01*
X760Y455D02*
X763Y455D01*
X768Y455D02*
X770Y455D01*
X775Y455D02*
X778Y455D01*
X578Y454D02*
X595Y454D01*
X608Y454D02*
X615Y454D01*
X617Y454D02*
X622Y454D01*
X647Y454D02*
X656Y454D01*
X688Y454D02*
X693Y454D01*
X696Y454D02*
X701Y454D01*
X722Y454D02*
X730Y454D01*
X760Y454D02*
X764Y454D01*
X768Y454D02*
X770Y454D01*
X775Y454D02*
X778Y454D01*
X576Y453D02*
X593Y453D01*
X608Y453D02*
X615Y453D01*
X617Y453D02*
X621Y453D01*
X642Y453D02*
X660Y453D01*
X688Y453D02*
X694Y453D01*
X696Y453D02*
X701Y453D01*
X722Y453D02*
X730Y453D01*
X760Y453D02*
X765Y453D01*
X768Y453D02*
X770Y453D01*
X774Y453D02*
X778Y453D01*
X574Y452D02*
X590Y452D01*
X607Y452D02*
X620Y452D01*
X640Y452D02*
X666Y452D01*
X689Y452D02*
X701Y452D01*
X722Y452D02*
X730Y452D01*
X761Y452D02*
X770Y452D01*
X773Y452D02*
X777Y452D01*
X573Y451D02*
X588Y451D01*
X607Y451D02*
X619Y451D01*
X636Y451D02*
X667Y451D01*
X690Y451D02*
X701Y451D01*
X721Y451D02*
X730Y451D01*
X761Y451D02*
X770Y451D01*
X773Y451D02*
X777Y451D01*
X571Y450D02*
X587Y450D01*
X607Y450D02*
X618Y450D01*
X632Y450D02*
X671Y450D01*
X691Y450D02*
X701Y450D01*
X721Y450D02*
X729Y450D01*
X762Y450D02*
X770Y450D01*
X773Y450D02*
X776Y450D01*
X570Y449D02*
X588Y449D01*
X607Y449D02*
X617Y449D01*
X631Y449D02*
X673Y449D01*
X692Y449D02*
X702Y449D01*
X721Y449D02*
X729Y449D01*
X763Y449D02*
X770Y449D01*
X774Y449D02*
X775Y449D01*
X568Y448D02*
X581Y448D01*
X583Y448D02*
X588Y448D01*
X607Y448D02*
X616Y448D01*
X630Y448D02*
X674Y448D01*
X693Y448D02*
X702Y448D01*
X720Y448D02*
X729Y448D01*
X764Y448D02*
X770Y448D01*
X774Y448D02*
X774Y448D01*
X567Y447D02*
X579Y447D01*
X583Y447D02*
X588Y447D01*
X607Y447D02*
X615Y447D01*
X628Y447D02*
X676Y447D01*
X694Y447D02*
X702Y447D01*
X720Y447D02*
X728Y447D01*
X766Y447D02*
X770Y447D01*
X565Y446D02*
X577Y446D01*
X584Y446D02*
X589Y446D01*
X607Y446D02*
X614Y446D01*
X627Y446D02*
X680Y446D01*
X695Y446D02*
X702Y446D01*
X719Y446D02*
X728Y446D01*
X730Y446D02*
X730Y446D01*
X564Y445D02*
X576Y445D01*
X584Y445D02*
X589Y445D01*
X607Y445D02*
X614Y445D01*
X626Y445D02*
X683Y445D01*
X695Y445D02*
X702Y445D01*
X719Y445D02*
X728Y445D01*
X732Y445D02*
X732Y445D01*
X563Y444D02*
X574Y444D01*
X585Y444D02*
X590Y444D01*
X607Y444D02*
X614Y444D01*
X626Y444D02*
X684Y444D01*
X696Y444D02*
X702Y444D01*
X719Y444D02*
X727Y444D01*
X733Y444D02*
X733Y444D01*
X562Y443D02*
X573Y443D01*
X585Y443D02*
X590Y443D01*
X606Y443D02*
X614Y443D01*
X625Y443D02*
X686Y443D01*
X697Y443D02*
X703Y443D01*
X718Y443D02*
X727Y443D01*
X734Y443D02*
X734Y443D01*
X753Y443D02*
X776Y443D01*
X561Y442D02*
X571Y442D01*
X585Y442D02*
X590Y442D01*
X606Y442D02*
X614Y442D01*
X625Y442D02*
X687Y442D01*
X698Y442D02*
X704Y442D01*
X718Y442D02*
X726Y442D01*
X735Y442D02*
X736Y442D01*
X753Y442D02*
X777Y442D01*
X560Y441D02*
X570Y441D01*
X586Y441D02*
X591Y441D01*
X606Y441D02*
X614Y441D01*
X624Y441D02*
X688Y441D01*
X698Y441D02*
X705Y441D01*
X717Y441D02*
X726Y441D01*
X736Y441D02*
X737Y441D01*
X753Y441D02*
X778Y441D01*
X559Y440D02*
X569Y440D01*
X586Y440D02*
X591Y440D01*
X606Y440D02*
X614Y440D01*
X624Y440D02*
X689Y440D01*
X698Y440D02*
X706Y440D01*
X717Y440D02*
X726Y440D01*
X737Y440D02*
X738Y440D01*
X753Y440D02*
X778Y440D01*
X559Y439D02*
X568Y439D01*
X586Y439D02*
X592Y439D01*
X606Y439D02*
X614Y439D01*
X623Y439D02*
X690Y439D01*
X698Y439D02*
X706Y439D01*
X716Y439D02*
X725Y439D01*
X738Y439D02*
X739Y439D01*
X753Y439D02*
X778Y439D01*
X558Y438D02*
X567Y438D01*
X587Y438D02*
X592Y438D01*
X605Y438D02*
X613Y438D01*
X623Y438D02*
X690Y438D01*
X698Y438D02*
X707Y438D01*
X716Y438D02*
X725Y438D01*
X739Y438D02*
X739Y438D01*
X773Y438D02*
X778Y438D01*
X557Y437D02*
X566Y437D01*
X587Y437D02*
X593Y437D01*
X604Y437D02*
X613Y437D01*
X622Y437D02*
X691Y437D01*
X698Y437D02*
X708Y437D01*
X715Y437D02*
X724Y437D01*
X739Y437D02*
X740Y437D01*
X774Y437D02*
X778Y437D01*
X557Y436D02*
X565Y436D01*
X588Y436D02*
X593Y436D01*
X603Y436D02*
X613Y436D01*
X622Y436D02*
X692Y436D01*
X698Y436D02*
X709Y436D01*
X715Y436D02*
X724Y436D01*
X740Y436D02*
X741Y436D01*
X774Y436D02*
X778Y436D01*
X556Y435D02*
X564Y435D01*
X588Y435D02*
X594Y435D01*
X603Y435D02*
X613Y435D01*
X622Y435D02*
X692Y435D01*
X698Y435D02*
X709Y435D01*
X714Y435D02*
X723Y435D01*
X741Y435D02*
X742Y435D01*
X774Y435D02*
X777Y435D01*
X556Y434D02*
X564Y434D01*
X589Y434D02*
X595Y434D01*
X602Y434D02*
X604Y434D01*
X606Y434D02*
X613Y434D01*
X621Y434D02*
X693Y434D01*
X698Y434D02*
X702Y434D01*
X704Y434D02*
X710Y434D01*
X714Y434D02*
X723Y434D01*
X741Y434D02*
X742Y434D01*
X777Y434D02*
X777Y434D01*
X555Y433D02*
X563Y433D01*
X589Y433D02*
X595Y433D01*
X601Y433D02*
X604Y433D01*
X606Y433D02*
X613Y433D01*
X620Y433D02*
X693Y433D01*
X699Y433D02*
X702Y433D01*
X704Y433D02*
X711Y433D01*
X713Y433D02*
X722Y433D01*
X742Y433D02*
X743Y433D01*
X555Y432D02*
X562Y432D01*
X590Y432D02*
X596Y432D01*
X601Y432D02*
X603Y432D01*
X606Y432D02*
X613Y432D01*
X619Y432D02*
X694Y432D01*
X699Y432D02*
X702Y432D01*
X705Y432D02*
X722Y432D01*
X742Y432D02*
X743Y432D01*
X765Y432D02*
X773Y432D01*
X555Y431D02*
X562Y431D01*
X590Y431D02*
X596Y431D01*
X600Y431D02*
X602Y431D01*
X606Y431D02*
X613Y431D01*
X618Y431D02*
X694Y431D01*
X699Y431D02*
X702Y431D01*
X706Y431D02*
X721Y431D01*
X743Y431D02*
X744Y431D01*
X764Y431D02*
X774Y431D01*
X554Y430D02*
X561Y430D01*
X591Y430D02*
X597Y430D01*
X600Y430D02*
X601Y430D01*
X606Y430D02*
X613Y430D01*
X618Y430D02*
X695Y430D01*
X699Y430D02*
X702Y430D01*
X706Y430D02*
X721Y430D01*
X743Y430D02*
X744Y430D01*
X762Y430D02*
X776Y430D01*
X554Y429D02*
X561Y429D01*
X591Y429D02*
X601Y429D01*
X606Y429D02*
X613Y429D01*
X616Y429D02*
X695Y429D01*
X699Y429D02*
X702Y429D01*
X707Y429D02*
X720Y429D01*
X743Y429D02*
X744Y429D01*
X762Y429D02*
X776Y429D01*
X554Y428D02*
X561Y428D01*
X592Y428D02*
X600Y428D01*
X606Y428D02*
X613Y428D01*
X615Y428D02*
X696Y428D01*
X699Y428D02*
X702Y428D01*
X708Y428D02*
X720Y428D01*
X743Y428D02*
X745Y428D01*
X761Y428D02*
X777Y428D01*
X554Y427D02*
X561Y427D01*
X592Y427D02*
X599Y427D01*
X606Y427D02*
X613Y427D01*
X615Y427D02*
X696Y427D01*
X699Y427D02*
X702Y427D01*
X708Y427D02*
X719Y427D01*
X744Y427D02*
X745Y427D01*
X760Y427D02*
X777Y427D01*
X554Y426D02*
X560Y426D01*
X593Y426D02*
X599Y426D01*
X606Y426D02*
X613Y426D01*
X615Y426D02*
X696Y426D01*
X699Y426D02*
X702Y426D01*
X709Y426D02*
X718Y426D01*
X744Y426D02*
X745Y426D01*
X760Y426D02*
X764Y426D01*
X768Y426D02*
X770Y426D01*
X774Y426D02*
X778Y426D01*
X554Y425D02*
X560Y425D01*
X593Y425D02*
X600Y425D01*
X606Y425D02*
X613Y425D01*
X615Y425D02*
X696Y425D01*
X699Y425D02*
X702Y425D01*
X709Y425D02*
X718Y425D01*
X744Y425D02*
X745Y425D01*
X760Y425D02*
X763Y425D01*
X768Y425D02*
X770Y425D01*
X774Y425D02*
X778Y425D01*
X554Y424D02*
X560Y424D01*
X594Y424D02*
X601Y424D01*
X606Y424D02*
X613Y424D01*
X616Y424D02*
X696Y424D01*
X699Y424D02*
X702Y424D01*
X708Y424D02*
X717Y424D01*
X744Y424D02*
X745Y424D01*
X760Y424D02*
X763Y424D01*
X768Y424D02*
X770Y424D01*
X775Y424D02*
X778Y424D01*
X554Y423D02*
X561Y423D01*
X595Y423D02*
X601Y423D01*
X606Y423D02*
X613Y423D01*
X618Y423D02*
X696Y423D01*
X699Y423D02*
X702Y423D01*
X707Y423D02*
X717Y423D01*
X743Y423D02*
X745Y423D01*
X760Y423D02*
X763Y423D01*
X768Y423D02*
X770Y423D01*
X775Y423D02*
X778Y423D01*
X554Y422D02*
X561Y422D01*
X595Y422D02*
X602Y422D01*
X606Y422D02*
X613Y422D01*
X618Y422D02*
X696Y422D01*
X699Y422D02*
X702Y422D01*
X707Y422D02*
X718Y422D01*
X743Y422D02*
X745Y422D01*
X760Y422D02*
X763Y422D01*
X768Y422D02*
X770Y422D01*
X775Y422D02*
X778Y422D01*
X554Y421D02*
X561Y421D01*
X594Y421D02*
X603Y421D01*
X606Y421D02*
X613Y421D01*
X619Y421D02*
X696Y421D01*
X699Y421D02*
X702Y421D01*
X706Y421D02*
X719Y421D01*
X743Y421D02*
X745Y421D01*
X760Y421D02*
X763Y421D01*
X768Y421D02*
X770Y421D01*
X775Y421D02*
X778Y421D01*
X554Y420D02*
X561Y420D01*
X594Y420D02*
X594Y420D01*
X596Y420D02*
X603Y420D01*
X606Y420D02*
X613Y420D01*
X619Y420D02*
X695Y420D01*
X699Y420D02*
X702Y420D01*
X705Y420D02*
X719Y420D01*
X743Y420D02*
X745Y420D01*
X760Y420D02*
X764Y420D01*
X768Y420D02*
X770Y420D01*
X774Y420D02*
X778Y420D01*
X554Y419D02*
X562Y419D01*
X593Y419D02*
X594Y419D01*
X597Y419D02*
X604Y419D01*
X606Y419D02*
X613Y419D01*
X619Y419D02*
X695Y419D01*
X699Y419D02*
X702Y419D01*
X705Y419D02*
X720Y419D01*
X742Y419D02*
X744Y419D01*
X760Y419D02*
X770Y419D01*
X773Y419D02*
X777Y419D01*
X555Y418D02*
X562Y418D01*
X593Y418D02*
X593Y418D01*
X598Y418D02*
X613Y418D01*
X619Y418D02*
X694Y418D01*
X699Y418D02*
X702Y418D01*
X704Y418D02*
X720Y418D01*
X742Y418D02*
X744Y418D01*
X761Y418D02*
X770Y418D01*
X773Y418D02*
X777Y418D01*
X555Y417D02*
X563Y417D01*
X592Y417D02*
X593Y417D01*
X598Y417D02*
X613Y417D01*
X620Y417D02*
X694Y417D01*
X699Y417D02*
X721Y417D01*
X742Y417D02*
X744Y417D01*
X762Y417D02*
X770Y417D01*
X773Y417D02*
X776Y417D01*
X555Y416D02*
X563Y416D01*
X592Y416D02*
X592Y416D01*
X599Y416D02*
X613Y416D01*
X621Y416D02*
X693Y416D01*
X699Y416D02*
X712Y416D01*
X715Y416D02*
X721Y416D01*
X741Y416D02*
X743Y416D01*
X762Y416D02*
X770Y416D01*
X774Y416D02*
X776Y416D01*
X556Y415D02*
X564Y415D01*
X591Y415D02*
X591Y415D01*
X600Y415D02*
X613Y415D01*
X621Y415D02*
X693Y415D01*
X699Y415D02*
X711Y415D01*
X715Y415D02*
X722Y415D01*
X740Y415D02*
X743Y415D01*
X763Y415D02*
X770Y415D01*
X774Y415D02*
X775Y415D01*
X556Y414D02*
X565Y414D01*
X591Y414D02*
X591Y414D01*
X600Y414D02*
X613Y414D01*
X621Y414D02*
X692Y414D01*
X699Y414D02*
X711Y414D01*
X716Y414D02*
X722Y414D01*
X740Y414D02*
X742Y414D01*
X765Y414D02*
X770Y414D01*
X557Y413D02*
X566Y413D01*
X601Y413D02*
X613Y413D01*
X622Y413D02*
X692Y413D01*
X699Y413D02*
X710Y413D01*
X716Y413D02*
X723Y413D01*
X739Y413D02*
X742Y413D01*
X557Y412D02*
X566Y412D01*
X590Y412D02*
X590Y412D01*
X602Y412D02*
X613Y412D01*
X622Y412D02*
X691Y412D01*
X699Y412D02*
X709Y412D01*
X717Y412D02*
X723Y412D01*
X738Y412D02*
X741Y412D01*
X558Y411D02*
X568Y411D01*
X602Y411D02*
X613Y411D01*
X622Y411D02*
X690Y411D01*
X699Y411D02*
X709Y411D01*
X717Y411D02*
X724Y411D01*
X737Y411D02*
X740Y411D01*
X766Y411D02*
X772Y411D01*
X559Y410D02*
X569Y410D01*
X589Y410D02*
X589Y410D01*
X603Y410D02*
X613Y410D01*
X623Y410D02*
X690Y410D01*
X698Y410D02*
X708Y410D01*
X717Y410D02*
X724Y410D01*
X736Y410D02*
X740Y410D01*
X764Y410D02*
X774Y410D01*
X559Y409D02*
X570Y409D01*
X604Y409D02*
X613Y409D01*
X623Y409D02*
X689Y409D01*
X697Y409D02*
X707Y409D01*
X718Y409D02*
X725Y409D01*
X735Y409D02*
X739Y409D01*
X763Y409D02*
X775Y409D01*
X560Y408D02*
X571Y408D01*
X604Y408D02*
X613Y408D01*
X623Y408D02*
X688Y408D01*
X696Y408D02*
X706Y408D01*
X718Y408D02*
X725Y408D01*
X734Y408D02*
X738Y408D01*
X762Y408D02*
X776Y408D01*
X561Y407D02*
X572Y407D01*
X605Y407D02*
X614Y407D01*
X623Y407D02*
X687Y407D01*
X696Y407D02*
X705Y407D01*
X719Y407D02*
X726Y407D01*
X733Y407D02*
X737Y407D01*
X761Y407D02*
X777Y407D01*
X562Y406D02*
X574Y406D01*
X606Y406D02*
X615Y406D01*
X624Y406D02*
X686Y406D01*
X695Y406D02*
X705Y406D01*
X719Y406D02*
X726Y406D01*
X731Y406D02*
X736Y406D01*
X761Y406D02*
X777Y406D01*
X563Y405D02*
X575Y405D01*
X607Y405D02*
X616Y405D01*
X624Y405D02*
X685Y405D01*
X694Y405D02*
X704Y405D01*
X720Y405D02*
X727Y405D01*
X730Y405D02*
X735Y405D01*
X760Y405D02*
X766Y405D01*
X772Y405D02*
X778Y405D01*
X564Y404D02*
X577Y404D01*
X607Y404D02*
X616Y404D01*
X624Y404D02*
X684Y404D01*
X693Y404D02*
X703Y404D01*
X720Y404D02*
X734Y404D01*
X760Y404D02*
X765Y404D01*
X773Y404D02*
X778Y404D01*
X565Y403D02*
X579Y403D01*
X607Y403D02*
X617Y403D01*
X625Y403D02*
X682Y403D01*
X692Y403D02*
X702Y403D01*
X720Y403D02*
X732Y403D01*
X760Y403D02*
X764Y403D01*
X774Y403D02*
X778Y403D01*
X566Y402D02*
X581Y402D01*
X607Y402D02*
X618Y402D01*
X625Y402D02*
X681Y402D01*
X691Y402D02*
X701Y402D01*
X721Y402D02*
X731Y402D01*
X760Y402D02*
X764Y402D01*
X774Y402D02*
X778Y402D01*
X568Y401D02*
X583Y401D01*
X608Y401D02*
X619Y401D01*
X626Y401D02*
X679Y401D01*
X690Y401D02*
X701Y401D01*
X721Y401D02*
X730Y401D01*
X760Y401D02*
X764Y401D01*
X774Y401D02*
X778Y401D01*
X569Y400D02*
X585Y400D01*
X608Y400D02*
X620Y400D01*
X628Y400D02*
X678Y400D01*
X690Y400D02*
X700Y400D01*
X721Y400D02*
X728Y400D01*
X760Y400D02*
X764Y400D01*
X774Y400D02*
X778Y400D01*
X571Y399D02*
X587Y399D01*
X608Y399D02*
X621Y399D01*
X629Y399D02*
X678Y399D01*
X689Y399D02*
X700Y399D01*
X718Y399D02*
X729Y399D01*
X760Y399D02*
X765Y399D01*
X773Y399D02*
X778Y399D01*
X572Y398D02*
X590Y398D01*
X608Y398D02*
X622Y398D01*
X630Y398D02*
X677Y398D01*
X688Y398D02*
X700Y398D01*
X716Y398D02*
X729Y398D01*
X760Y398D02*
X765Y398D01*
X773Y398D02*
X778Y398D01*
X574Y397D02*
X593Y397D01*
X608Y397D02*
X623Y397D01*
X631Y397D02*
X676Y397D01*
X687Y397D02*
X700Y397D01*
X713Y397D02*
X729Y397D01*
X761Y397D02*
X765Y397D01*
X773Y397D02*
X777Y397D01*
X576Y396D02*
X596Y396D01*
X608Y396D02*
X624Y396D01*
X633Y396D02*
X674Y396D01*
X686Y396D02*
X696Y396D01*
X698Y396D02*
X699Y396D01*
X710Y396D02*
X730Y396D01*
X761Y396D02*
X765Y396D01*
X773Y396D02*
X777Y396D01*
X578Y395D02*
X599Y395D01*
X609Y395D02*
X625Y395D01*
X640Y395D02*
X672Y395D01*
X685Y395D02*
X695Y395D01*
X697Y395D02*
X699Y395D01*
X707Y395D02*
X720Y395D01*
X723Y395D02*
X730Y395D01*
X762Y395D02*
X764Y395D01*
X773Y395D02*
X776Y395D01*
X580Y394D02*
X603Y394D01*
X609Y394D02*
X626Y394D01*
X641Y394D02*
X661Y394D01*
X684Y394D02*
X694Y394D01*
X697Y394D02*
X699Y394D01*
X704Y394D02*
X717Y394D01*
X723Y394D02*
X730Y394D01*
X763Y394D02*
X764Y394D01*
X774Y394D02*
X775Y394D01*
X582Y393D02*
X607Y393D01*
X609Y393D02*
X615Y393D01*
X617Y393D02*
X627Y393D01*
X644Y393D02*
X659Y393D01*
X683Y393D02*
X693Y393D01*
X697Y393D02*
X715Y393D01*
X723Y393D02*
X730Y393D01*
X584Y392D02*
X615Y392D01*
X618Y392D02*
X628Y392D01*
X682Y392D02*
X692Y392D01*
X696Y392D02*
X713Y392D01*
X724Y392D02*
X731Y392D01*
X586Y391D02*
X616Y391D01*
X619Y391D02*
X629Y391D01*
X681Y391D02*
X710Y391D01*
X724Y391D02*
X731Y391D01*
X760Y391D02*
X763Y391D01*
X589Y390D02*
X631Y390D01*
X680Y390D02*
X708Y390D01*
X724Y390D02*
X731Y390D01*
X760Y390D02*
X763Y390D01*
X592Y389D02*
X632Y389D01*
X677Y389D02*
X705Y389D01*
X724Y389D02*
X731Y389D01*
X755Y389D02*
X773Y389D01*
X595Y388D02*
X644Y388D01*
X663Y388D02*
X702Y388D01*
X724Y388D02*
X731Y388D01*
X754Y388D02*
X776Y388D01*
X599Y387D02*
X698Y387D01*
X725Y387D02*
X732Y387D01*
X754Y387D02*
X777Y387D01*
X602Y386D02*
X694Y386D01*
X696Y386D02*
X697Y386D01*
X725Y386D02*
X732Y386D01*
X754Y386D02*
X778Y386D01*
X607Y385D02*
X690Y385D01*
X696Y385D02*
X697Y385D01*
X725Y385D02*
X732Y385D01*
X754Y385D02*
X778Y385D01*
X611Y384D02*
X685Y384D01*
X696Y384D02*
X697Y384D01*
X725Y384D02*
X732Y384D01*
X754Y384D02*
X778Y384D01*
X611Y383D02*
X683Y383D01*
X696Y383D02*
X696Y383D01*
X725Y383D02*
X732Y383D01*
X760Y383D02*
X764Y383D01*
X773Y383D02*
X778Y383D01*
X581Y382D02*
X581Y382D01*
X611Y382D02*
X617Y382D01*
X624Y382D02*
X681Y382D01*
X695Y382D02*
X696Y382D01*
X725Y382D02*
X732Y382D01*
X760Y382D02*
X763Y382D01*
X774Y382D02*
X778Y382D01*
X581Y381D02*
X581Y381D01*
X612Y381D02*
X617Y381D01*
X629Y381D02*
X661Y381D01*
X670Y381D02*
X680Y381D01*
X695Y381D02*
X696Y381D01*
X725Y381D02*
X732Y381D01*
X760Y381D02*
X763Y381D01*
X774Y381D02*
X778Y381D01*
X581Y380D02*
X581Y380D01*
X612Y380D02*
X618Y380D01*
X630Y380D02*
X643Y380D01*
X668Y380D02*
X679Y380D01*
X695Y380D02*
X695Y380D01*
X725Y380D02*
X732Y380D01*
X760Y380D02*
X763Y380D01*
X774Y380D02*
X777Y380D01*
X581Y379D02*
X581Y379D01*
X612Y379D02*
X618Y379D01*
X631Y379D02*
X644Y379D01*
X667Y379D02*
X678Y379D01*
X695Y379D02*
X695Y379D01*
X725Y379D02*
X732Y379D01*
X774Y379D02*
X777Y379D01*
X581Y378D02*
X581Y378D01*
X613Y378D02*
X618Y378D01*
X633Y378D02*
X645Y378D01*
X666Y378D02*
X677Y378D01*
X694Y378D02*
X695Y378D01*
X725Y378D02*
X732Y378D01*
X581Y377D02*
X581Y377D01*
X613Y377D02*
X618Y377D01*
X634Y377D02*
X647Y377D01*
X665Y377D02*
X675Y377D01*
X694Y377D02*
X694Y377D01*
X725Y377D02*
X732Y377D01*
X581Y376D02*
X582Y376D01*
X613Y376D02*
X619Y376D01*
X635Y376D02*
X648Y376D01*
X663Y376D02*
X674Y376D01*
X694Y376D02*
X694Y376D01*
X725Y376D02*
X732Y376D01*
X581Y375D02*
X582Y375D01*
X613Y375D02*
X619Y375D01*
X636Y375D02*
X650Y375D01*
X662Y375D02*
X673Y375D01*
X694Y375D02*
X694Y375D01*
X725Y375D02*
X732Y375D01*
X760Y375D02*
X778Y375D01*
X581Y374D02*
X582Y374D01*
X614Y374D02*
X619Y374D01*
X637Y374D02*
X651Y374D01*
X661Y374D02*
X672Y374D01*
X693Y374D02*
X693Y374D01*
X725Y374D02*
X732Y374D01*
X760Y374D02*
X778Y374D01*
X581Y373D02*
X582Y373D01*
X614Y373D02*
X620Y373D01*
X639Y373D02*
X652Y373D01*
X659Y373D02*
X670Y373D01*
X693Y373D02*
X693Y373D01*
X724Y373D02*
X732Y373D01*
X760Y373D02*
X778Y373D01*
X582Y372D02*
X582Y372D01*
X614Y372D02*
X620Y372D01*
X640Y372D02*
X654Y372D01*
X658Y372D02*
X669Y372D01*
X693Y372D02*
X693Y372D01*
X724Y372D02*
X732Y372D01*
X760Y372D02*
X778Y372D01*
X582Y371D02*
X582Y371D01*
X615Y371D02*
X620Y371D01*
X641Y371D02*
X667Y371D01*
X724Y371D02*
X732Y371D01*
X760Y371D02*
X778Y371D01*
X582Y370D02*
X583Y370D01*
X615Y370D02*
X621Y370D01*
X643Y370D02*
X666Y370D01*
X692Y370D02*
X692Y370D01*
X724Y370D02*
X731Y370D01*
X763Y370D02*
X766Y370D01*
X582Y369D02*
X583Y369D01*
X616Y369D02*
X621Y369D01*
X644Y369D02*
X664Y369D01*
X692Y369D02*
X692Y369D01*
X723Y369D02*
X731Y369D01*
X762Y369D02*
X765Y369D01*
X583Y368D02*
X584Y368D01*
X616Y368D02*
X621Y368D01*
X645Y368D02*
X663Y368D01*
X723Y368D02*
X731Y368D01*
X761Y368D02*
X765Y368D01*
X583Y367D02*
X584Y367D01*
X616Y367D02*
X622Y367D01*
X647Y367D02*
X662Y367D01*
X723Y367D02*
X731Y367D01*
X760Y367D02*
X764Y367D01*
X583Y366D02*
X584Y366D01*
X617Y366D02*
X622Y366D01*
X648Y366D02*
X664Y366D01*
X722Y366D02*
X730Y366D01*
X760Y366D02*
X764Y366D01*
X583Y365D02*
X585Y365D01*
X617Y365D02*
X622Y365D01*
X647Y365D02*
X667Y365D01*
X721Y365D02*
X730Y365D01*
X760Y365D02*
X764Y365D01*
X584Y364D02*
X585Y364D01*
X618Y364D02*
X623Y364D01*
X645Y364D02*
X669Y364D01*
X721Y364D02*
X730Y364D01*
X584Y363D02*
X586Y363D01*
X618Y363D02*
X623Y363D01*
X643Y363D02*
X671Y363D01*
X720Y363D02*
X729Y363D01*
X766Y363D02*
X772Y363D01*
X585Y362D02*
X587Y362D01*
X618Y362D02*
X624Y362D01*
X641Y362D02*
X653Y362D01*
X655Y362D02*
X673Y362D01*
X719Y362D02*
X729Y362D01*
X764Y362D02*
X774Y362D01*
X586Y361D02*
X588Y361D01*
X619Y361D02*
X624Y361D01*
X639Y361D02*
X651Y361D01*
X656Y361D02*
X675Y361D01*
X718Y361D02*
X728Y361D01*
X763Y361D02*
X775Y361D01*
X586Y360D02*
X589Y360D01*
X619Y360D02*
X624Y360D01*
X637Y360D02*
X649Y360D01*
X658Y360D02*
X678Y360D01*
X717Y360D02*
X727Y360D01*
X762Y360D02*
X776Y360D01*
X587Y359D02*
X590Y359D01*
X620Y359D02*
X625Y359D01*
X634Y359D02*
X647Y359D01*
X660Y359D02*
X681Y359D01*
X715Y359D02*
X727Y359D01*
X761Y359D02*
X777Y359D01*
X588Y358D02*
X591Y358D01*
X620Y358D02*
X625Y358D01*
X632Y358D02*
X645Y358D01*
X662Y358D02*
X684Y358D01*
X714Y358D02*
X726Y358D01*
X761Y358D02*
X777Y358D01*
X589Y357D02*
X592Y357D01*
X621Y357D02*
X626Y357D01*
X629Y357D02*
X643Y357D01*
X663Y357D02*
X687Y357D01*
X711Y357D02*
X725Y357D01*
X760Y357D02*
X766Y357D01*
X772Y357D02*
X778Y357D01*
X590Y356D02*
X594Y356D01*
X621Y356D02*
X641Y356D01*
X665Y356D02*
X692Y356D01*
X708Y356D02*
X724Y356D01*
X760Y356D02*
X764Y356D01*
X774Y356D02*
X778Y356D01*
X591Y355D02*
X596Y355D01*
X622Y355D02*
X639Y355D01*
X668Y355D02*
X723Y355D01*
X760Y355D02*
X764Y355D01*
X774Y355D02*
X778Y355D01*
X592Y354D02*
X599Y354D01*
X618Y354D02*
X636Y354D01*
X670Y354D02*
X722Y354D01*
X760Y354D02*
X764Y354D01*
X774Y354D02*
X778Y354D01*
X594Y353D02*
X607Y353D01*
X610Y353D02*
X633Y353D01*
X672Y353D02*
X721Y353D01*
X760Y353D02*
X764Y353D01*
X774Y353D02*
X778Y353D01*
X596Y352D02*
X630Y352D01*
X674Y352D02*
X720Y352D01*
X760Y352D02*
X764Y352D01*
X774Y352D02*
X778Y352D01*
X598Y351D02*
X629Y351D01*
X677Y351D02*
X718Y351D01*
X760Y351D02*
X765Y351D01*
X773Y351D02*
X778Y351D01*
X601Y350D02*
X622Y350D01*
X625Y350D02*
X630Y350D01*
X680Y350D02*
X716Y350D01*
X760Y350D02*
X766Y350D01*
X772Y350D02*
X778Y350D01*
X608Y349D02*
X615Y349D01*
X626Y349D02*
X630Y349D01*
X684Y349D02*
X714Y349D01*
X761Y349D02*
X777Y349D01*
X626Y348D02*
X631Y348D01*
X688Y348D02*
X711Y348D01*
X761Y348D02*
X777Y348D01*
X627Y347D02*
X632Y347D01*
X694Y347D02*
X707Y347D01*
X762Y347D02*
X776Y347D01*
X628Y346D02*
X632Y346D01*
X763Y346D02*
X775Y346D01*
X629Y345D02*
X633Y345D01*
X679Y345D02*
X679Y345D01*
X765Y345D02*
X773Y345D01*
X629Y344D02*
X634Y344D01*
X678Y344D02*
X678Y344D01*
X767Y344D02*
X771Y344D01*
X630Y343D02*
X635Y343D01*
X677Y343D02*
X677Y343D01*
X631Y342D02*
X636Y342D01*
X676Y342D02*
X677Y342D01*
X632Y341D02*
X637Y341D01*
X675Y341D02*
X676Y341D01*
X633Y340D02*
X638Y340D01*
X674Y340D02*
X675Y340D01*
X760Y340D02*
X778Y340D01*
X634Y339D02*
X639Y339D01*
X673Y339D02*
X674Y339D01*
X760Y339D02*
X778Y339D01*
X635Y338D02*
X640Y338D01*
X672Y338D02*
X673Y338D01*
X760Y338D02*
X778Y338D01*
X636Y337D02*
X641Y337D01*
X670Y337D02*
X672Y337D01*
X760Y337D02*
X778Y337D01*
X637Y336D02*
X643Y336D01*
X669Y336D02*
X671Y336D01*
X760Y336D02*
X778Y336D01*
X639Y335D02*
X645Y335D01*
X667Y335D02*
X669Y335D01*
X762Y335D02*
X767Y335D01*
X640Y334D02*
X647Y334D01*
X665Y334D02*
X668Y334D01*
X761Y334D02*
X765Y334D01*
X642Y333D02*
X650Y333D01*
X662Y333D02*
X666Y333D01*
X761Y333D02*
X764Y333D01*
X644Y332D02*
X664Y332D01*
X760Y332D02*
X764Y332D01*
X647Y331D02*
X662Y331D01*
X760Y331D02*
X764Y331D01*
X650Y330D02*
X658Y330D01*
X760Y330D02*
X764Y330D01*
X760Y329D02*
X765Y329D01*
X760Y328D02*
X778Y328D01*
X760Y327D02*
X778Y327D01*
X760Y326D02*
X778Y326D01*
X761Y325D02*
X778Y325D01*
X762Y324D02*
X778Y324D01*
X766Y323D02*
X777Y323D01*
D02*
G04 End of Silk0*
M02*