G04 MADE WITH FRITZING*
G04 WWW.FRITZING.ORG*
G04 DOUBLE SIDED*
G04 HOLES PLATED*
G04 CONTOUR ON CENTER OF CONTOUR VECTOR*
%ASAXBY*%
%FSLAX23Y23*%
%MOIN*%
%OFA0B0*%
%SFA1.0B1.0*%
%ADD10C,0.075000*%
%ADD11C,0.099000*%
%ADD12C,0.062992*%
%ADD13C,0.074000*%
%ADD14C,0.079370*%
%ADD15C,0.039370*%
%ADD16R,0.075000X0.075000*%
%ADD17R,0.062992X0.062992*%
%ADD18C,0.008000*%
%ADD19C,0.029000*%
%LNCOPPER1*%
G90*
G70*
G54D10*
X552Y852D03*
X252Y852D03*
X552Y752D03*
X252Y752D03*
X552Y652D03*
X252Y652D03*
X552Y552D03*
X252Y552D03*
X552Y852D03*
X252Y852D03*
X552Y752D03*
X252Y752D03*
X552Y652D03*
X252Y652D03*
X552Y552D03*
X252Y552D03*
G54D11*
X259Y242D03*
X59Y242D03*
X159Y442D03*
G54D10*
X95Y652D03*
X95Y752D03*
X95Y652D03*
X95Y752D03*
X496Y1026D03*
X396Y1026D03*
X496Y1026D03*
X396Y1026D03*
X158Y990D03*
X58Y990D03*
X158Y990D03*
X58Y990D03*
G54D12*
X729Y1029D03*
X630Y1029D03*
G54D13*
X670Y281D03*
X563Y281D03*
X456Y281D03*
X670Y281D03*
X563Y281D03*
X456Y281D03*
G54D14*
X500Y128D03*
X400Y128D03*
X300Y128D03*
X500Y128D03*
X400Y128D03*
X300Y128D03*
X500Y1218D03*
X400Y1218D03*
X300Y1218D03*
X500Y1218D03*
X400Y1218D03*
X300Y1218D03*
G54D15*
X655Y926D03*
X725Y536D03*
G54D16*
X552Y852D03*
X552Y852D03*
X158Y990D03*
X158Y990D03*
G54D17*
X729Y1029D03*
G54D18*
X532Y639D02*
X297Y478D01*
D02*
X297Y478D02*
X185Y448D01*
D02*
X335Y202D02*
X611Y202D01*
D02*
X282Y230D02*
X335Y202D01*
D02*
X611Y202D02*
X654Y261D01*
D02*
X512Y1009D02*
X551Y970D01*
D02*
X694Y973D02*
X717Y1011D01*
D02*
X551Y970D02*
X694Y973D01*
D02*
X115Y739D02*
X232Y664D01*
D02*
X391Y1003D02*
X295Y586D01*
X295Y586D02*
X270Y566D01*
D02*
X268Y217D02*
X292Y151D01*
D02*
X297Y1193D02*
X255Y875D01*
D02*
X544Y530D02*
X464Y305D01*
D02*
X714Y543D02*
X651Y584D01*
D02*
X651Y584D02*
X573Y559D01*
D02*
X83Y252D02*
X205Y306D01*
X205Y306D02*
X425Y306D01*
X425Y306D02*
X436Y297D01*
D02*
X655Y913D02*
X651Y584D01*
G54D19*
X24Y277D02*
X94Y277D01*
X94Y207D01*
X24Y207D01*
X24Y277D01*
D02*
G04 End of Copper1*
M02*