G04 MADE WITH FRITZING*
G04 WWW.FRITZING.ORG*
G04 DOUBLE SIDED*
G04 HOLES PLATED*
G04 CONTOUR ON CENTER OF CONTOUR VECTOR*
%ASAXBY*%
%FSLAX23Y23*%
%MOIN*%
%OFA0B0*%
%SFA1.0B1.0*%
%ADD10C,0.092000X0.068*%
%ADD11C,0.008000*%
%ADD12R,0.001000X0.001000*%
%LNSILK1*%
G90*
G70*
G54D10*
X159Y342D03*
G54D11*
X792Y195D02*
X792Y367D01*
D02*
X792Y367D02*
X334Y367D01*
D02*
X334Y367D02*
X334Y195D01*
D02*
X334Y195D02*
X792Y195D01*
G54D12*
X419Y1266D02*
X419Y1266D01*
X423Y1266D02*
X423Y1266D01*
X419Y1265D02*
X419Y1265D01*
X423Y1265D02*
X423Y1265D01*
X420Y1264D02*
X420Y1264D01*
X422Y1264D02*
X423Y1264D01*
X420Y1263D02*
X420Y1263D01*
X422Y1263D02*
X423Y1263D01*
X421Y1262D02*
X421Y1262D01*
X423Y1262D02*
X423Y1262D01*
X421Y1261D02*
X421Y1261D01*
X589Y1124D02*
X593Y1124D01*
X588Y1123D02*
X594Y1123D01*
X587Y1122D02*
X595Y1122D01*
X587Y1121D02*
X595Y1121D01*
X587Y1120D02*
X595Y1120D01*
X587Y1119D02*
X595Y1119D01*
X587Y1118D02*
X595Y1118D01*
X587Y1117D02*
X595Y1117D01*
X587Y1116D02*
X595Y1116D01*
X587Y1115D02*
X595Y1115D01*
X587Y1114D02*
X595Y1114D01*
X587Y1113D02*
X595Y1113D01*
X46Y1112D02*
X49Y1112D01*
X63Y1112D02*
X66Y1112D01*
X79Y1112D02*
X95Y1112D01*
X138Y1112D02*
X150Y1112D01*
X587Y1112D02*
X595Y1112D01*
X46Y1111D02*
X49Y1111D01*
X63Y1111D02*
X66Y1111D01*
X78Y1111D02*
X96Y1111D01*
X138Y1111D02*
X150Y1111D01*
X587Y1111D02*
X595Y1111D01*
X46Y1110D02*
X49Y1110D01*
X63Y1110D02*
X66Y1110D01*
X77Y1110D02*
X97Y1110D01*
X138Y1110D02*
X150Y1110D01*
X587Y1110D02*
X595Y1110D01*
X46Y1109D02*
X49Y1109D01*
X63Y1109D02*
X66Y1109D01*
X77Y1109D02*
X97Y1109D01*
X139Y1109D02*
X150Y1109D01*
X312Y1109D02*
X342Y1109D01*
X587Y1109D02*
X595Y1109D01*
X46Y1108D02*
X49Y1108D01*
X63Y1108D02*
X66Y1108D01*
X77Y1108D02*
X80Y1108D01*
X94Y1108D02*
X97Y1108D01*
X146Y1108D02*
X150Y1108D01*
X311Y1108D02*
X343Y1108D01*
X587Y1108D02*
X595Y1108D01*
X663Y1108D02*
X687Y1108D01*
X46Y1107D02*
X49Y1107D01*
X63Y1107D02*
X66Y1107D01*
X77Y1107D02*
X80Y1107D01*
X94Y1107D02*
X97Y1107D01*
X146Y1107D02*
X150Y1107D01*
X311Y1107D02*
X343Y1107D01*
X587Y1107D02*
X595Y1107D01*
X658Y1107D02*
X692Y1107D01*
X46Y1106D02*
X49Y1106D01*
X63Y1106D02*
X66Y1106D01*
X77Y1106D02*
X80Y1106D01*
X94Y1106D02*
X97Y1106D01*
X146Y1106D02*
X150Y1106D01*
X311Y1106D02*
X343Y1106D01*
X587Y1106D02*
X595Y1106D01*
X654Y1106D02*
X696Y1106D01*
X46Y1105D02*
X49Y1105D01*
X63Y1105D02*
X66Y1105D01*
X77Y1105D02*
X80Y1105D01*
X94Y1105D02*
X97Y1105D01*
X146Y1105D02*
X150Y1105D01*
X322Y1105D02*
X332Y1105D01*
X587Y1105D02*
X595Y1105D01*
X651Y1105D02*
X699Y1105D01*
X46Y1104D02*
X49Y1104D01*
X63Y1104D02*
X66Y1104D01*
X77Y1104D02*
X80Y1104D01*
X94Y1104D02*
X97Y1104D01*
X146Y1104D02*
X150Y1104D01*
X322Y1104D02*
X332Y1104D01*
X587Y1104D02*
X595Y1104D01*
X648Y1104D02*
X670Y1104D01*
X680Y1104D02*
X702Y1104D01*
X46Y1103D02*
X50Y1103D01*
X63Y1103D02*
X66Y1103D01*
X77Y1103D02*
X80Y1103D01*
X94Y1103D02*
X97Y1103D01*
X146Y1103D02*
X150Y1103D01*
X321Y1103D02*
X326Y1103D01*
X328Y1103D02*
X333Y1103D01*
X587Y1103D02*
X595Y1103D01*
X645Y1103D02*
X662Y1103D01*
X688Y1103D02*
X705Y1103D01*
X46Y1102D02*
X50Y1102D01*
X62Y1102D02*
X66Y1102D01*
X77Y1102D02*
X80Y1102D01*
X94Y1102D02*
X97Y1102D01*
X146Y1102D02*
X150Y1102D01*
X320Y1102D02*
X325Y1102D01*
X329Y1102D02*
X334Y1102D01*
X587Y1102D02*
X595Y1102D01*
X643Y1102D02*
X657Y1102D01*
X693Y1102D02*
X707Y1102D01*
X47Y1101D02*
X50Y1101D01*
X62Y1101D02*
X65Y1101D01*
X77Y1101D02*
X80Y1101D01*
X94Y1101D02*
X97Y1101D01*
X146Y1101D02*
X150Y1101D01*
X319Y1101D02*
X324Y1101D01*
X330Y1101D02*
X335Y1101D01*
X587Y1101D02*
X595Y1101D01*
X641Y1101D02*
X653Y1101D01*
X696Y1101D02*
X709Y1101D01*
X47Y1100D02*
X51Y1100D01*
X61Y1100D02*
X65Y1100D01*
X77Y1100D02*
X80Y1100D01*
X94Y1100D02*
X97Y1100D01*
X146Y1100D02*
X150Y1100D01*
X318Y1100D02*
X323Y1100D01*
X331Y1100D02*
X335Y1100D01*
X587Y1100D02*
X595Y1100D01*
X639Y1100D02*
X650Y1100D01*
X700Y1100D02*
X711Y1100D01*
X48Y1099D02*
X51Y1099D01*
X61Y1099D02*
X65Y1099D01*
X77Y1099D02*
X80Y1099D01*
X94Y1099D02*
X97Y1099D01*
X146Y1099D02*
X150Y1099D01*
X317Y1099D02*
X322Y1099D01*
X332Y1099D02*
X336Y1099D01*
X587Y1099D02*
X595Y1099D01*
X637Y1099D02*
X647Y1099D01*
X702Y1099D02*
X713Y1099D01*
X48Y1098D02*
X52Y1098D01*
X61Y1098D02*
X64Y1098D01*
X77Y1098D02*
X80Y1098D01*
X94Y1098D02*
X97Y1098D01*
X146Y1098D02*
X150Y1098D01*
X317Y1098D02*
X321Y1098D01*
X332Y1098D02*
X337Y1098D01*
X587Y1098D02*
X595Y1098D01*
X635Y1098D02*
X645Y1098D01*
X705Y1098D02*
X715Y1098D01*
X48Y1097D02*
X52Y1097D01*
X60Y1097D02*
X64Y1097D01*
X77Y1097D02*
X80Y1097D01*
X94Y1097D02*
X97Y1097D01*
X146Y1097D02*
X150Y1097D01*
X316Y1097D02*
X320Y1097D01*
X333Y1097D02*
X338Y1097D01*
X587Y1097D02*
X595Y1097D01*
X633Y1097D02*
X643Y1097D01*
X707Y1097D02*
X716Y1097D01*
X49Y1096D02*
X52Y1096D01*
X60Y1096D02*
X63Y1096D01*
X77Y1096D02*
X80Y1096D01*
X94Y1096D02*
X97Y1096D01*
X146Y1096D02*
X150Y1096D01*
X315Y1096D02*
X320Y1096D01*
X334Y1096D02*
X339Y1096D01*
X587Y1096D02*
X595Y1096D01*
X632Y1096D02*
X641Y1096D01*
X709Y1096D02*
X718Y1096D01*
X49Y1095D02*
X53Y1095D01*
X59Y1095D02*
X63Y1095D01*
X77Y1095D02*
X80Y1095D01*
X94Y1095D02*
X97Y1095D01*
X146Y1095D02*
X150Y1095D01*
X314Y1095D02*
X319Y1095D01*
X335Y1095D02*
X340Y1095D01*
X587Y1095D02*
X595Y1095D01*
X630Y1095D02*
X639Y1095D01*
X711Y1095D02*
X719Y1095D01*
X49Y1094D02*
X53Y1094D01*
X59Y1094D02*
X63Y1094D01*
X77Y1094D02*
X80Y1094D01*
X94Y1094D02*
X97Y1094D01*
X146Y1094D02*
X150Y1094D01*
X155Y1094D02*
X158Y1094D01*
X313Y1094D02*
X318Y1094D01*
X336Y1094D02*
X341Y1094D01*
X587Y1094D02*
X595Y1094D01*
X629Y1094D02*
X637Y1094D01*
X713Y1094D02*
X721Y1094D01*
X50Y1093D02*
X54Y1093D01*
X59Y1093D02*
X62Y1093D01*
X77Y1093D02*
X80Y1093D01*
X94Y1093D02*
X97Y1093D01*
X146Y1093D02*
X150Y1093D01*
X155Y1093D02*
X158Y1093D01*
X312Y1093D02*
X317Y1093D01*
X337Y1093D02*
X341Y1093D01*
X587Y1093D02*
X595Y1093D01*
X628Y1093D02*
X635Y1093D01*
X714Y1093D02*
X722Y1093D01*
X50Y1092D02*
X54Y1092D01*
X58Y1092D02*
X62Y1092D01*
X77Y1092D02*
X80Y1092D01*
X94Y1092D02*
X97Y1092D01*
X114Y1092D02*
X121Y1092D01*
X146Y1092D02*
X150Y1092D01*
X155Y1092D02*
X158Y1092D01*
X312Y1092D02*
X316Y1092D01*
X338Y1092D02*
X342Y1092D01*
X587Y1092D02*
X595Y1092D01*
X626Y1092D02*
X634Y1092D01*
X716Y1092D02*
X724Y1092D01*
X51Y1091D02*
X54Y1091D01*
X58Y1091D02*
X61Y1091D01*
X77Y1091D02*
X80Y1091D01*
X94Y1091D02*
X97Y1091D01*
X114Y1091D02*
X121Y1091D01*
X146Y1091D02*
X150Y1091D01*
X155Y1091D02*
X158Y1091D01*
X311Y1091D02*
X315Y1091D01*
X338Y1091D02*
X343Y1091D01*
X587Y1091D02*
X595Y1091D01*
X625Y1091D02*
X632Y1091D01*
X717Y1091D02*
X725Y1091D01*
X51Y1090D02*
X55Y1090D01*
X57Y1090D02*
X61Y1090D01*
X77Y1090D02*
X80Y1090D01*
X94Y1090D02*
X97Y1090D01*
X114Y1090D02*
X121Y1090D01*
X146Y1090D02*
X150Y1090D01*
X155Y1090D02*
X158Y1090D01*
X311Y1090D02*
X314Y1090D01*
X339Y1090D02*
X343Y1090D01*
X587Y1090D02*
X595Y1090D01*
X624Y1090D02*
X631Y1090D01*
X719Y1090D02*
X726Y1090D01*
X51Y1089D02*
X55Y1089D01*
X57Y1089D02*
X61Y1089D01*
X77Y1089D02*
X80Y1089D01*
X94Y1089D02*
X97Y1089D01*
X114Y1089D02*
X121Y1089D01*
X146Y1089D02*
X150Y1089D01*
X155Y1089D02*
X158Y1089D01*
X311Y1089D02*
X314Y1089D01*
X340Y1089D02*
X342Y1089D01*
X587Y1089D02*
X595Y1089D01*
X623Y1089D02*
X630Y1089D01*
X720Y1089D02*
X727Y1089D01*
X52Y1088D02*
X60Y1088D01*
X77Y1088D02*
X80Y1088D01*
X94Y1088D02*
X97Y1088D01*
X114Y1088D02*
X121Y1088D01*
X146Y1088D02*
X150Y1088D01*
X155Y1088D02*
X158Y1088D01*
X587Y1088D02*
X595Y1088D01*
X622Y1088D02*
X628Y1088D01*
X721Y1088D02*
X728Y1088D01*
X52Y1087D02*
X60Y1087D01*
X77Y1087D02*
X80Y1087D01*
X94Y1087D02*
X97Y1087D01*
X114Y1087D02*
X121Y1087D01*
X146Y1087D02*
X150Y1087D01*
X155Y1087D02*
X158Y1087D01*
X587Y1087D02*
X595Y1087D01*
X621Y1087D02*
X627Y1087D01*
X723Y1087D02*
X729Y1087D01*
X53Y1086D02*
X60Y1086D01*
X77Y1086D02*
X80Y1086D01*
X94Y1086D02*
X97Y1086D01*
X114Y1086D02*
X121Y1086D01*
X146Y1086D02*
X150Y1086D01*
X155Y1086D02*
X158Y1086D01*
X587Y1086D02*
X595Y1086D01*
X619Y1086D02*
X626Y1086D01*
X724Y1086D02*
X730Y1086D01*
X53Y1085D02*
X59Y1085D01*
X77Y1085D02*
X80Y1085D01*
X94Y1085D02*
X97Y1085D01*
X146Y1085D02*
X150Y1085D01*
X155Y1085D02*
X158Y1085D01*
X587Y1085D02*
X595Y1085D01*
X618Y1085D02*
X625Y1085D01*
X725Y1085D02*
X731Y1085D01*
X53Y1084D02*
X59Y1084D01*
X77Y1084D02*
X80Y1084D01*
X93Y1084D02*
X97Y1084D01*
X146Y1084D02*
X150Y1084D01*
X154Y1084D02*
X158Y1084D01*
X587Y1084D02*
X595Y1084D01*
X617Y1084D02*
X624Y1084D01*
X726Y1084D02*
X732Y1084D01*
X54Y1083D02*
X58Y1083D01*
X77Y1083D02*
X97Y1083D01*
X138Y1083D02*
X158Y1083D01*
X587Y1083D02*
X595Y1083D01*
X617Y1083D02*
X623Y1083D01*
X727Y1083D02*
X733Y1083D01*
X54Y1082D02*
X58Y1082D01*
X77Y1082D02*
X96Y1082D01*
X138Y1082D02*
X158Y1082D01*
X587Y1082D02*
X595Y1082D01*
X616Y1082D02*
X622Y1082D01*
X728Y1082D02*
X734Y1082D01*
X55Y1081D02*
X58Y1081D01*
X78Y1081D02*
X96Y1081D01*
X138Y1081D02*
X158Y1081D01*
X587Y1081D02*
X595Y1081D01*
X615Y1081D02*
X621Y1081D01*
X729Y1081D02*
X735Y1081D01*
X55Y1080D02*
X57Y1080D01*
X79Y1080D02*
X94Y1080D01*
X139Y1080D02*
X157Y1080D01*
X587Y1080D02*
X595Y1080D01*
X614Y1080D02*
X620Y1080D01*
X730Y1080D02*
X736Y1080D01*
X587Y1079D02*
X595Y1079D01*
X613Y1079D02*
X619Y1079D01*
X731Y1079D02*
X737Y1079D01*
X587Y1078D02*
X595Y1078D01*
X612Y1078D02*
X618Y1078D01*
X732Y1078D02*
X737Y1078D01*
X587Y1077D02*
X595Y1077D01*
X612Y1077D02*
X617Y1077D01*
X733Y1077D02*
X738Y1077D01*
X311Y1076D02*
X313Y1076D01*
X331Y1076D02*
X333Y1076D01*
X587Y1076D02*
X595Y1076D01*
X611Y1076D02*
X616Y1076D01*
X733Y1076D02*
X739Y1076D01*
X311Y1075D02*
X314Y1075D01*
X331Y1075D02*
X334Y1075D01*
X587Y1075D02*
X595Y1075D01*
X611Y1075D02*
X616Y1075D01*
X734Y1075D02*
X739Y1075D01*
X311Y1074D02*
X314Y1074D01*
X331Y1074D02*
X334Y1074D01*
X587Y1074D02*
X595Y1074D01*
X611Y1074D02*
X615Y1074D01*
X735Y1074D02*
X740Y1074D01*
X311Y1073D02*
X314Y1073D01*
X331Y1073D02*
X334Y1073D01*
X587Y1073D02*
X595Y1073D01*
X611Y1073D02*
X615Y1073D01*
X736Y1073D02*
X741Y1073D01*
X311Y1072D02*
X314Y1072D01*
X331Y1072D02*
X334Y1072D01*
X341Y1072D02*
X344Y1072D01*
X587Y1072D02*
X595Y1072D01*
X611Y1072D02*
X615Y1072D01*
X736Y1072D02*
X741Y1072D01*
X311Y1071D02*
X314Y1071D01*
X331Y1071D02*
X334Y1071D01*
X340Y1071D02*
X345Y1071D01*
X587Y1071D02*
X595Y1071D01*
X611Y1071D02*
X615Y1071D01*
X737Y1071D02*
X742Y1071D01*
X311Y1070D02*
X334Y1070D01*
X340Y1070D02*
X345Y1070D01*
X587Y1070D02*
X595Y1070D01*
X611Y1070D02*
X615Y1070D01*
X738Y1070D02*
X743Y1070D01*
X311Y1069D02*
X334Y1069D01*
X340Y1069D02*
X345Y1069D01*
X587Y1069D02*
X595Y1069D01*
X611Y1069D02*
X615Y1069D01*
X738Y1069D02*
X743Y1069D01*
X311Y1068D02*
X334Y1068D01*
X340Y1068D02*
X345Y1068D01*
X587Y1068D02*
X595Y1068D01*
X611Y1068D02*
X615Y1068D01*
X739Y1068D02*
X742Y1068D01*
X311Y1067D02*
X334Y1067D01*
X340Y1067D02*
X344Y1067D01*
X587Y1067D02*
X595Y1067D01*
X611Y1067D02*
X615Y1067D01*
X740Y1067D02*
X741Y1067D01*
X311Y1066D02*
X315Y1066D01*
X587Y1066D02*
X595Y1066D01*
X611Y1066D02*
X615Y1066D01*
X311Y1065D02*
X314Y1065D01*
X587Y1065D02*
X595Y1065D01*
X611Y1065D02*
X615Y1065D01*
X311Y1064D02*
X314Y1064D01*
X587Y1064D02*
X595Y1064D01*
X611Y1064D02*
X615Y1064D01*
X311Y1063D02*
X314Y1063D01*
X587Y1063D02*
X595Y1063D01*
X611Y1063D02*
X615Y1063D01*
X311Y1062D02*
X314Y1062D01*
X587Y1062D02*
X595Y1062D01*
X612Y1062D02*
X613Y1062D01*
X311Y1061D02*
X314Y1061D01*
X587Y1061D02*
X595Y1061D01*
X312Y1060D02*
X313Y1060D01*
X587Y1060D02*
X595Y1060D01*
X587Y1059D02*
X595Y1059D01*
X587Y1058D02*
X595Y1058D01*
X587Y1057D02*
X595Y1057D01*
X587Y1056D02*
X595Y1056D01*
X587Y1055D02*
X595Y1055D01*
X587Y1054D02*
X595Y1054D01*
X587Y1053D02*
X595Y1053D01*
X587Y1052D02*
X595Y1052D01*
X587Y1051D02*
X595Y1051D01*
X587Y1050D02*
X595Y1050D01*
X587Y1049D02*
X595Y1049D01*
X317Y1048D02*
X327Y1048D01*
X587Y1048D02*
X595Y1048D01*
X315Y1047D02*
X330Y1047D01*
X587Y1047D02*
X595Y1047D01*
X314Y1046D02*
X331Y1046D01*
X587Y1046D02*
X595Y1046D01*
X313Y1045D02*
X332Y1045D01*
X587Y1045D02*
X595Y1045D01*
X312Y1044D02*
X333Y1044D01*
X587Y1044D02*
X595Y1044D01*
X311Y1043D02*
X316Y1043D01*
X329Y1043D02*
X333Y1043D01*
X587Y1043D02*
X595Y1043D01*
X311Y1042D02*
X315Y1042D01*
X330Y1042D02*
X334Y1042D01*
X587Y1042D02*
X595Y1042D01*
X311Y1041D02*
X314Y1041D01*
X330Y1041D02*
X334Y1041D01*
X587Y1041D02*
X595Y1041D01*
X311Y1040D02*
X314Y1040D01*
X331Y1040D02*
X334Y1040D01*
X587Y1040D02*
X594Y1040D01*
X311Y1039D02*
X314Y1039D01*
X331Y1039D02*
X334Y1039D01*
X587Y1039D02*
X594Y1039D01*
X311Y1038D02*
X314Y1038D01*
X331Y1038D02*
X334Y1038D01*
X588Y1038D02*
X594Y1038D01*
X311Y1037D02*
X314Y1037D01*
X331Y1037D02*
X334Y1037D01*
X589Y1037D02*
X593Y1037D01*
X311Y1036D02*
X314Y1036D01*
X330Y1036D02*
X334Y1036D01*
X311Y1035D02*
X315Y1035D01*
X330Y1035D02*
X334Y1035D01*
X312Y1034D02*
X316Y1034D01*
X329Y1034D02*
X333Y1034D01*
X312Y1033D02*
X317Y1033D01*
X328Y1033D02*
X333Y1033D01*
X313Y1032D02*
X318Y1032D01*
X327Y1032D02*
X332Y1032D01*
X312Y1031D02*
X342Y1031D01*
X311Y1030D02*
X343Y1030D01*
X311Y1029D02*
X343Y1029D01*
X311Y1028D02*
X343Y1028D01*
X312Y1027D02*
X341Y1027D01*
X311Y1017D02*
X343Y1017D01*
X311Y1016D02*
X343Y1016D01*
X311Y1015D02*
X343Y1015D01*
X311Y1014D02*
X343Y1014D01*
X311Y1013D02*
X314Y1013D01*
X325Y1013D02*
X329Y1013D01*
X339Y1013D02*
X343Y1013D01*
X311Y1012D02*
X314Y1012D01*
X325Y1012D02*
X329Y1012D01*
X340Y1012D02*
X343Y1012D01*
X311Y1011D02*
X314Y1011D01*
X325Y1011D02*
X329Y1011D01*
X340Y1011D02*
X343Y1011D01*
X311Y1010D02*
X314Y1010D01*
X325Y1010D02*
X329Y1010D01*
X340Y1010D02*
X343Y1010D01*
X311Y1009D02*
X314Y1009D01*
X325Y1009D02*
X329Y1009D01*
X340Y1009D02*
X343Y1009D01*
X311Y1008D02*
X314Y1008D01*
X325Y1008D02*
X329Y1008D01*
X340Y1008D02*
X343Y1008D01*
X311Y1007D02*
X314Y1007D01*
X325Y1007D02*
X329Y1007D01*
X340Y1007D02*
X343Y1007D01*
X311Y1006D02*
X314Y1006D01*
X325Y1006D02*
X328Y1006D01*
X340Y1006D02*
X343Y1006D01*
X311Y1005D02*
X314Y1005D01*
X326Y1005D02*
X327Y1005D01*
X340Y1005D02*
X343Y1005D01*
X311Y1004D02*
X314Y1004D01*
X340Y1004D02*
X343Y1004D01*
X311Y1003D02*
X314Y1003D01*
X340Y1003D02*
X343Y1003D01*
X311Y1002D02*
X314Y1002D01*
X340Y1002D02*
X343Y1002D01*
X311Y1001D02*
X314Y1001D01*
X340Y1001D02*
X343Y1001D01*
X311Y1000D02*
X314Y1000D01*
X340Y1000D02*
X343Y1000D01*
X311Y999D02*
X314Y999D01*
X340Y999D02*
X343Y999D01*
X311Y998D02*
X314Y998D01*
X340Y998D02*
X343Y998D01*
X612Y998D02*
X613Y998D01*
X311Y997D02*
X313Y997D01*
X340Y997D02*
X342Y997D01*
X611Y997D02*
X615Y997D01*
X611Y996D02*
X615Y996D01*
X611Y995D02*
X615Y995D01*
X611Y994D02*
X615Y994D01*
X611Y993D02*
X615Y993D01*
X740Y993D02*
X743Y993D01*
X611Y992D02*
X615Y992D01*
X739Y992D02*
X743Y992D01*
X611Y991D02*
X615Y991D01*
X739Y991D02*
X743Y991D01*
X611Y990D02*
X615Y990D01*
X738Y990D02*
X743Y990D01*
X611Y989D02*
X615Y989D01*
X737Y989D02*
X742Y989D01*
X611Y988D02*
X615Y988D01*
X737Y988D02*
X742Y988D01*
X611Y987D02*
X615Y987D01*
X736Y987D02*
X741Y987D01*
X611Y986D02*
X615Y986D01*
X735Y986D02*
X740Y986D01*
X611Y985D02*
X615Y985D01*
X734Y985D02*
X740Y985D01*
X311Y984D02*
X313Y984D01*
X340Y984D02*
X342Y984D01*
X611Y984D02*
X616Y984D01*
X734Y984D02*
X739Y984D01*
X311Y983D02*
X314Y983D01*
X340Y983D02*
X343Y983D01*
X612Y983D02*
X617Y983D01*
X733Y983D02*
X738Y983D01*
X758Y983D02*
X788Y983D01*
X311Y982D02*
X314Y982D01*
X340Y982D02*
X343Y982D01*
X612Y982D02*
X618Y982D01*
X732Y982D02*
X738Y982D01*
X758Y982D02*
X789Y982D01*
X311Y981D02*
X314Y981D01*
X340Y981D02*
X343Y981D01*
X613Y981D02*
X618Y981D01*
X731Y981D02*
X737Y981D01*
X758Y981D02*
X789Y981D01*
X311Y980D02*
X314Y980D01*
X340Y980D02*
X343Y980D01*
X614Y980D02*
X619Y980D01*
X730Y980D02*
X736Y980D01*
X758Y980D02*
X788Y980D01*
X311Y979D02*
X314Y979D01*
X340Y979D02*
X343Y979D01*
X614Y979D02*
X620Y979D01*
X729Y979D02*
X735Y979D01*
X758Y979D02*
X761Y979D01*
X311Y978D02*
X343Y978D01*
X615Y978D02*
X621Y978D01*
X728Y978D02*
X734Y978D01*
X758Y978D02*
X761Y978D01*
X311Y977D02*
X343Y977D01*
X616Y977D02*
X622Y977D01*
X727Y977D02*
X733Y977D01*
X758Y977D02*
X761Y977D01*
X311Y976D02*
X343Y976D01*
X617Y976D02*
X623Y976D01*
X726Y976D02*
X733Y976D01*
X758Y976D02*
X761Y976D01*
X311Y975D02*
X343Y975D01*
X618Y975D02*
X624Y975D01*
X725Y975D02*
X732Y975D01*
X758Y975D02*
X761Y975D01*
X311Y974D02*
X314Y974D01*
X619Y974D02*
X625Y974D01*
X724Y974D02*
X731Y974D01*
X758Y974D02*
X761Y974D01*
X311Y973D02*
X314Y973D01*
X620Y973D02*
X627Y973D01*
X723Y973D02*
X730Y973D01*
X758Y973D02*
X761Y973D01*
X311Y972D02*
X314Y972D01*
X621Y972D02*
X628Y972D01*
X722Y972D02*
X729Y972D01*
X758Y972D02*
X761Y972D01*
X311Y971D02*
X314Y971D01*
X622Y971D02*
X629Y971D01*
X721Y971D02*
X727Y971D01*
X758Y971D02*
X761Y971D01*
X311Y970D02*
X314Y970D01*
X623Y970D02*
X631Y970D01*
X719Y970D02*
X726Y970D01*
X758Y970D02*
X761Y970D01*
X311Y969D02*
X314Y969D01*
X625Y969D02*
X632Y969D01*
X718Y969D02*
X725Y969D01*
X758Y969D02*
X761Y969D01*
X312Y968D02*
X313Y968D01*
X626Y968D02*
X633Y968D01*
X716Y968D02*
X724Y968D01*
X758Y968D02*
X761Y968D01*
X627Y967D02*
X635Y967D01*
X715Y967D02*
X723Y967D01*
X758Y967D02*
X761Y967D01*
X628Y966D02*
X637Y966D01*
X713Y966D02*
X721Y966D01*
X758Y966D02*
X761Y966D01*
X630Y965D02*
X638Y965D01*
X712Y965D02*
X720Y965D01*
X758Y965D02*
X761Y965D01*
X631Y964D02*
X640Y964D01*
X710Y964D02*
X718Y964D01*
X758Y964D02*
X761Y964D01*
X633Y963D02*
X642Y963D01*
X708Y963D02*
X717Y963D01*
X759Y963D02*
X760Y963D01*
X634Y962D02*
X644Y962D01*
X706Y962D02*
X715Y962D01*
X636Y961D02*
X647Y961D01*
X703Y961D02*
X714Y961D01*
X638Y960D02*
X649Y960D01*
X701Y960D02*
X712Y960D01*
X640Y959D02*
X652Y959D01*
X698Y959D02*
X710Y959D01*
X642Y958D02*
X655Y958D01*
X694Y958D02*
X708Y958D01*
X644Y957D02*
X660Y957D01*
X690Y957D02*
X705Y957D01*
X317Y956D02*
X328Y956D01*
X647Y956D02*
X666Y956D01*
X684Y956D02*
X703Y956D01*
X315Y955D02*
X330Y955D01*
X649Y955D02*
X700Y955D01*
X314Y954D02*
X331Y954D01*
X653Y954D02*
X697Y954D01*
X313Y953D02*
X332Y953D01*
X656Y953D02*
X693Y953D01*
X758Y953D02*
X789Y953D01*
X312Y952D02*
X333Y952D01*
X661Y952D02*
X688Y952D01*
X758Y952D02*
X789Y952D01*
X311Y951D02*
X316Y951D01*
X320Y951D02*
X323Y951D01*
X329Y951D02*
X333Y951D01*
X669Y951D02*
X680Y951D01*
X758Y951D02*
X789Y951D01*
X311Y950D02*
X315Y950D01*
X320Y950D02*
X323Y950D01*
X330Y950D02*
X334Y950D01*
X758Y950D02*
X789Y950D01*
X311Y949D02*
X314Y949D01*
X320Y949D02*
X323Y949D01*
X330Y949D02*
X334Y949D01*
X758Y949D02*
X761Y949D01*
X772Y949D02*
X775Y949D01*
X786Y949D02*
X789Y949D01*
X311Y948D02*
X314Y948D01*
X320Y948D02*
X323Y948D01*
X331Y948D02*
X334Y948D01*
X460Y948D02*
X492Y948D01*
X758Y948D02*
X761Y948D01*
X772Y948D02*
X775Y948D01*
X786Y948D02*
X789Y948D01*
X311Y947D02*
X314Y947D01*
X320Y947D02*
X323Y947D01*
X331Y947D02*
X334Y947D01*
X460Y947D02*
X492Y947D01*
X758Y947D02*
X761Y947D01*
X772Y947D02*
X775Y947D01*
X786Y947D02*
X789Y947D01*
X311Y946D02*
X314Y946D01*
X320Y946D02*
X323Y946D01*
X331Y946D02*
X334Y946D01*
X460Y946D02*
X492Y946D01*
X758Y946D02*
X761Y946D01*
X772Y946D02*
X775Y946D01*
X786Y946D02*
X789Y946D01*
X311Y945D02*
X314Y945D01*
X320Y945D02*
X323Y945D01*
X331Y945D02*
X334Y945D01*
X460Y945D02*
X491Y945D01*
X758Y945D02*
X761Y945D01*
X772Y945D02*
X775Y945D01*
X786Y945D02*
X789Y945D01*
X311Y944D02*
X314Y944D01*
X320Y944D02*
X323Y944D01*
X331Y944D02*
X334Y944D01*
X460Y944D02*
X463Y944D01*
X758Y944D02*
X761Y944D01*
X772Y944D02*
X775Y944D01*
X786Y944D02*
X789Y944D01*
X311Y943D02*
X314Y943D01*
X320Y943D02*
X323Y943D01*
X331Y943D02*
X334Y943D01*
X460Y943D02*
X463Y943D01*
X758Y943D02*
X761Y943D01*
X772Y943D02*
X775Y943D01*
X786Y943D02*
X789Y943D01*
X311Y942D02*
X314Y942D01*
X320Y942D02*
X323Y942D01*
X330Y942D02*
X334Y942D01*
X460Y942D02*
X463Y942D01*
X758Y942D02*
X761Y942D01*
X772Y942D02*
X775Y942D01*
X786Y942D02*
X789Y942D01*
X311Y941D02*
X314Y941D01*
X320Y941D02*
X323Y941D01*
X330Y941D02*
X334Y941D01*
X460Y941D02*
X463Y941D01*
X758Y941D02*
X761Y941D01*
X786Y941D02*
X789Y941D01*
X311Y940D02*
X314Y940D01*
X320Y940D02*
X323Y940D01*
X329Y940D02*
X333Y940D01*
X460Y940D02*
X463Y940D01*
X758Y940D02*
X761Y940D01*
X786Y940D02*
X789Y940D01*
X311Y939D02*
X314Y939D01*
X320Y939D02*
X333Y939D01*
X460Y939D02*
X463Y939D01*
X758Y939D02*
X761Y939D01*
X786Y939D02*
X789Y939D01*
X311Y938D02*
X314Y938D01*
X320Y938D02*
X332Y938D01*
X460Y938D02*
X463Y938D01*
X758Y938D02*
X761Y938D01*
X786Y938D02*
X789Y938D01*
X311Y937D02*
X314Y937D01*
X320Y937D02*
X331Y937D01*
X460Y937D02*
X463Y937D01*
X758Y937D02*
X761Y937D01*
X786Y937D02*
X789Y937D01*
X311Y936D02*
X314Y936D01*
X320Y936D02*
X330Y936D01*
X460Y936D02*
X463Y936D01*
X758Y936D02*
X761Y936D01*
X786Y936D02*
X789Y936D01*
X322Y935D02*
X327Y935D01*
X460Y935D02*
X463Y935D01*
X758Y935D02*
X761Y935D01*
X786Y935D02*
X789Y935D01*
X460Y934D02*
X463Y934D01*
X758Y934D02*
X761Y934D01*
X786Y934D02*
X789Y934D01*
X460Y933D02*
X463Y933D01*
X759Y933D02*
X760Y933D01*
X787Y933D02*
X788Y933D01*
X460Y932D02*
X463Y932D01*
X460Y931D02*
X463Y931D01*
X460Y930D02*
X463Y930D01*
X460Y929D02*
X463Y929D01*
X461Y928D02*
X462Y928D01*
X318Y925D02*
X327Y925D01*
X316Y924D02*
X329Y924D01*
X315Y923D02*
X330Y923D01*
X758Y923D02*
X760Y923D01*
X787Y923D02*
X788Y923D01*
X314Y922D02*
X330Y922D01*
X758Y922D02*
X761Y922D01*
X786Y922D02*
X789Y922D01*
X313Y921D02*
X319Y921D01*
X326Y921D02*
X331Y921D01*
X758Y921D02*
X761Y921D01*
X786Y921D02*
X789Y921D01*
X313Y920D02*
X317Y920D01*
X327Y920D02*
X332Y920D01*
X758Y920D02*
X761Y920D01*
X786Y920D02*
X789Y920D01*
X312Y919D02*
X316Y919D01*
X328Y919D02*
X333Y919D01*
X758Y919D02*
X789Y919D01*
X311Y918D02*
X316Y918D01*
X329Y918D02*
X333Y918D01*
X758Y918D02*
X789Y918D01*
X311Y917D02*
X315Y917D01*
X330Y917D02*
X334Y917D01*
X758Y917D02*
X789Y917D01*
X311Y916D02*
X314Y916D01*
X331Y916D02*
X334Y916D01*
X462Y916D02*
X462Y916D01*
X758Y916D02*
X789Y916D01*
X311Y915D02*
X314Y915D01*
X331Y915D02*
X334Y915D01*
X460Y915D02*
X463Y915D01*
X480Y915D02*
X483Y915D01*
X758Y915D02*
X761Y915D01*
X786Y915D02*
X789Y915D01*
X311Y914D02*
X314Y914D01*
X331Y914D02*
X334Y914D01*
X460Y914D02*
X463Y914D01*
X480Y914D02*
X483Y914D01*
X758Y914D02*
X761Y914D01*
X786Y914D02*
X789Y914D01*
X311Y913D02*
X314Y913D01*
X331Y913D02*
X334Y913D01*
X460Y913D02*
X463Y913D01*
X480Y913D02*
X483Y913D01*
X758Y913D02*
X761Y913D01*
X786Y913D02*
X789Y913D01*
X311Y912D02*
X314Y912D01*
X331Y912D02*
X334Y912D01*
X460Y912D02*
X463Y912D01*
X480Y912D02*
X483Y912D01*
X758Y912D02*
X762Y912D01*
X785Y912D02*
X789Y912D01*
X311Y911D02*
X314Y911D01*
X331Y911D02*
X334Y911D01*
X460Y911D02*
X463Y911D01*
X480Y911D02*
X483Y911D01*
X489Y911D02*
X493Y911D01*
X758Y911D02*
X764Y911D01*
X783Y911D02*
X788Y911D01*
X311Y910D02*
X314Y910D01*
X331Y910D02*
X334Y910D01*
X460Y910D02*
X463Y910D01*
X480Y910D02*
X483Y910D01*
X489Y910D02*
X494Y910D01*
X759Y910D02*
X766Y910D01*
X781Y910D02*
X788Y910D01*
X311Y909D02*
X314Y909D01*
X331Y909D02*
X334Y909D01*
X460Y909D02*
X483Y909D01*
X489Y909D02*
X494Y909D01*
X760Y909D02*
X768Y909D01*
X779Y909D02*
X787Y909D01*
X311Y908D02*
X314Y908D01*
X331Y908D02*
X334Y908D01*
X460Y908D02*
X483Y908D01*
X489Y908D02*
X494Y908D01*
X761Y908D02*
X770Y908D01*
X777Y908D02*
X785Y908D01*
X311Y907D02*
X314Y907D01*
X331Y907D02*
X334Y907D01*
X460Y907D02*
X483Y907D01*
X489Y907D02*
X494Y907D01*
X763Y907D02*
X783Y907D01*
X311Y906D02*
X314Y906D01*
X331Y906D02*
X334Y906D01*
X460Y906D02*
X482Y906D01*
X490Y906D02*
X493Y906D01*
X765Y906D02*
X781Y906D01*
X311Y905D02*
X313Y905D01*
X331Y905D02*
X333Y905D01*
X460Y905D02*
X463Y905D01*
X767Y905D02*
X779Y905D01*
X460Y904D02*
X463Y904D01*
X769Y904D02*
X778Y904D01*
X460Y903D02*
X463Y903D01*
X772Y903D02*
X775Y903D01*
X460Y902D02*
X463Y902D01*
X460Y901D02*
X463Y901D01*
X460Y900D02*
X463Y900D01*
X331Y894D02*
X333Y894D01*
X331Y893D02*
X334Y893D01*
X331Y892D02*
X334Y892D01*
X331Y891D02*
X334Y891D01*
X315Y890D02*
X341Y890D01*
X313Y889D02*
X341Y889D01*
X312Y888D02*
X341Y888D01*
X311Y887D02*
X340Y887D01*
X481Y887D02*
X482Y887D01*
X311Y886D02*
X315Y886D01*
X331Y886D02*
X334Y886D01*
X480Y886D02*
X483Y886D01*
X311Y885D02*
X314Y885D01*
X331Y885D02*
X334Y885D01*
X480Y885D02*
X483Y885D01*
X311Y884D02*
X314Y884D01*
X331Y884D02*
X334Y884D01*
X480Y884D02*
X483Y884D01*
X311Y883D02*
X314Y883D01*
X331Y883D02*
X334Y883D01*
X464Y883D02*
X489Y883D01*
X311Y882D02*
X314Y882D01*
X331Y882D02*
X334Y882D01*
X463Y882D02*
X490Y882D01*
X311Y881D02*
X314Y881D01*
X331Y881D02*
X334Y881D01*
X462Y881D02*
X490Y881D01*
X311Y880D02*
X314Y880D01*
X331Y880D02*
X334Y880D01*
X461Y880D02*
X490Y880D01*
X311Y879D02*
X314Y879D01*
X331Y879D02*
X334Y879D01*
X460Y879D02*
X465Y879D01*
X479Y879D02*
X484Y879D01*
X311Y878D02*
X316Y878D01*
X331Y878D02*
X334Y878D01*
X460Y878D02*
X464Y878D01*
X480Y878D02*
X483Y878D01*
X312Y877D02*
X317Y877D01*
X331Y877D02*
X334Y877D01*
X460Y877D02*
X463Y877D01*
X480Y877D02*
X483Y877D01*
X312Y876D02*
X318Y876D01*
X332Y876D02*
X333Y876D01*
X460Y876D02*
X463Y876D01*
X480Y876D02*
X483Y876D01*
X313Y875D02*
X317Y875D01*
X460Y875D02*
X463Y875D01*
X480Y875D02*
X483Y875D01*
X315Y874D02*
X317Y874D01*
X460Y874D02*
X463Y874D01*
X480Y874D02*
X483Y874D01*
X460Y873D02*
X463Y873D01*
X480Y873D02*
X483Y873D01*
X460Y872D02*
X463Y872D01*
X480Y872D02*
X483Y872D01*
X460Y871D02*
X464Y871D01*
X480Y871D02*
X483Y871D01*
X461Y870D02*
X466Y870D01*
X480Y870D02*
X483Y870D01*
X461Y869D02*
X467Y869D01*
X481Y869D02*
X482Y869D01*
X462Y868D02*
X467Y868D01*
X464Y867D02*
X466Y867D01*
X312Y864D02*
X333Y864D01*
X311Y863D02*
X334Y863D01*
X311Y862D02*
X334Y862D01*
X311Y861D02*
X334Y861D01*
X313Y860D02*
X332Y860D01*
X325Y859D02*
X330Y859D01*
X326Y858D02*
X331Y858D01*
X327Y857D02*
X332Y857D01*
X328Y856D02*
X333Y856D01*
X480Y856D02*
X483Y856D01*
X329Y855D02*
X333Y855D01*
X480Y855D02*
X483Y855D01*
X330Y854D02*
X334Y854D01*
X480Y854D02*
X483Y854D01*
X330Y853D02*
X334Y853D01*
X480Y853D02*
X483Y853D01*
X331Y852D02*
X334Y852D01*
X464Y852D02*
X490Y852D01*
X331Y851D02*
X334Y851D01*
X462Y851D02*
X490Y851D01*
X331Y850D02*
X334Y850D01*
X461Y850D02*
X490Y850D01*
X331Y849D02*
X334Y849D01*
X461Y849D02*
X490Y849D01*
X330Y848D02*
X334Y848D01*
X460Y848D02*
X464Y848D01*
X480Y848D02*
X483Y848D01*
X326Y847D02*
X333Y847D01*
X460Y847D02*
X463Y847D01*
X480Y847D02*
X483Y847D01*
X325Y846D02*
X333Y846D01*
X460Y846D02*
X463Y846D01*
X480Y846D02*
X483Y846D01*
X325Y845D02*
X332Y845D01*
X460Y845D02*
X463Y845D01*
X480Y845D02*
X483Y845D01*
X326Y844D02*
X331Y844D01*
X460Y844D02*
X463Y844D01*
X480Y844D02*
X483Y844D01*
X460Y843D02*
X463Y843D01*
X480Y843D02*
X483Y843D01*
X460Y842D02*
X463Y842D01*
X480Y842D02*
X483Y842D01*
X460Y841D02*
X464Y841D01*
X480Y841D02*
X483Y841D01*
X460Y840D02*
X465Y840D01*
X480Y840D02*
X483Y840D01*
X461Y839D02*
X466Y839D01*
X480Y839D02*
X483Y839D01*
X462Y838D02*
X467Y838D01*
X481Y838D02*
X482Y838D01*
X463Y837D02*
X467Y837D01*
X465Y836D02*
X466Y836D01*
X316Y833D02*
X329Y833D01*
X314Y832D02*
X330Y832D01*
X313Y831D02*
X331Y831D01*
X312Y830D02*
X332Y830D01*
X312Y829D02*
X317Y829D01*
X328Y829D02*
X333Y829D01*
X311Y828D02*
X315Y828D01*
X329Y828D02*
X333Y828D01*
X311Y827D02*
X315Y827D01*
X330Y827D02*
X334Y827D01*
X311Y826D02*
X314Y826D01*
X331Y826D02*
X334Y826D01*
X311Y825D02*
X314Y825D01*
X331Y825D02*
X334Y825D01*
X311Y824D02*
X314Y824D01*
X331Y824D02*
X334Y824D01*
X461Y824D02*
X462Y824D01*
X490Y824D02*
X491Y824D01*
X311Y823D02*
X314Y823D01*
X331Y823D02*
X334Y823D01*
X460Y823D02*
X463Y823D01*
X489Y823D02*
X492Y823D01*
X311Y822D02*
X314Y822D01*
X331Y822D02*
X334Y822D01*
X460Y822D02*
X463Y822D01*
X489Y822D02*
X492Y822D01*
X311Y821D02*
X314Y821D01*
X331Y821D02*
X334Y821D01*
X460Y821D02*
X463Y821D01*
X489Y821D02*
X492Y821D01*
X311Y820D02*
X314Y820D01*
X331Y820D02*
X334Y820D01*
X460Y820D02*
X463Y820D01*
X489Y820D02*
X492Y820D01*
X311Y819D02*
X315Y819D01*
X330Y819D02*
X334Y819D01*
X460Y819D02*
X463Y819D01*
X489Y819D02*
X492Y819D01*
X311Y818D02*
X315Y818D01*
X330Y818D02*
X334Y818D01*
X460Y818D02*
X463Y818D01*
X489Y818D02*
X492Y818D01*
X312Y817D02*
X317Y817D01*
X328Y817D02*
X333Y817D01*
X460Y817D02*
X492Y817D01*
X312Y816D02*
X332Y816D01*
X460Y816D02*
X492Y816D01*
X313Y815D02*
X331Y815D01*
X460Y815D02*
X492Y815D01*
X314Y814D02*
X330Y814D01*
X460Y814D02*
X491Y814D01*
X316Y813D02*
X329Y813D01*
X460Y813D02*
X463Y813D01*
X460Y812D02*
X463Y812D01*
X460Y811D02*
X463Y811D01*
X460Y810D02*
X463Y810D01*
X460Y809D02*
X463Y809D01*
X461Y808D02*
X463Y808D01*
X311Y802D02*
X334Y802D01*
X311Y801D02*
X334Y801D01*
X311Y800D02*
X334Y800D01*
X312Y799D02*
X333Y799D01*
X653Y799D02*
X655Y799D01*
X327Y798D02*
X331Y798D01*
X651Y798D02*
X656Y798D01*
X327Y797D02*
X331Y797D01*
X650Y797D02*
X656Y797D01*
X328Y796D02*
X332Y796D01*
X649Y796D02*
X656Y796D01*
X329Y795D02*
X333Y795D01*
X465Y795D02*
X478Y795D01*
X648Y795D02*
X654Y795D01*
X329Y794D02*
X333Y794D01*
X463Y794D02*
X480Y794D01*
X648Y794D02*
X652Y794D01*
X330Y793D02*
X334Y793D01*
X462Y793D02*
X481Y793D01*
X648Y793D02*
X651Y793D01*
X330Y792D02*
X334Y792D01*
X462Y792D02*
X481Y792D01*
X648Y792D02*
X651Y792D01*
X331Y791D02*
X334Y791D01*
X461Y791D02*
X466Y791D01*
X469Y791D02*
X472Y791D01*
X477Y791D02*
X482Y791D01*
X648Y791D02*
X651Y791D01*
X331Y790D02*
X334Y790D01*
X460Y790D02*
X465Y790D01*
X469Y790D02*
X472Y790D01*
X479Y790D02*
X483Y790D01*
X648Y790D02*
X651Y790D01*
X331Y789D02*
X334Y789D01*
X460Y789D02*
X464Y789D01*
X469Y789D02*
X472Y789D01*
X479Y789D02*
X483Y789D01*
X648Y789D02*
X652Y789D01*
X331Y788D02*
X334Y788D01*
X460Y788D02*
X463Y788D01*
X469Y788D02*
X472Y788D01*
X480Y788D02*
X483Y788D01*
X648Y788D02*
X653Y788D01*
X330Y787D02*
X334Y787D01*
X460Y787D02*
X463Y787D01*
X469Y787D02*
X472Y787D01*
X480Y787D02*
X483Y787D01*
X649Y787D02*
X653Y787D01*
X313Y786D02*
X333Y786D01*
X460Y786D02*
X463Y786D01*
X469Y786D02*
X472Y786D01*
X480Y786D02*
X483Y786D01*
X650Y786D02*
X654Y786D01*
X311Y785D02*
X333Y785D01*
X460Y785D02*
X463Y785D01*
X469Y785D02*
X472Y785D01*
X480Y785D02*
X483Y785D01*
X651Y785D02*
X655Y785D01*
X311Y784D02*
X332Y784D01*
X460Y784D02*
X463Y784D01*
X469Y784D02*
X472Y784D01*
X480Y784D02*
X483Y784D01*
X651Y784D02*
X656Y784D01*
X311Y783D02*
X330Y783D01*
X460Y783D02*
X463Y783D01*
X469Y783D02*
X472Y783D01*
X480Y783D02*
X483Y783D01*
X652Y783D02*
X657Y783D01*
X312Y782D02*
X319Y782D01*
X460Y782D02*
X463Y782D01*
X469Y782D02*
X472Y782D01*
X480Y782D02*
X483Y782D01*
X649Y782D02*
X670Y782D01*
X460Y781D02*
X463Y781D01*
X469Y781D02*
X472Y781D01*
X479Y781D02*
X483Y781D01*
X648Y781D02*
X671Y781D01*
X460Y780D02*
X463Y780D01*
X469Y780D02*
X472Y780D01*
X479Y780D02*
X483Y780D01*
X648Y780D02*
X670Y780D01*
X460Y779D02*
X463Y779D01*
X469Y779D02*
X472Y779D01*
X477Y779D02*
X482Y779D01*
X649Y779D02*
X670Y779D01*
X460Y778D02*
X463Y778D01*
X469Y778D02*
X481Y778D01*
X460Y777D02*
X463Y777D01*
X469Y777D02*
X481Y777D01*
X405Y776D02*
X409Y776D01*
X428Y776D02*
X433Y776D01*
X460Y776D02*
X463Y776D01*
X469Y776D02*
X480Y776D01*
X404Y775D02*
X409Y775D01*
X426Y775D02*
X434Y775D01*
X461Y775D02*
X463Y775D01*
X470Y775D02*
X478Y775D01*
X403Y774D02*
X409Y774D01*
X425Y774D02*
X434Y774D01*
X403Y773D02*
X408Y773D01*
X424Y773D02*
X434Y773D01*
X403Y772D02*
X406Y772D01*
X423Y772D02*
X429Y772D01*
X431Y772D02*
X435Y772D01*
X403Y771D02*
X406Y771D01*
X421Y771D02*
X427Y771D01*
X431Y771D02*
X435Y771D01*
X403Y770D02*
X406Y770D01*
X420Y770D02*
X426Y770D01*
X431Y770D02*
X435Y770D01*
X403Y769D02*
X406Y769D01*
X419Y769D02*
X425Y769D01*
X431Y769D02*
X435Y769D01*
X654Y769D02*
X665Y769D01*
X403Y768D02*
X406Y768D01*
X417Y768D02*
X423Y768D01*
X431Y768D02*
X435Y768D01*
X652Y768D02*
X667Y768D01*
X403Y767D02*
X406Y767D01*
X416Y767D02*
X422Y767D01*
X431Y767D02*
X435Y767D01*
X651Y767D02*
X668Y767D01*
X403Y766D02*
X406Y766D01*
X415Y766D02*
X421Y766D01*
X431Y766D02*
X435Y766D01*
X650Y766D02*
X669Y766D01*
X403Y765D02*
X406Y765D01*
X414Y765D02*
X420Y765D01*
X431Y765D02*
X435Y765D01*
X649Y765D02*
X669Y765D01*
X403Y764D02*
X406Y764D01*
X412Y764D02*
X418Y764D01*
X431Y764D02*
X435Y764D01*
X460Y764D02*
X492Y764D01*
X649Y764D02*
X653Y764D01*
X666Y764D02*
X670Y764D01*
X403Y763D02*
X406Y763D01*
X411Y763D02*
X417Y763D01*
X431Y763D02*
X435Y763D01*
X460Y763D02*
X492Y763D01*
X648Y763D02*
X652Y763D01*
X667Y763D02*
X670Y763D01*
X403Y762D02*
X406Y762D01*
X410Y762D02*
X416Y762D01*
X431Y762D02*
X435Y762D01*
X460Y762D02*
X492Y762D01*
X648Y762D02*
X651Y762D01*
X667Y762D02*
X671Y762D01*
X403Y761D02*
X406Y761D01*
X408Y761D02*
X414Y761D01*
X431Y761D02*
X434Y761D01*
X460Y761D02*
X492Y761D01*
X648Y761D02*
X651Y761D01*
X667Y761D02*
X671Y761D01*
X403Y760D02*
X413Y760D01*
X429Y760D02*
X434Y760D01*
X460Y760D02*
X463Y760D01*
X474Y760D02*
X478Y760D01*
X489Y760D02*
X492Y760D01*
X648Y760D02*
X651Y760D01*
X667Y760D02*
X671Y760D01*
X403Y759D02*
X412Y759D01*
X428Y759D02*
X434Y759D01*
X460Y759D02*
X463Y759D01*
X474Y759D02*
X478Y759D01*
X489Y759D02*
X492Y759D01*
X648Y759D02*
X651Y759D01*
X667Y759D02*
X671Y759D01*
X404Y758D02*
X411Y758D01*
X428Y758D02*
X433Y758D01*
X460Y758D02*
X463Y758D01*
X474Y758D02*
X478Y758D01*
X489Y758D02*
X492Y758D01*
X648Y758D02*
X651Y758D01*
X667Y758D02*
X671Y758D01*
X405Y757D02*
X409Y757D01*
X428Y757D02*
X432Y757D01*
X460Y757D02*
X463Y757D01*
X474Y757D02*
X478Y757D01*
X489Y757D02*
X492Y757D01*
X648Y757D02*
X651Y757D01*
X667Y757D02*
X671Y757D01*
X460Y756D02*
X463Y756D01*
X474Y756D02*
X478Y756D01*
X489Y756D02*
X492Y756D01*
X648Y756D02*
X651Y756D01*
X667Y756D02*
X671Y756D01*
X460Y755D02*
X463Y755D01*
X474Y755D02*
X478Y755D01*
X489Y755D02*
X492Y755D01*
X648Y755D02*
X652Y755D01*
X667Y755D02*
X670Y755D01*
X460Y754D02*
X463Y754D01*
X474Y754D02*
X478Y754D01*
X489Y754D02*
X492Y754D01*
X648Y754D02*
X652Y754D01*
X666Y754D02*
X670Y754D01*
X460Y753D02*
X463Y753D01*
X474Y753D02*
X478Y753D01*
X489Y753D02*
X492Y753D01*
X649Y753D02*
X654Y753D01*
X665Y753D02*
X670Y753D01*
X460Y752D02*
X463Y752D01*
X474Y752D02*
X478Y752D01*
X489Y752D02*
X492Y752D01*
X650Y752D02*
X669Y752D01*
X460Y751D02*
X464Y751D01*
X474Y751D02*
X478Y751D01*
X489Y751D02*
X492Y751D01*
X650Y751D02*
X668Y751D01*
X460Y750D02*
X464Y750D01*
X474Y750D02*
X479Y750D01*
X488Y750D02*
X492Y750D01*
X652Y750D02*
X667Y750D01*
X461Y749D02*
X465Y749D01*
X473Y749D02*
X479Y749D01*
X487Y749D02*
X491Y749D01*
X653Y749D02*
X666Y749D01*
X461Y748D02*
X491Y748D01*
X462Y747D02*
X490Y747D01*
X408Y746D02*
X420Y746D01*
X463Y746D02*
X475Y746D01*
X477Y746D02*
X489Y746D01*
X406Y745D02*
X422Y745D01*
X464Y745D02*
X473Y745D01*
X479Y745D02*
X488Y745D01*
X405Y744D02*
X423Y744D01*
X467Y744D02*
X471Y744D01*
X481Y744D02*
X486Y744D01*
X404Y743D02*
X424Y743D01*
X404Y742D02*
X409Y742D01*
X411Y742D02*
X415Y742D01*
X419Y742D02*
X424Y742D01*
X315Y741D02*
X321Y741D01*
X329Y741D02*
X336Y741D01*
X403Y741D02*
X407Y741D01*
X412Y741D02*
X415Y741D01*
X421Y741D02*
X425Y741D01*
X313Y740D02*
X322Y740D01*
X328Y740D02*
X337Y740D01*
X403Y740D02*
X407Y740D01*
X412Y740D02*
X415Y740D01*
X422Y740D02*
X425Y740D01*
X312Y739D02*
X322Y739D01*
X327Y739D02*
X338Y739D01*
X403Y739D02*
X406Y739D01*
X412Y739D02*
X415Y739D01*
X422Y739D02*
X425Y739D01*
X664Y739D02*
X666Y739D01*
X311Y738D02*
X323Y738D01*
X326Y738D02*
X339Y738D01*
X403Y738D02*
X406Y738D01*
X412Y738D02*
X415Y738D01*
X422Y738D02*
X426Y738D01*
X650Y738D02*
X652Y738D01*
X662Y738D02*
X668Y738D01*
X311Y737D02*
X315Y737D01*
X319Y737D02*
X331Y737D01*
X335Y737D02*
X339Y737D01*
X403Y737D02*
X406Y737D01*
X412Y737D02*
X415Y737D01*
X422Y737D02*
X426Y737D01*
X649Y737D02*
X653Y737D01*
X660Y737D02*
X669Y737D01*
X311Y736D02*
X314Y736D01*
X320Y736D02*
X329Y736D01*
X336Y736D02*
X339Y736D01*
X403Y736D02*
X406Y736D01*
X412Y736D02*
X415Y736D01*
X422Y736D02*
X426Y736D01*
X649Y736D02*
X653Y736D01*
X660Y736D02*
X670Y736D01*
X311Y735D02*
X314Y735D01*
X321Y735D02*
X328Y735D01*
X336Y735D02*
X339Y735D01*
X403Y735D02*
X406Y735D01*
X412Y735D02*
X415Y735D01*
X422Y735D02*
X426Y735D01*
X648Y735D02*
X652Y735D01*
X659Y735D02*
X670Y735D01*
X311Y734D02*
X314Y734D01*
X322Y734D02*
X327Y734D01*
X336Y734D02*
X339Y734D01*
X403Y734D02*
X406Y734D01*
X412Y734D02*
X415Y734D01*
X422Y734D02*
X426Y734D01*
X648Y734D02*
X651Y734D01*
X659Y734D02*
X662Y734D01*
X667Y734D02*
X670Y734D01*
X311Y733D02*
X314Y733D01*
X321Y733D02*
X328Y733D01*
X336Y733D02*
X339Y733D01*
X403Y733D02*
X406Y733D01*
X412Y733D02*
X415Y733D01*
X422Y733D02*
X426Y733D01*
X648Y733D02*
X651Y733D01*
X658Y733D02*
X662Y733D01*
X667Y733D02*
X671Y733D01*
X311Y732D02*
X314Y732D01*
X320Y732D02*
X328Y732D01*
X336Y732D02*
X339Y732D01*
X403Y732D02*
X406Y732D01*
X412Y732D02*
X415Y732D01*
X422Y732D02*
X425Y732D01*
X461Y732D02*
X462Y732D01*
X481Y732D02*
X482Y732D01*
X648Y732D02*
X651Y732D01*
X658Y732D02*
X661Y732D01*
X667Y732D02*
X671Y732D01*
X311Y731D02*
X315Y731D01*
X319Y731D02*
X329Y731D01*
X336Y731D02*
X339Y731D01*
X403Y731D02*
X406Y731D01*
X412Y731D02*
X415Y731D01*
X421Y731D02*
X425Y731D01*
X460Y731D02*
X463Y731D01*
X480Y731D02*
X483Y731D01*
X648Y731D02*
X651Y731D01*
X657Y731D02*
X661Y731D01*
X667Y731D02*
X671Y731D01*
X311Y730D02*
X316Y730D01*
X318Y730D02*
X323Y730D01*
X325Y730D02*
X330Y730D01*
X336Y730D02*
X339Y730D01*
X403Y730D02*
X406Y730D01*
X412Y730D02*
X415Y730D01*
X420Y730D02*
X425Y730D01*
X460Y730D02*
X463Y730D01*
X480Y730D02*
X483Y730D01*
X648Y730D02*
X651Y730D01*
X657Y730D02*
X661Y730D01*
X667Y730D02*
X671Y730D01*
X312Y729D02*
X322Y729D01*
X326Y729D02*
X331Y729D01*
X334Y729D02*
X339Y729D01*
X403Y729D02*
X406Y729D01*
X412Y729D02*
X424Y729D01*
X460Y729D02*
X463Y729D01*
X480Y729D02*
X483Y729D01*
X648Y729D02*
X651Y729D01*
X657Y729D02*
X660Y729D01*
X667Y729D02*
X671Y729D01*
X313Y728D02*
X321Y728D01*
X327Y728D02*
X338Y728D01*
X403Y728D02*
X406Y728D01*
X412Y728D02*
X423Y728D01*
X460Y728D02*
X463Y728D01*
X480Y728D02*
X483Y728D01*
X491Y728D02*
X492Y728D01*
X648Y728D02*
X651Y728D01*
X656Y728D02*
X660Y728D01*
X667Y728D02*
X671Y728D01*
X314Y727D02*
X320Y727D01*
X328Y727D02*
X338Y727D01*
X403Y727D02*
X406Y727D01*
X412Y727D02*
X422Y727D01*
X460Y727D02*
X463Y727D01*
X480Y727D02*
X483Y727D01*
X489Y727D02*
X494Y727D01*
X648Y727D02*
X651Y727D01*
X656Y727D02*
X659Y727D01*
X667Y727D02*
X671Y727D01*
X313Y726D02*
X319Y726D01*
X329Y726D02*
X337Y726D01*
X403Y726D02*
X405Y726D01*
X412Y726D02*
X421Y726D01*
X460Y726D02*
X464Y726D01*
X480Y726D02*
X483Y726D01*
X489Y726D02*
X494Y726D01*
X648Y726D02*
X651Y726D01*
X655Y726D02*
X659Y726D01*
X667Y726D02*
X671Y726D01*
X312Y725D02*
X320Y725D01*
X330Y725D02*
X335Y725D01*
X460Y725D02*
X483Y725D01*
X489Y725D02*
X494Y725D01*
X648Y725D02*
X651Y725D01*
X655Y725D02*
X658Y725D01*
X667Y725D02*
X671Y725D01*
X311Y724D02*
X321Y724D01*
X460Y724D02*
X483Y724D01*
X489Y724D02*
X494Y724D01*
X648Y724D02*
X651Y724D01*
X654Y724D02*
X658Y724D01*
X667Y724D02*
X671Y724D01*
X311Y723D02*
X321Y723D01*
X460Y723D02*
X483Y723D01*
X489Y723D02*
X494Y723D01*
X648Y723D02*
X658Y723D01*
X667Y723D02*
X670Y723D01*
X311Y722D02*
X314Y722D01*
X318Y722D02*
X321Y722D01*
X460Y722D02*
X482Y722D01*
X490Y722D02*
X493Y722D01*
X649Y722D02*
X657Y722D01*
X666Y722D02*
X670Y722D01*
X312Y721D02*
X313Y721D01*
X319Y721D02*
X321Y721D01*
X460Y721D02*
X463Y721D01*
X649Y721D02*
X656Y721D01*
X666Y721D02*
X670Y721D01*
X460Y720D02*
X463Y720D01*
X650Y720D02*
X655Y720D01*
X666Y720D02*
X669Y720D01*
X460Y719D02*
X463Y719D01*
X666Y719D02*
X668Y719D01*
X460Y718D02*
X463Y718D01*
X460Y717D02*
X463Y717D01*
X461Y716D02*
X463Y716D01*
X403Y715D02*
X425Y715D01*
X403Y714D02*
X425Y714D01*
X403Y713D02*
X425Y713D01*
X403Y712D02*
X425Y712D01*
X418Y711D02*
X422Y711D01*
X419Y710D02*
X423Y710D01*
X419Y709D02*
X424Y709D01*
X663Y709D02*
X669Y709D01*
X420Y708D02*
X424Y708D01*
X651Y708D02*
X670Y708D01*
X421Y707D02*
X425Y707D01*
X650Y707D02*
X671Y707D01*
X421Y706D02*
X425Y706D01*
X649Y706D02*
X670Y706D01*
X422Y705D02*
X425Y705D01*
X649Y705D02*
X667Y705D01*
X422Y704D02*
X426Y704D01*
X648Y704D02*
X652Y704D01*
X422Y703D02*
X426Y703D01*
X481Y703D02*
X482Y703D01*
X648Y703D02*
X651Y703D01*
X422Y702D02*
X426Y702D01*
X480Y702D02*
X483Y702D01*
X648Y702D02*
X651Y702D01*
X422Y701D02*
X426Y701D01*
X480Y701D02*
X483Y701D01*
X648Y701D02*
X651Y701D01*
X421Y700D02*
X425Y700D01*
X480Y700D02*
X483Y700D01*
X648Y700D02*
X651Y700D01*
X406Y699D02*
X425Y699D01*
X464Y699D02*
X489Y699D01*
X648Y699D02*
X651Y699D01*
X403Y698D02*
X424Y698D01*
X462Y698D02*
X490Y698D01*
X648Y698D02*
X652Y698D01*
X403Y697D02*
X424Y697D01*
X461Y697D02*
X490Y697D01*
X649Y697D02*
X653Y697D01*
X403Y696D02*
X422Y696D01*
X461Y696D02*
X490Y696D01*
X649Y696D02*
X653Y696D01*
X404Y695D02*
X412Y695D01*
X460Y695D02*
X465Y695D01*
X480Y695D02*
X483Y695D01*
X650Y695D02*
X654Y695D01*
X460Y694D02*
X464Y694D01*
X480Y694D02*
X483Y694D01*
X651Y694D02*
X655Y694D01*
X460Y693D02*
X463Y693D01*
X480Y693D02*
X483Y693D01*
X651Y693D02*
X655Y693D01*
X460Y692D02*
X463Y692D01*
X480Y692D02*
X483Y692D01*
X649Y692D02*
X670Y692D01*
X460Y691D02*
X463Y691D01*
X480Y691D02*
X483Y691D01*
X648Y691D02*
X671Y691D01*
X460Y690D02*
X463Y690D01*
X480Y690D02*
X483Y690D01*
X648Y690D02*
X670Y690D01*
X460Y689D02*
X463Y689D01*
X480Y689D02*
X483Y689D01*
X649Y689D02*
X670Y689D01*
X460Y688D02*
X464Y688D01*
X480Y688D02*
X483Y688D01*
X460Y687D02*
X465Y687D01*
X480Y687D02*
X483Y687D01*
X461Y686D02*
X466Y686D01*
X480Y686D02*
X483Y686D01*
X461Y685D02*
X467Y685D01*
X481Y685D02*
X482Y685D01*
X405Y684D02*
X407Y684D01*
X419Y684D02*
X422Y684D01*
X462Y684D02*
X467Y684D01*
X404Y683D02*
X408Y683D01*
X417Y683D02*
X424Y683D01*
X464Y683D02*
X466Y683D01*
X403Y682D02*
X407Y682D01*
X417Y682D02*
X425Y682D01*
X403Y681D02*
X407Y681D01*
X416Y681D02*
X425Y681D01*
X312Y680D02*
X343Y680D01*
X403Y680D02*
X406Y680D01*
X416Y680D02*
X419Y680D01*
X422Y680D02*
X425Y680D01*
X311Y679D02*
X343Y679D01*
X403Y679D02*
X406Y679D01*
X415Y679D02*
X419Y679D01*
X422Y679D02*
X426Y679D01*
X654Y679D02*
X661Y679D01*
X669Y679D02*
X669Y679D01*
X311Y678D02*
X343Y678D01*
X403Y678D02*
X406Y678D01*
X415Y678D02*
X418Y678D01*
X422Y678D02*
X426Y678D01*
X652Y678D02*
X662Y678D01*
X668Y678D02*
X670Y678D01*
X311Y677D02*
X343Y677D01*
X403Y677D02*
X406Y677D01*
X414Y677D02*
X418Y677D01*
X422Y677D02*
X426Y677D01*
X651Y677D02*
X662Y677D01*
X667Y677D02*
X671Y677D01*
X323Y676D02*
X327Y676D01*
X339Y676D02*
X343Y676D01*
X403Y676D02*
X406Y676D01*
X414Y676D02*
X418Y676D01*
X422Y676D02*
X426Y676D01*
X650Y676D02*
X662Y676D01*
X667Y676D02*
X671Y676D01*
X323Y675D02*
X327Y675D01*
X340Y675D02*
X343Y675D01*
X403Y675D02*
X406Y675D01*
X413Y675D02*
X417Y675D01*
X422Y675D02*
X426Y675D01*
X649Y675D02*
X654Y675D01*
X658Y675D02*
X662Y675D01*
X667Y675D02*
X671Y675D01*
X323Y674D02*
X327Y674D01*
X340Y674D02*
X343Y674D01*
X403Y674D02*
X406Y674D01*
X413Y674D02*
X417Y674D01*
X422Y674D02*
X426Y674D01*
X648Y674D02*
X653Y674D01*
X659Y674D02*
X662Y674D01*
X667Y674D02*
X671Y674D01*
X323Y673D02*
X327Y673D01*
X340Y673D02*
X343Y673D01*
X403Y673D02*
X406Y673D01*
X413Y673D02*
X416Y673D01*
X422Y673D02*
X426Y673D01*
X648Y673D02*
X652Y673D01*
X659Y673D02*
X662Y673D01*
X667Y673D02*
X671Y673D01*
X323Y672D02*
X327Y672D01*
X340Y672D02*
X343Y672D01*
X403Y672D02*
X406Y672D01*
X412Y672D02*
X416Y672D01*
X422Y672D02*
X426Y672D01*
X462Y672D02*
X465Y672D01*
X477Y672D02*
X480Y672D01*
X648Y672D02*
X651Y672D01*
X659Y672D02*
X662Y672D01*
X667Y672D02*
X671Y672D01*
X323Y671D02*
X327Y671D01*
X340Y671D02*
X343Y671D01*
X403Y671D02*
X406Y671D01*
X412Y671D02*
X415Y671D01*
X422Y671D02*
X426Y671D01*
X461Y671D02*
X465Y671D01*
X475Y671D02*
X481Y671D01*
X648Y671D02*
X651Y671D01*
X659Y671D02*
X662Y671D01*
X667Y671D02*
X671Y671D01*
X323Y670D02*
X327Y670D01*
X340Y670D02*
X343Y670D01*
X403Y670D02*
X406Y670D01*
X411Y670D02*
X415Y670D01*
X422Y670D02*
X426Y670D01*
X461Y670D02*
X465Y670D01*
X474Y670D02*
X482Y670D01*
X648Y670D02*
X651Y670D01*
X659Y670D02*
X662Y670D01*
X667Y670D02*
X671Y670D01*
X323Y669D02*
X327Y669D01*
X340Y669D02*
X343Y669D01*
X403Y669D02*
X407Y669D01*
X411Y669D02*
X414Y669D01*
X422Y669D02*
X425Y669D01*
X460Y669D02*
X464Y669D01*
X474Y669D02*
X483Y669D01*
X648Y669D02*
X651Y669D01*
X659Y669D02*
X662Y669D01*
X667Y669D02*
X671Y669D01*
X323Y668D02*
X327Y668D01*
X340Y668D02*
X343Y668D01*
X403Y668D02*
X414Y668D01*
X421Y668D02*
X425Y668D01*
X460Y668D02*
X464Y668D01*
X473Y668D02*
X477Y668D01*
X479Y668D02*
X483Y668D01*
X648Y668D02*
X651Y668D01*
X659Y668D02*
X662Y668D01*
X667Y668D02*
X671Y668D01*
X323Y667D02*
X327Y667D01*
X340Y667D02*
X343Y667D01*
X404Y667D02*
X413Y667D01*
X421Y667D02*
X425Y667D01*
X460Y667D02*
X463Y667D01*
X473Y667D02*
X476Y667D01*
X480Y667D02*
X483Y667D01*
X648Y667D02*
X651Y667D01*
X659Y667D02*
X662Y667D01*
X667Y667D02*
X671Y667D01*
X323Y666D02*
X327Y666D01*
X340Y666D02*
X343Y666D01*
X405Y666D02*
X413Y666D01*
X421Y666D02*
X424Y666D01*
X460Y666D02*
X463Y666D01*
X472Y666D02*
X476Y666D01*
X480Y666D02*
X483Y666D01*
X648Y666D02*
X651Y666D01*
X659Y666D02*
X662Y666D01*
X667Y666D02*
X671Y666D01*
X323Y665D02*
X327Y665D01*
X340Y665D02*
X343Y665D01*
X406Y665D02*
X411Y665D01*
X421Y665D02*
X423Y665D01*
X460Y665D02*
X463Y665D01*
X472Y665D02*
X475Y665D01*
X480Y665D02*
X483Y665D01*
X648Y665D02*
X652Y665D01*
X659Y665D02*
X662Y665D01*
X667Y665D02*
X670Y665D01*
X324Y664D02*
X328Y664D01*
X339Y664D02*
X343Y664D01*
X460Y664D02*
X463Y664D01*
X471Y664D02*
X475Y664D01*
X480Y664D02*
X483Y664D01*
X648Y664D02*
X652Y664D01*
X659Y664D02*
X662Y664D01*
X666Y664D02*
X670Y664D01*
X324Y663D02*
X342Y663D01*
X460Y663D02*
X463Y663D01*
X471Y663D02*
X475Y663D01*
X480Y663D02*
X483Y663D01*
X649Y663D02*
X654Y663D01*
X658Y663D02*
X662Y663D01*
X665Y663D02*
X670Y663D01*
X325Y662D02*
X342Y662D01*
X460Y662D02*
X463Y662D01*
X471Y662D02*
X474Y662D01*
X480Y662D02*
X483Y662D01*
X650Y662D02*
X669Y662D01*
X325Y661D02*
X341Y661D01*
X460Y661D02*
X463Y661D01*
X470Y661D02*
X474Y661D01*
X480Y661D02*
X483Y661D01*
X651Y661D02*
X668Y661D01*
X327Y660D02*
X340Y660D01*
X460Y660D02*
X463Y660D01*
X470Y660D02*
X473Y660D01*
X480Y660D02*
X483Y660D01*
X652Y660D02*
X667Y660D01*
X460Y659D02*
X463Y659D01*
X469Y659D02*
X473Y659D01*
X480Y659D02*
X483Y659D01*
X653Y659D02*
X665Y659D01*
X460Y658D02*
X463Y658D01*
X469Y658D02*
X472Y658D01*
X480Y658D02*
X483Y658D01*
X460Y657D02*
X464Y657D01*
X468Y657D02*
X472Y657D01*
X480Y657D02*
X483Y657D01*
X460Y656D02*
X472Y656D01*
X479Y656D02*
X483Y656D01*
X461Y655D02*
X471Y655D01*
X478Y655D02*
X482Y655D01*
X408Y654D02*
X420Y654D01*
X462Y654D02*
X470Y654D01*
X478Y654D02*
X482Y654D01*
X406Y653D02*
X422Y653D01*
X463Y653D02*
X469Y653D01*
X479Y653D02*
X481Y653D01*
X405Y652D02*
X423Y652D01*
X465Y652D02*
X467Y652D01*
X404Y651D02*
X424Y651D01*
X404Y650D02*
X409Y650D01*
X420Y650D02*
X424Y650D01*
X316Y649D02*
X329Y649D01*
X403Y649D02*
X407Y649D01*
X421Y649D02*
X425Y649D01*
X643Y649D02*
X645Y649D01*
X665Y649D02*
X667Y649D01*
X314Y648D02*
X330Y648D01*
X403Y648D02*
X406Y648D01*
X422Y648D02*
X425Y648D01*
X641Y648D02*
X646Y648D01*
X664Y648D02*
X669Y648D01*
X313Y647D02*
X331Y647D01*
X403Y647D02*
X406Y647D01*
X422Y647D02*
X426Y647D01*
X640Y647D02*
X646Y647D01*
X662Y647D02*
X670Y647D01*
X312Y646D02*
X332Y646D01*
X403Y646D02*
X406Y646D01*
X422Y646D02*
X426Y646D01*
X640Y646D02*
X645Y646D01*
X661Y646D02*
X670Y646D01*
X312Y645D02*
X316Y645D01*
X320Y645D02*
X323Y645D01*
X328Y645D02*
X333Y645D01*
X403Y645D02*
X406Y645D01*
X422Y645D02*
X426Y645D01*
X639Y645D02*
X644Y645D01*
X660Y645D02*
X671Y645D01*
X311Y644D02*
X315Y644D01*
X320Y644D02*
X323Y644D01*
X329Y644D02*
X334Y644D01*
X403Y644D02*
X406Y644D01*
X422Y644D02*
X426Y644D01*
X639Y644D02*
X642Y644D01*
X658Y644D02*
X664Y644D01*
X667Y644D02*
X671Y644D01*
X311Y643D02*
X315Y643D01*
X320Y643D02*
X323Y643D01*
X330Y643D02*
X334Y643D01*
X403Y643D02*
X406Y643D01*
X422Y643D02*
X426Y643D01*
X639Y643D02*
X642Y643D01*
X657Y643D02*
X663Y643D01*
X667Y643D02*
X671Y643D01*
X311Y642D02*
X314Y642D01*
X320Y642D02*
X323Y642D01*
X331Y642D02*
X334Y642D01*
X403Y642D02*
X406Y642D01*
X422Y642D02*
X426Y642D01*
X639Y642D02*
X642Y642D01*
X656Y642D02*
X662Y642D01*
X667Y642D02*
X671Y642D01*
X311Y641D02*
X314Y641D01*
X320Y641D02*
X323Y641D01*
X331Y641D02*
X334Y641D01*
X403Y641D02*
X406Y641D01*
X422Y641D02*
X426Y641D01*
X639Y641D02*
X642Y641D01*
X655Y641D02*
X661Y641D01*
X667Y641D02*
X671Y641D01*
X311Y640D02*
X314Y640D01*
X320Y640D02*
X323Y640D01*
X331Y640D02*
X334Y640D01*
X403Y640D02*
X406Y640D01*
X422Y640D02*
X425Y640D01*
X639Y640D02*
X642Y640D01*
X653Y640D02*
X659Y640D01*
X667Y640D02*
X671Y640D01*
X311Y639D02*
X314Y639D01*
X320Y639D02*
X323Y639D01*
X331Y639D02*
X334Y639D01*
X403Y639D02*
X407Y639D01*
X421Y639D02*
X425Y639D01*
X639Y639D02*
X642Y639D01*
X652Y639D02*
X658Y639D01*
X667Y639D02*
X671Y639D01*
X311Y638D02*
X314Y638D01*
X320Y638D02*
X323Y638D01*
X331Y638D02*
X334Y638D01*
X404Y638D02*
X408Y638D01*
X420Y638D02*
X425Y638D01*
X639Y638D02*
X642Y638D01*
X651Y638D02*
X657Y638D01*
X667Y638D02*
X671Y638D01*
X311Y637D02*
X314Y637D01*
X320Y637D02*
X323Y637D01*
X331Y637D02*
X334Y637D01*
X404Y637D02*
X424Y637D01*
X639Y637D02*
X642Y637D01*
X649Y637D02*
X655Y637D01*
X667Y637D02*
X671Y637D01*
X311Y636D02*
X314Y636D01*
X320Y636D02*
X323Y636D01*
X331Y636D02*
X334Y636D01*
X405Y636D02*
X423Y636D01*
X639Y636D02*
X642Y636D01*
X648Y636D02*
X654Y636D01*
X667Y636D02*
X671Y636D01*
X311Y635D02*
X314Y635D01*
X320Y635D02*
X323Y635D01*
X330Y635D02*
X334Y635D01*
X406Y635D02*
X422Y635D01*
X639Y635D02*
X642Y635D01*
X647Y635D02*
X653Y635D01*
X667Y635D02*
X671Y635D01*
X311Y634D02*
X314Y634D01*
X320Y634D02*
X323Y634D01*
X329Y634D02*
X333Y634D01*
X408Y634D02*
X421Y634D01*
X639Y634D02*
X642Y634D01*
X646Y634D02*
X652Y634D01*
X667Y634D02*
X671Y634D01*
X311Y633D02*
X314Y633D01*
X320Y633D02*
X323Y633D01*
X328Y633D02*
X333Y633D01*
X639Y633D02*
X650Y633D01*
X667Y633D02*
X670Y633D01*
X311Y632D02*
X314Y632D01*
X320Y632D02*
X332Y632D01*
X639Y632D02*
X649Y632D01*
X664Y632D02*
X670Y632D01*
X311Y631D02*
X314Y631D01*
X320Y631D02*
X331Y631D01*
X640Y631D02*
X648Y631D01*
X664Y631D02*
X669Y631D01*
X311Y630D02*
X314Y630D01*
X320Y630D02*
X330Y630D01*
X641Y630D02*
X646Y630D01*
X664Y630D02*
X669Y630D01*
X312Y629D02*
X313Y629D01*
X321Y629D02*
X329Y629D01*
X642Y629D02*
X645Y629D01*
X665Y629D02*
X667Y629D01*
X403Y623D02*
X425Y623D01*
X403Y622D02*
X426Y622D01*
X403Y621D02*
X425Y621D01*
X403Y620D02*
X425Y620D01*
X313Y619D02*
X332Y619D01*
X417Y619D02*
X421Y619D01*
X311Y618D02*
X334Y618D01*
X418Y618D02*
X422Y618D01*
X311Y617D02*
X334Y617D01*
X418Y617D02*
X423Y617D01*
X311Y616D02*
X334Y616D01*
X419Y616D02*
X424Y616D01*
X312Y615D02*
X333Y615D01*
X420Y615D02*
X425Y615D01*
X325Y614D02*
X330Y614D01*
X421Y614D02*
X425Y614D01*
X326Y613D02*
X331Y613D01*
X422Y613D02*
X426Y613D01*
X327Y612D02*
X332Y612D01*
X422Y612D02*
X426Y612D01*
X328Y611D02*
X332Y611D01*
X422Y611D02*
X426Y611D01*
X461Y611D02*
X492Y611D01*
X329Y610D02*
X333Y610D01*
X422Y610D02*
X426Y610D01*
X460Y610D02*
X492Y610D01*
X330Y609D02*
X334Y609D01*
X422Y609D02*
X426Y609D01*
X460Y609D02*
X492Y609D01*
X330Y608D02*
X334Y608D01*
X422Y608D02*
X425Y608D01*
X461Y608D02*
X492Y608D01*
X331Y607D02*
X334Y607D01*
X419Y607D02*
X425Y607D01*
X478Y607D02*
X481Y607D01*
X489Y607D02*
X492Y607D01*
X331Y606D02*
X334Y606D01*
X417Y606D02*
X425Y606D01*
X478Y606D02*
X481Y606D01*
X489Y606D02*
X492Y606D01*
X331Y605D02*
X334Y605D01*
X417Y605D02*
X424Y605D01*
X478Y605D02*
X481Y605D01*
X489Y605D02*
X492Y605D01*
X331Y604D02*
X334Y604D01*
X417Y604D02*
X423Y604D01*
X477Y604D02*
X481Y604D01*
X489Y604D02*
X492Y604D01*
X330Y603D02*
X334Y603D01*
X418Y603D02*
X421Y603D01*
X475Y603D02*
X481Y603D01*
X489Y603D02*
X492Y603D01*
X327Y602D02*
X334Y602D01*
X474Y602D02*
X481Y602D01*
X489Y602D02*
X492Y602D01*
X326Y601D02*
X333Y601D01*
X472Y601D02*
X481Y601D01*
X489Y601D02*
X492Y601D01*
X325Y600D02*
X332Y600D01*
X470Y600D02*
X481Y600D01*
X489Y600D02*
X492Y600D01*
X326Y599D02*
X331Y599D01*
X469Y599D02*
X476Y599D01*
X478Y599D02*
X481Y599D01*
X489Y599D02*
X492Y599D01*
X327Y598D02*
X329Y598D01*
X467Y598D02*
X475Y598D01*
X478Y598D02*
X481Y598D01*
X489Y598D02*
X492Y598D01*
X465Y597D02*
X473Y597D01*
X478Y597D02*
X481Y597D01*
X489Y597D02*
X492Y597D01*
X464Y596D02*
X471Y596D01*
X478Y596D02*
X482Y596D01*
X489Y596D02*
X492Y596D01*
X462Y595D02*
X469Y595D01*
X478Y595D02*
X483Y595D01*
X487Y595D02*
X492Y595D01*
X460Y594D02*
X468Y594D01*
X479Y594D02*
X491Y594D01*
X460Y593D02*
X466Y593D01*
X480Y593D02*
X491Y593D01*
X460Y592D02*
X464Y592D01*
X481Y592D02*
X490Y592D01*
X461Y591D02*
X463Y591D01*
X482Y591D02*
X488Y591D01*
X316Y588D02*
X328Y588D01*
X315Y587D02*
X330Y587D01*
X313Y586D02*
X331Y586D01*
X313Y585D02*
X332Y585D01*
X312Y584D02*
X317Y584D01*
X319Y584D02*
X323Y584D01*
X328Y584D02*
X333Y584D01*
X311Y583D02*
X316Y583D01*
X320Y583D02*
X323Y583D01*
X329Y583D02*
X333Y583D01*
X311Y582D02*
X315Y582D01*
X320Y582D02*
X323Y582D01*
X330Y582D02*
X334Y582D01*
X311Y581D02*
X314Y581D01*
X320Y581D02*
X323Y581D01*
X331Y581D02*
X334Y581D01*
X466Y581D02*
X468Y581D01*
X311Y580D02*
X314Y580D01*
X320Y580D02*
X323Y580D01*
X331Y580D02*
X334Y580D01*
X463Y580D02*
X471Y580D01*
X311Y579D02*
X314Y579D01*
X320Y579D02*
X323Y579D01*
X331Y579D02*
X334Y579D01*
X462Y579D02*
X472Y579D01*
X311Y578D02*
X314Y578D01*
X320Y578D02*
X323Y578D01*
X331Y578D02*
X334Y578D01*
X461Y578D02*
X473Y578D01*
X311Y577D02*
X314Y577D01*
X320Y577D02*
X323Y577D01*
X331Y577D02*
X334Y577D01*
X460Y577D02*
X474Y577D01*
X311Y576D02*
X314Y576D01*
X320Y576D02*
X323Y576D01*
X331Y576D02*
X334Y576D01*
X460Y576D02*
X464Y576D01*
X470Y576D02*
X474Y576D01*
X480Y576D02*
X483Y576D01*
X311Y575D02*
X314Y575D01*
X320Y575D02*
X323Y575D01*
X331Y575D02*
X334Y575D01*
X460Y575D02*
X463Y575D01*
X471Y575D02*
X474Y575D01*
X480Y575D02*
X483Y575D01*
X311Y574D02*
X314Y574D01*
X320Y574D02*
X323Y574D01*
X330Y574D02*
X334Y574D01*
X460Y574D02*
X463Y574D01*
X471Y574D02*
X474Y574D01*
X480Y574D02*
X483Y574D01*
X311Y573D02*
X314Y573D01*
X320Y573D02*
X323Y573D01*
X330Y573D02*
X334Y573D01*
X460Y573D02*
X463Y573D01*
X471Y573D02*
X474Y573D01*
X480Y573D02*
X483Y573D01*
X311Y572D02*
X314Y572D01*
X320Y572D02*
X323Y572D01*
X329Y572D02*
X333Y572D01*
X460Y572D02*
X463Y572D01*
X471Y572D02*
X474Y572D01*
X480Y572D02*
X483Y572D01*
X311Y571D02*
X314Y571D01*
X320Y571D02*
X332Y571D01*
X460Y571D02*
X463Y571D01*
X471Y571D02*
X474Y571D01*
X480Y571D02*
X483Y571D01*
X311Y570D02*
X314Y570D01*
X320Y570D02*
X332Y570D01*
X460Y570D02*
X463Y570D01*
X471Y570D02*
X474Y570D01*
X480Y570D02*
X483Y570D01*
X311Y569D02*
X314Y569D01*
X320Y569D02*
X331Y569D01*
X460Y569D02*
X463Y569D01*
X471Y569D02*
X474Y569D01*
X480Y569D02*
X483Y569D01*
X311Y568D02*
X314Y568D01*
X320Y568D02*
X329Y568D01*
X460Y568D02*
X464Y568D01*
X471Y568D02*
X474Y568D01*
X480Y568D02*
X483Y568D01*
X460Y567D02*
X464Y567D01*
X471Y567D02*
X474Y567D01*
X480Y567D02*
X483Y567D01*
X461Y566D02*
X465Y566D01*
X471Y566D02*
X474Y566D01*
X480Y566D02*
X483Y566D01*
X462Y565D02*
X466Y565D01*
X470Y565D02*
X474Y565D01*
X479Y565D02*
X483Y565D01*
X461Y564D02*
X482Y564D01*
X67Y563D02*
X72Y563D01*
X82Y563D02*
X87Y563D01*
X460Y563D02*
X482Y563D01*
X67Y562D02*
X73Y562D01*
X82Y562D02*
X87Y562D01*
X460Y562D02*
X481Y562D01*
X67Y561D02*
X74Y561D01*
X81Y561D02*
X87Y561D01*
X460Y561D02*
X479Y561D01*
X67Y560D02*
X75Y560D01*
X80Y560D02*
X87Y560D01*
X461Y560D02*
X465Y560D01*
X67Y559D02*
X75Y559D01*
X80Y559D02*
X87Y559D01*
X67Y558D02*
X76Y558D01*
X79Y558D02*
X87Y558D01*
X67Y557D02*
X82Y557D01*
X84Y557D02*
X87Y557D01*
X315Y557D02*
X329Y557D01*
X67Y556D02*
X71Y556D01*
X73Y556D02*
X82Y556D01*
X84Y556D02*
X87Y556D01*
X314Y556D02*
X330Y556D01*
X67Y555D02*
X71Y555D01*
X74Y555D02*
X81Y555D01*
X84Y555D02*
X87Y555D01*
X104Y555D02*
X111Y555D01*
X313Y555D02*
X331Y555D01*
X67Y554D02*
X71Y554D01*
X75Y554D02*
X80Y554D01*
X84Y554D02*
X87Y554D01*
X102Y554D02*
X114Y554D01*
X129Y554D02*
X131Y554D01*
X145Y554D02*
X147Y554D01*
X312Y554D02*
X332Y554D01*
X67Y553D02*
X71Y553D01*
X75Y553D02*
X80Y553D01*
X84Y553D02*
X87Y553D01*
X102Y553D02*
X115Y553D01*
X128Y553D02*
X132Y553D01*
X144Y553D02*
X147Y553D01*
X312Y553D02*
X316Y553D01*
X328Y553D02*
X333Y553D01*
X67Y552D02*
X71Y552D01*
X76Y552D02*
X79Y552D01*
X84Y552D02*
X87Y552D01*
X102Y552D02*
X116Y552D01*
X129Y552D02*
X133Y552D01*
X143Y552D02*
X147Y552D01*
X311Y552D02*
X315Y552D01*
X329Y552D02*
X334Y552D01*
X67Y551D02*
X71Y551D01*
X76Y551D02*
X79Y551D01*
X84Y551D02*
X87Y551D01*
X103Y551D02*
X117Y551D01*
X129Y551D02*
X134Y551D01*
X142Y551D02*
X147Y551D01*
X311Y551D02*
X315Y551D01*
X330Y551D02*
X334Y551D01*
X67Y550D02*
X71Y550D01*
X76Y550D02*
X79Y550D01*
X84Y550D02*
X87Y550D01*
X113Y550D02*
X117Y550D01*
X130Y550D02*
X135Y550D01*
X141Y550D02*
X146Y550D01*
X311Y550D02*
X314Y550D01*
X331Y550D02*
X334Y550D01*
X461Y550D02*
X482Y550D01*
X67Y549D02*
X71Y549D01*
X84Y549D02*
X87Y549D01*
X114Y549D02*
X117Y549D01*
X131Y549D02*
X136Y549D01*
X140Y549D02*
X145Y549D01*
X311Y549D02*
X314Y549D01*
X331Y549D02*
X334Y549D01*
X460Y549D02*
X483Y549D01*
X67Y548D02*
X71Y548D01*
X84Y548D02*
X87Y548D01*
X114Y548D02*
X117Y548D01*
X132Y548D02*
X136Y548D01*
X140Y548D02*
X144Y548D01*
X311Y548D02*
X314Y548D01*
X331Y548D02*
X334Y548D01*
X460Y548D02*
X483Y548D01*
X67Y547D02*
X71Y547D01*
X84Y547D02*
X87Y547D01*
X114Y547D02*
X117Y547D01*
X133Y547D02*
X143Y547D01*
X311Y547D02*
X314Y547D01*
X331Y547D02*
X334Y547D01*
X460Y547D02*
X483Y547D01*
X67Y546D02*
X71Y546D01*
X84Y546D02*
X87Y546D01*
X103Y546D02*
X112Y546D01*
X114Y546D02*
X117Y546D01*
X134Y546D02*
X142Y546D01*
X311Y546D02*
X314Y546D01*
X331Y546D02*
X334Y546D01*
X475Y546D02*
X480Y546D01*
X67Y545D02*
X71Y545D01*
X84Y545D02*
X87Y545D01*
X101Y545D02*
X117Y545D01*
X134Y545D02*
X142Y545D01*
X311Y545D02*
X315Y545D01*
X330Y545D02*
X334Y545D01*
X476Y545D02*
X480Y545D01*
X67Y544D02*
X71Y544D01*
X84Y544D02*
X87Y544D01*
X99Y544D02*
X117Y544D01*
X135Y544D02*
X141Y544D01*
X311Y544D02*
X316Y544D01*
X329Y544D02*
X333Y544D01*
X477Y544D02*
X481Y544D01*
X67Y543D02*
X71Y543D01*
X84Y543D02*
X87Y543D01*
X99Y543D02*
X117Y543D01*
X135Y543D02*
X141Y543D01*
X312Y543D02*
X317Y543D01*
X328Y543D02*
X333Y543D01*
X477Y543D02*
X482Y543D01*
X67Y542D02*
X71Y542D01*
X84Y542D02*
X87Y542D01*
X98Y542D02*
X117Y542D01*
X135Y542D02*
X141Y542D01*
X313Y542D02*
X317Y542D01*
X327Y542D02*
X332Y542D01*
X478Y542D02*
X482Y542D01*
X67Y541D02*
X71Y541D01*
X84Y541D02*
X87Y541D01*
X98Y541D02*
X101Y541D01*
X114Y541D02*
X117Y541D01*
X134Y541D02*
X142Y541D01*
X313Y541D02*
X319Y541D01*
X326Y541D02*
X332Y541D01*
X479Y541D02*
X483Y541D01*
X67Y540D02*
X71Y540D01*
X84Y540D02*
X87Y540D01*
X98Y540D02*
X101Y540D01*
X114Y540D02*
X117Y540D01*
X133Y540D02*
X143Y540D01*
X311Y540D02*
X342Y540D01*
X479Y540D02*
X483Y540D01*
X67Y539D02*
X71Y539D01*
X84Y539D02*
X87Y539D01*
X98Y539D02*
X101Y539D01*
X114Y539D02*
X117Y539D01*
X132Y539D02*
X137Y539D01*
X139Y539D02*
X144Y539D01*
X311Y539D02*
X343Y539D01*
X480Y539D02*
X483Y539D01*
X67Y538D02*
X71Y538D01*
X84Y538D02*
X87Y538D01*
X98Y538D02*
X101Y538D01*
X114Y538D02*
X117Y538D01*
X131Y538D02*
X136Y538D01*
X140Y538D02*
X145Y538D01*
X311Y538D02*
X343Y538D01*
X480Y538D02*
X483Y538D01*
X67Y537D02*
X71Y537D01*
X84Y537D02*
X87Y537D01*
X98Y537D02*
X101Y537D01*
X112Y537D02*
X118Y537D01*
X130Y537D02*
X135Y537D01*
X141Y537D02*
X146Y537D01*
X312Y537D02*
X342Y537D01*
X480Y537D02*
X483Y537D01*
X67Y536D02*
X71Y536D01*
X84Y536D02*
X87Y536D01*
X98Y536D02*
X102Y536D01*
X111Y536D02*
X118Y536D01*
X130Y536D02*
X134Y536D01*
X142Y536D02*
X146Y536D01*
X480Y536D02*
X483Y536D01*
X67Y535D02*
X71Y535D01*
X84Y535D02*
X87Y535D01*
X98Y535D02*
X118Y535D01*
X129Y535D02*
X133Y535D01*
X143Y535D02*
X147Y535D01*
X479Y535D02*
X483Y535D01*
X67Y534D02*
X71Y534D01*
X84Y534D02*
X87Y534D01*
X99Y534D02*
X118Y534D01*
X128Y534D02*
X132Y534D01*
X143Y534D02*
X148Y534D01*
X476Y534D02*
X483Y534D01*
X67Y533D02*
X71Y533D01*
X84Y533D02*
X87Y533D01*
X100Y533D02*
X118Y533D01*
X128Y533D02*
X132Y533D01*
X144Y533D02*
X148Y533D01*
X461Y533D02*
X482Y533D01*
X68Y532D02*
X70Y532D01*
X85Y532D02*
X87Y532D01*
X101Y532D02*
X111Y532D01*
X115Y532D02*
X117Y532D01*
X128Y532D02*
X131Y532D01*
X145Y532D02*
X147Y532D01*
X460Y532D02*
X482Y532D01*
X460Y531D02*
X480Y531D01*
X461Y530D02*
X478Y530D01*
X312Y527D02*
X332Y527D01*
X311Y526D02*
X334Y526D01*
X311Y525D02*
X334Y525D01*
X311Y524D02*
X334Y524D01*
X312Y523D02*
X333Y523D01*
X327Y522D02*
X331Y522D01*
X327Y521D02*
X331Y521D01*
X328Y520D02*
X332Y520D01*
X329Y519D02*
X333Y519D01*
X466Y519D02*
X478Y519D01*
X329Y518D02*
X333Y518D01*
X465Y518D02*
X480Y518D01*
X330Y517D02*
X334Y517D01*
X452Y517D02*
X454Y517D01*
X464Y517D02*
X481Y517D01*
X331Y516D02*
X334Y516D01*
X451Y516D02*
X454Y516D01*
X463Y516D02*
X482Y516D01*
X331Y515D02*
X334Y515D01*
X451Y515D02*
X454Y515D01*
X463Y515D02*
X467Y515D01*
X478Y515D02*
X482Y515D01*
X331Y514D02*
X334Y514D01*
X451Y514D02*
X454Y514D01*
X462Y514D02*
X466Y514D01*
X479Y514D02*
X483Y514D01*
X331Y513D02*
X334Y513D01*
X451Y513D02*
X454Y513D01*
X462Y513D02*
X465Y513D01*
X479Y513D02*
X483Y513D01*
X330Y512D02*
X334Y512D01*
X451Y512D02*
X454Y512D01*
X462Y512D02*
X465Y512D01*
X480Y512D02*
X483Y512D01*
X329Y511D02*
X334Y511D01*
X451Y511D02*
X454Y511D01*
X462Y511D02*
X465Y511D01*
X480Y511D02*
X483Y511D01*
X312Y510D02*
X333Y510D01*
X451Y510D02*
X454Y510D01*
X462Y510D02*
X465Y510D01*
X480Y510D02*
X483Y510D01*
X311Y509D02*
X333Y509D01*
X451Y509D02*
X454Y509D01*
X462Y509D02*
X465Y509D01*
X480Y509D02*
X483Y509D01*
X311Y508D02*
X332Y508D01*
X451Y508D02*
X454Y508D01*
X462Y508D02*
X465Y508D01*
X480Y508D02*
X483Y508D01*
X311Y507D02*
X330Y507D01*
X451Y507D02*
X454Y507D01*
X462Y507D02*
X466Y507D01*
X479Y507D02*
X483Y507D01*
X313Y506D02*
X314Y506D01*
X451Y506D02*
X454Y506D01*
X462Y506D02*
X467Y506D01*
X478Y506D02*
X483Y506D01*
X451Y505D02*
X455Y505D01*
X463Y505D02*
X468Y505D01*
X477Y505D02*
X482Y505D01*
X452Y504D02*
X456Y504D01*
X464Y504D02*
X468Y504D01*
X476Y504D02*
X481Y504D01*
X452Y503D02*
X457Y503D01*
X464Y503D02*
X470Y503D01*
X475Y503D02*
X481Y503D01*
X453Y502D02*
X483Y502D01*
X454Y501D02*
X483Y501D01*
X455Y500D02*
X483Y500D01*
X456Y499D02*
X482Y499D01*
X312Y494D02*
X313Y494D01*
X332Y494D02*
X333Y494D01*
X311Y493D02*
X314Y493D01*
X331Y493D02*
X334Y493D01*
X311Y492D02*
X314Y492D01*
X331Y492D02*
X334Y492D01*
X311Y491D02*
X314Y491D01*
X331Y491D02*
X334Y491D01*
X311Y490D02*
X314Y490D01*
X331Y490D02*
X334Y490D01*
X341Y490D02*
X343Y490D01*
X311Y489D02*
X314Y489D01*
X331Y489D02*
X334Y489D01*
X340Y489D02*
X344Y489D01*
X466Y489D02*
X477Y489D01*
X311Y488D02*
X315Y488D01*
X330Y488D02*
X334Y488D01*
X340Y488D02*
X345Y488D01*
X464Y488D02*
X479Y488D01*
X311Y487D02*
X334Y487D01*
X340Y487D02*
X345Y487D01*
X463Y487D02*
X480Y487D01*
X311Y486D02*
X334Y486D01*
X340Y486D02*
X345Y486D01*
X462Y486D02*
X481Y486D01*
X311Y485D02*
X334Y485D01*
X340Y485D02*
X345Y485D01*
X461Y485D02*
X482Y485D01*
X311Y484D02*
X333Y484D01*
X341Y484D02*
X344Y484D01*
X461Y484D02*
X465Y484D01*
X469Y484D02*
X472Y484D01*
X478Y484D02*
X482Y484D01*
X311Y483D02*
X314Y483D01*
X460Y483D02*
X464Y483D01*
X469Y483D02*
X472Y483D01*
X479Y483D02*
X483Y483D01*
X311Y482D02*
X314Y482D01*
X460Y482D02*
X463Y482D01*
X469Y482D02*
X472Y482D01*
X480Y482D02*
X483Y482D01*
X311Y481D02*
X314Y481D01*
X460Y481D02*
X463Y481D01*
X469Y481D02*
X472Y481D01*
X480Y481D02*
X483Y481D01*
X311Y480D02*
X314Y480D01*
X460Y480D02*
X463Y480D01*
X469Y480D02*
X472Y480D01*
X480Y480D02*
X483Y480D01*
X311Y479D02*
X314Y479D01*
X460Y479D02*
X463Y479D01*
X469Y479D02*
X472Y479D01*
X480Y479D02*
X483Y479D01*
X312Y478D02*
X313Y478D01*
X460Y478D02*
X463Y478D01*
X469Y478D02*
X472Y478D01*
X480Y478D02*
X483Y478D01*
X460Y477D02*
X463Y477D01*
X469Y477D02*
X472Y477D01*
X480Y477D02*
X483Y477D01*
X460Y476D02*
X463Y476D01*
X469Y476D02*
X472Y476D01*
X480Y476D02*
X483Y476D01*
X460Y475D02*
X463Y475D01*
X469Y475D02*
X472Y475D01*
X480Y475D02*
X483Y475D01*
X460Y474D02*
X463Y474D01*
X469Y474D02*
X472Y474D01*
X479Y474D02*
X483Y474D01*
X460Y473D02*
X463Y473D01*
X469Y473D02*
X472Y473D01*
X478Y473D02*
X482Y473D01*
X460Y472D02*
X463Y472D01*
X469Y472D02*
X482Y472D01*
X460Y471D02*
X463Y471D01*
X469Y471D02*
X481Y471D01*
X460Y470D02*
X463Y470D01*
X469Y470D02*
X480Y470D01*
X460Y469D02*
X463Y469D01*
X469Y469D02*
X479Y469D01*
X462Y468D02*
X462Y468D01*
X471Y468D02*
X476Y468D01*
X311Y465D02*
X342Y465D01*
X311Y464D02*
X343Y464D01*
X311Y463D02*
X343Y463D01*
X312Y462D02*
X342Y462D01*
X320Y461D02*
X324Y461D01*
X320Y460D02*
X325Y460D01*
X321Y459D02*
X326Y459D01*
X320Y458D02*
X327Y458D01*
X319Y457D02*
X328Y457D01*
X318Y456D02*
X329Y456D01*
X317Y455D02*
X322Y455D01*
X325Y455D02*
X329Y455D01*
X316Y454D02*
X321Y454D01*
X326Y454D02*
X330Y454D01*
X315Y453D02*
X320Y453D01*
X326Y453D02*
X331Y453D01*
X315Y452D02*
X319Y452D01*
X327Y452D02*
X332Y452D01*
X314Y451D02*
X318Y451D01*
X328Y451D02*
X333Y451D01*
X313Y450D02*
X318Y450D01*
X329Y450D02*
X334Y450D01*
X312Y449D02*
X317Y449D01*
X330Y449D02*
X334Y449D01*
X311Y448D02*
X316Y448D01*
X331Y448D02*
X334Y448D01*
X311Y447D02*
X315Y447D01*
X332Y447D02*
X333Y447D01*
X311Y446D02*
X314Y446D01*
X312Y445D02*
X313Y445D01*
X710Y416D02*
X726Y416D01*
X710Y415D02*
X726Y415D01*
X343Y414D02*
X348Y414D01*
X364Y414D02*
X367Y414D01*
X710Y414D02*
X726Y414D01*
X340Y413D02*
X350Y413D01*
X362Y413D02*
X369Y413D01*
X710Y413D02*
X712Y413D01*
X339Y412D02*
X350Y412D01*
X361Y412D02*
X369Y412D01*
X710Y412D02*
X712Y412D01*
X338Y411D02*
X350Y411D01*
X362Y411D02*
X369Y411D01*
X710Y411D02*
X712Y411D01*
X338Y410D02*
X341Y410D01*
X367Y410D02*
X369Y410D01*
X710Y410D02*
X712Y410D01*
X337Y409D02*
X340Y409D01*
X367Y409D02*
X369Y409D01*
X710Y409D02*
X712Y409D01*
X739Y409D02*
X748Y409D01*
X762Y409D02*
X763Y409D01*
X769Y409D02*
X774Y409D01*
X337Y408D02*
X340Y408D01*
X367Y408D02*
X369Y408D01*
X710Y408D02*
X712Y408D01*
X739Y408D02*
X750Y408D01*
X761Y408D02*
X763Y408D01*
X767Y408D02*
X776Y408D01*
X336Y407D02*
X339Y407D01*
X367Y407D02*
X369Y407D01*
X710Y407D02*
X722Y407D01*
X739Y407D02*
X750Y407D01*
X761Y407D02*
X763Y407D01*
X766Y407D02*
X777Y407D01*
X336Y406D02*
X339Y406D01*
X367Y406D02*
X369Y406D01*
X391Y406D02*
X398Y406D01*
X416Y406D02*
X426Y406D01*
X443Y406D02*
X450Y406D01*
X710Y406D02*
X723Y406D01*
X740Y406D02*
X751Y406D01*
X761Y406D02*
X777Y406D01*
X335Y405D02*
X338Y405D01*
X367Y405D02*
X369Y405D01*
X389Y405D02*
X400Y405D01*
X414Y405D02*
X427Y405D01*
X441Y405D02*
X452Y405D01*
X710Y405D02*
X722Y405D01*
X748Y405D02*
X751Y405D01*
X761Y405D02*
X768Y405D01*
X775Y405D02*
X777Y405D01*
X335Y404D02*
X338Y404D01*
X367Y404D02*
X369Y404D01*
X388Y404D02*
X401Y404D01*
X413Y404D02*
X428Y404D01*
X440Y404D02*
X453Y404D01*
X710Y404D02*
X712Y404D01*
X749Y404D02*
X751Y404D01*
X761Y404D02*
X767Y404D01*
X775Y404D02*
X778Y404D01*
X334Y403D02*
X337Y403D01*
X367Y403D02*
X369Y403D01*
X387Y403D02*
X402Y403D01*
X413Y403D02*
X429Y403D01*
X439Y403D02*
X454Y403D01*
X710Y403D02*
X712Y403D01*
X749Y403D02*
X752Y403D01*
X761Y403D02*
X766Y403D01*
X775Y403D02*
X778Y403D01*
X334Y402D02*
X337Y402D01*
X367Y402D02*
X369Y402D01*
X386Y402D02*
X390Y402D01*
X399Y402D02*
X402Y402D01*
X412Y402D02*
X415Y402D01*
X426Y402D02*
X428Y402D01*
X439Y402D02*
X442Y402D01*
X451Y402D02*
X455Y402D01*
X710Y402D02*
X712Y402D01*
X749Y402D02*
X752Y402D01*
X761Y402D02*
X765Y402D01*
X775Y402D02*
X777Y402D01*
X334Y401D02*
X336Y401D01*
X367Y401D02*
X369Y401D01*
X386Y401D02*
X389Y401D01*
X400Y401D02*
X403Y401D01*
X412Y401D02*
X415Y401D01*
X438Y401D02*
X441Y401D01*
X452Y401D02*
X455Y401D01*
X710Y401D02*
X712Y401D01*
X738Y401D02*
X752Y401D01*
X761Y401D02*
X764Y401D01*
X333Y400D02*
X336Y400D01*
X367Y400D02*
X369Y400D01*
X386Y400D02*
X389Y400D01*
X400Y400D02*
X403Y400D01*
X413Y400D02*
X417Y400D01*
X438Y400D02*
X441Y400D01*
X452Y400D02*
X455Y400D01*
X710Y400D02*
X712Y400D01*
X737Y400D02*
X752Y400D01*
X761Y400D02*
X763Y400D01*
X334Y399D02*
X336Y399D01*
X367Y399D02*
X369Y399D01*
X386Y399D02*
X388Y399D01*
X400Y399D02*
X403Y399D01*
X413Y399D02*
X420Y399D01*
X438Y399D02*
X441Y399D01*
X453Y399D02*
X455Y399D01*
X710Y399D02*
X712Y399D01*
X736Y399D02*
X752Y399D01*
X761Y399D02*
X763Y399D01*
X334Y398D02*
X337Y398D01*
X367Y398D02*
X369Y398D01*
X386Y398D02*
X388Y398D01*
X400Y398D02*
X403Y398D01*
X414Y398D02*
X422Y398D01*
X438Y398D02*
X441Y398D01*
X453Y398D02*
X455Y398D01*
X710Y398D02*
X712Y398D01*
X735Y398D02*
X739Y398D01*
X748Y398D02*
X752Y398D01*
X761Y398D02*
X763Y398D01*
X334Y397D02*
X337Y397D01*
X367Y397D02*
X369Y397D01*
X386Y397D02*
X388Y397D01*
X400Y397D02*
X403Y397D01*
X416Y397D02*
X424Y397D01*
X438Y397D02*
X455Y397D01*
X710Y397D02*
X712Y397D01*
X735Y397D02*
X738Y397D01*
X749Y397D02*
X752Y397D01*
X761Y397D02*
X763Y397D01*
X334Y396D02*
X337Y396D01*
X367Y396D02*
X369Y396D01*
X386Y396D02*
X388Y396D01*
X400Y396D02*
X403Y396D01*
X418Y396D02*
X426Y396D01*
X438Y396D02*
X455Y396D01*
X710Y396D02*
X712Y396D01*
X735Y396D02*
X738Y396D01*
X749Y396D02*
X752Y396D01*
X761Y396D02*
X763Y396D01*
X335Y395D02*
X338Y395D01*
X367Y395D02*
X369Y395D01*
X386Y395D02*
X388Y395D01*
X400Y395D02*
X403Y395D01*
X421Y395D02*
X427Y395D01*
X438Y395D02*
X455Y395D01*
X710Y395D02*
X712Y395D01*
X735Y395D02*
X738Y395D01*
X749Y395D02*
X752Y395D01*
X761Y395D02*
X763Y395D01*
X335Y394D02*
X339Y394D01*
X367Y394D02*
X369Y394D01*
X386Y394D02*
X388Y394D01*
X400Y394D02*
X403Y394D01*
X423Y394D02*
X428Y394D01*
X438Y394D02*
X455Y394D01*
X710Y394D02*
X712Y394D01*
X735Y394D02*
X738Y394D01*
X747Y394D02*
X752Y394D01*
X761Y394D02*
X763Y394D01*
X336Y393D02*
X339Y393D01*
X367Y393D02*
X369Y393D01*
X386Y393D02*
X388Y393D01*
X400Y393D02*
X403Y393D01*
X425Y393D02*
X429Y393D01*
X438Y393D02*
X441Y393D01*
X710Y393D02*
X712Y393D01*
X735Y393D02*
X739Y393D01*
X746Y393D02*
X752Y393D01*
X761Y393D02*
X763Y393D01*
X336Y392D02*
X340Y392D01*
X367Y392D02*
X369Y392D01*
X386Y392D02*
X389Y392D01*
X400Y392D02*
X403Y392D01*
X426Y392D02*
X429Y392D01*
X438Y392D02*
X441Y392D01*
X710Y392D02*
X712Y392D01*
X736Y392D02*
X752Y392D01*
X761Y392D02*
X763Y392D01*
X337Y391D02*
X340Y391D01*
X367Y391D02*
X369Y391D01*
X386Y391D02*
X389Y391D01*
X400Y391D02*
X403Y391D01*
X426Y391D02*
X429Y391D01*
X438Y391D02*
X441Y391D01*
X710Y391D02*
X712Y391D01*
X737Y391D02*
X752Y391D01*
X761Y391D02*
X763Y391D01*
X337Y390D02*
X341Y390D01*
X367Y390D02*
X369Y390D01*
X386Y390D02*
X390Y390D01*
X399Y390D02*
X402Y390D01*
X412Y390D02*
X415Y390D01*
X426Y390D02*
X429Y390D01*
X439Y390D02*
X442Y390D01*
X710Y390D02*
X712Y390D01*
X738Y390D02*
X747Y390D01*
X750Y390D02*
X752Y390D01*
X761Y390D02*
X763Y390D01*
X338Y389D02*
X350Y389D01*
X362Y389D02*
X374Y389D01*
X387Y389D02*
X402Y389D01*
X412Y389D02*
X428Y389D01*
X439Y389D02*
X454Y389D01*
X339Y388D02*
X350Y388D01*
X362Y388D02*
X375Y388D01*
X388Y388D02*
X401Y388D01*
X412Y388D02*
X428Y388D01*
X440Y388D02*
X455Y388D01*
X339Y387D02*
X350Y387D01*
X362Y387D02*
X375Y387D01*
X389Y387D02*
X400Y387D01*
X414Y387D02*
X427Y387D01*
X441Y387D02*
X455Y387D01*
X341Y386D02*
X350Y386D01*
X362Y386D02*
X374Y386D01*
X391Y386D02*
X398Y386D01*
X416Y386D02*
X425Y386D01*
X443Y386D02*
X454Y386D01*
X380Y33D02*
X380Y33D01*
X380Y32D02*
X380Y32D01*
X380Y31D02*
X383Y31D01*
X380Y30D02*
X380Y30D01*
X380Y29D02*
X380Y29D01*
D02*
G04 End of Silk1*
M02*