G04 MADE WITH FRITZING*
G04 WWW.FRITZING.ORG*
G04 DOUBLE SIDED*
G04 HOLES PLATED*
G04 CONTOUR ON CENTER OF CONTOUR VECTOR*
%ASAXBY*%
%FSLAX23Y23*%
%MOIN*%
%OFA0B0*%
%SFA1.0B1.0*%
%ADD10C,0.066929*%
%ADD11C,0.059055*%
%ADD12C,0.039370*%
%ADD13C,0.055315X0.0549214*%
%ADD14C,0.000197*%
%ADD15C,0.009843*%
%ADD16C,0.001000*%
%ADD10C,0.008*%
%LNCONTOUR*%
G90*
G70*
G54D10*
G01X335Y1218D02*
G75*
G03X335Y1218I-33J0D01*
G01*
G01X335Y1218D02*
G75*
G03X335Y1218I-33J0D01*
G01*
G01X331Y1218D02*
G75*
G03X331Y1218I-30J0D01*
G01*
G01X321Y1218D02*
G75*
G03X321Y1218I-20J0D01*
G01*
G01X435Y1218D02*
G75*
G03X435Y1218I-33J0D01*
G01*
G01X435Y1218D02*
G75*
G03X435Y1218I-33J0D01*
G01*
G01X431Y1218D02*
G75*
G03X431Y1218I-30J0D01*
G01*
G01X421Y1218D02*
G75*
G03X421Y1218I-20J0D01*
G01*
G01X535Y1218D02*
G75*
G03X535Y1218I-33J0D01*
G01*
G01X535Y1218D02*
G75*
G03X535Y1218I-33J0D01*
G01*
G01X531Y1218D02*
G75*
G03X531Y1218I-30J0D01*
G01*
G01X521Y1218D02*
G75*
G03X521Y1218I-20J0D01*
G01*
G54D14*
G01X618Y1218D02*
G75*
G03X618Y1218I-28J0D01*
G01*
G01X239Y1218D02*
G75*
G03X239Y1218I-28J0D01*
G01*
G01X335Y127D02*
G75*
G03X335Y127I-33J0D01*
G01*
G01X335Y127D02*
G75*
G03X335Y127I-33J0D01*
G01*
G01X331Y127D02*
G75*
G03X331Y127I-30J0D01*
G01*
G01X321Y127D02*
G75*
G03X321Y127I-20J0D01*
G01*
G01X435Y127D02*
G75*
G03X435Y127I-33J0D01*
G01*
G01X435Y127D02*
G75*
G03X435Y127I-33J0D01*
G01*
G01X431Y127D02*
G75*
G03X431Y127I-30J0D01*
G01*
G01X421Y127D02*
G75*
G03X421Y127I-20J0D01*
G01*
G01X535Y127D02*
G75*
G03X535Y127I-33J0D01*
G01*
G01X535Y127D02*
G75*
G03X535Y127I-33J0D01*
G01*
G01X531Y127D02*
G75*
G03X531Y127I-30J0D01*
G01*
G01X521Y127D02*
G75*
G03X521Y127I-20J0D01*
G01*
G01X239Y94D02*
G75*
G03X239Y94I-28J0D01*
G01*
G01X618Y94D02*
G75*
G03X618Y94I-28J0D01*
G01*
X149Y1178D02*
X151Y1178D01*
D02*
X651Y1178D02*
X653Y1178D01*
D02*
X653Y133D02*
X651Y133D01*
D02*
X151Y133D02*
X149Y133D01*
G54D15*
D02*
X611Y1060D02*
X592Y1040D01*
D02*
X592Y1040D02*
X572Y1060D01*
D02*
X592Y1040D02*
X592Y1119D01*
X150Y1311D02*
X150Y1310D01*
X150Y1183D01*
X151Y1182D01*
X152Y1182D01*
X153Y1181D01*
X154Y1181D01*
X155Y1180D01*
X156Y1180D01*
X157Y1179D01*
X158Y1179D01*
X159Y1179D01*
X160Y1178D01*
X161Y1178D01*
X162Y1177D01*
X163Y1176D01*
X164Y1176D01*
X165Y1175D01*
X166Y1174D01*
X167Y1173D01*
X168Y1172D01*
X169Y1171D01*
X169Y1169D01*
X170Y1168D01*
X170Y1165D01*
X171Y1164D01*
X171Y1153D01*
X170Y1152D01*
X170Y1149D01*
X169Y1148D01*
X169Y1147D01*
X168Y1146D01*
X168Y1145D01*
X167Y1144D01*
X166Y1143D01*
X165Y1143D01*
X164Y1142D01*
X163Y1142D01*
X162Y1141D01*
X161Y1141D01*
X160Y1141D01*
X159Y1140D01*
X158Y1140D01*
X157Y1140D01*
X156Y1140D01*
X155Y1140D01*
X154Y1140D01*
X153Y1140D01*
X152Y1140D01*
X151Y1140D01*
X150Y1139D01*
X149Y1139D01*
X148Y1139D01*
X147Y1139D01*
X146Y1139D01*
X145Y1139D01*
X144Y1139D01*
X143Y1139D01*
X142Y1139D01*
X141Y1139D01*
X140Y1139D01*
X139Y1139D01*
X138Y1139D01*
X137Y1139D01*
X136Y1139D01*
X135Y1139D01*
X134Y1139D01*
X133Y1139D01*
X132Y1139D01*
X131Y1139D01*
X130Y1139D01*
X129Y1139D01*
X128Y1139D01*
X127Y1139D01*
X126Y1139D01*
X125Y1139D01*
X124Y1139D01*
X123Y1139D01*
X122Y1139D01*
X121Y1139D01*
X120Y1139D01*
X119Y1139D01*
X118Y1139D01*
X117Y1139D01*
X116Y1139D01*
X115Y1139D01*
X114Y1139D01*
X113Y1139D01*
X112Y1139D01*
X111Y1139D01*
X110Y1139D01*
X109Y1139D01*
X108Y1139D01*
X107Y1139D01*
X106Y1139D01*
X105Y1138D01*
X104Y1138D01*
X103Y1138D01*
X102Y1138D01*
X101Y1138D01*
X100Y1138D01*
X99Y1138D01*
X98Y1138D01*
X97Y1138D01*
X96Y1138D01*
X95Y1138D01*
X94Y1138D01*
X93Y1138D01*
X92Y1138D01*
X91Y1138D01*
X90Y1138D01*
X89Y1138D01*
X88Y1138D01*
X87Y1138D01*
X86Y1138D01*
X85Y1138D01*
X84Y1138D01*
X83Y1138D01*
X82Y1138D01*
X81Y1138D01*
X80Y1138D01*
X79Y1138D01*
X78Y1138D01*
X77Y1138D01*
X76Y1138D01*
X75Y1138D01*
X74Y1138D01*
X73Y1138D01*
X72Y1138D01*
X71Y1138D01*
X70Y1138D01*
X69Y1138D01*
X68Y1138D01*
X67Y1138D01*
X66Y1138D01*
X65Y1138D01*
X64Y1138D01*
X63Y1138D01*
X62Y1138D01*
X61Y1138D01*
X60Y1138D01*
X59Y1138D01*
X58Y1138D01*
X57Y1138D01*
X56Y1138D01*
X55Y1138D01*
X54Y1138D01*
X53Y1138D01*
X52Y1138D01*
X51Y1138D01*
X50Y1138D01*
X49Y1138D01*
X48Y1138D01*
X47Y1138D01*
X46Y1138D01*
X45Y1138D01*
X44Y1138D01*
X43Y1138D01*
X42Y1138D01*
X41Y1138D01*
X40Y1138D01*
X39Y1138D01*
X38Y1138D01*
X37Y1138D01*
X36Y1138D01*
X35Y1138D01*
X34Y1138D01*
X33Y1138D01*
X32Y1138D01*
X31Y1138D01*
X30Y1138D01*
X29Y1138D01*
X28Y1138D01*
X27Y1138D01*
X26Y1138D01*
X25Y1138D01*
X24Y1138D01*
X23Y1138D01*
X22Y1138D01*
X21Y1138D01*
X20Y1138D01*
X19Y1138D01*
X18Y1138D01*
X17Y1138D01*
X16Y1138D01*
X15Y1138D01*
X14Y1138D01*
X13Y1138D01*
X12Y1138D01*
X11Y1138D01*
X10Y1138D01*
X9Y1138D01*
X8Y1138D01*
X7Y1138D01*
X6Y1138D01*
X5Y1138D01*
X4Y1138D01*
X3Y1138D01*
X2Y1138D01*
X1Y1138D01*
X0Y1138D01*
X0Y175D01*
X1Y175D01*
X2Y175D01*
X3Y175D01*
X4Y175D01*
X5Y175D01*
X6Y175D01*
X7Y175D01*
X8Y175D01*
X9Y175D01*
X10Y175D01*
X11Y175D01*
X12Y175D01*
X13Y175D01*
X14Y175D01*
X15Y175D01*
X16Y175D01*
X17Y175D01*
X18Y175D01*
X19Y175D01*
X20Y175D01*
X21Y175D01*
X22Y175D01*
X23Y175D01*
X24Y175D01*
X25Y175D01*
X26Y175D01*
X27Y175D01*
X28Y175D01*
X29Y175D01*
X30Y175D01*
X31Y175D01*
X32Y175D01*
X33Y175D01*
X34Y175D01*
X35Y175D01*
X36Y175D01*
X37Y175D01*
X38Y175D01*
X39Y175D01*
X40Y175D01*
X41Y175D01*
X42Y175D01*
X43Y175D01*
X44Y175D01*
X45Y175D01*
X46Y175D01*
X47Y175D01*
X48Y175D01*
X49Y175D01*
X50Y175D01*
X51Y175D01*
X52Y175D01*
X53Y175D01*
X54Y175D01*
X55Y175D01*
X56Y175D01*
X57Y175D01*
X58Y175D01*
X59Y175D01*
X60Y175D01*
X61Y175D01*
X62Y175D01*
X63Y175D01*
X64Y175D01*
X65Y175D01*
X66Y175D01*
X67Y175D01*
X68Y175D01*
X69Y175D01*
X70Y175D01*
X71Y175D01*
X72Y175D01*
X73Y175D01*
X74Y175D01*
X75Y175D01*
X76Y175D01*
X77Y175D01*
X78Y175D01*
X79Y175D01*
X80Y175D01*
X81Y175D01*
X82Y175D01*
X83Y175D01*
X84Y175D01*
X85Y175D01*
X86Y175D01*
X87Y175D01*
X88Y175D01*
X89Y175D01*
X90Y175D01*
X91Y175D01*
X92Y175D01*
X93Y175D01*
X94Y175D01*
X95Y175D01*
X96Y175D01*
X97Y175D01*
X98Y175D01*
X99Y175D01*
X100Y175D01*
X101Y175D01*
X102Y175D01*
X103Y175D01*
X104Y175D01*
X105Y175D01*
X106Y175D01*
X107Y175D01*
X108Y175D01*
X109Y175D01*
X110Y175D01*
X111Y175D01*
X112Y175D01*
X113Y175D01*
X114Y175D01*
X115Y175D01*
X116Y175D01*
X117Y175D01*
X118Y175D01*
X119Y175D01*
X120Y175D01*
X121Y175D01*
X122Y175D01*
X123Y175D01*
X124Y175D01*
X125Y175D01*
X126Y175D01*
X127Y175D01*
X128Y175D01*
X129Y175D01*
X130Y175D01*
X131Y175D01*
X132Y175D01*
X133Y175D01*
X134Y175D01*
X135Y175D01*
X136Y175D01*
X137Y175D01*
X138Y175D01*
X139Y175D01*
X140Y175D01*
X141Y175D01*
X142Y175D01*
X143Y175D01*
X144Y175D01*
X145Y175D01*
X146Y175D01*
X147Y175D01*
X148Y175D01*
X149Y175D01*
X150Y175D01*
X151Y175D01*
X152Y175D01*
X153Y175D01*
X154Y175D01*
X155Y175D01*
X156Y175D01*
X157Y175D01*
X158Y175D01*
X159Y175D01*
X160Y175D01*
X161Y174D01*
X162Y173D01*
X163Y172D01*
X164Y171D01*
X165Y170D01*
X166Y169D01*
X167Y168D01*
X168Y167D01*
X168Y166D01*
X169Y165D01*
X169Y164D01*
X170Y163D01*
X170Y161D01*
X171Y160D01*
X171Y149D01*
X170Y148D01*
X170Y146D01*
X169Y145D01*
X169Y144D01*
X168Y143D01*
X167Y142D01*
X166Y141D01*
X165Y140D01*
X164Y139D01*
X163Y138D01*
X162Y137D01*
X161Y137D01*
X160Y136D01*
X159Y136D01*
X158Y135D01*
X157Y135D01*
X156Y135D01*
X155Y134D01*
X154Y134D01*
X153Y134D01*
X152Y134D01*
X151Y134D01*
X150Y134D01*
X150Y2D01*
X151Y2D01*
X152Y2D01*
X153Y2D01*
X154Y2D01*
X155Y2D01*
X156Y2D01*
X157Y2D01*
X158Y2D01*
X159Y2D01*
X160Y2D01*
X161Y2D01*
X162Y2D01*
X163Y2D01*
X164Y2D01*
X165Y2D01*
X166Y2D01*
X167Y2D01*
X168Y2D01*
X169Y2D01*
X170Y2D01*
X171Y2D01*
X172Y2D01*
X173Y2D01*
X174Y2D01*
X175Y2D01*
X176Y2D01*
X177Y2D01*
X178Y2D01*
X179Y2D01*
X180Y2D01*
X181Y2D01*
X182Y2D01*
X183Y2D01*
X184Y2D01*
X185Y2D01*
X186Y2D01*
X187Y2D01*
X188Y2D01*
X189Y2D01*
X190Y2D01*
X191Y2D01*
X192Y2D01*
X193Y2D01*
X194Y2D01*
X195Y2D01*
X196Y2D01*
X197Y2D01*
X198Y2D01*
X199Y2D01*
X200Y2D01*
X201Y2D01*
X202Y2D01*
X203Y2D01*
X204Y2D01*
X205Y2D01*
X206Y2D01*
X207Y2D01*
X208Y2D01*
X209Y2D01*
X210Y2D01*
X211Y2D01*
X212Y2D01*
X213Y2D01*
X214Y2D01*
X215Y2D01*
X216Y2D01*
X217Y2D01*
X218Y2D01*
X219Y2D01*
X220Y2D01*
X221Y2D01*
X222Y2D01*
X223Y2D01*
X224Y2D01*
X225Y2D01*
X226Y2D01*
X227Y2D01*
X228Y2D01*
X229Y2D01*
X230Y2D01*
X231Y2D01*
X232Y2D01*
X233Y2D01*
X234Y2D01*
X235Y2D01*
X236Y2D01*
X237Y2D01*
X238Y2D01*
X239Y2D01*
X240Y2D01*
X241Y2D01*
X242Y2D01*
X243Y2D01*
X244Y2D01*
X245Y2D01*
X246Y2D01*
X247Y2D01*
X248Y2D01*
X249Y2D01*
X250Y2D01*
X251Y2D01*
X252Y2D01*
X253Y2D01*
X254Y2D01*
X255Y2D01*
X256Y2D01*
X257Y2D01*
X258Y2D01*
X259Y2D01*
X260Y2D01*
X261Y2D01*
X262Y2D01*
X263Y2D01*
X264Y2D01*
X265Y2D01*
X266Y2D01*
X267Y2D01*
X268Y2D01*
X269Y2D01*
X270Y2D01*
X271Y2D01*
X272Y2D01*
X273Y2D01*
X274Y2D01*
X275Y2D01*
X276Y2D01*
X277Y2D01*
X278Y2D01*
X279Y2D01*
X280Y2D01*
X281Y2D01*
X282Y2D01*
X283Y2D01*
X284Y2D01*
X285Y2D01*
X286Y2D01*
X287Y2D01*
X288Y2D01*
X289Y2D01*
X290Y2D01*
X291Y2D01*
X292Y2D01*
X293Y2D01*
X294Y2D01*
X295Y2D01*
X296Y2D01*
X297Y2D01*
X298Y2D01*
X299Y2D01*
X300Y2D01*
X301Y2D01*
X302Y2D01*
X303Y2D01*
X304Y2D01*
X305Y2D01*
X306Y2D01*
X307Y2D01*
X308Y2D01*
X309Y2D01*
X310Y2D01*
X311Y2D01*
X312Y2D01*
X313Y2D01*
X314Y2D01*
X315Y2D01*
X316Y2D01*
X317Y2D01*
X318Y2D01*
X319Y2D01*
X320Y2D01*
X321Y2D01*
X322Y2D01*
X323Y2D01*
X324Y2D01*
X325Y2D01*
X326Y2D01*
X327Y2D01*
X328Y2D01*
X329Y2D01*
X330Y2D01*
X331Y2D01*
X332Y2D01*
X333Y2D01*
X334Y2D01*
X335Y2D01*
X336Y2D01*
X337Y2D01*
X338Y2D01*
X339Y2D01*
X340Y2D01*
X341Y2D01*
X342Y2D01*
X343Y2D01*
X344Y2D01*
X345Y2D01*
X346Y2D01*
X347Y2D01*
X348Y2D01*
X349Y2D01*
X350Y2D01*
X351Y2D01*
X352Y2D01*
X353Y2D01*
X354Y2D01*
X355Y2D01*
X356Y2D01*
X357Y2D01*
X358Y2D01*
X359Y2D01*
X360Y2D01*
X361Y2D01*
X362Y2D01*
X363Y2D01*
X364Y2D01*
X365Y2D01*
X366Y2D01*
X367Y2D01*
X368Y2D01*
X369Y2D01*
X370Y2D01*
X371Y2D01*
X372Y2D01*
X373Y2D01*
X374Y2D01*
X375Y2D01*
X376Y2D01*
X377Y2D01*
X378Y2D01*
X379Y2D01*
X380Y2D01*
X381Y2D01*
X382Y2D01*
X383Y2D01*
X384Y2D01*
X385Y2D01*
X386Y2D01*
X387Y2D01*
X388Y2D01*
X389Y2D01*
X390Y2D01*
X391Y2D01*
X392Y2D01*
X393Y2D01*
X394Y2D01*
X395Y2D01*
X396Y2D01*
X397Y2D01*
X398Y2D01*
X399Y2D01*
X400Y2D01*
X401Y2D01*
X402Y2D01*
X403Y2D01*
X404Y2D01*
X405Y2D01*
X406Y2D01*
X407Y2D01*
X408Y2D01*
X409Y2D01*
X410Y2D01*
X411Y2D01*
X412Y2D01*
X413Y2D01*
X414Y2D01*
X415Y2D01*
X416Y2D01*
X417Y2D01*
X418Y2D01*
X419Y2D01*
X420Y2D01*
X421Y2D01*
X422Y2D01*
X423Y2D01*
X424Y2D01*
X425Y2D01*
X426Y2D01*
X427Y2D01*
X428Y2D01*
X429Y2D01*
X430Y2D01*
X431Y2D01*
X432Y2D01*
X433Y2D01*
X434Y2D01*
X435Y2D01*
X436Y2D01*
X437Y2D01*
X438Y2D01*
X439Y2D01*
X440Y2D01*
X441Y2D01*
X442Y2D01*
X443Y2D01*
X444Y2D01*
X445Y2D01*
X446Y2D01*
X447Y2D01*
X448Y2D01*
X449Y2D01*
X450Y2D01*
X451Y2D01*
X452Y2D01*
X453Y2D01*
X454Y2D01*
X455Y2D01*
X456Y2D01*
X457Y2D01*
X458Y2D01*
X459Y2D01*
X460Y2D01*
X461Y2D01*
X462Y2D01*
X463Y2D01*
X464Y2D01*
X465Y2D01*
X466Y2D01*
X467Y2D01*
X468Y2D01*
X469Y2D01*
X470Y2D01*
X471Y2D01*
X472Y2D01*
X473Y2D01*
X474Y2D01*
X475Y2D01*
X476Y2D01*
X477Y2D01*
X478Y2D01*
X479Y2D01*
X480Y2D01*
X481Y2D01*
X482Y2D01*
X483Y2D01*
X484Y2D01*
X485Y2D01*
X486Y2D01*
X487Y2D01*
X488Y2D01*
X489Y2D01*
X490Y2D01*
X491Y2D01*
X492Y2D01*
X493Y2D01*
X494Y2D01*
X495Y2D01*
X496Y2D01*
X497Y2D01*
X498Y2D01*
X499Y2D01*
X500Y2D01*
X501Y2D01*
X502Y2D01*
X503Y2D01*
X504Y2D01*
X505Y2D01*
X506Y2D01*
X507Y2D01*
X508Y2D01*
X509Y2D01*
X510Y2D01*
X511Y2D01*
X512Y2D01*
X513Y2D01*
X514Y2D01*
X515Y2D01*
X516Y2D01*
X517Y2D01*
X518Y2D01*
X519Y2D01*
X520Y2D01*
X521Y2D01*
X522Y2D01*
X523Y2D01*
X524Y2D01*
X525Y2D01*
X526Y2D01*
X527Y2D01*
X528Y2D01*
X529Y2D01*
X530Y2D01*
X531Y2D01*
X532Y2D01*
X533Y2D01*
X534Y2D01*
X535Y2D01*
X536Y2D01*
X537Y2D01*
X538Y2D01*
X539Y2D01*
X540Y2D01*
X541Y2D01*
X542Y2D01*
X543Y2D01*
X544Y2D01*
X545Y2D01*
X546Y2D01*
X547Y2D01*
X548Y2D01*
X549Y2D01*
X550Y2D01*
X551Y2D01*
X552Y2D01*
X553Y2D01*
X554Y2D01*
X555Y2D01*
X556Y2D01*
X557Y2D01*
X558Y2D01*
X559Y2D01*
X560Y2D01*
X561Y2D01*
X562Y2D01*
X563Y2D01*
X564Y2D01*
X565Y2D01*
X566Y2D01*
X567Y2D01*
X568Y2D01*
X569Y2D01*
X570Y2D01*
X571Y2D01*
X572Y2D01*
X573Y2D01*
X574Y2D01*
X575Y2D01*
X576Y2D01*
X577Y2D01*
X578Y2D01*
X579Y2D01*
X580Y2D01*
X581Y2D01*
X582Y2D01*
X583Y2D01*
X584Y2D01*
X585Y2D01*
X586Y2D01*
X587Y2D01*
X588Y2D01*
X589Y2D01*
X590Y2D01*
X591Y2D01*
X592Y2D01*
X593Y2D01*
X594Y2D01*
X595Y2D01*
X596Y2D01*
X597Y2D01*
X598Y2D01*
X599Y2D01*
X600Y2D01*
X601Y2D01*
X602Y2D01*
X603Y2D01*
X604Y2D01*
X605Y2D01*
X606Y2D01*
X607Y2D01*
X608Y2D01*
X609Y2D01*
X610Y2D01*
X611Y2D01*
X612Y2D01*
X613Y2D01*
X614Y2D01*
X615Y2D01*
X616Y2D01*
X617Y2D01*
X618Y2D01*
X619Y2D01*
X620Y2D01*
X621Y2D01*
X622Y2D01*
X623Y2D01*
X624Y2D01*
X625Y2D01*
X626Y2D01*
X627Y2D01*
X628Y2D01*
X629Y2D01*
X630Y2D01*
X631Y2D01*
X632Y2D01*
X633Y2D01*
X634Y2D01*
X635Y2D01*
X636Y2D01*
X637Y2D01*
X638Y2D01*
X639Y2D01*
X640Y2D01*
X641Y2D01*
X642Y2D01*
X643Y2D01*
X644Y2D01*
X645Y2D01*
X646Y2D01*
X647Y2D01*
X648Y2D01*
X649Y2D01*
X650Y2D01*
X651Y2D01*
X651Y134D01*
X650Y134D01*
X649Y134D01*
X648Y134D01*
X647Y134D01*
X646Y134D01*
X645Y134D01*
X644Y134D01*
X643Y134D01*
X642Y135D01*
X641Y136D01*
X640Y136D01*
X639Y137D01*
X638Y138D01*
X637Y139D01*
X636Y140D01*
X635Y141D01*
X634Y142D01*
X633Y143D01*
X632Y144D01*
X632Y145D01*
X631Y146D01*
X631Y148D01*
X630Y149D01*
X630Y160D01*
X631Y161D01*
X631Y164D01*
X632Y165D01*
X633Y166D01*
X633Y167D01*
X634Y168D01*
X635Y169D01*
X636Y170D01*
X637Y171D01*
X638Y172D01*
X639Y173D01*
X640Y174D01*
X641Y175D01*
X642Y175D01*
X643Y175D01*
X644Y175D01*
X645Y175D01*
X646Y175D01*
X647Y175D01*
X648Y175D01*
X649Y175D01*
X650Y175D01*
X651Y175D01*
X652Y175D01*
X653Y175D01*
X654Y175D01*
X655Y175D01*
X656Y175D01*
X657Y175D01*
X658Y175D01*
X659Y175D01*
X660Y175D01*
X661Y175D01*
X662Y175D01*
X663Y175D01*
X664Y175D01*
X665Y175D01*
X666Y175D01*
X667Y175D01*
X668Y175D01*
X669Y175D01*
X670Y175D01*
X671Y175D01*
X672Y175D01*
X673Y175D01*
X674Y175D01*
X675Y175D01*
X676Y175D01*
X677Y175D01*
X678Y175D01*
X679Y175D01*
X680Y175D01*
X681Y175D01*
X682Y175D01*
X683Y175D01*
X684Y175D01*
X685Y175D01*
X686Y175D01*
X687Y175D01*
X688Y175D01*
X689Y175D01*
X690Y175D01*
X691Y175D01*
X692Y175D01*
X693Y175D01*
X694Y175D01*
X695Y175D01*
X696Y175D01*
X697Y175D01*
X698Y175D01*
X699Y175D01*
X700Y175D01*
X701Y175D01*
X702Y175D01*
X703Y175D01*
X704Y175D01*
X705Y175D01*
X706Y175D01*
X707Y175D01*
X708Y175D01*
X709Y175D01*
X710Y175D01*
X711Y175D01*
X712Y175D01*
X713Y175D01*
X714Y175D01*
X715Y175D01*
X716Y175D01*
X717Y175D01*
X718Y175D01*
X719Y175D01*
X720Y175D01*
X721Y175D01*
X722Y175D01*
X723Y175D01*
X724Y175D01*
X725Y175D01*
X726Y175D01*
X727Y175D01*
X728Y175D01*
X729Y175D01*
X730Y175D01*
X731Y175D01*
X732Y175D01*
X733Y175D01*
X734Y175D01*
X735Y175D01*
X736Y175D01*
X737Y175D01*
X738Y175D01*
X739Y175D01*
X740Y175D01*
X741Y175D01*
X742Y175D01*
X743Y175D01*
X744Y175D01*
X745Y175D01*
X746Y175D01*
X747Y175D01*
X748Y175D01*
X749Y175D01*
X750Y175D01*
X751Y175D01*
X752Y175D01*
X753Y175D01*
X754Y175D01*
X755Y175D01*
X756Y175D01*
X757Y175D01*
X758Y175D01*
X759Y175D01*
X760Y175D01*
X761Y175D01*
X762Y175D01*
X763Y175D01*
X764Y175D01*
X765Y175D01*
X766Y175D01*
X767Y175D01*
X768Y175D01*
X769Y175D01*
X770Y175D01*
X771Y175D01*
X772Y175D01*
X773Y175D01*
X774Y175D01*
X775Y175D01*
X776Y175D01*
X777Y175D01*
X778Y175D01*
X779Y175D01*
X780Y175D01*
X781Y175D01*
X782Y175D01*
X783Y175D01*
X784Y175D01*
X785Y175D01*
X786Y175D01*
X787Y175D01*
X788Y175D01*
X789Y175D01*
X790Y175D01*
X791Y175D01*
X792Y175D01*
X793Y175D01*
X794Y175D01*
X795Y175D01*
X796Y175D01*
X797Y175D01*
X798Y175D01*
X799Y175D01*
X800Y175D01*
X801Y175D01*
X801Y1138D01*
X800Y1138D01*
X799Y1138D01*
X798Y1138D01*
X797Y1138D01*
X796Y1138D01*
X795Y1138D01*
X794Y1138D01*
X793Y1138D01*
X792Y1138D01*
X791Y1138D01*
X790Y1138D01*
X789Y1138D01*
X788Y1138D01*
X787Y1138D01*
X786Y1138D01*
X785Y1138D01*
X784Y1138D01*
X783Y1138D01*
X782Y1138D01*
X781Y1138D01*
X780Y1138D01*
X779Y1138D01*
X778Y1138D01*
X777Y1138D01*
X776Y1138D01*
X775Y1138D01*
X774Y1138D01*
X773Y1138D01*
X772Y1138D01*
X771Y1138D01*
X770Y1138D01*
X769Y1138D01*
X768Y1138D01*
X767Y1138D01*
X766Y1138D01*
X765Y1138D01*
X764Y1138D01*
X763Y1138D01*
X762Y1138D01*
X761Y1138D01*
X760Y1138D01*
X759Y1138D01*
X758Y1138D01*
X757Y1138D01*
X756Y1138D01*
X755Y1138D01*
X754Y1138D01*
X753Y1138D01*
X752Y1139D01*
X751Y1139D01*
X750Y1139D01*
X749Y1139D01*
X748Y1139D01*
X747Y1139D01*
X746Y1139D01*
X745Y1139D01*
X744Y1139D01*
X743Y1139D01*
X742Y1139D01*
X741Y1139D01*
X740Y1139D01*
X739Y1139D01*
X738Y1139D01*
X737Y1139D01*
X736Y1139D01*
X735Y1139D01*
X734Y1139D01*
X733Y1139D01*
X732Y1139D01*
X731Y1139D01*
X730Y1139D01*
X729Y1139D01*
X728Y1139D01*
X727Y1139D01*
X726Y1139D01*
X725Y1139D01*
X724Y1139D01*
X723Y1139D01*
X722Y1139D01*
X721Y1139D01*
X720Y1139D01*
X719Y1139D01*
X718Y1139D01*
X717Y1139D01*
X716Y1139D01*
X715Y1139D01*
X714Y1139D01*
X713Y1139D01*
X712Y1139D01*
X711Y1139D01*
X710Y1139D01*
X709Y1139D01*
X708Y1139D01*
X707Y1139D01*
X706Y1139D01*
X705Y1139D01*
X704Y1139D01*
X703Y1139D01*
X702Y1139D01*
X701Y1139D01*
X700Y1139D01*
X699Y1139D01*
X698Y1139D01*
X697Y1139D01*
X696Y1139D01*
X695Y1139D01*
X694Y1139D01*
X693Y1139D01*
X692Y1139D01*
X691Y1139D01*
X690Y1139D01*
X689Y1139D01*
X688Y1139D01*
X687Y1139D01*
X686Y1139D01*
X685Y1139D01*
X684Y1139D01*
X683Y1139D01*
X682Y1139D01*
X681Y1139D01*
X680Y1139D01*
X679Y1139D01*
X678Y1139D01*
X677Y1139D01*
X676Y1139D01*
X675Y1139D01*
X674Y1139D01*
X673Y1139D01*
X672Y1139D01*
X671Y1139D01*
X670Y1139D01*
X669Y1139D01*
X668Y1139D01*
X667Y1139D01*
X666Y1139D01*
X665Y1139D01*
X664Y1139D01*
X663Y1139D01*
X662Y1139D01*
X661Y1139D01*
X660Y1139D01*
X659Y1139D01*
X658Y1139D01*
X657Y1139D01*
X656Y1139D01*
X655Y1139D01*
X654Y1139D01*
X653Y1139D01*
X652Y1139D01*
X651Y1139D01*
X650Y1139D01*
X649Y1139D01*
X648Y1139D01*
X647Y1139D01*
X646Y1139D01*
X645Y1139D01*
X644Y1139D01*
X643Y1139D01*
X642Y1139D01*
X641Y1139D01*
X640Y1139D01*
X639Y1140D01*
X638Y1141D01*
X637Y1142D01*
X636Y1143D01*
X635Y1144D01*
X634Y1145D01*
X633Y1146D01*
X633Y1147D01*
X632Y1148D01*
X631Y1149D01*
X631Y1152D01*
X630Y1153D01*
X630Y1164D01*
X631Y1165D01*
X631Y1168D01*
X632Y1169D01*
X632Y1171D01*
X633Y1172D01*
X634Y1173D01*
X635Y1174D01*
X636Y1175D01*
X637Y1176D01*
X638Y1176D01*
X639Y1177D01*
X640Y1178D01*
X641Y1178D01*
X642Y1179D01*
X643Y1179D01*
X644Y1179D01*
X645Y1180D01*
X646Y1180D01*
X647Y1181D01*
X648Y1181D01*
X649Y1182D01*
X650Y1182D01*
X651Y1183D01*
X651Y1311D01*
X650Y1311D01*
X649Y1311D01*
X648Y1311D01*
X647Y1311D01*
X646Y1311D01*
X645Y1311D01*
X644Y1311D01*
X643Y1311D01*
X642Y1311D01*
X641Y1311D01*
X640Y1311D01*
X639Y1311D01*
X638Y1311D01*
X637Y1311D01*
X636Y1311D01*
X635Y1311D01*
X634Y1311D01*
X633Y1311D01*
X632Y1311D01*
X631Y1311D01*
X630Y1311D01*
X629Y1311D01*
X628Y1311D01*
X627Y1311D01*
X626Y1311D01*
X625Y1311D01*
X624Y1311D01*
X623Y1311D01*
X622Y1311D01*
X621Y1311D01*
X620Y1311D01*
X619Y1311D01*
X618Y1311D01*
X617Y1311D01*
X616Y1311D01*
X615Y1311D01*
X614Y1311D01*
X613Y1311D01*
X612Y1311D01*
X611Y1311D01*
X610Y1311D01*
X609Y1311D01*
X608Y1311D01*
X607Y1311D01*
X606Y1311D01*
X605Y1311D01*
X604Y1311D01*
X603Y1311D01*
X602Y1311D01*
X601Y1311D01*
X600Y1311D01*
X599Y1311D01*
X598Y1311D01*
X597Y1311D01*
X596Y1311D01*
X595Y1311D01*
X594Y1311D01*
X593Y1311D01*
X592Y1311D01*
X591Y1311D01*
X590Y1311D01*
X589Y1311D01*
X588Y1311D01*
X587Y1311D01*
X586Y1311D01*
X585Y1311D01*
X584Y1311D01*
X583Y1311D01*
X582Y1311D01*
X581Y1311D01*
X580Y1311D01*
X579Y1311D01*
X578Y1311D01*
X577Y1311D01*
X576Y1311D01*
X575Y1311D01*
X574Y1311D01*
X573Y1311D01*
X572Y1311D01*
X571Y1311D01*
X570Y1311D01*
X569Y1311D01*
X568Y1311D01*
X567Y1311D01*
X566Y1311D01*
X565Y1311D01*
X564Y1311D01*
X563Y1311D01*
X562Y1311D01*
X561Y1311D01*
X560Y1311D01*
X559Y1311D01*
X558Y1311D01*
X557Y1311D01*
X556Y1311D01*
X555Y1311D01*
X554Y1311D01*
X553Y1311D01*
X552Y1311D01*
X551Y1311D01*
X550Y1311D01*
X549Y1311D01*
X548Y1311D01*
X547Y1311D01*
X546Y1311D01*
X545Y1311D01*
X544Y1311D01*
X543Y1311D01*
X542Y1311D01*
X541Y1311D01*
X540Y1311D01*
X539Y1311D01*
X538Y1311D01*
X537Y1311D01*
X536Y1311D01*
X535Y1311D01*
X534Y1311D01*
X533Y1311D01*
X532Y1311D01*
X531Y1311D01*
X530Y1311D01*
X529Y1311D01*
X528Y1311D01*
X527Y1311D01*
X526Y1311D01*
X525Y1311D01*
X524Y1311D01*
X523Y1311D01*
X522Y1311D01*
X521Y1311D01*
X520Y1311D01*
X519Y1311D01*
X518Y1311D01*
X517Y1311D01*
X516Y1311D01*
X515Y1311D01*
X514Y1311D01*
X513Y1311D01*
X512Y1311D01*
X511Y1311D01*
X510Y1311D01*
X509Y1311D01*
X508Y1311D01*
X507Y1311D01*
X506Y1311D01*
X505Y1311D01*
X504Y1311D01*
X503Y1311D01*
X502Y1311D01*
X501Y1311D01*
X500Y1311D01*
X499Y1311D01*
X498Y1311D01*
X497Y1311D01*
X496Y1311D01*
X495Y1311D01*
X494Y1311D01*
X493Y1311D01*
X492Y1311D01*
X491Y1311D01*
X490Y1311D01*
X489Y1311D01*
X488Y1311D01*
X487Y1311D01*
X486Y1311D01*
X485Y1311D01*
X484Y1311D01*
X483Y1311D01*
X482Y1311D01*
X481Y1311D01*
X480Y1311D01*
X479Y1311D01*
X478Y1311D01*
X477Y1311D01*
X476Y1311D01*
X475Y1311D01*
X474Y1311D01*
X473Y1311D01*
X472Y1311D01*
X471Y1311D01*
X470Y1311D01*
X469Y1311D01*
X468Y1311D01*
X467Y1311D01*
X466Y1311D01*
X465Y1311D01*
X464Y1311D01*
X463Y1311D01*
X462Y1311D01*
X461Y1311D01*
X460Y1311D01*
X459Y1311D01*
X458Y1311D01*
X457Y1311D01*
X456Y1311D01*
X455Y1311D01*
X454Y1311D01*
X453Y1311D01*
X452Y1311D01*
X451Y1311D01*
X450Y1311D01*
X449Y1311D01*
X448Y1311D01*
X447Y1311D01*
X446Y1311D01*
X445Y1311D01*
X444Y1311D01*
X443Y1311D01*
X442Y1311D01*
X441Y1311D01*
X440Y1311D01*
X439Y1311D01*
X438Y1311D01*
X437Y1311D01*
X436Y1311D01*
X435Y1311D01*
X434Y1311D01*
X433Y1311D01*
X432Y1311D01*
X431Y1311D01*
X430Y1311D01*
X429Y1311D01*
X428Y1311D01*
X427Y1311D01*
X426Y1311D01*
X425Y1311D01*
X424Y1311D01*
X423Y1311D01*
X422Y1311D01*
X421Y1311D01*
X420Y1311D01*
X419Y1311D01*
X418Y1311D01*
X417Y1311D01*
X416Y1311D01*
X415Y1311D01*
X414Y1311D01*
X413Y1311D01*
X412Y1311D01*
X411Y1311D01*
X410Y1311D01*
X409Y1311D01*
X408Y1311D01*
X407Y1311D01*
X406Y1311D01*
X405Y1311D01*
X404Y1311D01*
X403Y1311D01*
X402Y1311D01*
X401Y1311D01*
X400Y1311D01*
X399Y1311D01*
X398Y1311D01*
X397Y1311D01*
X396Y1311D01*
X395Y1311D01*
X394Y1311D01*
X393Y1311D01*
X392Y1311D01*
X391Y1311D01*
X390Y1311D01*
X389Y1311D01*
X388Y1311D01*
X387Y1311D01*
X386Y1311D01*
X385Y1311D01*
X384Y1311D01*
X383Y1311D01*
X382Y1311D01*
X381Y1311D01*
X380Y1311D01*
X379Y1311D01*
X378Y1311D01*
X377Y1311D01*
X376Y1311D01*
X375Y1311D01*
X374Y1311D01*
X373Y1311D01*
X372Y1311D01*
X371Y1311D01*
X370Y1311D01*
X369Y1311D01*
X368Y1311D01*
X367Y1311D01*
X366Y1311D01*
X365Y1311D01*
X364Y1311D01*
X363Y1311D01*
X362Y1311D01*
X361Y1311D01*
X360Y1311D01*
X359Y1311D01*
X358Y1311D01*
X357Y1311D01*
X356Y1311D01*
X355Y1311D01*
X354Y1311D01*
X353Y1311D01*
X352Y1311D01*
X351Y1311D01*
X350Y1311D01*
X349Y1311D01*
X348Y1311D01*
X347Y1311D01*
X346Y1311D01*
X345Y1311D01*
X344Y1311D01*
X343Y1311D01*
X342Y1311D01*
X341Y1311D01*
X340Y1311D01*
X339Y1311D01*
X338Y1311D01*
X337Y1311D01*
X336Y1311D01*
X335Y1311D01*
X334Y1311D01*
X333Y1311D01*
X332Y1311D01*
X331Y1311D01*
X330Y1311D01*
X329Y1311D01*
X328Y1311D01*
X327Y1311D01*
X326Y1311D01*
X325Y1311D01*
X324Y1311D01*
X323Y1311D01*
X322Y1311D01*
X321Y1311D01*
X320Y1311D01*
X319Y1311D01*
X318Y1311D01*
X317Y1311D01*
X316Y1311D01*
X315Y1311D01*
X314Y1311D01*
X313Y1311D01*
X312Y1311D01*
X311Y1311D01*
X310Y1311D01*
X309Y1311D01*
X308Y1311D01*
X307Y1311D01*
X306Y1311D01*
X305Y1311D01*
X304Y1311D01*
X303Y1311D01*
X302Y1311D01*
X301Y1311D01*
X300Y1311D01*
X299Y1311D01*
X298Y1311D01*
X297Y1311D01*
X296Y1311D01*
X295Y1311D01*
X294Y1311D01*
X293Y1311D01*
X292Y1311D01*
X291Y1311D01*
X290Y1311D01*
X289Y1311D01*
X288Y1311D01*
X287Y1311D01*
X286Y1311D01*
X285Y1311D01*
X284Y1311D01*
X283Y1311D01*
X282Y1311D01*
X281Y1311D01*
X280Y1311D01*
X279Y1311D01*
X278Y1311D01*
X277Y1311D01*
X276Y1311D01*
X275Y1311D01*
X274Y1311D01*
X273Y1311D01*
X272Y1311D01*
X271Y1311D01*
X270Y1311D01*
X269Y1311D01*
X268Y1311D01*
X267Y1311D01*
X266Y1311D01*
X265Y1311D01*
X264Y1311D01*
X263Y1311D01*
X262Y1311D01*
X261Y1311D01*
X260Y1311D01*
X259Y1311D01*
X258Y1311D01*
X257Y1311D01*
X256Y1311D01*
X255Y1311D01*
X254Y1311D01*
X253Y1311D01*
X252Y1311D01*
X251Y1311D01*
X250Y1311D01*
X249Y1311D01*
X248Y1311D01*
X247Y1311D01*
X246Y1311D01*
X245Y1311D01*
X244Y1311D01*
X243Y1311D01*
X242Y1311D01*
X241Y1311D01*
X240Y1311D01*
X239Y1311D01*
X238Y1311D01*
X237Y1311D01*
X236Y1311D01*
X235Y1311D01*
X234Y1311D01*
X233Y1311D01*
X232Y1311D01*
X231Y1311D01*
X230Y1311D01*
X229Y1311D01*
X228Y1311D01*
X227Y1311D01*
X226Y1311D01*
X225Y1311D01*
X224Y1311D01*
X223Y1311D01*
X222Y1311D01*
X221Y1311D01*
X220Y1311D01*
X219Y1311D01*
X218Y1311D01*
X217Y1311D01*
X216Y1311D01*
X215Y1311D01*
X214Y1311D01*
X213Y1311D01*
X212Y1311D01*
X211Y1311D01*
X210Y1311D01*
X209Y1311D01*
X208Y1311D01*
X207Y1311D01*
X206Y1311D01*
X205Y1311D01*
X204Y1311D01*
X203Y1311D01*
X202Y1311D01*
X201Y1311D01*
X200Y1311D01*
X199Y1311D01*
X198Y1311D01*
X197Y1311D01*
X196Y1311D01*
X195Y1311D01*
X194Y1311D01*
X193Y1311D01*
X192Y1311D01*
X191Y1311D01*
X190Y1311D01*
X189Y1311D01*
X188Y1311D01*
X187Y1311D01*
X186Y1311D01*
X185Y1311D01*
X184Y1311D01*
X183Y1311D01*
X182Y1311D01*
X181Y1311D01*
X180Y1311D01*
X179Y1311D01*
X178Y1311D01*
X177Y1311D01*
X176Y1311D01*
X175Y1311D01*
X174Y1311D01*
X173Y1311D01*
X172Y1311D01*
X171Y1311D01*
X170Y1311D01*
X169Y1311D01*
X168Y1311D01*
X167Y1311D01*
X166Y1311D01*
X165Y1311D01*
X164Y1311D01*
X163Y1311D01*
X162Y1311D01*
X161Y1311D01*
X160Y1311D01*
X159Y1311D01*
X158Y1311D01*
X157Y1311D01*
X156Y1311D01*
X155Y1311D01*
X154Y1311D01*
X153Y1311D01*
X152Y1311D01*
X151Y1311D01*
X150Y1311D01*
D02*
G54D16*
X260Y1178D02*
X340Y1258D01*
X260Y1258D02*
X340Y1178D01*
X260Y1178D02*
X260Y1258D01*
X340Y1178D02*
X340Y1258D01*
D02*
X360Y1178D02*
X440Y1258D01*
X360Y1258D02*
X440Y1178D01*
X360Y1178D02*
X360Y1258D01*
X440Y1178D02*
X440Y1258D01*
D02*
X460Y1178D02*
X540Y1258D01*
X460Y1258D02*
X540Y1178D01*
X460Y1178D02*
X460Y1258D01*
X540Y1178D02*
X540Y1258D01*
D02*
X550Y1178D02*
X630Y1258D01*
X550Y1258D02*
X630Y1178D01*
X550Y1218D02*
X630Y1218D01*
D02*
X171Y1178D02*
X251Y1258D01*
X171Y1258D02*
X251Y1178D01*
X171Y1218D02*
X251Y1218D01*
D02*
X260Y87D02*
X340Y167D01*
X260Y167D02*
X340Y87D01*
X260Y87D02*
X260Y167D01*
X340Y87D02*
X340Y167D01*
D02*
X360Y87D02*
X440Y167D01*
X360Y167D02*
X440Y87D01*
X360Y87D02*
X360Y167D01*
X440Y87D02*
X440Y167D01*
D02*
X460Y87D02*
X540Y167D01*
X460Y167D02*
X540Y87D01*
X460Y87D02*
X460Y167D01*
X540Y87D02*
X540Y167D01*
D02*
X171Y54D02*
X251Y134D01*
X171Y134D02*
X251Y54D01*
X171Y94D02*
X251Y94D01*
D02*
X550Y54D02*
X630Y134D01*
X550Y134D02*
X630Y54D01*
X550Y94D02*
X630Y94D01*
D02*
G04 End of contour*
M02*