; NON-PLATED HOLES START AT T1
; THROUGH (PLATED) HOLES START AT T100
M48
INCH
T1C0.059055
T100C0.040000
T101C0.015748
T102C0.031497
T103C0.027559
T104C0.035000
T105C0.041000
T106C0.038000
T107C0.039370
%
T1
X005908Y012180
X002129Y000960
X005908Y000920
X002089Y012180
T100
X006696Y002810
X004556Y002810
X005626Y002810
T101
X004650Y008460
T102
X007404Y010133
X006420Y010133
T103
X005003Y012180
X004003Y012180
X003003Y012180
T104
X001184Y007511
X005515Y006598
X001578Y009897
X000578Y009897
X002515Y006598
X004959Y010256
X005515Y008598
X001184Y006511
X005515Y005598
X002515Y008598
X002515Y005598
X005515Y007598
X003959Y010256
X002515Y007598
T105
X001593Y004417
X002593Y002417
X000593Y002417
T106
X007378Y005747
X007378Y006747
X007378Y007754
T107
X005003Y001275
X004003Y001275
X003003Y001275
T00
M30
