G04 MADE WITH FRITZING*
G04 WWW.FRITZING.ORG*
G04 DOUBLE SIDED*
G04 HOLES PLATED*
G04 CONTOUR ON CENTER OF CONTOUR VECTOR*
%ASAXBY*%
%FSLAX23Y23*%
%MOIN*%
%OFA0B0*%
%SFA1.0B1.0*%
%ADD10C,0.085000*%
%ADD11C,0.109000*%
%ADD12C,0.072992*%
%ADD13C,0.084000*%
%ADD14C,0.089370*%
%ADD15C,0.069055*%
%ADD16C,0.049370*%
%ADD17R,0.085000X0.085000*%
%ADD18R,0.072992X0.072992*%
%ADD19C,0.039000*%
%LNMASK1*%
G90*
G70*
G54D10*
X552Y852D03*
X252Y852D03*
X552Y752D03*
X252Y752D03*
X552Y652D03*
X252Y652D03*
X552Y552D03*
X252Y552D03*
X552Y852D03*
X252Y852D03*
X552Y752D03*
X252Y752D03*
X552Y652D03*
X252Y652D03*
X552Y552D03*
X252Y552D03*
G54D11*
X259Y242D03*
X59Y242D03*
X159Y442D03*
G54D10*
X95Y652D03*
X95Y752D03*
X95Y652D03*
X95Y752D03*
X496Y1026D03*
X396Y1026D03*
X496Y1026D03*
X396Y1026D03*
X158Y990D03*
X58Y990D03*
X158Y990D03*
X58Y990D03*
G54D12*
X729Y1029D03*
X630Y1029D03*
G54D13*
X670Y281D03*
X563Y281D03*
X456Y281D03*
X670Y281D03*
X563Y281D03*
X456Y281D03*
G54D14*
X500Y128D03*
X400Y128D03*
X300Y128D03*
X500Y128D03*
X400Y128D03*
X300Y128D03*
X500Y1218D03*
X400Y1218D03*
X300Y1218D03*
X500Y1218D03*
X400Y1218D03*
X300Y1218D03*
G54D15*
X213Y96D03*
X591Y92D03*
X591Y1218D03*
X209Y1218D03*
G54D16*
X655Y926D03*
X725Y536D03*
G54D17*
X552Y852D03*
X552Y852D03*
X158Y990D03*
X158Y990D03*
G54D18*
X729Y1029D03*
G54D19*
G36*
X24Y277D02*
X94Y277D01*
X94Y207D01*
X24Y207D01*
X24Y277D01*
G37*
D02*
G04 End of Mask1*
M02*