G04 MADE WITH FRITZING*
G04 WWW.FRITZING.ORG*
G04 DOUBLE SIDED*
G04 HOLES PLATED*
G04 CONTOUR ON CENTER OF CONTOUR VECTOR*
%ASAXBY*%
%FSLAX23Y23*%
%MOIN*%
%OFA0B0*%
%SFA1.0B1.0*%
%ADD10C,0.075000*%
%ADD11C,0.099000*%
%ADD12C,0.062992*%
%ADD13C,0.074000*%
%ADD14C,0.078000*%
%ADD15C,0.079370*%
%ADD16C,0.039370*%
%ADD17R,0.075000X0.075000*%
%ADD18R,0.062992X0.062992*%
%ADD19C,0.008000*%
%ADD20C,0.029000*%
%LNCOPPER0*%
G90*
G70*
G54D10*
X552Y852D03*
X252Y852D03*
X552Y752D03*
X252Y752D03*
X552Y652D03*
X252Y652D03*
X552Y552D03*
X252Y552D03*
X552Y852D03*
X252Y852D03*
X552Y752D03*
X252Y752D03*
X552Y652D03*
X252Y652D03*
X552Y552D03*
X252Y552D03*
G54D11*
X259Y242D03*
X59Y242D03*
X159Y442D03*
G54D10*
X95Y652D03*
X95Y752D03*
X95Y652D03*
X95Y752D03*
X496Y1026D03*
X396Y1026D03*
X496Y1026D03*
X396Y1026D03*
X158Y990D03*
X58Y990D03*
X158Y990D03*
X58Y990D03*
G54D12*
X729Y1029D03*
X630Y1029D03*
G54D13*
X670Y281D03*
X563Y281D03*
X456Y281D03*
G54D14*
X729Y614D03*
X729Y815D03*
X729Y714D03*
G54D15*
X500Y128D03*
X400Y128D03*
X300Y128D03*
X500Y128D03*
X400Y128D03*
X300Y128D03*
X500Y1218D03*
X400Y1218D03*
X300Y1218D03*
X500Y1218D03*
X400Y1218D03*
X300Y1218D03*
G54D16*
X725Y536D03*
X655Y926D03*
G54D17*
X552Y852D03*
X552Y852D03*
X158Y990D03*
X158Y990D03*
G54D18*
X729Y1029D03*
G54D19*
X180Y982D02*
X277Y950D01*
D02*
X277Y950D02*
X513Y950D01*
D02*
X513Y950D02*
X613Y1017D01*
D02*
X706Y807D02*
X573Y760D01*
D02*
X543Y298D02*
X269Y537D01*
D02*
X36Y927D02*
X36Y683D01*
D02*
X50Y968D02*
X36Y927D01*
D02*
X36Y683D02*
X75Y663D01*
D02*
X331Y317D02*
X76Y367D01*
D02*
X392Y151D02*
X331Y317D01*
D02*
X76Y367D02*
X94Y629D01*
D02*
X713Y695D02*
X675Y646D01*
X675Y646D02*
X670Y307D01*
D02*
X493Y152D02*
X463Y257D01*
D02*
X728Y590D02*
X726Y549D01*
D02*
X635Y1008D02*
X652Y939D01*
D02*
X515Y1197D02*
X618Y1047D01*
D02*
X351Y809D02*
X273Y843D01*
D02*
X477Y455D02*
X351Y809D01*
D02*
X651Y298D02*
X477Y455D01*
G54D20*
X24Y277D02*
X94Y277D01*
X94Y207D01*
X24Y207D01*
X24Y277D01*
D02*
G04 End of Copper0*
M02*